<?xml version="1.0" encoding="UTF-8"?> <svg xmlns="http://www.w3.org/2000/svg" width="731" height="463" viewBox="0 0 731 463" fill="none"><g clip-path="url(#clip0)"><path d="M291.962 351.451H209.11V385.844H291.962V351.451Z" fill="#F6A505"></path><path d="M408.233 351.451H341.015V385.844H408.233V351.451Z" fill="#FFD147"></path><path d="M356.428 351.451H291.942V385.844H356.428V351.451Z" fill="#FBBB00"></path><path d="M409.56 387.171H207.765V350.103H409.56V387.171ZM210.437 384.496H406.887V352.799H210.437V384.496Z" fill="#F39642"></path><path d="M314.448 317.058H231.596V351.451H314.448V317.058Z" fill="#F6A505"></path><path d="M430.718 317.058H363.5V351.451H430.718V317.058Z" fill="#FFD147"></path><path d="M378.933 317.058H314.448V351.451H378.933V317.058Z" fill="#FBBB00"></path><path d="M432.065 352.799H230.25V315.731H432.045V352.799H432.065ZM232.943 350.103H429.392V318.406H232.943V350.103Z" fill="#F39642"></path><path d="M275.484 282.685H192.632V317.078H275.484V282.685Z" fill="#F6A505"></path><path d="M391.754 282.685H324.536V317.078H391.754V282.685Z" fill="#FFD147"></path><path d="M339.949 282.685H275.464V317.078H339.949V282.685Z" fill="#FBBB00"></path><path d="M393.081 318.406H191.286V281.338H393.081V318.406ZM193.959 315.731H390.408V284.033H193.959V315.731Z" fill="#F39642"></path><path d="M289.711 248.292H206.859V282.685H289.711V248.292Z" fill="#F6A505"></path><path d="M406.002 248.292H338.784V282.685H406.002V248.292Z" fill="#FFD147"></path><path d="M354.197 248.292H289.712V282.685H354.197V248.292Z" fill="#FBBB00"></path><path d="M407.328 284.013H205.533V246.945H407.328V284.013ZM208.206 281.338H404.656V249.64H208.206V281.338Z" fill="#F39642"></path><path d="M307.477 213.9H224.625V248.292H307.477V213.9Z" fill="#F6A505"></path><path d="M423.747 213.9H356.529V248.292H423.747V213.9Z" fill="#FFD147"></path><path d="M371.963 213.9H307.478V248.292H371.963V213.9Z" fill="#FBBB00"></path><path d="M425.093 249.62H223.298V212.552H425.093V249.62ZM225.971 246.945H422.42V215.247H225.971V246.945Z" fill="#F39642"></path><path d="M462.147 187.331H401.762V212.391H462.147V187.331Z" fill="#F6A505"></path><path d="M546.888 187.331H497.896V212.391H546.888V187.331Z" fill="#FFD147"></path><path d="M509.13 187.331H462.127V212.391H509.13V187.331Z" fill="#FBBB00"></path><path d="M547.853 213.377H400.777V186.345H547.853V213.377ZM402.727 211.406H545.904V188.296H402.727V211.406Z" fill="#F39642"></path><path d="M472.917 162.27H412.531V187.331H472.917V162.27Z" fill="#F6A505"></path><path d="M557.658 162.27H508.666V187.331H557.658V162.27Z" fill="#FFD147"></path><path d="M519.899 162.27H472.896V187.331H519.899V162.27Z" fill="#FBBB00"></path><path d="M558.623 188.296H411.547V161.285H558.623V188.296ZM413.496 186.345H556.674V163.235H413.496V186.345Z" fill="#F39642"></path><path d="M450.13 137.209H389.744V162.27H450.13V137.209Z" fill="#F6A505"></path><path d="M534.871 137.209H485.879V162.27H534.871V137.209Z" fill="#FFD147"></path><path d="M497.132 137.209H450.13V162.27H497.132V137.209Z" fill="#FBBB00"></path><path d="M535.836 163.235H388.76V136.224H535.836V163.235ZM390.729 161.285H533.887V138.175H390.729V161.285Z" fill="#F39642"></path><path d="M460.52 112.149H400.134V137.21H460.52V112.149Z" fill="#F6A505"></path><path d="M545.26 112.149H496.269V137.21H545.26V112.149Z" fill="#FFD147"></path><path d="M507.501 112.149H460.499V137.21H507.501V112.149Z" fill="#FBBB00"></path><path d="M546.225 138.175H399.149V111.163H546.225V138.175ZM401.099 136.224H544.256V113.114H401.099V136.224Z" fill="#F39642"></path><path d="M473.46 87.0884H413.074V112.149H473.46V87.0884Z" fill="#F6A505"></path><path d="M558.201 87.0884H509.209V112.149H558.201V87.0884Z" fill="#FFD147"></path><path d="M520.442 87.0884H473.439V112.149H520.442V87.0884Z" fill="#FBBB00"></path><path d="M559.166 113.114H412.09V86.1029H559.166V113.114ZM414.039 111.163H557.197V88.0538H414.039V111.163Z" fill="#F39642"></path><path d="M344.235 204.734H283.85V229.794H344.235V204.734Z" fill="#F6A505"></path><path d="M428.976 204.734H379.984V229.794H428.976V204.734Z" fill="#FFD147"></path><path d="M391.217 204.734H344.215V229.794H391.217V204.734Z" fill="#FBBB00"></path><path d="M429.941 230.78H282.865V203.748H429.941V230.78ZM284.814 228.809H427.992V205.699H284.814V228.809Z" fill="#F39642"></path><path d="M355.005 179.673H294.619V204.734H355.005V179.673Z" fill="#F6A505"></path><path d="M439.746 179.673H390.754V204.734H439.746V179.673Z" fill="#FFD147"></path><path d="M401.987 179.673H354.984V204.734H401.987V179.673Z" fill="#FBBB00"></path><path d="M440.711 205.699H293.635V178.688H440.711V205.699ZM295.584 203.748H438.762V180.639H295.584V203.748Z" fill="#F39642"></path><path d="M332.218 154.613H271.832V179.673H332.218V154.613Z" fill="#F6A505"></path><path d="M416.959 154.613H367.967V179.673H416.959V154.613Z" fill="#FFD147"></path><path d="M379.22 154.613H332.218V179.673H379.22V154.613Z" fill="#FBBB00"></path><path d="M417.924 180.639H270.848V153.627H417.924V180.639ZM272.817 178.688H415.974V155.578H272.817V178.688Z" fill="#F39642"></path><path d="M342.607 129.552H282.222V154.613H342.607V129.552Z" fill="#F6A505"></path><path d="M427.348 129.552H378.356V154.613H427.348V129.552Z" fill="#FFD147"></path><path d="M389.589 129.552H342.587V154.613H389.589V129.552Z" fill="#FBBB00"></path><path d="M428.313 155.578H281.237V128.567H428.313V155.578ZM283.187 153.627H426.344V130.518H283.187V153.627Z" fill="#F39642"></path><path d="M355.548 104.492H295.162V129.552H355.548V104.492Z" fill="#F6A505"></path><path d="M440.289 104.492H391.297V129.552H440.289V104.492Z" fill="#FFD147"></path><path d="M402.53 104.492H355.527V129.552H402.53V104.492Z" fill="#FBBB00"></path><path d="M441.254 130.518H294.178V103.506H441.254V130.518ZM296.127 128.567H439.285V105.457H296.127V128.567Z" fill="#F39642"></path><path d="M176.436 213.9H116.05V238.96H176.436V213.9Z" fill="#F6A505"></path><path d="M261.176 213.9H212.185V238.96H261.176V213.9Z" fill="#FFD147"></path><path d="M223.417 213.9H176.415V238.96H223.417V213.9Z" fill="#FBBB00"></path><path d="M262.141 239.946H115.065V212.934H262.141V239.946ZM117.015 237.995H260.192V214.885H117.015V237.995Z" fill="#F39642"></path><path d="M310.27 188.839H246.086V213.9H310.27V188.839Z" fill="#F6A505"></path><path d="M400.377 188.839H348.29V213.9H400.377V188.839Z" fill="#FFD147"></path><path d="M360.246 188.839H310.29V213.9H360.246V188.839Z" fill="#FBBB00"></path><path d="M401.4 214.885H245.061V187.854H401.421V214.885H401.4ZM247.13 212.934H399.331V189.825H247.13V212.934Z" fill="#F39642"></path><path d="M630.163 309.254H569.777V334.315H630.163V309.254Z" fill="#F6A505"></path><path d="M714.905 309.254H665.913V334.315H714.905V309.254Z" fill="#FFD147"></path><path d="M677.145 309.254H630.143V334.315H677.145V309.254Z" fill="#FBBB00"></path><path d="M715.869 335.28H568.793V308.269H715.869V335.28ZM570.742 333.329H713.9V310.22H570.742V333.329Z" fill="#F39642"></path><path d="M640.533 284.194H580.147V309.254H640.533V284.194Z" fill="#F6A505"></path><path d="M725.274 284.194H676.282V309.254H725.274V284.194Z" fill="#FFD147"></path><path d="M687.536 284.194H640.533V309.254H687.536V284.194Z" fill="#FBBB00"></path><path d="M726.259 310.22H579.183V283.208H726.259V310.22ZM581.132 308.269H724.289V285.159H581.132V308.269Z" fill="#F39642"></path><path d="M602.171 259.133H541.785V284.194H602.171V259.133Z" fill="#F6A505"></path><path d="M686.912 259.133H637.92V284.194H686.912V259.133Z" fill="#FFD147"></path><path d="M649.153 259.133H602.15V284.194H649.153V259.133Z" fill="#FBBB00"></path><path d="M687.877 285.159H540.801V258.148H687.877V285.159ZM542.75 283.208H685.907V260.099H542.75V283.208Z" fill="#F39642"></path><path d="M479.549 179.426H399.832V212.512H479.549V179.426Z" fill="#F6A505"></path><path d="M591.398 179.426H526.732V212.512H591.398V179.426Z" fill="#FFD147"></path><path d="M541.563 179.426H479.529V212.512H541.563V179.426Z" fill="#FBBB00"></path><path d="M592.706 213.799H398.547V178.139H592.706V213.799ZM401.119 211.225H590.113V180.713H401.099V211.225H401.119Z" fill="#F39642"></path><path d="M501.191 212.512H421.474V245.597H501.191V212.512Z" fill="#F6A505"></path><path d="M613.04 212.512H548.374V245.597H613.04V212.512Z" fill="#FFD147"></path><path d="M563.204 212.512H501.171V245.597H563.204V212.512Z" fill="#FBBB00"></path><path d="M614.347 246.885H420.188V211.225H614.347V246.885ZM422.761 244.31H611.775V213.799H422.761V244.31Z" fill="#F39642"></path><path d="M463.695 245.597H383.978V278.683H463.695V245.597Z" fill="#F6A505"></path><path d="M575.544 245.597H510.878V278.683H575.544V245.597Z" fill="#FFD147"></path><path d="M525.708 245.597H463.675V278.683H525.708V245.597Z" fill="#FBBB00"></path><path d="M576.85 279.97H382.691V244.31H576.85V279.97ZM385.264 277.396H574.278V246.885H385.264V277.396Z" fill="#F39642"></path><path d="M477.399 278.683H397.682V311.769H477.399V278.683Z" fill="#F6A505"></path><path d="M589.248 278.683H524.582V311.769H589.248V278.683Z" fill="#FFD147"></path><path d="M539.412 278.683H477.379V311.769H539.412V278.683Z" fill="#FBBB00"></path><path d="M590.554 313.056H396.396V277.396H590.554V313.056ZM398.968 310.481H587.982V279.97H398.968V310.481Z" fill="#F39642"></path><path d="M494.479 311.768H414.762V344.854H494.479V311.768Z" fill="#F6A505"></path><path d="M606.349 311.768H541.683V344.854H606.349V311.768Z" fill="#FFD147"></path><path d="M556.512 311.768H494.479V344.854H556.512V311.768Z" fill="#FBBB00"></path><path d="M607.635 346.141H413.477V310.481H607.635V346.141ZM416.049 343.567H605.063V313.056H416.049V343.567Z" fill="#F39642"></path><path d="M549.14 230.915L586.476 225.766L549.541 218.666L544.397 181.277L537.303 218.264L499.967 223.413L536.902 230.513L542.046 267.882L549.14 230.915Z" fill="white"></path><path d="M663.381 282.585H651.826V301.189H663.381V282.585Z" fill="#394C5A"></path><path d="M709.036 364.565H535.856V462.373H709.036V364.565Z" fill="#60CC8C"></path><path d="M676.382 294.934H622.306H568.25L513.611 364.565H622.306H731L676.382 294.934Z" fill="#2A3D4B"></path><path d="M601.186 430.535V395.156C601.186 386.709 595.74 379.79 589.069 379.79H588.506C581.855 379.79 576.389 386.709 576.389 395.156V430.535H601.186Z" fill="white"></path><path d="M601.186 403.202H590.496V379.811H587.1V403.202H576.409V406.299H587.1V430.535H590.496V406.299H601.186V403.202Z" fill="#4DA370"></path><path d="M664.225 430.253V394.875C664.225 386.427 659.06 379.508 652.75 379.508H652.208C645.898 379.508 640.733 386.427 640.733 394.875V430.253H664.225Z" fill="white"></path><path d="M664.225 402.9H654.097V379.508H650.881V402.9H640.733V405.997H650.881V430.253H654.097V405.997H664.225V402.9Z" fill="#4DA370"></path><path d="M496.912 256.659H483.689V277.959H496.912V256.659Z" fill="#2A3D4B"></path><path d="M549.18 350.506H350.901V462.474H549.18V350.506Z" fill="#4DA370"></path><path d="M511.782 270.799H449.889H387.976L325.44 350.506H449.889H574.318L511.782 270.799Z" fill="#394C5A"></path><path d="M485.197 326.773L450.673 290.489L416.13 327.054V462.474H485.197V326.773Z" fill="#60CC8C"></path><path d="M461.163 415.028H440.847V462.454H461.163V415.028Z" fill="#4DA370"></path><path d="M457.626 435.683C457.626 436.749 456.762 437.614 455.697 437.614C454.632 437.614 453.768 436.749 453.768 435.683C453.768 434.618 454.632 433.753 455.697 433.753C456.762 433.753 457.626 434.618 457.626 435.683Z" fill="white"></path><path d="M397.341 424.702V384.215C397.341 374.541 391.112 366.636 383.475 366.636H382.832C375.216 366.636 368.967 374.561 368.967 384.215V424.702H397.341Z" fill="white"></path><path d="M397.341 393.406H385.083V366.636H381.205V393.406H368.967V396.966H381.205V424.702H385.083V396.966H397.341V393.406Z" fill="#4DA370"></path><path d="M531.455 424.702V384.215C531.455 374.541 525.226 366.636 517.59 366.636H516.947C509.331 366.636 503.081 374.561 503.081 384.215V424.702H531.455Z" fill="white"></path><path d="M531.455 393.406H519.197V366.636H515.319V393.406H503.081V396.966H515.319V424.702H519.197V396.966H531.455V393.406Z" fill="#4DA370"></path><path d="M460.58 354.669V332.545C460.58 327.255 456.762 322.931 452.1 322.931H451.698C447.036 322.931 443.218 327.255 443.218 332.545V354.669H460.58Z" fill="white"></path><path d="M460.58 337.573H453.085V322.951H450.734V337.573H443.238V339.504H450.734V354.669H453.085V339.504H460.58V337.573Z" fill="#4DA370"></path><path d="M492.109 329.146L450.191 284.797L408.272 329.146L412.312 332.183L450.191 291.776L488.07 332.183L492.109 329.146Z" fill="#4DA370"></path><path d="M267.607 212.572H251.531V238.477H267.607V212.572Z" fill="#2A3D4B"></path><path d="M331.228 326.732H89.9863V462.956H331.228V326.732Z" fill="#4DA370"></path><path d="M285.733 229.769H210.417H135.1L59 326.732H210.417H361.813L285.733 229.769Z" fill="#2A3D4B"></path><path d="M255.127 270.598L211.4 219.169L167.653 270.98V462.977H255.127V270.598Z" fill="#60CC8C"></path><path d="M372.403 414.283H330.826V462.956H372.403V414.283Z" fill="#60CC8C"></path><path d="M330.826 366.395L382.611 414.283H330.826V366.395Z" fill="#00666B"></path><path d="M146.474 417.039V367.763C146.474 355.997 138.878 346.362 129.614 346.362H128.83C119.547 346.362 111.971 355.997 111.971 367.763V417.039H146.474Z" fill="white"></path><path d="M146.475 378.945H131.564V346.362H126.862V378.945H111.951V383.269H126.862V417.039H131.564V383.269H146.475V378.945Z" fill="#4DA370"></path><path d="M309.647 417.039V367.763C309.647 355.997 302.051 346.362 292.787 346.362H292.003C282.719 346.362 275.144 355.997 275.144 367.763V417.039H309.647Z" fill="white"></path><path d="M309.647 378.945H294.756V346.362H290.034V378.945H275.144V383.269H290.034V417.039H294.756V383.269H309.647V378.945Z" fill="#4DA370"></path><path d="M223.94 310.139V278.784C223.94 271.302 219.118 265.167 213.21 265.167H212.707C206.799 265.167 201.977 271.302 201.977 278.784V310.139H223.94Z" fill="white"></path><path d="M223.94 285.903H214.456V265.167H211.461V285.903H201.977V288.659H211.461V310.139H214.456V288.659H223.94V285.903Z" fill="#4DA370"></path><path d="M263.869 273.956L210.798 211.084L157.707 273.956L162.811 278.24L210.798 220.959L258.765 278.24L263.869 273.956Z" fill="#4DA370"></path><path d="M451.155 61.2435H390.77V86.304H451.155V61.2435Z" fill="#F6A505"></path><path d="M535.896 61.2435H486.904V86.304H535.896V61.2435Z" fill="#FFD147"></path><path d="M498.158 61.2435H451.155V86.304H498.158V61.2435Z" fill="#FBBB00"></path><path d="M536.881 87.2895H389.805V60.278H536.881V87.2895ZM391.754 85.3386H534.911V62.229H391.754V85.3386Z" fill="#F39642"></path><path d="M343.306 116.976L371.861 113.034L343.607 107.604L339.668 79.0232L334.243 107.302L305.688 111.244L333.941 116.674L337.88 145.255L343.306 116.976Z" fill="white"></path><path d="M259.705 448.211C259.705 448.211 253.12 454.321 238.147 458.145C234.845 458.99 231.294 457.856 231.294 463.313C238.301 463.313 249.492 463.313 249.492 463.313L264.619 460.7V463.313H272.797C272.797 463.313 275.081 449.941 270.301 448.211C265.848 448.211 259.705 448.211 259.705 448.211Z" fill="#222C53"></path><path d="M260.627 438.604L259.705 448.211C262.681 450.286 266.597 450.421 269.726 448.538L270.282 448.211L273.68 438.604H260.627Z" fill="#F7B58E"></path><path d="M332.423 448.211C332.423 448.211 325.838 454.321 310.865 458.145C307.563 458.99 304.012 457.856 304.012 463.313C311.018 463.313 322.21 463.313 322.21 463.313L337.337 460.7V463.313H345.515C345.515 463.313 347.799 449.941 343.019 448.211C338.565 448.211 332.423 448.211 332.423 448.211Z" fill="#222C53"></path><path d="M333.344 438.604L332.423 448.211C335.398 450.286 339.314 450.421 342.443 448.538L343 448.211L346.398 438.604H333.344Z" fill="#F7B58E"></path><path d="M288.673 198.11H267.749L260.396 440.91H274.544L316.085 243.3L288.673 198.11Z" fill="#222C53"></path><path d="M281.897 198.11L330.81 440.91H346.379L340.005 198.11H281.897Z" fill="#063C5C"></path><path d="M324.399 251.485L329.083 251.158C329.083 251.139 328.91 247.834 331.271 245.433C333.095 243.588 336.013 242.647 339.948 242.647C344.267 242.647 347.492 243.607 349.316 245.413C351.101 247.2 351.025 249.275 351.025 249.371L355.728 249.64C355.747 249.237 355.901 245.567 352.81 242.397C350.065 239.572 345.746 238.151 339.967 238.151C334.65 238.151 330.561 239.592 327.816 242.416C324.034 246.278 324.38 251.273 324.399 251.485Z" fill="#222C53"></path><path d="M304.371 302.067L374.419 302.067L374.419 256.954L304.371 256.954L304.371 302.067Z" fill="#222C53"></path><path d="M336.837 287.356C336.837 290.104 338.143 290.43 339.755 290.43C341.368 290.43 342.673 290.123 342.673 287.356V277.788C362.849 275.694 374.405 272.101 374.405 272.101V273.311V307.684C374.405 310.854 373.176 313.448 371.314 313.448H307.467C305.605 313.448 304.376 310.874 304.376 307.684V272.216C319.004 275.617 319.944 275.694 336.837 277.711V287.356Z" fill="#FF6584"></path><path d="M318.485 275.252C321.73 281.611 325.108 287.837 329.351 293.639C334.438 300.594 340.139 307.146 346.128 313.429H307.467C305.605 313.429 304.376 310.854 304.376 307.665V272.197C310.941 273.734 314.761 274.599 318.485 275.252Z" fill="#FF7792"></path><path d="M307.468 247.277H371.335C373.197 247.277 374.426 249.852 374.426 253.022V270.276C363.253 274.003 352.388 275.444 342.694 275.675V273.33C342.694 270.583 341.388 270.276 339.776 270.276C338.163 270.276 336.858 270.583 336.858 273.33V275.655C317.738 275.156 304.397 270.256 304.397 270.256V253.003C304.378 249.852 305.606 247.277 307.468 247.277Z" fill="#FF97AC"></path><path d="M335.915 283.225V280.267C335.915 279.575 336.491 278.998 337.182 278.998H342.25C342.941 278.998 343.517 279.575 343.517 280.267V283.225C343.517 283.917 342.941 284.493 342.25 284.493H337.182C336.491 284.493 335.915 283.917 335.915 283.225ZM337.182 279.344C336.683 279.344 336.28 279.748 336.28 280.247V283.206C336.28 283.706 336.683 284.109 337.182 284.109H342.25C342.749 284.109 343.152 283.706 343.152 283.206V280.247C343.152 279.748 342.749 279.344 342.25 279.344H337.182Z" fill="white"></path><path d="M339.39 281.4C339.39 281.573 339.543 281.707 339.716 281.707C339.889 281.707 340.042 281.573 340.042 281.4V277.269C340.042 277.096 339.889 276.962 339.716 276.962C339.543 276.962 339.39 277.096 339.39 277.269V281.4Z" fill="white"></path><path d="M167.063 162.008C166.334 162.584 163.665 164.332 157.177 164.87C151.36 165.351 138.959 162.815 141.321 168.579C146.888 171.595 153.088 175.803 153.088 175.803C156.639 177.302 162.936 175.745 166.679 174.035L177.544 167.407C177.544 167.407 178.485 161.297 178.581 161.009L176.086 159.99C173.168 161.143 170.135 161.796 167.063 162.008Z" fill="#F7B58E"></path><path d="M165.067 164.582C165.067 164.582 164.875 164.87 164.414 165.274C165.182 165.581 165.931 165.927 166.66 166.311C169.712 166.388 172.745 166.561 175.798 166.676C175.606 164.909 175.356 162.45 175.356 162.277L155.584 157.55C155.584 157.55 153.971 159.644 157.599 161.892C161.208 164.14 165.067 164.582 165.067 164.582Z" fill="#F7B58E"></path><path d="M336.703 226.373L330.118 240.86C330.118 240.86 331.539 248.814 334.437 251.927C335.32 252.868 336.703 253.118 337.893 252.618C340.638 251.485 346.953 248.737 348.009 247.239C348.528 246.489 348.604 245.529 348.336 244.664L346.416 238.285L346.186 223.414L336.703 226.373Z" fill="#F7B58E"></path><path d="M297.946 52.1836L297.716 71.5892L314.993 70.6669L316.087 40.5787L297.946 52.1836Z" fill="#F39D83"></path><path d="M295.046 53.9704C292.627 53.9128 290.401 53.5477 289.23 52.5871C282.261 42.4424 290.19 15.1208 290.19 15.1208L301.324 10.4327L315.471 19.2517L316.278 37.5621C316.489 42.4424 314.147 47.1304 309.962 50.1854C305.489 52.7216 300.306 54.1241 295.046 53.9704Z" fill="#F7B58E"></path><path d="M311.556 29.6462C310.788 26.5721 312.881 19.4823 309.752 19.9818C307.467 20.3469 299.654 20.6735 297.005 20.6735C290.728 20.6735 279.556 18.2142 279.556 8.66511C279.556 3.88096 282.493 1.46006 285.411 0.249617C288.29 -0.96083 291.534 2.49759 294.491 3.53512C301.401 5.95601 315.664 7.91579 319.312 7.14725C323.458 6.28264 327.797 10.5096 328.104 13.0458C328.795 18.5793 325.109 27.0332 322.364 32.3553C320.771 35.4487 318.659 38.2154 316.106 40.5594L311.556 29.6462Z" fill="#222C53"></path><path d="M319.6 30.3379C318.199 29.1082 315.588 29.3388 313.764 30.8567C311.941 32.3745 311.576 34.6225 312.977 35.8521C314.379 37.0818 316.989 36.8512 318.813 35.3334C320.656 33.8155 321.001 31.5676 319.6 30.3379Z" fill="#F7B58E"></path><path d="M306.91 65.4985C314.8 65.4985 321.538 67.1701 327.182 69.6486C341.118 75.7969 351.005 88.5739 354.498 103.426C359.989 126.789 369.203 182.22 348.087 230.83C341.867 231.387 333.939 230.83 333.939 230.83L331.674 116.28L333.267 198.11H267.73V145.33C267.73 145.33 266.041 157.243 250.184 168.252C234.347 179.261 174.953 171.941 174.953 171.941V159.529C174.953 159.529 226.995 148.577 235.48 142.141C243.965 135.704 262.297 89.2655 262.297 89.2655C268.037 77.9296 278.518 69.5718 290.958 66.9972C295.488 66.0749 300.767 65.4985 306.91 65.4985Z" fill="url(#paint0_linear)"></path><path d="M332.365 198.571L330.829 119.7L332.518 119.661L334.073 198.571H332.365Z" fill="white"></path><path d="M315.318 59.965L316.393 66.3439L296.524 66.3055L297.83 59.965H315.318Z" fill="white"></path><path d="M138.191 61.7327C88.5869 80.6579 93.7892 93.9536 88.8557 111.169C83.9222 128.384 82.0601 159.683 138.21 165.024C194.36 170.365 206.742 140.431 204.208 111.169C201.693 82.195 177.102 61.7327 177.102 61.7327C177.102 61.7327 154.892 69.956 138.191 61.7327Z" fill="#FFD147"></path><path d="M138.19 61.7327C140.129 58.8314 139.822 54.9887 137.442 52.4333L131.184 45.6702C131.184 45.6702 141.876 30.8566 157.924 41.5585C170.172 49.7243 181.44 44.2292 186.105 41.1743C186.719 40.7708 187.468 41.424 187.161 42.0965C185.088 46.554 182.342 50.6273 179.213 54.4315C177.236 56.8524 175.854 59.4463 177.063 61.7327L157.502 68.7264L138.19 61.7327Z" fill="#FFDA71"></path><path d="M136.214 62.5012C136.214 62.5012 143.24 71.032 159.231 71.032C175.221 71.032 180.097 63.654 180.097 63.654L176.68 59.2349C176.68 59.2349 172.61 65.1334 159.231 65.8251C148.423 66.3823 139.266 59.2349 139.266 59.2349L136.214 62.5012Z" fill="#F6A505"></path><path d="M126.75 113.667C126.75 100.717 137.231 90.2262 150.17 90.2262C163.108 90.2262 173.59 100.717 173.59 113.667C173.59 126.616 163.108 137.107 150.17 137.107C137.25 137.107 126.75 126.616 126.75 113.667Z" fill="#F6A505"></path><path d="M151.801 95.7213V99.9867C157.272 100.717 160.19 104.214 160.19 107.634C160.19 111.496 157.425 113.763 151.954 115.588C147.328 117.144 145.37 118.278 145.37 120.545C145.37 122.293 146.906 123.504 150.995 123.504C154.392 123.504 156.312 122.812 157.425 122.293L159.019 125.675C157.483 126.424 155.295 127.116 152.108 127.193V131.42H148.806V127.02C143.911 126.367 140.782 123.619 140.782 120.007C140.782 116.222 144.122 114.224 149.555 112.475C153.49 111.169 155.563 109.689 155.563 107.307C155.563 104.828 153.01 103.311 149.248 103.311C146.272 103.311 143.777 104.137 141.857 105.174L140.321 102.004C142.183 100.909 145.37 99.8714 148.461 99.8329V95.7021H151.801V95.7213Z" fill="#FFD147"></path><path d="M152.166 95.7213H148.327V131.439H152.166V95.7213Z" fill="#FFD147"></path></g><defs><linearGradient id="paint0_linear" x1="268.125" y1="65.4985" x2="268.125" y2="231.078" gradientUnits="userSpaceOnUse"><stop stop-color="#60CC8C"></stop><stop offset="1" stop-color="#72ECA4"></stop></linearGradient><clipPath id="clip0"><rect width="731" height="463" fill="white"></rect></clipPath></defs></svg> 