<?xml version="1.0" encoding="UTF-8"?> <svg xmlns="http://www.w3.org/2000/svg" width="129" height="100" viewBox="0 0 129 100" fill="none"><g clip-path="url(#clip0)"><path d="M127.181 55.5673C126.999 51.7342 125.57 48.0315 123.232 44.9806C117.958 38.0967 116.918 32.6208 116.918 32.6208C112.787 21.7212 109.098 14.4722 106.396 9.88286C103.538 5.05887 98.6271 1.79941 93.067 1.0693C81.8948 -0.390938 47.0271 -0.390938 35.8549 1.0693C30.3208 1.79941 25.3842 5.05887 22.5522 9.88286C19.8501 14.4982 16.1606 21.7473 12.0295 32.6208C12.0295 32.6208 10.9903 38.0967 5.71593 44.9806C3.37756 48.0315 1.94856 51.7082 1.76669 55.5673C1.37696 63.9115 3.76729 65.7368 5.92379 84.6156C6.10566 86.1019 7.35279 87.2231 8.83376 87.2231H120.088C121.569 87.2231 122.816 86.1019 122.998 84.6156C123.596 79.3222 125.388 68.5791 125.388 68.5791C126.999 63.2597 127.337 58.905 127.181 55.5673Z" fill="#E6E6E6"></path><path d="M114.605 32.2035C111.332 24.0158 108.006 16.845 104.706 11.1344C102.186 6.80585 97.769 3.80715 92.8584 3.15526C81.6602 1.66895 47.2602 1.66895 36.166 3.15526C31.2554 3.80715 26.8385 6.83192 24.3182 11.1344C20.9666 16.9232 17.5889 24.1722 14.3672 32.2035C47.7279 34.8371 81.2445 34.8371 114.605 32.2035Z" fill="#EDEDED"></path><path d="M109.851 41.6949C108.578 42.086 107.383 42.6597 106.396 43.2073C104.577 44.2242 102.732 45.1629 100.809 45.8931C97.5877 47.1186 97.068 48.9439 97.068 48.9439C96.9641 49.0743 96.8862 49.2047 96.7822 49.335C94.3399 52.9596 97.5357 57.7835 101.849 57.1838C108.084 56.2972 113.229 54.4719 115.853 53.4289C117.36 52.8292 118.529 51.5775 118.893 49.9869C118.919 49.8305 118.971 49.7001 118.997 49.5437C119.958 44.3546 114.892 40.1043 109.851 41.6949Z" fill="white"></path><path d="M116.528 70.7695H109.59C108.551 70.7695 108.032 72.0472 108.759 72.7774L115.696 79.7395C116.424 80.4697 117.697 79.9482 117.697 78.9051V71.9429C117.697 71.291 117.177 70.7695 116.528 70.7695Z" fill="#FF6584"></path><path d="M123.024 84.6155C122.843 86.1018 121.595 87.2231 120.114 87.2231H106.76V95.0197C106.76 97.7837 108.994 100 111.722 100H120.114C122.869 100 125.077 97.7576 125.077 95.0197V70.665C124.557 74.0027 123.466 80.7563 123.024 84.6155Z" fill="#454545"></path><path d="M128.897 26.7535C128.481 24.9282 126.792 23.7026 124.947 23.7026H121.596C119.439 23.7026 117.698 25.4497 117.698 27.614V30.0129H115.932L116.945 32.438H120.842C122.869 32.438 124.869 31.9947 126.714 31.1603C128.377 30.4041 129.312 28.5788 128.897 26.7535Z" fill="#DDDDDD"></path><path d="M112.06 52.8816C114.758 52.8816 116.945 50.6868 116.945 47.9794C116.945 45.2719 114.758 43.0771 112.06 43.0771C109.363 43.0771 107.176 45.2719 107.176 47.9794C107.176 50.6868 109.363 52.8816 112.06 52.8816Z" fill="#FF6584"></path><path d="M102.238 55.4366C104.218 55.4366 105.823 53.8256 105.823 51.8382C105.823 49.8508 104.218 48.2397 102.238 48.2397C100.258 48.2397 98.6523 49.8508 98.6523 51.8382C98.6523 53.8256 100.258 55.4366 102.238 55.4366Z" fill="#FF6584"></path><path d="M92.9108 51.8384L87.2987 61.6689H41.7006L36.0625 51.8384H92.9108Z" fill="#6F6F6F"></path><path d="M32.1916 49.335C32.1137 49.2047 32.0098 49.0743 31.9058 48.9439C31.9058 48.9439 31.3602 47.1186 28.1644 45.8931C26.2418 45.1629 24.3711 44.2242 22.5783 43.2073C21.591 42.6597 20.3959 42.086 19.1228 41.6949C14.1083 40.1043 9.01581 44.3546 9.97714 49.5437C10.0031 49.7001 10.0291 49.8305 10.0811 49.9869C10.4708 51.5515 11.64 52.8031 13.1209 53.4289C15.7451 54.4719 20.8895 56.2972 27.1252 57.1838C31.4382 57.7835 34.6339 52.9596 32.1916 49.335Z" fill="white"></path><path d="M19.4091 70.7695H12.4719C11.8224 70.7695 11.3027 71.291 11.3027 71.9429V78.9051C11.3027 79.9482 12.5758 80.4697 13.3033 79.7395L20.2405 72.7774C20.968 72.0212 20.4484 70.7695 19.4091 70.7695Z" fill="#FF6584"></path><path d="M110.735 82.9204C103.512 70.3519 95.1978 70.743 95.1978 70.743H33.8026C33.8026 70.743 25.4884 70.3519 18.2655 82.9204H5.74219L5.89808 84.537C6.02799 86.0494 7.3011 87.2228 8.80805 87.2228H120.166C121.673 87.2228 122.946 86.0755 123.076 84.537L123.232 82.9204H110.735Z" fill="#777777"></path><path d="M8.85902 87.2233C7.37805 87.2233 6.10494 86.102 5.94905 84.6157C5.50736 80.7565 4.4421 74.0029 3.89648 70.6392V94.9938C3.89648 97.7578 6.13092 99.9742 8.85902 99.9742H17.2512C20.0052 99.9742 22.2137 97.7317 22.2137 94.9938V87.1972L8.85902 87.2233Z" fill="#454545"></path><path d="M11.2764 30.0129V27.614C11.2764 25.4497 9.53561 23.7026 7.37912 23.7026H4.05344C2.20872 23.7026 0.493921 24.9282 0.104193 26.7535C-0.311517 28.5788 0.623831 30.4041 2.28667 31.1603C4.13138 31.9947 6.13199 32.438 8.15857 32.438H12.0818L13.0951 30.0129H11.2764Z" fill="#DDDDDD"></path><path d="M16.9139 52.8816C19.6116 52.8816 21.7985 50.6868 21.7985 47.9794C21.7985 45.2719 19.6116 43.0771 16.9139 43.0771C14.2162 43.0771 12.0293 45.2719 12.0293 47.9794C12.0293 50.6868 14.2162 52.8816 16.9139 52.8816Z" fill="#FF6584"></path><path d="M26.7613 55.4366C28.7415 55.4366 30.3468 53.8256 30.3468 51.8382C30.3468 49.8508 28.7415 48.2397 26.7613 48.2397C24.7811 48.2397 23.1758 49.8508 23.1758 51.8382C23.1758 53.8256 24.7811 55.4366 26.7613 55.4366Z" fill="#FF6584"></path><path d="M90.4941 74.1851H38.5044C37.699 74.1851 37.0234 74.837 37.0234 75.6714C37.0234 76.4797 37.673 77.1577 38.5044 77.1577H90.4941C91.2996 77.1577 91.9751 76.5058 91.9751 75.6714C91.9751 74.863 91.2996 74.1851 90.4941 74.1851Z" fill="#6F6F6F"></path><path d="M90.4941 80.0781H38.5044C37.699 80.0781 37.0234 80.73 37.0234 81.5644C37.0234 82.3728 37.673 83.0508 38.5044 83.0508H90.4941C91.2996 83.0508 91.9751 82.3989 91.9751 81.5644C91.9751 80.7561 91.2996 80.0781 90.4941 80.0781Z" fill="#6F6F6F"></path><path d="M109.149 19.6872V20.1826C109.149 22.2165 107.486 23.8593 105.407 23.755C103.511 23.6246 102.03 21.9297 102.03 19.974V12.725C102.03 11.004 100.601 9.70023 98.912 9.75238C98.8601 9.75238 98.8601 9.75238 98.8341 9.75238C98.8341 9.75238 98.8341 9.75238 98.7821 9.75238C97.0673 9.70023 95.6643 11.004 95.6643 12.725V19.2961C95.6643 21.33 93.9235 22.9727 91.8969 22.8423C90.0002 22.7641 88.5193 21.017 88.5193 19.0875V13.3769C88.5193 11.6559 87.0903 10.2478 85.3495 10.2478H85.1157C83.4788 10.2478 82.1537 11.6038 82.1537 13.2204V20.652C82.1537 22.6859 80.4389 24.3026 78.3863 24.2243C76.4897 24.094 75.0607 22.3991 75.0607 20.4434V10.4825C75.0607 8.89189 73.6836 7.56203 72.0468 7.66633H71.8129C70.1501 7.66633 68.825 9.02226 68.825 10.639V20.8084C68.825 22.7641 67.2401 24.3808 65.2655 24.3808C63.3688 24.3808 61.7839 22.8423 61.732 20.9127V12.4121C61.732 10.4564 60.277 8.76151 58.3543 8.63113C56.2758 8.5529 54.6129 10.1696 54.6129 12.2035L54.561 20.1044C54.561 22.1383 52.8981 23.755 50.8196 23.6768C48.9489 23.5725 47.5199 21.9036 47.4679 20.0522V10.7693C47.4679 8.83974 46.0389 7.11874 44.1163 7.01444C42.0637 6.93622 40.3749 8.5529 40.3749 10.5868V20.2869C40.3229 22.2687 38.6601 23.8593 36.6335 23.7811C34.7368 23.6507 33.3078 21.9558 33.3078 20.0001V12.725C33.3078 11.004 31.8528 9.70023 30.138 9.75238C30.086 9.75238 30.086 9.75238 30.086 9.75238C30.0341 9.75238 30.0341 9.75238 30.0341 9.75238C28.2933 9.70023 26.8643 11.004 26.8643 12.725V19.2961C26.8643 21.33 25.1495 22.9727 23.1229 22.8423C21.3561 22.7641 20.0311 21.3039 19.8232 19.5829C17.9525 23.4682 16.0818 27.6924 14.2891 32.2035C47.6498 34.8371 81.1664 34.8371 114.527 32.2035C112.786 27.6663 110.968 23.5203 109.149 19.6872Z" fill="#F5F5F5"></path></g><defs><clipPath id="clip0"><rect width="129" height="100" fill="white"></rect></clipPath></defs></svg> 