<?xml version="1.0" encoding="UTF-8"?> <svg xmlns="http://www.w3.org/2000/svg" width="750" height="505" viewBox="0 0 750 505" fill="none"><g clip-path="url(#clip0)"><path d="M276.513 439.111C276.513 439.111 311.777 425.05 318.11 380.102C324.469 335.154 291.014 287.834 291.014 287.834C291.014 287.834 251.471 335.276 246.58 372.985C241.713 410.719 276.513 439.111 276.513 439.111Z" fill="#60CC8C"></path><path d="M262.596 348.408C260.151 343.493 259.246 339.14 258.953 337.184C259.271 336.572 259.564 335.961 259.882 335.35C260.102 335.472 260.249 335.692 260.273 335.936C260.273 335.985 260.787 341.488 263.941 347.797C266.754 353.422 272.329 360.88 282.943 364.744C286.88 323.758 289.497 295.366 290.035 289.57C290.573 288.91 290.866 288.543 290.866 288.543C290.866 288.543 291.111 288.885 291.527 289.497C291.184 293.336 289.692 309.33 287.394 333.54C290.988 331.51 301.651 324.907 306.004 316.03C306.248 316.593 306.517 317.18 306.762 317.767C301.406 327.475 289.497 334.127 287.222 335.325C286.367 344.447 285.388 354.669 284.312 365.82C284.312 365.82 284.312 365.82 284.312 365.845C283.505 374.331 282.625 383.33 281.72 392.794C285.706 393.014 305.246 393.112 318.329 376.458C318.378 376.409 318.402 376.36 318.451 376.336C318.378 377.216 318.28 378.072 318.182 378.953C310.503 387.854 301.113 391.547 294.437 393.087C288.274 394.506 283.383 394.384 281.549 394.286C280.179 408.47 278.688 423.632 277.123 439.478C276.609 439.698 276.34 439.821 276.34 439.821C276.34 439.821 276.095 439.625 275.655 439.234C276.316 432.607 276.951 426.077 277.587 419.694C274.604 419.034 262.181 415.659 250.516 404.019C250.076 402.918 249.66 401.769 249.293 400.62C249.342 400.644 249.415 400.693 249.464 400.742C261.251 413.703 274.457 417.445 277.758 418.203C279.593 399.446 281.304 381.961 282.796 366.26C271.474 362.274 265.555 354.375 262.596 348.408Z" fill="white"></path><path d="M612.569 128.706C600.635 123.326 587.454 127.654 583.688 138.097C579.751 149.028 582.098 165.168 578.528 172.7C567.572 195.786 532.21 183.485 517.195 207.377C500.688 233.642 525.852 280.644 518.247 297.029C510.641 313.413 446.447 329.651 435.956 368.315C425.465 406.978 512.891 480 512.891 480C512.891 480 599.657 443.44 604.572 395.631C608.754 354.913 579.628 332.121 580.46 315.443C581.291 298.765 634.261 287.907 631.693 257.852C629.125 227.797 594.913 212.782 602.127 192.166C605.575 182.335 619.734 172.187 624.943 160.937C630.666 148.612 629.932 136.507 612.569 128.706Z" fill="#ABD6C1"></path><path d="M556.568 187.96C560.799 203.954 572.929 217.917 575.594 220.827C579.874 210.018 584.178 199.234 588.458 188.547C596.772 167.785 604.622 148.172 612.105 128.51V128.486C612.252 128.559 612.399 128.608 612.546 128.681C612.692 128.755 612.839 128.828 612.986 128.877C605.478 148.539 597.653 168.152 589.338 188.914C584.961 199.87 580.559 210.874 576.206 221.903V221.928C569.04 240.049 561.997 258.243 555.395 276.389C561.142 275.875 599.291 272.036 631.474 257.412C631.523 257.387 631.572 257.387 631.62 257.363C631.645 257.534 631.645 257.681 631.669 257.852C631.694 258.023 631.694 258.194 631.718 258.366C598.386 273.454 558.818 277.074 555.028 277.391C548.376 295.635 542.165 313.805 536.662 331.852C536.662 331.95 536.662 332.048 536.613 332.146C536.589 332.17 536.589 332.195 536.564 332.219C529.986 353.813 524.41 375.186 520.351 396.218C522.674 396.438 533.239 397.171 547.789 394.799C561.973 392.476 582.76 386.68 603.4 372.252C603.473 372.594 603.546 372.937 603.62 373.303C595.134 379.197 585.988 384.113 576.401 387.927C567.28 391.547 557.693 394.188 547.96 395.777C533.116 398.199 522.356 397.416 520.18 397.196C514.775 425.515 512.11 453.173 513.406 479.78C513.088 479.927 512.917 479.976 512.917 479.976C512.917 479.976 512.745 479.829 512.403 479.535C511.376 458.015 512.868 435.297 516.927 410.084C520.571 387.585 526.196 363.693 534.119 337.037C534.608 335.398 535.097 333.76 535.586 332.121C535.219 331.901 534.559 331.461 533.654 330.801C532.187 329.725 530.084 328.013 527.589 325.519C523.53 321.459 517.71 314.538 512.012 303.925C512.281 303.705 512.525 303.509 512.794 303.289C522.796 322.046 533.459 329.578 535.904 331.119C541.406 313.071 547.618 294.901 554.245 276.731V276.707C560.921 258.341 568.013 240 575.203 221.781C573.345 219.776 560.114 205.103 555.639 188.156C555.957 188.131 556.251 188.058 556.568 187.96Z" fill="white"></path><path d="M88.3555 413.801C88.3555 413.801 146.925 395.411 200.383 419.401C253.842 443.391 251.641 497.021 251.641 497.021C251.641 497.021 202.071 515.9 163.628 496.972C122.372 476.625 88.3555 413.801 88.3555 413.801Z" fill="#60CC8C"></path><path d="M122.029 425.857C111.44 421.797 100.313 417.934 88.7213 414.412C88.5012 414.021 88.3789 413.801 88.3789 413.801C88.3789 413.801 88.6724 413.703 89.2348 413.556C100.655 417.029 112.1 420.99 123.521 425.392C123.569 425.392 123.618 425.417 123.667 425.441C134.256 429.525 144.821 434 155.287 438.842C156.608 439.454 157.929 440.065 159.225 440.677C158.809 436.837 156.486 420.648 146.337 407.247C146.753 407.271 147.168 407.296 147.609 407.296C158.1 421.602 160.032 438.745 160.252 441.166C174.289 447.817 188.155 455.129 201.58 462.955C201.605 462.955 201.605 462.979 201.629 462.979C203.39 464.007 205.151 465.034 206.887 466.085C233.152 481.785 249.341 494.551 251.688 496.434C251.688 496.849 251.688 497.045 251.688 497.045C251.688 497.045 251.493 497.118 251.15 497.241C249.072 495.578 232.858 482.763 206.374 466.917C204.784 465.963 203.121 464.985 201.409 463.982C199.893 465.107 192.043 470.658 178.813 475.011C170.18 477.848 160.985 479.658 151.472 480.342C150.91 480.391 150.323 480.416 149.761 480.465C146.581 480.66 143.378 480.709 140.15 480.66C139.759 480.318 139.392 479.976 139 479.633C155.752 480.049 169.153 477.163 178.446 474.082C190.796 470.022 198.377 464.911 200.456 463.42C181.087 452.17 154.676 438.476 123.374 426.371C122.151 426.884 115.695 429.354 105.497 429.941C103.223 430.063 100.778 430.112 98.1609 430.014C97.9408 429.672 97.7207 429.354 97.525 429.012C110.193 429.599 118.972 426.957 122.029 425.857Z" fill="white"></path><path d="M148.93 288.274C148.93 288.274 130.442 361.247 166.44 418.423C202.413 475.623 248.021 491.054 248.021 491.054C248.021 491.054 286.709 436.104 263.208 377.192C233.471 302.556 148.93 288.274 148.93 288.274Z" fill="#4DA370"></path><path d="M148.809 288.836C148.906 288.47 148.931 288.274 148.931 288.274C148.931 288.274 149.224 288.323 149.787 288.421C168.593 307.202 185.466 329.431 199.944 354.547C201.093 356.527 202.218 358.533 203.318 360.563C204.248 358.9 207.476 352.786 209.823 344.227C211.902 336.719 213.638 326.032 211.609 314.587C211.975 314.832 212.342 315.101 212.734 315.345C214.543 326.619 212.831 337.061 210.777 344.471C207.965 354.62 203.954 361.418 203.905 361.492C203.905 361.516 203.881 361.516 203.881 361.541C213.932 379.882 222.736 399.641 230.145 420.428C243.327 457.477 247.826 486.187 248.438 490.393C248.169 490.785 248.022 491.005 248.022 491.005C248.022 491.005 247.851 490.956 247.508 490.809C247.093 487.826 242.715 458.675 229.216 420.722C228.727 419.352 228.214 417.934 227.7 416.515C226.575 416.54 214.788 416.589 198.941 412.798C191.702 411.086 184.659 408.812 177.959 406.049C175.636 405.095 173.361 404.092 171.136 403.016C165.169 400.179 159.52 396.902 154.213 393.259C154.017 392.721 153.822 392.183 153.626 391.669C169.913 403.09 186.836 408.91 199.137 411.844C213.883 415.366 225.059 415.537 227.333 415.537C213.834 379.246 189.599 329.456 148.809 288.836Z" fill="#4DA370"></path><path d="M274.096 131.005L249.519 110.512L236.02 104.985L225.113 104.496L274.096 131.005Z" fill="url(#paint0_linear)"></path><path d="M274.096 131.005L225.138 107.821L225.113 104.496" fill="#AFD8C7"></path><path d="M221.957 116.356L222.006 116.478L222.617 124.891L273.948 131.005L221.957 116.356Z" fill="#60CC8C"></path><path d="M213.031 109.778L221.542 105.229L273.777 130.858L226.579 120.269L213.031 109.778Z" fill="url(#paint1_linear)"></path><path d="M77.4263 189.427C79.236 189.158 81.0212 188.767 82.8064 188.229C83.2221 188.107 83.6378 188.351 83.7601 188.743C83.8824 189.134 83.6378 189.574 83.2466 189.696C81.4125 190.234 79.5294 190.65 77.6709 190.944C76.9861 191.041 76.3259 191.139 75.6411 191.188C75.3966 191.213 75.152 191.115 75.0053 190.944C74.9075 190.821 74.8341 190.675 74.8097 190.503C74.7608 190.088 75.0787 189.721 75.4944 189.672C76.1302 189.599 76.766 189.525 77.4263 189.427Z" fill="#60CC8C"></path><path d="M199.067 101.292C201.341 102.05 203.713 102.906 206.281 103.909C206.672 104.055 206.868 104.496 206.721 104.887C206.575 105.278 206.134 105.474 205.743 105.327C203.2 104.324 200.877 103.493 198.627 102.735C198.505 102.686 198.382 102.613 198.309 102.515C198.138 102.319 198.064 102.026 198.138 101.757C198.236 101.365 198.651 101.145 199.067 101.292Z" fill="#60CC8C"></path><path d="M186.47 99.4579C186.323 99.2867 186.226 99.0422 186.274 98.7976C186.348 98.3819 186.739 98.1129 187.155 98.1862C189.551 98.6264 192.07 99.2134 194.638 99.947C195.054 100.069 195.274 100.485 195.152 100.876C195.029 101.292 194.614 101.512 194.222 101.414C191.703 100.705 189.233 100.118 186.861 99.678C186.715 99.6535 186.568 99.5557 186.47 99.4579Z" fill="#60CC8C"></path><path d="M93.615 183.191C93.9573 182.971 94.4464 183.045 94.6665 183.411C94.8866 183.754 94.8132 184.243 94.4464 184.463C92.2944 185.881 89.9956 187.104 87.6235 188.107C87.3301 188.229 86.9877 188.156 86.7676 187.911C86.7187 187.838 86.6698 187.764 86.6209 187.691C86.4497 187.3 86.6453 186.86 87.0366 186.688C89.3109 185.759 91.5363 184.561 93.615 183.191Z" fill="#60CC8C"></path><path d="M97.1121 181.602C96.8431 181.284 96.892 180.795 97.2099 180.526C97.7235 180.086 98.237 179.645 98.7506 179.181C100.096 177.958 101.343 176.613 102.492 175.244C102.761 174.926 103.25 174.877 103.568 175.146C103.886 175.415 103.935 175.904 103.666 176.222C102.468 177.665 101.172 179.034 99.7777 180.306C99.2641 180.77 98.7261 181.235 98.1881 181.7C97.8702 181.969 97.4056 181.92 97.1366 181.626C97.1366 181.626 97.1366 181.602 97.1121 181.602Z" fill="#60CC8C"></path><path d="M105.378 172.676C105.329 172.651 105.28 172.602 105.231 172.554C105.011 172.309 104.962 171.918 105.158 171.624C106.454 169.643 107.652 167.491 108.777 165.07C108.948 164.679 109.413 164.532 109.78 164.703C110.147 164.875 110.318 165.339 110.147 165.706C108.973 168.2 107.75 170.426 106.405 172.456C106.209 172.823 105.72 172.92 105.378 172.676Z" fill="#60CC8C"></path><path d="M137.559 112.664C136.776 113.299 136.042 113.96 135.284 114.644C134.184 115.671 133.083 116.748 132.081 117.824C131.787 118.141 131.322 118.141 131.005 117.872C130.98 117.848 130.98 117.848 130.956 117.824C130.687 117.53 130.687 117.09 130.956 116.796C132.007 115.671 133.108 114.571 134.257 113.519C135.015 112.835 135.798 112.15 136.58 111.49C136.898 111.221 137.363 111.221 137.656 111.588C137.925 111.93 137.901 112.395 137.559 112.664Z" fill="#60CC8C"></path><path d="M129.148 121.247C127.583 123.228 126.14 125.307 124.869 127.434C124.649 127.801 124.184 127.923 123.817 127.703C123.744 127.654 123.695 127.605 123.646 127.557C123.426 127.312 123.377 126.945 123.548 126.652C124.844 124.451 126.336 122.323 127.926 120.293C128.195 119.976 128.659 119.902 129.002 120.171C129.344 120.416 129.417 120.905 129.148 121.247Z" fill="#60CC8C"></path><path d="M147.535 105.938C145.334 107.137 143.182 108.482 141.153 109.925C140.835 110.145 140.394 110.096 140.15 109.827C140.125 109.802 140.101 109.778 140.101 109.753C139.856 109.411 139.93 108.946 140.272 108.702C142.351 107.21 144.552 105.841 146.826 104.618C147.193 104.422 147.658 104.545 147.853 104.936C148.049 105.278 147.902 105.743 147.535 105.938Z" fill="#60CC8C"></path><path d="M162.991 100.094C162.722 100.167 162.429 100.069 162.258 99.8736C162.16 99.7758 162.111 99.6535 162.087 99.5313C161.989 99.1155 162.258 98.6998 162.649 98.6264C165.168 98.0395 167.736 97.6238 170.255 97.3792C170.67 97.3303 171.037 97.6482 171.086 98.064C171.135 98.4797 170.817 98.8465 170.401 98.8954C167.931 99.1155 165.437 99.5313 162.991 100.094Z" fill="#60CC8C"></path><path d="M115.015 150.373C114.892 150.324 114.77 150.251 114.672 150.153C114.501 149.957 114.428 149.688 114.501 149.419L114.794 148.49C115.455 146.362 116.139 144.235 116.824 142.132C116.946 141.74 117.387 141.52 117.778 141.643C118.169 141.789 118.389 142.205 118.267 142.596C117.558 144.699 116.898 146.803 116.237 148.93L115.944 149.859C115.846 150.275 115.406 150.495 115.015 150.373Z" fill="#60CC8C"></path><path d="M151.6 103.933C151.282 104.08 150.94 103.982 150.72 103.762C150.671 103.713 150.622 103.64 150.597 103.566C150.426 103.175 150.598 102.735 150.989 102.564C153.336 101.512 155.757 100.583 158.203 99.8247C158.619 99.7024 159.034 99.9225 159.157 100.338C159.279 100.73 159.059 101.17 158.643 101.292C156.247 102.001 153.874 102.906 151.6 103.933Z" fill="#60CC8C"></path><path d="M114.083 153.283C114.474 153.405 114.695 153.846 114.572 154.237C113.643 157.074 112.812 159.372 112.005 161.451C111.858 161.842 111.418 162.038 111.026 161.867C110.904 161.818 110.831 161.744 110.757 161.671C110.562 161.451 110.488 161.158 110.611 160.864C111.418 158.81 112.225 156.536 113.154 153.723C113.252 153.356 113.692 153.161 114.083 153.283Z" fill="#60CC8C"></path><path d="M70.9698 189.892C71.3855 189.892 71.7279 190.234 71.7279 190.65C71.7279 191.066 71.3855 191.408 70.9698 191.408C68.5487 191.408 66.0299 191.261 63.2665 190.919C63.0708 190.895 62.9241 190.797 62.8018 190.674C62.6551 190.528 62.5817 190.308 62.6062 190.063C62.6551 189.647 63.0464 189.354 63.4621 189.403C66.1522 189.745 68.6221 189.892 70.9698 189.892Z" fill="#60CC8C"></path><path d="M122.372 130.369C122.739 130.564 122.91 131.005 122.714 131.396C121.687 133.475 120.734 135.749 119.78 138.341C119.633 138.732 119.193 138.928 118.802 138.781C118.679 138.732 118.582 138.659 118.508 138.586C118.313 138.39 118.264 138.072 118.361 137.803C119.34 135.162 120.318 132.863 121.369 130.711C121.541 130.344 122.005 130.198 122.372 130.369Z" fill="#60CC8C"></path><path d="M179.918 97.2325C180.823 97.3059 181.703 97.3793 182.583 97.4771C182.999 97.526 183.293 97.8928 183.244 98.333C183.195 98.7487 182.828 99.0422 182.388 98.9933C181.532 98.8954 180.652 98.7976 179.771 98.7487C178.157 98.6264 176.494 98.5775 174.88 98.602C174.66 98.602 174.44 98.5042 174.293 98.3575C174.171 98.2352 174.098 98.0395 174.098 97.8684C174.098 97.4526 174.416 97.1103 174.856 97.0858C176.568 97.0858 178.255 97.1103 179.918 97.2325Z" fill="#60CC8C"></path><path d="M624.307 293.409C624.307 293.409 552.899 312.68 517.782 360.024C482.665 407.369 511.375 435.076 511.375 435.076C511.375 435.076 559.306 424.17 594.032 380.542C628.758 336.89 624.307 293.409 624.307 293.409Z" fill="#60CC8C"></path><path d="M512.842 434.685C518.149 424.854 525.119 414.094 532.847 403.187C538.104 402.551 563.978 399.103 584.226 391.669C584.789 391.082 585.351 390.495 585.938 389.884C566.692 397.44 540.966 401.133 533.654 402.062C547.128 383.183 562.828 363.888 576.376 348.042C591.025 345.449 609.317 338.137 618.805 334.029C618.952 333.564 619.074 333.124 619.221 332.659C610.466 336.474 592.296 343.884 577.428 346.794C578.284 345.792 579.14 344.789 579.996 343.811C601.467 318.891 620.297 299.132 624.43 294.828C624.381 293.899 624.332 293.385 624.332 293.385C624.332 293.385 624.234 293.409 624.014 293.483C622.596 294.95 607.703 310.43 588.897 331.73C587.968 328.282 586.207 318.329 591.856 305.612C591.367 305.857 590.829 306.053 590.218 306.175C590.193 306.175 590.169 306.175 590.169 306.175C584.251 320.212 587.185 330.801 587.87 332.904C584.935 336.23 581.903 339.702 578.846 343.273C570.556 352.908 561.214 364.035 551.97 375.724C549.109 373.279 536.955 362.372 529.325 346.672C529.007 346.99 528.689 347.332 528.371 347.65C536.417 363.79 549.085 374.795 551.286 376.629C535.903 396.12 520.839 417.053 511.277 434.93C511.375 435.028 511.424 435.076 511.424 435.076C511.424 435.076 511.889 434.954 512.842 434.685Z" fill="white"></path><path d="M126.04 199.601C127.263 201.826 132.399 202.853 137.51 203.318C138.048 208.796 139.417 214.053 141.52 218.969C137.118 222.662 133.964 226.55 133.964 227.919C133.988 230.194 141.569 242.69 146.729 244.182C149.003 244.842 152.99 242.323 156.731 239.291C161.035 242.861 165.951 245.771 171.306 247.85C170.939 253.157 171.453 257.656 172.382 258.561C173.996 260.151 188.205 263.623 192.924 261.031C194.905 259.955 195.932 255.7 196.47 251.176C202.34 250.565 207.964 248.975 213.173 246.578C216.597 250.418 219.971 253.108 221.243 253.108C223.517 253.083 236.014 245.502 237.506 240.342C238.141 238.166 235.867 234.424 233.006 230.829C236.503 226.354 239.291 221.292 241.223 215.765C246.529 216.108 251.005 215.619 251.885 214.689C253.475 213.075 256.947 198.867 254.355 194.147C253.206 192.044 248.559 191.017 243.742 190.528C242.959 184.977 241.321 179.67 238.948 174.754C243.301 171.062 246.432 167.222 246.432 165.853C246.407 163.579 238.826 151.082 233.666 149.59C231.221 148.881 226.794 151.84 222.833 155.166C218.651 152.036 214.004 149.493 208.967 147.683C209.578 141.618 209.065 136.189 208.062 135.186C206.448 133.597 192.24 130.124 187.52 132.717C185.197 133.988 184.17 139.588 183.754 144.944C178.569 145.629 173.605 147.072 168.959 149.15C165.046 144.284 160.693 140.64 159.226 140.664C156.951 140.689 144.455 148.27 142.963 153.43C142.229 155.973 145.457 160.644 148.906 164.703C145.702 168.739 143.061 173.238 141.105 178.129C135.015 177.493 129.562 178.031 128.559 179.034C126.921 180.697 123.448 194.905 126.04 199.601ZM167.002 195.15C168.592 182.042 180.501 172.676 193.634 174.265C206.741 175.855 216.108 187.764 214.518 200.897C212.928 214.005 201.019 223.371 187.887 221.781C174.779 220.192 165.413 208.258 167.002 195.15Z" fill="#ABD6C1"></path><path d="M156.83 193.389C159.08 174.754 176.076 161.427 194.71 163.676C213.345 165.926 226.673 182.922 224.423 201.557C222.173 220.192 205.177 233.519 186.542 231.27C167.908 229.02 154.58 212.024 156.83 193.389ZM157.319 193.438C155.093 211.804 168.25 228.555 186.616 230.78C204.981 233.006 221.733 219.849 223.958 201.484C226.184 183.118 213.027 166.366 194.661 164.141C176.296 161.916 159.52 175.072 157.319 193.438Z" fill="white"></path><path d="M143.843 181.895C144.063 181.895 144.283 181.895 144.528 181.895C143.378 185.197 142.547 188.645 142.107 192.264C138.854 218.969 157.978 243.326 184.707 246.554C202.192 248.657 218.699 241.198 228.897 228.286C229.117 228.359 229.313 228.433 229.533 228.482C219.213 241.663 202.437 249.317 184.634 247.165C157.562 243.888 138.194 219.213 141.471 192.142C141.887 188.596 142.718 185.172 143.843 181.895Z" fill="white"></path><path d="M224.814 163.383C217.38 156.046 207.573 151.009 196.422 149.639C196.202 149.615 195.982 149.59 195.762 149.566C195.86 149.37 195.957 149.15 196.055 148.955C196.202 148.979 196.349 148.979 196.495 149.003C207.745 150.373 217.649 155.435 225.181 162.82C225.034 163.016 224.936 163.187 224.814 163.383Z" fill="white"></path><path d="M676.544 348.824C670.406 338.113 653.752 341.806 639.592 355.109C625.433 368.412 594.522 353.226 580.289 356.087C566.057 358.948 554.123 375.235 560.334 402.111C566.546 428.987 527.54 402.405 506.485 418.765C485.429 435.125 509.688 500.811 509.688 500.811C509.688 500.811 562.609 505.726 579.58 491.665C596.552 477.603 578.089 453.735 587.65 442.193C597.212 430.65 624.259 439.723 636.047 425.417C647.834 411.111 638.076 392.5 646.587 382.841C655.048 373.181 690.459 373.034 676.544 348.824Z" fill="#5BB47F"></path><path d="M509.516 501.276C509.418 501.08 509.32 500.885 509.223 500.689C509.223 500.64 509.247 500.591 509.272 500.542C521.964 479.609 538.642 458.578 558.866 438.035C575.031 421.602 593.47 405.462 613.669 390.031C648.077 363.766 676.054 348.506 676.323 348.359C676.567 348.237 676.861 348.311 676.983 348.555C677.105 348.8 677.032 349.093 676.787 349.215C676.518 349.362 648.591 364.598 614.232 390.813C582.538 414.999 538.764 453.76 510.103 501.031C509.981 501.276 509.736 501.349 509.516 501.276Z" fill="#4DA370"></path><path d="M594.278 405.877C594.254 405.731 594.278 405.559 594.4 405.437C594.596 405.241 594.889 405.241 595.085 405.437C609.782 419.694 635.851 424.903 636.12 424.952C636.389 425.001 636.561 425.27 636.512 425.514C636.463 425.783 636.194 425.955 635.949 425.906C635.68 425.857 609.342 420.599 594.425 406.122C594.351 406.048 594.303 405.975 594.278 405.877Z" fill="#4DA370"></path><path d="M511.79 428.327C510.151 421.064 509.687 416.564 509.662 416.466C509.638 416.197 509.833 415.953 510.102 415.928C510.371 415.904 510.616 416.099 510.64 416.368C510.665 416.637 513.502 443.513 529.544 472.394C529.666 472.639 529.593 472.932 529.348 473.055C529.104 473.177 528.81 473.104 528.688 472.859C519.102 455.57 514.211 438.989 511.79 428.327Z" fill="#4DA370"></path><path d="M655.953 360.978C655.953 360.954 655.953 360.905 655.953 360.856C655.953 360.758 656.075 351.636 661.089 342.637C661.211 342.392 661.529 342.319 661.749 342.441C661.993 342.564 662.067 342.882 661.944 343.102C657.029 351.881 656.931 360.758 656.931 360.831C656.931 361.1 656.711 361.321 656.442 361.321C656.198 361.345 656.002 361.174 655.953 360.978Z" fill="#4DA370"></path><path d="M408.297 319.478C408.297 319.478 382.033 388.392 364.547 404.214C347.062 420.061 325.664 430.43 325.664 430.43L339.823 460.999C339.823 460.999 399.665 444.663 408.346 416.124C413.261 399.959 408.297 319.478 408.297 319.478Z" fill="#4DA370"></path><path d="M441.799 193.438C441.799 193.438 448.817 170.377 483.568 185.074C518.318 199.772 489.241 247.288 489.241 247.288C489.241 247.288 538.689 263.599 519.321 331.094C499.928 398.59 455.836 312.753 455.836 312.753L434.145 220.167L441.799 193.438Z" fill="#2A3D4B"></path><path d="M466.698 247.288L466.184 294.363H440.14L435.836 274.31L461.758 247.288H466.698Z" fill="#F39F85"></path><path d="M421.481 279.201C402.161 253.401 406.368 215.985 406.368 215.985L424.806 204.589L453.639 215.765L459.679 246.065C459.752 246.334 457.136 246.603 457.209 246.847C459.777 258.146 455.228 264.993 446.938 273.063C441.778 278.101 428.744 285.437 421.481 279.201Z" fill="#F7B58E"></path><path d="M469.214 233.544H402.208C402.208 233.544 386.728 217.502 402.868 198.133C412.259 186.762 441.165 186.493 451.264 190.137C474.986 198.696 465.204 220.852 465.204 220.852L469.214 233.544Z" fill="#2A3D4B"></path><path d="M419.254 268.074L419.278 264.43L412.455 264.381C411.086 264.381 409.814 263.77 408.958 262.719C408.102 261.667 407.76 260.298 408.004 258.953L409.325 253.793L407.418 244.597L404.41 258.268C403.945 260.664 404.556 263.134 406.121 265.042C407.662 266.925 409.961 268.025 412.406 268.05L419.254 268.074Z" fill="#4DA370"></path><path d="M418.348 269.321L423.165 269.248C424.95 269.224 426.369 267.732 426.344 265.971C426.32 264.186 424.828 262.767 423.067 262.792L418.25 262.865C416.465 262.89 415.046 264.382 415.071 266.142C415.095 267.903 416.562 269.346 418.348 269.321Z" fill="#2A3D4B"></path><path d="M400.96 503.232L398.001 370.516C397.463 341.243 401.107 304.341 449.992 285.706C450.384 285.559 450.848 285.706 451.264 285.706C464.25 285.706 486.259 284.361 514.993 311.457C540.989 335.985 519.126 476.699 514.724 503.257H400.96V503.232Z" fill="#60CC8C"></path><path d="M432.116 479.486C432.116 479.486 420.818 472.81 406.096 472.81C399.102 472.81 391.79 477.799 386.068 483.008C381.47 487.214 384.405 493.524 390.641 493.524H441.532L432.116 479.486Z" fill="#F7B58E"></path><path d="M481.566 299.303C513.7 277.978 547.056 361.834 547.056 405.951C547.056 450.067 438.648 494.844 438.648 494.844L432.094 479.462C432.094 479.462 490.908 420.648 501.595 399.25C491.201 364.451 459.826 313.756 481.566 299.303Z" fill="#4DA370"></path><path d="M468.042 277.636L438.256 284.263L434.172 293.361L472.688 287.54L468.042 277.636Z" fill="url(#paint2_linear)"></path><path d="M427.445 188.327C429.328 185.319 441.8 185.319 441.8 185.319C456.033 185.319 467.6 196.886 467.6 211.119V235.378H463.492V211.119C463.492 199.16 453.759 189.427 441.8 189.427L427.445 188.327Z" fill="#4DA370"></path><path d="M477.151 247.25C480.216 239.851 476.702 231.368 469.303 228.302C461.903 225.237 453.42 228.751 450.355 236.151C447.289 243.55 450.803 252.034 458.203 255.099C465.602 258.164 474.086 254.65 477.151 247.25Z" fill="#4DA370"></path><path d="M424.608 493.793H232.148V502.743H424.608V493.793Z" fill="#2A3D4B"></path><path d="M182.922 401.304H332.855L382.131 502.743H232.15L182.922 401.304Z" fill="#2A3D4B"></path><path d="M277.294 444.883C277.294 448.209 274.603 450.899 271.278 450.899C267.952 450.899 265.262 448.209 265.262 444.883C265.262 441.557 267.952 438.867 271.278 438.867C274.603 438.867 277.294 441.557 277.294 444.883Z" fill="#EDEDED"></path><path d="M379.32 284.826V175.83C379.32 173.238 377.339 171.16 374.893 171.16H203.856C201.411 171.16 199.43 173.263 199.43 175.83V264.65C199.43 267.243 201.411 269.321 203.856 269.321H357.922C359.438 269.321 360.856 270.128 361.663 271.498L371.176 287.345C373.548 291.282 379.32 289.521 379.32 284.826Z" fill="#60CC8C"></path><path d="M360.342 186.273H218.406V193.047H360.342V186.273Z" fill="white"></path><path d="M360.342 201.899H218.406V208.673H360.342V201.899Z" fill="white"></path><path d="M360.342 217.526H218.406V224.3H360.342V217.526Z" fill="white"></path><path d="M360.344 233.177H287.762V239.951H360.344V233.177Z" fill="white"></path><path d="M172.824 350.291V254.942C172.824 252.692 174.561 250.858 176.688 250.858H326.303C328.43 250.858 330.167 252.692 330.167 254.942V332.635C330.167 334.885 328.43 336.719 326.303 336.719H191.557C190.236 336.719 188.989 337.428 188.28 338.626L179.965 352.492C177.886 355.94 172.824 354.4 172.824 350.291Z" fill="#CEE8E8"></path><path d="M189.421 270.014L313.578 270.014L313.578 264.096L189.421 264.096L189.421 270.014Z" fill="#4DA370"></path><path d="M189.421 283.696L313.578 283.696L313.578 277.778L189.421 277.778L189.421 283.696Z" fill="#4DA370"></path><path d="M189.421 297.378L313.578 297.378L313.578 291.46L189.421 291.46L189.421 297.378Z" fill="#4DA370"></path><path d="M189.429 311.036L252.914 311.036L252.914 305.118L189.429 305.118L189.429 311.036Z" fill="#4DA370"></path><path d="M671.091 229.582L672.387 240.147L663.657 234.522L634.824 212.415L671.091 229.582Z" fill="#AFD8C7"></path><path d="M672.389 240.147L656.566 233.275L661.262 232.688L672.389 240.147Z" fill="#60CC8C"></path><path d="M671.091 229.582L677.082 221.928L634.824 212.415L671.091 229.582Z" fill="url(#paint3_linear)"></path><path d="M634.824 212.415L663.657 234.522L654.241 245.282L634.824 212.415Z" fill="url(#paint4_linear)"></path><path d="M665.537 247.826C665.634 247.801 665.732 247.777 665.83 247.728C666.221 247.508 666.368 247.019 666.148 246.627C665.463 245.404 664.681 244.231 663.776 243.155C663.482 242.812 662.993 242.763 662.626 243.057C662.284 243.35 662.235 243.864 662.529 244.206C663.36 245.209 664.094 246.285 664.73 247.434C664.901 247.703 665.219 247.874 665.537 247.826Z" fill="#60CC8C"></path><path d="M623.478 326.644C623.404 326.203 623.673 325.788 624.114 325.69C626.608 325.225 629.078 324.271 631.45 322.878C631.841 322.657 632.33 322.78 632.55 323.171C632.771 323.562 632.648 324.051 632.257 324.271C629.714 325.763 627.073 326.766 624.407 327.279C624.383 327.279 624.383 327.279 624.358 327.279C623.942 327.353 623.551 327.084 623.478 326.644ZM635.24 321.288C634.947 320.946 634.996 320.432 635.338 320.139C637.368 318.427 639.129 316.421 640.621 314.221C640.865 313.854 641.379 313.756 641.745 314C642.112 314.245 642.21 314.758 641.966 315.125C640.4 317.449 638.517 319.552 636.39 321.386C636.268 321.484 636.121 321.557 635.974 321.581C635.705 321.581 635.412 321.484 635.24 321.288ZM643.311 311.115C642.895 310.944 642.724 310.454 642.895 310.039L643.042 309.696C643.995 307.422 644.753 304.977 645.267 302.409C645.365 301.969 645.78 301.675 646.221 301.773C646.661 301.871 646.954 302.287 646.857 302.727C646.319 305.392 645.536 307.96 644.533 310.332L644.387 310.699C644.264 310.968 644.02 311.139 643.751 311.164C643.604 311.213 643.457 311.188 643.311 311.115ZM646.71 298.545C646.27 298.496 645.927 298.105 645.976 297.665C646.196 295.146 646.245 292.431 646.123 289.594C646.098 289.154 646.465 288.763 646.881 288.739C647.321 288.714 647.712 289.056 647.737 289.497C647.884 292.407 647.835 295.195 647.59 297.787C647.566 298.178 647.248 298.472 646.881 298.52C646.808 298.545 646.759 298.545 646.71 298.545ZM646.612 285.486C646.172 285.535 645.78 285.217 645.732 284.777C645.707 284.557 645.683 284.337 645.658 284.092C644.729 284.117 643.824 284.092 642.895 284.019C642.455 283.994 642.112 283.603 642.161 283.138C642.186 282.698 642.577 282.356 643.042 282.405C643.849 282.478 644.656 282.503 645.463 282.478C645.218 280.668 644.925 278.785 644.558 276.731C644.484 276.291 644.778 275.875 645.218 275.802C645.658 275.729 646.074 276.022 646.147 276.462C646.539 278.59 646.832 280.546 647.077 282.405C648.373 282.307 649.644 282.087 650.892 281.793C651.332 281.671 651.772 281.965 651.87 282.38C651.968 282.82 651.699 283.261 651.283 283.358C649.987 283.676 648.642 283.896 647.297 284.019C647.321 284.214 647.346 284.41 647.37 284.606C647.37 285.021 647.052 285.437 646.612 285.486ZM654.951 281.255C654.755 280.864 654.927 280.375 655.318 280.179C656.785 279.47 658.179 278.59 659.402 277.587C660.16 276.951 660.918 276.267 661.578 275.508C661.872 275.191 662.385 275.142 662.728 275.46C663.07 275.753 663.094 276.267 662.777 276.609C662.043 277.416 661.26 278.174 660.429 278.834C659.084 279.935 657.617 280.864 656.027 281.647C655.954 281.696 655.856 281.72 655.783 281.72C655.44 281.769 655.098 281.598 654.951 281.255ZM637.906 283.163C635.118 282.405 632.55 281.231 630.252 279.69C629.885 279.446 629.787 278.932 630.032 278.565C630.276 278.198 630.79 278.101 631.156 278.345C633.308 279.812 635.705 280.889 638.322 281.598C638.762 281.72 639.006 282.16 638.884 282.6C638.786 282.918 638.517 283.163 638.199 283.187C638.126 283.187 638.004 283.187 637.906 283.163ZM664.66 272.794C664.268 272.574 664.146 272.085 664.366 271.693C665.662 269.444 666.592 266.949 667.13 264.308C667.227 263.868 667.643 263.574 668.083 263.672C668.523 263.77 668.792 264.186 668.719 264.626C668.157 267.438 667.154 270.104 665.785 272.501C665.662 272.721 665.418 272.867 665.173 272.892C665.002 272.916 664.831 272.892 664.66 272.794ZM626.388 276.364C625.874 275.826 625.41 275.264 624.969 274.677C623.698 273.014 622.744 271.033 622.157 269.003C622.035 268.563 622.279 268.123 622.72 268.001C623.16 267.879 623.6 268.123 623.722 268.563C624.236 270.397 625.116 272.183 626.266 273.699C626.657 274.237 627.097 274.75 627.562 275.264C627.855 275.582 627.855 276.095 627.513 276.413C627.39 276.536 627.219 276.609 627.073 276.633C626.852 276.658 626.583 276.56 626.388 276.364ZM643.58 271.962C642.87 268.832 642.039 266.436 640.987 264.455C640.767 264.064 640.938 263.574 641.33 263.354C641.721 263.159 642.21 263.305 642.43 263.697C643.555 265.824 644.435 268.319 645.169 271.596C645.267 272.036 644.998 272.476 644.558 272.574C644.533 272.574 644.509 272.574 644.484 272.598C644.069 272.623 643.677 272.354 643.58 271.962ZM668.45 260.42C668.01 260.42 667.643 260.053 667.668 259.588C667.692 258.39 667.619 257.167 667.472 255.993C667.301 254.551 667.007 253.132 666.592 251.787C666.469 251.371 666.714 250.907 667.13 250.785C667.57 250.662 668.01 250.882 668.132 251.323C668.572 252.765 668.89 254.282 669.086 255.822C669.233 257.094 669.306 258.366 669.282 259.662C669.282 260.077 668.964 260.395 668.572 260.444C668.523 260.42 668.475 260.42 668.45 260.42ZM622.402 264.748C621.962 264.699 621.644 264.308 621.692 263.868C621.937 261.52 622.915 259.491 624.529 258.023C625.116 257.485 625.776 257.045 626.486 256.703C626.877 256.507 627.366 256.678 627.562 257.069C627.757 257.461 627.586 257.95 627.195 258.145C626.632 258.414 626.094 258.781 625.63 259.197C624.309 260.395 623.527 262.034 623.331 264.015C623.282 264.406 622.989 264.699 622.622 264.724C622.524 264.748 622.451 264.748 622.402 264.748ZM638.273 260.689C636.488 258.928 633.969 257.73 631.499 257.485C631.059 257.436 630.741 257.045 630.765 256.605C630.814 256.165 631.205 255.847 631.646 255.871C634.507 256.165 637.319 257.51 639.398 259.539C639.716 259.857 639.716 260.371 639.398 260.689C639.276 260.811 639.104 260.909 638.933 260.933C638.713 260.933 638.468 260.86 638.273 260.689Z" fill="#60CC8C"></path><path d="M619.393 327.597C619.76 327.548 620.078 327.255 620.102 326.839C620.127 326.399 619.809 326.008 619.344 325.983C618.048 325.885 616.776 325.665 615.554 325.274C615.138 325.152 614.673 325.396 614.551 325.812C614.429 326.252 614.673 326.692 615.089 326.815C616.434 327.231 617.828 327.475 619.246 327.573C619.295 327.622 619.344 327.622 619.393 327.597Z" fill="#60CC8C"></path></g><defs><linearGradient id="paint0_linear" x1="223.666" y1="111.932" x2="275.829" y2="122.021" gradientUnits="userSpaceOnUse"><stop offset="6.3e-07" stop-color="#F1F8F7"></stop><stop offset="1" stop-color="#BFE3EE"></stop></linearGradient><linearGradient id="paint1_linear" x1="212.736" y1="111.297" x2="275.217" y2="123.382" gradientUnits="userSpaceOnUse"><stop offset="6.3e-07" stop-color="#F1F8F7"></stop><stop offset="1" stop-color="#BFE3EE"></stop></linearGradient><linearGradient id="paint2_linear" x1="472.679" y1="285.497" x2="434.162" y2="285.497" gradientUnits="userSpaceOnUse"><stop stop-color="#DEEEE9"></stop><stop offset="1" stop-color="#BFE3ED"></stop></linearGradient><linearGradient id="paint3_linear" x1="635.114" y1="211.591" x2="675.496" y2="226.278" gradientUnits="userSpaceOnUse"><stop offset="6.3e-07" stop-color="#F1F8F7"></stop><stop offset="1" stop-color="#BFE3EE"></stop></linearGradient><linearGradient id="paint4_linear" x1="630.673" y1="223.804" x2="663.237" y2="235.648" gradientUnits="userSpaceOnUse"><stop offset="6.3e-07" stop-color="#F1F8F7"></stop><stop offset="1" stop-color="#BFE3EE"></stop></linearGradient><clipPath id="clip0"><rect width="750" height="505" fill="white"></rect></clipPath></defs></svg> 