<?xml version="1.0" encoding="UTF-8"?> <svg xmlns="http://www.w3.org/2000/svg" width="68" height="68" viewBox="0 0 68 68" fill="none"><rect width="68" height="68" rx="6" fill="#E2FCEC"></rect><g clip-path="url(#clip0)"><path d="M50.9998 40.0098C50.9998 35.7907 48.5793 32.0252 44.9542 30.1936C44.8416 38.2832 38.283 44.8419 30.1934 44.9545C32.025 48.5796 35.7904 51 40.0096 51C41.9877 51 43.9114 50.4732 45.6017 49.4722L50.9518 50.952L49.4719 45.6019C50.4729 43.9117 50.9998 41.988 50.9998 40.0098Z" fill="#60CC8C"></path><path d="M42.9648 29.9824C42.9648 22.8238 37.1411 17 29.9824 17C22.8238 17 17 22.8238 17 29.9824C17 32.3155 17.621 34.587 18.8002 36.5813L17.0477 42.9169L23.3836 41.1646C25.3778 42.3438 27.6494 42.9648 29.9824 42.9648C37.1411 42.9648 42.9648 37.1411 42.9648 29.9824ZM28.9863 22.9766H30.9785V33.0039H28.9863V22.9766ZM28.9863 34.9961H30.9785V36.9883H28.9863V34.9961Z" fill="#60CC8C"></path></g><defs><clipPath id="clip0"><rect width="34" height="34" fill="white" transform="translate(17 17)"></rect></clipPath></defs></svg> 