<?xml version="1.0" encoding="UTF-8"?> <svg xmlns="http://www.w3.org/2000/svg" width="68" height="68" viewBox="0 0 68 68" fill="none"><rect width="68" height="68" rx="6" fill="#E2FCEC"></rect><path d="M42.5051 32.4306C42.5649 32.4306 42.6245 32.4314 42.6844 32.4325L42.6998 32.4328C43.0357 32.4388 43.3689 32.4605 43.6987 32.4965V20.2476C43.6987 17.9056 41.7932 16 39.4511 16H21.0213C18.679 16 16.7734 17.9056 16.7734 20.2476V44.6793C16.7734 47.0215 18.679 48.9271 21.021 48.9271H33.3257C32.2639 47.2207 31.7069 45.2717 31.7069 43.2348C31.7069 37.2772 36.5508 32.4306 42.5051 32.4306ZM32.0071 22.9354H38.3017C38.8842 22.9354 39.3564 23.4075 39.3564 23.9901C39.3564 24.5726 38.8842 25.0448 38.3017 25.0448H32.0071C31.4248 25.0448 30.9524 24.5726 30.9524 23.9901C30.9524 23.4075 31.4248 22.9354 32.0071 22.9354ZM32.0071 27.1544H38.3017C38.8842 27.1544 39.3564 27.6266 39.3564 28.2091C39.3564 28.7917 38.8842 29.2638 38.3017 29.2638H32.0071C31.4248 29.2638 30.9524 28.7917 30.9524 28.2091C30.9524 27.6266 31.4248 27.1544 32.0071 27.1544ZM28.4651 41.9915H22.1705C21.5879 41.9915 21.1158 41.5193 21.1158 40.9368C21.1158 40.3545 21.5879 39.8821 22.1705 39.8821H28.4651C29.0474 39.8821 29.5198 40.3545 29.5198 40.9368C29.5198 41.5193 29.0474 41.9915 28.4651 41.9915ZM28.4651 37.7018H22.1705C21.5879 37.7018 21.1158 37.2297 21.1158 36.6472C21.1158 36.0646 21.5879 35.5925 22.1705 35.5925H28.4651C29.0474 35.5925 29.5198 36.0646 29.5198 36.6472C29.5198 37.2297 29.0474 37.7018 28.4651 37.7018ZM28.4651 33.4828H22.1705C21.5879 33.4828 21.1158 33.0107 21.1158 32.4281C21.1158 31.8456 21.5879 31.3734 22.1705 31.3734H28.4651C29.0474 31.3734 29.5198 31.8456 29.5198 32.4281C29.5198 33.0107 29.0474 33.4828 28.4651 33.4828ZM28.4651 29.2638H22.1705C21.5879 29.2638 21.1158 28.7917 21.1158 28.2091C21.1158 27.6266 21.5879 27.1544 22.1705 27.1544H28.4651C29.0474 27.1544 29.5198 27.6266 29.5198 28.2091C29.5198 28.7917 29.0474 29.2638 28.4651 29.2638ZM28.4651 25.0448H22.1705C21.5879 25.0448 21.1158 24.5726 21.1158 23.9901C21.1158 23.4075 21.5879 22.9354 22.1705 22.9354H28.4651C29.0474 22.9354 29.5198 23.4075 29.5198 23.9901C29.5198 24.5726 29.0474 25.0448 28.4651 25.0448ZM30.9524 32.4281C30.9524 31.8456 31.4248 31.3734 32.0071 31.3734H35.0388C35.6213 31.3734 36.0934 31.8456 36.0934 32.4281C36.0934 33.0107 35.6213 33.4828 35.0388 33.4828H32.0071C31.4248 33.4828 30.9524 33.0107 30.9524 32.4281Z" fill="#60CC8C"></path><path d="M48.7507 37.0897C47.1318 35.4423 44.9697 34.5123 42.6629 34.4716L42.6478 34.4714C42.6003 34.4706 42.5527 34.4697 42.5052 34.4697C37.6754 34.4697 33.7461 38.4017 33.7461 43.2349C33.7461 45.1545 34.3553 46.9774 35.5075 48.507C37.1799 50.727 39.7303 52.0001 42.5052 52.0001C47.3351 52.0001 51.2643 48.0681 51.2643 43.2349C51.2643 40.9212 50.3717 38.7387 48.7507 37.0897ZM46.2477 41.81L42.9029 45.9796C42.695 46.2386 42.389 46.3745 42.0795 46.3745C41.8644 46.3745 41.648 46.3089 41.4612 46.1737L38.9665 44.3662C38.4949 44.0245 38.3895 43.3651 38.7314 42.8932C39.0731 42.4216 39.7325 42.3162 40.2041 42.6581L41.8859 43.8765L44.6025 40.49C44.967 40.0357 45.6306 39.9629 46.0851 40.3274C46.5394 40.6918 46.6122 41.3557 46.2477 41.81Z" fill="#60CC8C"></path></svg> 