<?xml version="1.0" encoding="UTF-8"?> <svg xmlns="http://www.w3.org/2000/svg" width="68" height="68" viewBox="0 0 68 68" fill="none"><rect width="68" height="68" rx="6" fill="#E2FCEC"></rect><path d="M22.928 33.7756C22.5923 34.4809 22.3984 35.2519 22.3984 36.0391C22.3984 37.8587 23.3251 39.4654 24.7311 40.4138C24.9187 41.0318 25.2038 41.6852 25.6531 42.1634C26.0305 42.5641 26.2903 43.0198 26.4477 43.4922H32.9453V16.5867C32.3224 16.2233 31.6077 16 30.8359 16C29.2932 16 27.8974 16.8446 27.1621 18.1443C25.8817 17.9734 24.5614 18.4173 23.6344 19.3453C22.8371 20.1424 22.3984 21.2015 22.3984 22.3281C22.3984 22.8329 22.4992 23.3196 22.6682 23.7797C21.2034 24.9709 20.2891 26.7383 20.2891 28.6562C20.2891 30.7659 21.3366 32.6253 22.928 33.7756Z" fill="#60CC8C"></path><path d="M35.0547 16.0535V43.4921H41.3828V42.934C41.3828 41.9823 41.8143 41.0188 42.5674 40.4154C45.8364 37.796 47.7109 33.8947 47.7109 29.7108C47.7109 22.5068 42.1222 16.5954 35.0547 16.0535ZM41.3828 30.7655C41.3828 27.9434 39.981 25.3202 37.6315 23.7483L38.8057 21.9954C41.7401 23.9595 43.4922 27.2378 43.4922 30.7655H41.3828Z" fill="#60CC8C"></path><path d="M41.3828 46.6562V45.6016H26.6172V46.6562C26.6172 49.5638 28.9831 52 31.8906 52H36.1094C39.0169 52 41.3828 49.5638 41.3828 46.6562Z" fill="#60CC8C"></path></svg> 