<?xml version="1.0" encoding="UTF-8"?> <svg xmlns="http://www.w3.org/2000/svg" width="155" height="130" viewBox="0 0 155 130" fill="none"><path d="M43.5263 29.4141C49.8482 29.4141 54.9731 24.2807 54.9731 17.9484C54.9731 11.616 49.8482 6.48267 43.5263 6.48267C37.2045 6.48267 32.0796 11.616 32.0796 17.9484C32.0796 24.2807 37.2045 29.4141 43.5263 29.4141Z" fill="#FF6584"></path><path d="M110.368 21.2913H96.6377V8.78857L110.368 21.2913Z" fill="#3F3D56"></path><path d="M111.972 20.8821H42.8994V116.468H111.972V20.8821Z" fill="#E6E6E6"></path><path d="M57.9172 27.584H49.791V44.7355H57.9172V27.584Z" fill="white"></path><path d="M70.4866 27.584H62.3604V44.7355H70.4866V27.584Z" fill="white"></path><path d="M56.8459 51.8938H48.7197V69.0453H56.8459V51.8938Z" fill="white"></path><path d="M70.4866 51.8938H62.3604V69.0453H70.4866V51.8938Z" fill="white"></path><path d="M56.8459 74.3872H48.7197V91.5387H56.8459V74.3872Z" fill="white"></path><path d="M70.1804 74.0806H62.0542V91.232H70.1804V74.0806Z" fill="white"></path><path d="M81.9915 99.3552H73.8652V116.507H81.9915V99.3552Z" fill="#CCCCCC"></path><path d="M94.2688 74.0806H86.1426V91.232H94.2688V74.0806Z" fill="white"></path><path d="M107.909 74.0806H99.7832V91.232H107.909V74.0806Z" fill="white"></path><path d="M94.575 51.7124H86.4487V68.8639H94.575V51.7124Z" fill="white"></path><path d="M108.216 51.7124H100.089V68.8639H108.216V51.7124Z" fill="white"></path><path d="M94.575 27.584H86.4487V44.7355H94.575V27.584Z" fill="white"></path><path d="M108.216 27.584H100.089V44.7355H108.216V27.584Z" fill="white"></path><path d="M111.972 42.9753H42.8994V45.5917H111.972V42.9753Z" fill="#3F3D56"></path><path d="M111.972 63.3247H42.8994V64.7782H111.972V63.3247Z" fill="#3F3D56"></path><path d="M111.972 58.6733H42.8994V60.1269H111.972V58.6733Z" fill="#3F3D56"></path><path d="M49.7197 92.6857V81.0576H48.2686V92.6857H49.7197Z" fill="#3F3D56"></path><path d="M57.8462 92.6857V81.0576H56.3951V92.6857H57.8462Z" fill="#3F3D56"></path><path d="M65.9722 92.6857V81.0576H64.5211V92.6857H65.9722Z" fill="#3F3D56"></path><path d="M74.0986 92.6855V81.0574H72.6475V92.6855H74.0986Z" fill="#3F3D56"></path><path d="M82.2246 92.6857V81.0576H80.7735V92.6857H82.2246Z" fill="#3F3D56"></path><path d="M90.3511 92.6855V81.0574H88.9V92.6855H90.3511Z" fill="#3F3D56"></path><path d="M98.4771 92.6857V81.0576H97.0259V92.6857H98.4771Z" fill="#3F3D56"></path><path d="M106.604 92.6855V81.0574H105.152V92.6855H106.604Z" fill="#3F3D56"></path><path d="M49.8652 70.5922V58.9641H48.4141V70.5922H49.8652Z" fill="#3F3D56"></path><path d="M57.9912 70.5922V58.9641H56.5401V70.5922H57.9912Z" fill="#3F3D56"></path><path d="M66.1177 70.5922V58.9641H64.6666V70.5922H66.1177Z" fill="#3F3D56"></path><path d="M74.2437 70.5922V58.9641H72.7925V70.5922H74.2437Z" fill="#3F3D56"></path><path d="M82.3701 70.5922V58.9641H80.919V70.5922H82.3701Z" fill="#3F3D56"></path><path d="M90.4961 70.5922V58.9641H89.045V70.5922H90.4961Z" fill="#3F3D56"></path><path d="M98.6226 70.5922V58.9641H97.1714V70.5922H98.6226Z" fill="#3F3D56"></path><path d="M106.749 70.5922V58.9641H105.297V70.5922H106.749Z" fill="#3F3D56"></path><path d="M49.8652 44.7197V33.0916H48.4141V44.7197H49.8652Z" fill="#3F3D56"></path><path d="M57.9912 44.7197V33.0916H56.5401V44.7197H57.9912Z" fill="#3F3D56"></path><path d="M66.1177 44.7197V33.0916H64.6666V44.7197H66.1177Z" fill="#3F3D56"></path><path d="M74.2437 44.7197V33.0916H72.7925V44.7197H74.2437Z" fill="#3F3D56"></path><path d="M82.3701 44.7197V33.0916H80.919V44.7197H82.3701Z" fill="#3F3D56"></path><path d="M90.4961 44.7197V33.0916H89.045V44.7197H90.4961Z" fill="#3F3D56"></path><path d="M98.6226 44.7197V33.0916H97.1715V44.7197H98.6226Z" fill="#3F3D56"></path><path d="M106.749 44.7197V33.0916H105.297V44.7197H106.749Z" fill="#3F3D56"></path><path d="M111.972 37.1614H42.8994V38.6149H111.972V37.1614Z" fill="#3F3D56"></path><path d="M111.972 32.5103H42.8994V33.9638H111.972V32.5103Z" fill="#3F3D56"></path><path d="M111.972 68.2666H42.8994V70.8829H111.972V68.2666Z" fill="#3F3D56"></path><path d="M115.151 19.8064H39.7212V23.7051H115.151V19.8064Z" fill="#3F3D56"></path><path d="M57.9324 103.064V99.3552H53.4893V103.064H57.5621H57.9324Z" fill="white"></path><path d="M57.5621 106.031H53.4893V109.74H57.9324V106.031H57.5621Z" fill="white"></path><path d="M65.3377 99.3552H60.8945V103.064H65.3377V99.3552Z" fill="white"></path><path d="M65.3377 106.031H60.8945V109.74H65.3377V106.031Z" fill="white"></path><path d="M94.1712 103.064V99.3552H89.728V103.064H93.8009H94.1712Z" fill="white"></path><path d="M93.8009 106.031H89.728V109.74H94.1712V106.031H93.8009Z" fill="white"></path><path d="M101.576 99.3552H97.1333V103.064H101.576V99.3552Z" fill="white"></path><path d="M101.576 106.031H97.1333V109.74H101.576V106.031Z" fill="white"></path><path d="M111.972 90.3599H42.8994V92.9762H111.972V90.3599Z" fill="#3F3D56"></path><path d="M111.972 85.7087H42.8994V87.1622H111.972V85.7087Z" fill="#3F3D56"></path><path d="M111.972 81.0574H42.8994V82.5109H111.972V81.0574Z" fill="#3F3D56"></path><path d="M63.811 115.222C63.8111 115.142 63.81 115.061 63.8077 114.981C63.7456 112.838 61.6234 112.257 60.4856 113.271C60.1266 112.959 59.6671 112.787 59.1915 112.787C58.716 112.787 58.2565 112.959 57.8975 113.271C56.7548 112.273 54.6749 112.813 54.6062 114.931C54.6036 115.011 54.6022 115.092 54.6021 115.173C54.6054 115.618 54.6327 116.063 54.6837 116.506H63.7304C63.7796 116.08 63.8065 115.651 63.811 115.222Z" fill="#60CC8C"></path><path d="M99.7665 115.222C99.7667 115.142 99.7656 115.061 99.7633 114.981C99.7012 112.838 97.5789 112.257 96.4412 113.271C96.0821 112.959 95.6226 112.787 95.1471 112.787C94.6716 112.787 94.2121 112.959 93.853 113.271C92.7104 112.273 90.6304 112.813 90.5617 114.931C90.5592 115.011 90.5578 115.092 90.5576 115.173C90.561 115.618 90.5882 116.063 90.6393 116.506H99.686C99.7352 116.08 99.7621 115.651 99.7665 115.222Z" fill="#60CC8C"></path><path d="M149.382 116.651H147.983L148.45 89.2749H148.916L149.382 116.651Z" fill="#E6E6E6"></path><path d="M150.548 72.04L152.807 68.5439C152.137 66.6907 151.363 64.8768 150.49 63.1109L149.029 64.2924L150.186 62.5023C149.084 60.3295 148.216 58.9604 148.216 58.9604C148.216 58.9604 143.687 66.11 142.174 73.6797L145.072 78.1661L141.864 75.5704C141.749 76.4522 141.69 77.3403 141.688 78.2295C141.688 87.1945 144.611 94.4622 148.216 94.4622C151.822 94.4622 154.745 87.1945 154.745 78.2295C154.745 75.4502 154.118 72.5425 153.252 69.8528L150.548 72.04Z" fill="#E6E6E6"></path><path d="M106.709 125.376H80.2275V126.424H106.709V125.376Z" fill="#E6E6E6"></path><path d="M155 125.376H128.375V126.424H155V125.376Z" fill="#E6E6E6"></path><path d="M58.5957 125.376H32.0796V126.424H58.5957V125.376Z" fill="#E6E6E6"></path><path d="M154.891 116.483H0V116.775H154.891V116.483Z" fill="#3F3D56"></path><path d="M121.485 121.532L124.603 121.533L124.603 121.037L121.485 121.036L121.485 121.532Z" fill="#3F3D56"></path><path d="M98.9385 121.148L99.5819 121.297L124.034 121.31L124.254 120.797C124.637 119.916 124.769 118.947 124.634 117.996C124.529 117.287 124.265 116.583 123.665 116.277L122.58 109.038L109.052 109.014L103.818 113.242C103.818 113.242 101.349 113.198 100.008 114.87C99.5242 115.492 99.2385 116.246 99.1881 117.033L99.1352 117.903L98.9385 121.148Z" fill="#60CC8C"></path><path d="M104.309 124.051C105.977 124.051 107.328 122.697 107.328 121.027C107.328 119.356 105.977 118.002 104.309 118.002C102.641 118.002 101.29 119.356 101.29 121.027C101.29 122.697 102.641 124.051 104.309 124.051Z" fill="#3F3D56"></path><path d="M104.309 122.618C105.187 122.618 105.898 121.906 105.898 121.027C105.898 120.147 105.187 119.435 104.309 119.435C103.431 119.435 102.72 120.147 102.72 121.027C102.72 121.906 103.431 122.618 104.309 122.618Z" fill="#CCCCCC"></path><path d="M119.208 124.059C120.875 124.059 122.227 122.705 122.227 121.034C122.227 119.364 120.875 118.01 119.208 118.01C117.54 118.01 116.188 119.364 116.188 121.034C116.188 122.705 117.54 124.059 119.208 124.059Z" fill="#3F3D56"></path><path d="M119.208 122.626C120.085 122.626 120.797 121.914 120.797 121.034C120.797 120.155 120.085 119.443 119.208 119.443C118.33 119.443 117.619 120.155 117.619 121.034C117.619 121.914 118.33 122.626 119.208 122.626Z" fill="#CCCCCC"></path><path d="M105.897 112.748L113.202 112.751H114.093L115.599 112.752V112.642L115.6 111.316L115.601 109.827H114.599L113.707 109.826L112.128 109.825H111.237L109.413 109.824L105.897 112.748Z" fill="white"></path><path d="M116.787 112.753L120.647 112.755L120.648 111.997V110.671L120.649 109.83H120.084L119.193 109.829L116.788 109.828L116.787 112.753Z" fill="white"></path><path d="M115.102 115.877L115.597 115.877L115.597 114.935L115.102 114.935L115.102 115.877Z" fill="#3F3D56"></path><path d="M107.877 114.088L107.877 113.592L106.937 113.592L106.937 114.087L107.877 114.088Z" fill="#3F3D56"></path><path d="M107.53 113.809L107.476 113.809C107.201 113.809 106.938 113.7 106.744 113.505C106.551 113.311 106.442 113.047 106.442 112.773C106.442 112.498 106.551 112.234 106.745 112.04C106.939 111.846 107.203 111.737 107.477 111.737L107.531 111.737L107.53 113.809Z" fill="#3F3D56"></path><path d="M99.1348 117.903C99.5091 117.943 99.8858 117.851 100.198 117.641C100.511 117.43 100.74 117.117 100.844 116.754C100.948 116.392 100.922 116.004 100.769 115.66C100.616 115.315 100.346 115.035 100.008 114.87C99.5237 115.492 99.238 116.246 99.1877 117.033L99.1348 117.903Z" fill="#3F3D56"></path><path d="M113.708 109.826L115.599 112.642L115.6 111.316L114.599 109.827L113.708 109.826Z" fill="#F2F2F2"></path><path d="M119.192 109.829L120.648 111.996V110.671L120.084 109.83L119.192 109.829Z" fill="#F2F2F2"></path><path d="M111.237 109.825L113.202 112.751H114.093L112.128 109.825H111.237Z" fill="#F2F2F2"></path><path d="M71.5929 0.183115L71.5727 0.194124C71.3548 0.313504 71.1105 0.376487 70.8622 0.377359C70.6138 0.378232 70.3691 0.316966 70.1503 0.19912C70.1377 0.192309 70.1252 0.185583 70.1127 0.178943C69.894 0.0619919 69.6497 0.00122373 69.4018 0.00208127C69.1538 0.00293881 68.9099 0.0653956 68.692 0.183857L68.6732 0.194124C68.4553 0.313504 68.211 0.376487 67.9626 0.377359C67.7143 0.378232 67.4696 0.316966 67.2508 0.19912C67.2378 0.192049 67.2248 0.18507 67.2118 0.178182C66.9957 0.0617668 66.7541 0.000625879 66.5087 0.000190885C66.2633 -0.000244109 66.0215 0.0600408 65.8049 0.175689C65.1434 0.532561 64.249 1.14273 64.2529 1.83181C64.2531 1.85906 64.2546 1.88628 64.2576 1.91338C64.3345 2.62899 66.6647 2.81133 67.9448 2.47408C68.8991 2.69218 69.8901 2.69218 70.8443 2.47408C72.119 2.81673 74.4966 2.62042 74.5661 1.8966C74.5687 1.86948 74.57 1.84224 74.5698 1.815C74.5659 1.12554 73.6636 0.521768 72.9979 0.169919C72.7807 0.056108 72.5388 -0.00223645 72.2937 6.55704e-05C72.0486 0.00236759 71.8079 0.0652441 71.5929 0.183115Z" fill="#E6E6E6"></path><path d="M135.79 23.8103L135.77 23.8213C135.552 23.9407 135.308 24.0037 135.059 24.0046C134.811 24.0054 134.566 23.9442 134.348 23.8263C134.335 23.8195 134.322 23.8128 134.31 23.8061C134.091 23.6892 133.847 23.6284 133.599 23.6293C133.351 23.6301 133.107 23.6926 132.889 23.8111L132.87 23.8213C132.653 23.9407 132.408 24.0037 132.16 24.0046C131.912 24.0054 131.667 23.9442 131.448 23.8263C131.435 23.8192 131.422 23.8123 131.409 23.8054C131.193 23.689 130.951 23.6278 130.706 23.6274C130.461 23.627 130.219 23.6872 130.002 23.8029C129.341 24.1598 128.446 24.7699 128.45 25.459C128.45 25.4863 128.452 25.5135 128.455 25.5406C128.532 26.2562 130.862 26.4385 132.142 26.1013C133.096 26.3194 134.087 26.3194 135.042 26.1013C136.316 26.4439 138.694 26.2476 138.763 25.5238C138.766 25.4967 138.767 25.4694 138.767 25.4422C138.763 24.7527 137.861 24.149 137.195 23.7971C136.978 23.6833 136.736 23.625 136.491 23.6273C136.246 23.6296 136.005 23.6924 135.79 23.8103Z" fill="#E6E6E6"></path><path d="M23.3702 25.1294L23.35 25.1404C23.1321 25.2598 22.8879 25.3228 22.6395 25.3236C22.3911 25.3245 22.1464 25.2633 21.9277 25.1454C21.9151 25.1386 21.9026 25.1319 21.8901 25.1252C21.6713 25.0083 21.4271 24.9475 21.1791 24.9484C20.9312 24.9492 20.6873 25.0117 20.4694 25.1301L20.4505 25.1404C20.2326 25.2598 19.9884 25.3228 19.74 25.3236C19.4916 25.3245 19.2469 25.2633 19.0282 25.1454C19.0151 25.1383 19.0021 25.1314 18.9892 25.1245C18.773 25.0081 18.5315 24.9469 18.286 24.9465C18.0406 24.946 17.7989 25.0063 17.5823 25.122C16.9207 25.4788 16.0263 26.089 16.0303 26.7781C16.0304 26.8053 16.032 26.8326 16.0349 26.8597C16.1118 27.5753 18.4421 27.7576 19.7222 27.4204C20.6764 27.6385 21.6674 27.6385 22.6217 27.4204C23.8963 27.763 26.274 27.5667 26.3435 26.8429C26.3461 26.8158 26.3473 26.7885 26.3472 26.7613C26.3432 26.0718 25.4409 25.4681 24.7752 25.1162C24.558 25.0024 24.3161 24.9441 24.0711 24.9464C23.826 24.9487 23.5852 25.0115 23.3702 25.1294Z" fill="#E6E6E6"></path><path d="M19.216 126.978H16.0977V127.474H19.216V126.978Z" fill="#3F3D56"></path><path d="M41.7627 127.089L41.1193 127.238L16.6671 127.251L16.4473 126.738C16.0638 125.858 15.9322 124.888 16.0671 123.937C16.1724 123.228 16.4363 122.524 17.0357 122.218L18.1208 114.979L31.6489 114.955L36.8829 119.183C36.8829 119.183 39.3518 119.139 40.6931 120.812C41.177 121.433 41.4627 122.187 41.513 122.974L41.5659 123.844L41.7627 127.089Z" fill="#60CC8C"></path><path d="M36.3919 129.992C38.0595 129.992 39.4113 128.638 39.4113 126.968C39.4113 125.297 38.0595 123.943 36.3919 123.943C34.7244 123.943 33.3726 125.297 33.3726 126.968C33.3726 128.638 34.7244 129.992 36.3919 129.992Z" fill="#3F3D56"></path><path d="M36.3919 128.56C37.2696 128.56 37.981 127.847 37.981 126.968C37.981 126.089 37.2696 125.376 36.3919 125.376C35.5142 125.376 34.8027 126.089 34.8027 126.968C34.8027 127.847 35.5142 128.56 36.3919 128.56Z" fill="#CCCCCC"></path><path d="M21.493 130C23.1606 130 24.5124 128.646 24.5124 126.976C24.5124 125.305 23.1606 123.951 21.493 123.951C19.8255 123.951 18.4736 125.305 18.4736 126.976C18.4736 128.646 19.8255 130 21.493 130Z" fill="#3F3D56"></path><path d="M21.493 128.567C22.3706 128.567 23.0821 127.855 23.0821 126.976C23.0821 126.096 22.3706 125.384 21.493 125.384C20.6153 125.384 19.9038 126.096 19.9038 126.976C19.9038 127.855 20.6153 128.567 21.493 128.567Z" fill="#CCCCCC"></path><path d="M34.8033 118.689L27.4991 118.692H26.6075L25.1022 118.693V118.583L25.1011 117.257L25.1001 115.769H26.1016L26.9932 115.767L28.5725 115.766H29.4641L31.2874 115.765L34.8033 118.689Z" fill="white"></path><path d="M23.9136 118.694L20.0534 118.696L20.0523 117.938V116.612L20.0513 115.772H20.6165L21.5081 115.771L23.9125 115.77L23.9136 118.694Z" fill="white"></path><path d="M25.5985 120.875H25.1035V121.817H25.5985V120.875Z" fill="#3F3D56"></path><path d="M33.7649 120.028L33.7646 119.532L32.8242 119.532L32.8244 120.028L33.7649 120.028Z" fill="#3F3D56"></path><path d="M33.1699 117.678H33.2244C33.3602 117.678 33.4947 117.705 33.6203 117.757C33.7458 117.809 33.8598 117.885 33.9559 117.981C34.0519 118.077 34.1281 118.192 34.1801 118.317C34.2321 118.443 34.2589 118.578 34.2589 118.714C34.2589 118.989 34.1499 119.252 33.9559 119.447C33.7619 119.641 33.4987 119.75 33.2244 119.75H33.1699V117.678H33.1699Z" fill="#3F3D56"></path><path d="M41.5658 123.844C41.1915 123.885 40.8148 123.792 40.5022 123.582C40.1895 123.372 39.9608 123.058 39.8565 122.695C39.7522 122.333 39.7789 121.945 39.932 121.601C40.085 121.256 40.3545 120.977 40.6931 120.812C41.1769 121.433 41.4626 122.187 41.5129 122.974L41.5658 123.844Z" fill="#3F3D56"></path><path d="M26.9931 115.767L25.1021 118.583L25.1011 117.257L26.1015 115.769L26.9931 115.767Z" fill="#F2F2F2"></path><path d="M21.508 115.771L20.0522 117.938V116.612L20.6164 115.772L21.508 115.771Z" fill="#F2F2F2"></path><path d="M29.464 115.766L27.499 118.692H26.6074L28.5724 115.766H29.464Z" fill="#F2F2F2"></path></svg> 