<?xml version="1.0" encoding="UTF-8"?> <svg xmlns="http://www.w3.org/2000/svg" width="68" height="68" viewBox="0 0 68 68" fill="none"><rect width="68" height="68" rx="6" fill="#E2FCEC"></rect><g clip-path="url(#clip0)"><path d="M33.2135 34.2228C31.6507 32.7508 30.282 31.5546 29.1085 30.5289C25.4414 27.3246 23.4219 25.5592 23.4219 22.1916C23.4219 18.7198 25.9641 16 29.2087 16C31.5969 16 33.0968 17.4193 33.9738 18.7302C34.8963 17.3284 36.4251 16 38.6677 16C41.9133 16 44.4555 18.7198 44.4555 22.1917C44.4555 25.6222 42.3544 27.4506 38.5417 30.7696C37.4219 31.7437 36.1286 32.8697 34.6566 34.2301C34.2499 34.6057 33.6195 34.606 33.2135 34.2228Z" fill="#60CC8C"></path><path d="M32.9417 39.0815C32.9417 37.0785 31.81 35.2473 30.0184 34.3515L26.0104 32.3475C25.3071 31.9958 24.4795 32.5073 24.4795 33.2936C24.5211 33.5297 24.2038 35.845 25.9242 36.9625L28.2293 38.4597C28.7189 38.7789 28.8584 39.4338 28.5402 39.9235C28.2168 40.4192 27.5586 40.5484 27.0764 40.2344L23.8081 38.1106C22.9074 37.5253 22.3639 36.5241 22.3639 35.45V29.6325C22.3639 27.7823 21.3185 26.0909 19.6636 25.2634C18.9603 24.9118 18.1328 25.4232 18.1328 26.2095V36.504C18.1328 41.2867 22.88 43.7074 22.6762 43.4958C23.8028 44.2469 24.4795 45.5112 24.4795 46.8651V50.9424C24.4795 51.5265 24.9531 52.0001 25.5372 52.0001H31.8839C32.468 52.0001 32.9416 51.5265 32.9416 50.9424V39.0815H32.9417Z" fill="#60CC8C"></path><path d="M37.9809 34.3515L41.9889 32.3475C42.6922 31.9958 43.5197 32.5073 43.5197 33.2936C43.4781 33.5297 43.7955 35.845 42.075 36.9625L39.77 38.4597C39.2804 38.7789 39.1409 39.4338 39.4591 39.9235C39.7825 40.4192 40.4406 40.5484 40.9228 40.2344L44.1912 38.1106C45.0919 37.5253 45.6354 36.5241 45.6354 35.45V29.6325C45.6354 27.7823 46.6807 26.0909 48.3356 25.2634C49.039 24.9118 49.8665 25.4232 49.8665 26.2095V36.504C49.8665 41.2867 45.1193 43.7074 45.323 43.4958C44.1965 44.2469 43.5198 45.5112 43.5198 46.8651V50.9424C43.5198 51.5265 43.0462 52.0001 42.462 52.0001H36.1154C35.5312 52.0001 35.0576 51.5265 35.0576 50.9424V39.0815C35.0575 37.0785 36.1892 35.2473 37.9809 34.3515Z" fill="#60CC8C"></path></g><defs><clipPath id="clip0"><rect width="36" height="36" fill="white" transform="translate(16 16)"></rect></clipPath></defs></svg> 