<?xml version="1.0" encoding="UTF-8"?> <svg xmlns="http://www.w3.org/2000/svg" width="168" height="120" viewBox="0 0 168 120" fill="none"><path d="M110.693 72.212H110.315C110.315 54.1784 95.7022 39.507 77.7412 39.507C59.7802 39.507 45.1678 54.1784 45.1678 72.212H44.7891C44.7891 53.9687 59.5714 39.1267 77.7412 39.1267C95.9112 39.1267 110.693 53.9687 110.693 72.212Z" fill="#3F3D56"></path><path d="M22.134 78.4469C34.3583 78.4469 44.2681 68.4971 44.2681 56.2234C44.2681 43.9498 34.3583 34 22.134 34C9.90974 34 0 43.9498 0 56.2234C0 68.4971 9.90974 78.4469 22.134 78.4469Z" fill="#60CC8C"></path><path opacity="0.2" d="M38.5986 41.3799C40.6632 46.2289 40.9433 51.657 39.3888 56.6942C37.8343 61.7315 34.5465 66.0496 30.113 68.877C25.6794 71.7044 20.389 72.8569 15.187 72.1284C9.98509 71.4 5.21062 68.8381 1.7168 64.9005C2.97801 67.8631 4.86565 70.5149 7.24893 72.6722C9.63221 74.8296 12.4541 76.4409 15.5192 77.3945C18.5843 78.3481 21.8192 78.6213 24.9999 78.195C28.1805 77.7688 31.2309 76.6533 33.9395 74.9259C36.6482 73.1985 38.9504 70.9005 40.6867 68.191C42.423 65.4816 43.5518 62.4256 43.995 59.2346C44.4382 56.0437 44.1851 52.7941 43.2533 49.7111C42.3215 46.6281 40.7333 43.7854 38.5986 41.3799Z" fill="black"></path><path d="M22.1949 56.2235H22.2556L23.3502 119.231H21.0396L22.1949 56.2235Z" fill="#3F3D56"></path><path d="M26.2252 90.543L25.7153 89.5706L22.0565 91.5046L22.5664 92.4771L26.2252 90.543Z" fill="#3F3D56"></path><path d="M138.939 69.4407C152.78 69.4407 164 58.1751 164 44.2783C164 30.3815 152.78 19.116 138.939 19.116C125.098 19.116 113.878 30.3815 113.878 44.2783C113.878 58.1751 125.098 69.4407 138.939 69.4407Z" fill="#60CC8C"></path><path opacity="0.2" d="M157.581 27.4719C159.919 32.9622 160.236 39.1081 158.476 44.8115C156.716 50.5149 152.993 55.4041 147.973 58.6054C142.953 61.8067 136.963 63.1116 131.073 62.2868C125.184 61.462 119.778 58.5613 115.822 54.103C117.25 57.4573 119.387 60.4598 122.086 62.9024C124.784 65.3451 127.979 67.1695 131.449 68.2492C134.92 69.329 138.583 69.6382 142.184 69.1556C145.785 68.673 149.239 67.41 152.306 65.4542C155.373 63.4983 157.979 60.8964 159.945 57.8287C161.911 54.7609 163.189 51.3007 163.691 47.6878C164.193 44.0749 163.906 40.3956 162.851 36.9049C161.796 33.4142 159.998 30.1956 157.581 27.4719Z" fill="black"></path><path d="M139.008 44.2783H139.077L140.316 115.618H137.7L139.008 44.2783Z" fill="#3F3D56"></path><path d="M143.571 83.1365L142.994 82.0355L138.851 84.2254L139.428 85.3264L143.571 83.1365Z" fill="#3F3D56"></path><path d="M59.5 64C63.0898 64 66 61.0899 66 57.5C66 53.9101 63.0898 51 59.5 51C55.9101 51 53 53.9101 53 57.5C53 61.0899 55.9101 64 59.5 64Z" fill="#60CC8C"></path><path opacity="0.2" d="M64.416 53C64.9991 54.4412 65.0782 56.0545 64.6392 57.5516C64.2002 59.0487 63.2717 60.3322 62.0196 61.1725C60.7674 62.0128 59.2733 62.3554 57.8042 62.1389C56.3351 61.9223 54.9867 61.1609 54 59.9906C54.3562 60.8711 54.8893 61.6593 55.5624 62.3005C56.2354 62.9417 57.0324 63.4206 57.898 63.704C58.7637 63.9874 59.6773 64.0686 60.5755 63.9419C61.4738 63.8152 62.3353 63.4837 63.1002 62.9703C63.8652 62.4569 64.5154 61.7739 65.0058 60.9686C65.4961 60.1633 65.8149 59.255 65.9401 58.3067C66.0653 57.3583 65.9938 56.3925 65.7306 55.4762C65.4675 54.5598 65.0189 53.7149 64.416 53Z" fill="black"></path><path d="M59.5001 57H59.5263L60 76H59L59.5001 57Z" fill="#3F3D56"></path><path d="M60.7015 67.4674L60.5518 67.1819L59.4773 67.7498L59.627 68.0354L60.7015 67.4674Z" fill="#3F3D56"></path><path d="M29.9048 114.843C29.9048 114.843 30.0356 112.091 32.7165 112.411L29.9048 114.843Z" fill="#3F3D56"></path><path d="M29.1475 112.224C29.8885 112.224 30.4893 111.621 30.4893 110.877C30.4893 110.133 29.8885 109.53 29.1475 109.53C28.4064 109.53 27.8057 110.133 27.8057 110.877C27.8057 111.621 28.4064 112.224 29.1475 112.224Z" fill="#60CC8C"></path><path d="M29.3079 113.146H28.9292V115.808H29.3079V113.146Z" fill="#3F3D56"></path><path d="M39.374 108.568C39.374 108.568 39.5048 105.817 42.1858 106.136L39.374 108.568Z" fill="#3F3D56"></path><path d="M38.6167 105.95C39.3578 105.95 39.9585 105.347 39.9585 104.602C39.9585 103.858 39.3578 103.255 38.6167 103.255C37.8757 103.255 37.2749 103.858 37.2749 104.602C37.2749 105.347 37.8757 105.95 38.6167 105.95Z" fill="#60CC8C"></path><path d="M38.7767 106.871H38.3979V109.533H38.7767V106.871Z" fill="#3F3D56"></path><path d="M109.581 80.4348C109.581 80.4348 109.685 78.2496 111.814 78.5036L109.581 80.4348Z" fill="#3F3D56"></path><path d="M108.979 78.3553C109.568 78.3553 110.045 77.8762 110.045 77.2853C110.045 76.6943 109.568 76.2152 108.979 76.2152C108.391 76.2152 107.914 76.6943 107.914 77.2853C107.914 77.8762 108.391 78.3553 108.979 78.3553Z" fill="#60CC8C"></path><path d="M109.106 79.0872H108.806V81.2015H109.106V79.0872Z" fill="#3F3D56"></path><path d="M116.02 84.0476C116.02 84.0476 116.124 81.8624 118.253 82.1164L116.02 84.0476Z" fill="#3F3D56"></path><path d="M115.418 81.9681C116.007 81.9681 116.484 81.489 116.484 80.898C116.484 80.3071 116.007 79.828 115.418 79.828C114.83 79.828 114.353 80.3071 114.353 80.898C114.353 81.489 114.83 81.9681 115.418 81.9681Z" fill="#60CC8C"></path><path d="M115.545 82.7H115.245V84.8143H115.545V82.7Z" fill="#3F3D56"></path><path d="M103.899 77.963C103.899 77.963 104.003 75.7778 106.133 76.0318L103.899 77.963Z" fill="#3F3D56"></path><path d="M103.298 75.8835C103.886 75.8835 104.363 75.4044 104.363 74.8135C104.363 74.2225 103.886 73.7434 103.298 73.7434C102.709 73.7434 102.232 74.2225 102.232 74.8135C102.232 75.4044 102.709 75.8835 103.298 75.8835Z" fill="#60CC8C"></path><path d="M103.425 76.6152H103.125V78.7295H103.425V76.6152Z" fill="#3F3D56"></path><path d="M13.4287 115.413C13.4287 115.413 13.5595 112.662 16.2404 112.982L13.4287 115.413Z" fill="#3F3D56"></path><path d="M12.6714 112.795C13.4125 112.795 14.0132 112.192 14.0132 111.448C14.0132 110.704 13.4125 110.1 12.6714 110.1C11.9303 110.1 11.3296 110.704 11.3296 111.448C11.3296 112.192 11.9303 112.795 12.6714 112.795Z" fill="#60CC8C"></path><path d="M12.8319 113.716H12.4531V116.378H12.8319V113.716Z" fill="#3F3D56"></path><path d="M143.912 114.653C143.912 114.653 144.043 111.901 146.724 112.221L143.912 114.653Z" fill="#3F3D56"></path><path d="M143.154 112.034C143.895 112.034 144.496 111.431 144.496 110.687C144.496 109.943 143.895 109.34 143.154 109.34C142.413 109.34 141.812 109.943 141.812 110.687C141.812 111.431 142.413 112.034 143.154 112.034Z" fill="#60CC8C"></path><path d="M143.315 112.956H142.936V115.618H143.315V112.956Z" fill="#3F3D56"></path><path d="M132.928 108.188C132.928 108.188 133.059 105.436 135.739 105.756L132.928 108.188Z" fill="#3F3D56"></path><path d="M132.17 105.569C132.911 105.569 133.512 104.966 133.512 104.222C133.512 103.478 132.911 102.875 132.17 102.875C131.429 102.875 130.829 103.478 130.829 104.222C130.829 104.966 131.429 105.569 132.17 105.569Z" fill="#60CC8C"></path><path d="M132.331 106.491H131.952V109.153H132.331V106.491Z" fill="#3F3D56"></path><path d="M131.413 117.885C131.413 117.885 131.544 115.134 134.225 115.453L131.413 117.885Z" fill="#3F3D56"></path><path d="M130.655 115.267C131.396 115.267 131.997 114.664 131.997 113.919C131.997 113.175 131.396 112.572 130.655 112.572C129.914 112.572 129.313 113.175 129.313 113.919C129.313 114.664 129.914 115.267 130.655 115.267Z" fill="#60CC8C"></path><path d="M130.816 116.188H130.437V118.85H130.816V116.188Z" fill="#3F3D56"></path><path d="M15.6089 119.938C15.6089 119.938 75.2637 104.156 74.6955 87.9941C73.654 83.5256 66.4575 82.3848 66.4575 82.3848C66.4575 82.3848 49.4133 80.103 58.6929 74.5888C67.9725 69.0746 93.3495 70.4056 93.3495 70.4056C93.3495 70.4056 67.215 74.5888 78.7672 76.8706C88.0469 77.441 99.9778 79.9129 99.9778 79.9129C99.9778 79.9129 124.219 85.0468 127.627 97.5964C131.036 110.146 128.196 119.843 128.196 119.843L15.6089 119.938Z" fill="#E6E6E6"></path><path d="M80.5832 120L80.3599 119.686C80.6755 119.46 80.9863 119.235 81.2924 119.011L81.5184 119.322C81.2111 119.547 80.8993 119.773 80.5832 120Z" fill="white"></path><path d="M83.3678 117.943L83.1362 117.636C83.7563 117.165 84.367 116.69 84.9516 116.226L85.1896 116.529C84.603 116.994 83.99 117.47 83.3678 117.943ZM86.98 115.073L86.7349 114.776C87.3351 114.275 87.9221 113.772 88.4794 113.281L88.7328 113.57C88.1728 114.064 87.5831 114.57 86.98 115.073ZM90.4404 112.015L90.1777 111.734C90.7506 111.194 91.3029 110.654 91.8194 110.129L92.0926 110.399C91.5727 110.928 91.0167 111.472 90.4404 112.015ZM93.6756 108.712L93.39 108.455C93.9162 107.866 94.414 107.277 94.8694 106.703L95.1696 106.943C94.7095 107.523 94.2069 108.118 93.6756 108.712ZM96.5451 105.077L96.228 104.86C96.6742 104.204 97.0768 103.548 97.4244 102.912L97.761 103.098C97.4074 103.744 96.9983 104.411 96.5451 105.077ZM98.752 100.99L98.3948 100.849C98.6731 100.144 98.8911 99.416 99.0464 98.6737L99.4223 98.7512C99.2627 99.5152 99.0385 100.264 98.752 100.99V100.99ZM99.2643 96.424C99.253 95.675 99.1493 94.9303 98.9557 94.2069L99.3264 94.1064C99.5281 94.8606 99.6362 95.6369 99.6481 96.4176L99.2643 96.424ZM98.1161 92.1268C97.7516 91.4659 97.3238 90.8423 96.8388 90.2648L97.133 90.0175C97.6342 90.6143 98.0762 91.2587 98.4527 91.9416L98.1161 92.1268ZM95.253 88.6385C94.6826 88.1341 94.0851 87.6615 93.4633 87.2228L93.6848 86.9081C94.3182 87.3549 94.9267 87.8364 95.5075 88.3502L95.253 88.6385ZM91.5399 85.9826C90.9121 85.6121 90.2348 85.2424 89.5274 84.8837L89.7002 84.5398C90.4151 84.902 91.0995 85.2757 91.7344 85.6503L91.5399 85.9826ZM87.453 83.8989C86.7849 83.6008 86.0734 83.3009 85.338 83.0072L85.48 82.6493C86.2199 82.9447 86.9362 83.2467 87.6089 83.5466L87.453 83.8989ZM83.186 82.1881C82.5022 81.9392 81.7711 81.6836 81.0134 81.4287L81.1353 81.0633C81.8959 81.3194 82.63 81.5758 83.3168 81.8257L83.186 82.1881ZM78.8238 80.7148C78.155 80.5029 77.435 80.28 76.6225 80.0329L76.7338 79.6641C77.5476 79.9115 78.2691 80.1351 78.9393 80.3471L78.8238 80.7148ZM74.4141 79.3674C73.6377 79.1342 72.8974 78.9115 72.2044 78.6972L72.3174 78.3287C73.0095 78.543 73.7486 78.7655 74.5241 78.9982L74.4141 79.3674ZM70.0035 77.9825C69.2651 77.7379 68.5431 77.4461 67.8418 77.1089L68.0144 76.7645C68.7004 77.0942 69.4067 77.3793 70.129 77.6182L70.0035 77.9825ZM67.1052 75.4565L66.8315 75.1863C67.1814 74.8293 67.8735 74.4801 68.9473 74.1184L69.0693 74.4838C68.0682 74.8209 67.4073 75.1483 67.1051 75.4565L67.1052 75.4565ZM71.265 73.8561L71.1722 73.4821C71.836 73.3161 72.5922 73.1424 73.4197 72.966L73.4994 73.343C72.6762 73.5184 71.9244 73.6911 71.265 73.8562V73.8561ZM75.7496 72.8892L75.6777 72.5106C76.3848 72.3749 77.1465 72.2344 77.9415 72.0929L78.0086 72.4722C77.2151 72.6135 76.4552 72.7537 75.7496 72.8892V72.8892ZM80.2726 72.0809L80.2093 71.7008C80.9325 71.579 81.6893 71.4545 82.4797 71.3273L82.5404 71.7077C81.7507 71.8349 80.9948 71.9593 80.2726 72.0809Z" fill="white"></path><path d="M84.8547 71.3419L84.7959 70.9611C85.169 70.9031 85.5487 70.8446 85.9349 70.7855L85.9927 71.1664C85.6066 71.2255 85.2273 71.284 84.8547 71.3419Z" fill="white"></path><path d="M93.3488 32.1999L95.0921 30.7999C93.7378 30.6499 93.1813 31.3915 92.9536 31.9785C91.8955 31.5373 90.7437 32.1155 90.7437 32.1155L94.2318 33.3869C94.0559 32.915 93.7495 32.5032 93.3488 32.1999Z" fill="#3F3D56"></path><path d="M60.965 33.0383L62.7084 31.6383C61.354 31.4882 60.7975 32.2299 60.5698 32.8169C59.5117 32.3757 58.3599 32.9539 58.3599 32.9539L61.848 34.2253C61.6721 33.7534 61.3657 33.3416 60.965 33.0383Z" fill="#3F3D56"></path><path d="M75.6051 15.4196L77.3485 14.0196C75.9941 13.8696 75.4377 14.6112 75.2099 15.1982C74.1518 14.7571 73 15.3352 73 15.3352L76.4882 16.6066C76.3122 16.1347 76.0059 15.7229 75.6051 15.4196Z" fill="#3F3D56"></path><rect x="65.9502" y="72.9501" width="34.9054" height="35.8004" fill="white"></rect><path d="M106.359 100.524C105.933 100.533 105.52 100.672 105.176 100.922L101.431 70.3365C101.277 69.0821 100.67 67.9274 99.724 67.0899C98.7776 66.2524 97.5576 65.79 96.2939 65.79H70.7209C69.4572 65.79 68.2372 66.2524 67.2909 67.0899C66.3445 67.9274 65.7373 69.0821 65.5837 70.3365L61.8386 100.922C61.4943 100.672 61.0817 100.533 60.6562 100.524C58.6369 100.524 57 103.798 57 107.836C57 111.875 58.6369 115.149 60.6562 115.149C62.1902 115.149 63.5014 113.257 64.0442 110.578H102.971C103.513 113.257 104.825 115.149 106.359 115.149C108.378 115.149 110.015 111.875 110.015 107.836C110.015 103.798 108.378 100.524 106.359 100.524ZM71.6248 102.352C70.7209 102.352 69.8373 102.084 69.0857 101.582C68.3341 101.08 67.7483 100.366 67.4024 99.5307C67.0565 98.6956 66.966 97.7767 67.1424 96.8901C67.3187 96.0036 67.754 95.1892 68.3931 94.5501C69.0323 93.9109 69.8466 93.4757 70.7332 93.2993C71.6197 93.123 72.5386 93.2135 73.3737 93.5594C74.2088 93.9053 74.9226 94.4911 75.4248 95.2426C75.927 95.9942 76.195 96.8778 76.195 97.7817C76.195 98.3819 76.0768 98.9762 75.8471 99.5307C75.6175 100.085 75.2808 100.589 74.8564 101.013C74.432 101.438 73.9282 101.774 73.3737 102.004C72.8192 102.234 72.225 102.352 71.6248 102.352ZM94.476 102.352C93.5721 102.352 92.6885 102.084 91.9369 101.582C91.1853 101.08 90.5996 100.366 90.2536 99.5307C89.9077 98.6956 89.8172 97.7767 89.9936 96.8901C90.1699 96.0036 90.6052 95.1892 91.2443 94.5501C91.8835 93.9109 92.6978 93.4757 93.5844 93.2993C94.4709 93.123 95.3898 93.2135 96.2249 93.5594C97.0601 93.9053 97.7738 94.4911 98.276 95.2426C98.7782 95.9942 99.0462 96.8778 99.0462 97.7817C99.0462 98.3819 98.928 98.9762 98.6984 99.5307C98.4687 100.085 98.132 100.589 97.7077 101.013C97.2833 101.438 96.7794 101.774 96.225 102.004C95.6705 102.234 95.0762 102.352 94.476 102.352ZM99.9603 84.8915C99.9603 85.2639 99.887 85.6326 99.7445 85.9767C99.602 86.3207 99.3931 86.6333 99.1298 86.8966C98.8664 87.16 98.5538 87.3688 98.2098 87.5113C97.8658 87.6539 97.497 87.7272 97.1246 87.7272H69.8902C69.5178 87.7272 69.1491 87.6539 68.805 87.5113C68.461 87.3688 68.1484 87.16 67.8851 86.8966C67.6218 86.6333 67.4129 86.3207 67.2704 85.9767C67.1279 85.6326 67.0545 85.2639 67.0546 84.8915V75.9381C67.0545 75.5657 67.1279 75.197 67.2704 74.853C67.4129 74.5089 67.6218 74.1963 67.8851 73.933C68.1484 73.6697 68.461 73.4608 68.805 73.3183C69.1491 73.1758 69.5178 73.1024 69.8902 73.1024H97.1246C97.497 73.1024 97.8658 73.1758 98.2098 73.3183C98.5538 73.4608 98.8664 73.6697 99.1298 73.933C99.3931 74.1963 99.602 74.5089 99.7445 74.853C99.887 75.197 99.9603 75.5657 99.9603 75.9381V84.8915Z" fill="#3F3D56"></path><path d="M89.2206 67.58H78.4805L80.7821 64H86.9192L89.2206 67.58Z" fill="#60CC8C"></path></svg> 