<?xml version="1.0" encoding="UTF-8"?> <svg xmlns="http://www.w3.org/2000/svg" width="68" height="68" viewBox="0 0 68 68" fill="none"><rect width="68" height="68" rx="6" fill="#E2FCEC"></rect><g clip-path="url(#clip0)"><path d="M35.8195 28.2647C36.2322 28.2647 36.5668 27.9301 36.5668 27.5174C36.5668 27.1047 36.2322 26.7701 35.8195 26.7701C35.4068 26.7701 35.0723 27.1047 35.0723 27.5174C35.0723 27.9301 35.4068 28.2647 35.8195 28.2647Z" fill="#60CC8C"></path><path d="M35.8195 39.4178C36.2322 39.4178 36.5668 39.0832 36.5668 38.6705C36.5668 38.2578 36.2322 37.9232 35.8195 37.9232C35.4068 37.9232 35.0723 38.2578 35.0723 38.6705C35.0723 39.0832 35.4068 39.4178 35.8195 39.4178Z" fill="#60CC8C"></path><path d="M30.2346 33.8411C30.6473 33.8411 30.9819 33.5065 30.9819 33.0938C30.9819 32.6811 30.6473 32.3466 30.2346 32.3466C29.8219 32.3466 29.4873 32.6811 29.4873 33.0938C29.4873 33.5065 29.8219 33.8411 30.2346 33.8411Z" fill="#60CC8C"></path><path d="M31.8693 29.8993C32.2821 29.8993 32.6166 29.5648 32.6166 29.1521C32.6166 28.7394 32.2821 28.4048 31.8693 28.4048C31.4566 28.4048 31.1221 28.7394 31.1221 29.1521C31.1221 29.5648 31.4566 29.8993 31.8693 29.8993Z" fill="#60CC8C"></path><path d="M31.8693 37.7924C32.2821 37.7924 32.6166 37.4578 32.6166 37.0451C32.6166 36.6324 32.2821 36.2979 31.8693 36.2979C31.4566 36.2979 31.1221 36.6324 31.1221 37.0451C31.1221 37.4578 31.4566 37.7924 31.8693 37.7924Z" fill="#60CC8C"></path><path d="M37.3889 33.972L40.2753 29.068C40.4434 28.7877 40.1258 28.4608 39.8363 28.6289L34.9323 31.5246C34.8015 31.5994 34.6707 31.6928 34.5586 31.8142C33.8581 32.5148 33.8581 33.6544 34.5586 34.3549C35.2592 35.0555 36.3988 35.0555 37.0994 34.3549C37.2208 34.2242 37.3142 34.1027 37.3889 33.972Z" fill="#60CC8C"></path><path d="M53.7549 32.3093C53.7549 30.6559 52.4191 29.3202 50.7658 29.3202C52.4471 29.3202 53.8016 27.9377 53.7549 26.247C53.7082 24.6217 52.3351 23.342 50.7004 23.342H44.8436C43.2183 23.342 41.8358 24.6217 41.7891 26.247C41.7424 27.9377 43.0969 29.3202 44.7782 29.3202C43.1249 29.3202 41.7891 30.6559 41.7891 32.3093C41.7891 33.6077 42.6205 34.7006 43.7694 35.1116C43.7507 35.177 43.7414 35.233 43.7227 35.2984H43.2837C41.6303 35.2984 40.2946 36.6341 40.2946 38.2875C40.2946 38.8012 40.4347 39.287 40.6682 39.7073C39.211 40.7815 37.4736 41.314 35.8109 41.314C31.1778 41.314 27.4228 37.4562 27.6002 32.7857C27.759 28.4608 31.2992 24.9767 35.6241 24.8739C37.3522 24.8365 38.9682 25.3409 40.3133 26.219C40.3506 24.8646 40.9858 23.6783 41.9573 22.8749C41.4155 22.548 40.8457 22.2491 40.2479 22.0062C40.2105 21.9875 40.1638 21.9782 40.1171 21.9595C39.7435 21.8101 39.3605 21.6886 38.9682 21.5859C38.8654 21.5579 38.7627 21.5298 38.6599 21.5018C38.2209 21.3897 37.7632 21.2963 37.3055 21.2403V19.643H38.8V16.6539H32.8218V19.643H34.3164V21.2403C30.3278 21.7353 26.8903 24.2481 25.1249 27.7509L23.8078 27.0877C24.06 26.5833 24.3309 26.0882 24.6485 25.6212C25.7787 23.9865 27.3667 22.4639 29.0948 21.4551C29.7113 19.7644 29.4591 17.7841 28.142 16.2429C27.9085 15.972 27.5068 15.9346 27.1986 16.1121L17.8389 21.7634C16.9422 22.3051 16.3911 23.2766 16.3911 24.3228V29.3202V33.0005C16.3911 33.0285 16.3911 33.0659 16.3911 33.0939C16.3911 34.383 16.746 35.5786 17.3252 36.6435L16.3911 37.5776L14.9619 39.0067C13.6822 40.2865 13.6822 42.3601 14.9526 43.6399L22.2572 51.0285C23.5463 52.3363 25.6573 52.3269 26.9464 51.0192L30.6267 47.2548H39.9676C39.9583 47.2455 39.949 47.2268 39.9396 47.2174C40.0611 47.2361 40.1731 47.2548 40.2946 47.2548H46.2074C47.8327 47.2548 49.2152 45.9751 49.2619 44.3498C49.3086 42.6591 47.9541 41.2766 46.2728 41.2766H47.7673H49.1965C50.8218 41.2766 52.2043 39.9969 52.251 38.3716C52.2977 36.6809 50.9432 35.2984 49.2619 35.2984H50.7564C52.4098 35.2984 53.7549 33.9533 53.7549 32.3093Z" fill="#60CC8C"></path></g><defs><clipPath id="clip0"><rect width="39.7551" height="36" fill="white" transform="translate(14 16)"></rect></clipPath></defs></svg> 