<?xml version="1.0" encoding="UTF-8"?> <svg xmlns="http://www.w3.org/2000/svg" width="100" height="100" viewBox="0 0 100 100" fill="none"><path d="M10.9375 67.1875H89.0625V89.0625H10.9375V67.1875Z" fill="#D0D0D0"></path><path d="M10.9375 67.1875H17.1875V89.0625H10.9375V67.1875Z" fill="#D0D0D0"></path><path d="M32.8125 67.1875H39.0625V89.0625H32.8125V67.1875Z" fill="#D0D0D0"></path><path d="M60.9375 67.1875H67.1875V89.0625H60.9375V67.1875Z" fill="#D0D0D0"></path><path d="M82.8125 67.1875H89.0625V89.0625H82.8125V67.1875Z" fill="#D0D0D0"></path><path d="M10.9375 67.1875H17.1875V70.3125H10.9375V67.1875Z" fill="#E6E6E6"></path><path d="M32.8125 67.1875H39.0625V70.3125H32.8125V67.1875Z" fill="#E6E6E6"></path><path d="M60.9375 67.1875H67.1875V70.3125H60.9375V67.1875Z" fill="#E6E6E6"></path><path d="M82.8125 67.1875H89.0625V70.3125H82.8125V67.1875Z" fill="#E6E6E6"></path><path d="M10.9375 89.0625H89.0625V95.3125H10.9375V89.0625Z" fill="#DFDFDD"></path><path d="M39.0625 89.0625H60.9375V95.3125H39.0625V89.0625Z" fill="#CECECC"></path><path d="M17.1875 81.25H23.4375V89.0625H26.5625V81.25H32.8125V78.125H17.1875V81.25Z" fill="#E6E6E6"></path><path d="M82.8125 78.125H67.1875V81.25H73.4375V89.0625H76.5625V81.25H82.8125V78.125Z" fill="#E6E6E6"></path><path d="M89.0625 54.6875H10.9375L7.8125 67.1875H92.1875L89.0625 54.6875Z" fill="#3F3D56"></path><path d="M45.3125 73.4375H54.6875V89.0625H45.3125V73.4375Z" fill="#3F3D56"></path><path d="M45.3125 73.4375H54.6875V76.5625H45.3125V73.4375Z" fill="#657892"></path><path d="M50 79.6875H53.125V82.8125H50V79.6875Z" fill="#7D8FA6"></path><path d="M50 82.8125H53.125V85.9375H50V82.8125Z" fill="#64627B"></path><path d="M89.0625 29.6875V54.6875H10.9375V29.6875L13.0215 17.1875L14.0625 10.9375H85.9375L86.9785 17.1875L89.0625 29.6875Z" fill="#E6E6E6"></path><path d="M89.0625 29.6875V32.8125H64.0625L50 21.875L35.9375 32.8125H10.9375V29.6875L14.0625 10.9375H85.9375L89.0625 29.6875Z" fill="#D0D0D0"></path><path d="M92.1875 29.6875H64.0625L50 18.75L35.9375 29.6875H7.8125L14.0625 10.9375H85.9375L92.1875 29.6875Z" fill="#3F3D56"></path><path d="M43.75 35.9375H56.25V48.4375H43.75V35.9375Z" fill="white"></path><path d="M48.4375 35.9375H51.5625V48.4375H48.4375V35.9375Z" fill="#D0D0D0"></path><path d="M56.25 34.375V35.9375H43.75V34.375C43.75 32.7174 44.4085 31.1277 45.5806 29.9556C46.7527 28.7835 48.3424 28.125 50 28.125C51.6576 28.125 53.2473 28.7835 54.4194 29.9556C55.5915 31.1277 56.25 32.7174 56.25 34.375Z" fill="white"></path><path d="M43.75 40.625H56.25V43.75H43.75V40.625Z" fill="#D0D0D0"></path><path d="M56.25 34.375V35.9375H43.75V34.375C43.7496 33.8479 43.8159 33.3229 43.9473 32.8125H56.0527C56.1841 33.3229 56.2504 33.8479 56.25 34.375Z" fill="#D0D0D0"></path><path d="M68.75 4.6875H78.125V21.875H68.75V4.6875Z" fill="#E6E6E6"></path><path d="M68.75 4.6875H78.125V10.9375H68.75V4.6875Z" fill="#D0D0D0"></path><path d="M17.1875 17.1875H23.4375V20.3125H17.1875V17.1875Z" fill="#64627B"></path><path d="M23.4375 20.3125H29.6875V23.4375H23.4375V20.3125Z" fill="#64627B"></path><path d="M35.9375 17.1875H42.1875V20.3125H35.9375V17.1875Z" fill="#64627B"></path><path d="M57.8125 17.1875H64.0625V20.3125H57.8125V17.1875Z" fill="#64627B"></path><path d="M81.25 60.9375H87.5V64.0625H81.25V60.9375Z" fill="#64627B"></path><path d="M64.0625 59.375H70.3125V62.5H64.0625V59.375Z" fill="#64627B"></path><path d="M17.1875 59.375H23.4375V62.5H17.1875V59.375Z" fill="#64627B"></path><path d="M37.5 57.8125H43.75V60.9375H37.5V57.8125Z" fill="#64627B"></path><path d="M23.4375 35.9375H29.6875V48.4375H23.4375V35.9375Z" fill="white"></path><path d="M23.4375 36H29.6875V39.125H23.4375V36Z" fill="#C4C4C4"></path><path d="M17.1875 35.9375H23.4375V48.4375H17.1875V35.9375Z" fill="#D0D0D0"></path><path d="M29.6875 35.9375H35.9375V48.4375H29.6875V35.9375Z" fill="#D0D0D0"></path><path d="M17.1875 48.4375H23.4375V51.5625H17.1875V48.4375Z" fill="#C4C4C4"></path><path d="M29.6875 48.4375H35.9375V51.5625H29.6875V48.4375Z" fill="#C4C4C4"></path><path d="M70.3125 36H76.5625V48.5H70.3125V36Z" fill="white"></path><path d="M70.3125 36H76.5625V39.125H70.3125V36Z" fill="#C4C4C4"></path><path d="M64.0625 35.9375H70.3125V48.4375H64.0625V35.9375Z" fill="#D0D0D0"></path><path d="M76.5625 35.9375H82.8125V48.4375H76.5625V35.9375Z" fill="#D0D0D0"></path><path d="M64.0625 48.4375H70.3125V51.5625H64.0625V48.4375Z" fill="#C4C4C4"></path><path d="M76.5625 48.4375H82.8125V51.5625H76.5625V48.4375Z" fill="#C4C4C4"></path><path d="M68.75 21.875H78.125V25H68.75V21.875Z" fill="#64627B"></path><path d="M18.8242 74.6203C18.4487 74.0341 18.2491 73.3525 18.2491 72.6563C18.2491 71.9601 18.4487 71.2785 18.8242 70.6922C19.9648 68.918 20.4734 66.8108 20.2678 64.7116C20.0623 62.6124 19.1545 60.6439 17.6914 59.1246C17.1974 58.6233 16.8539 57.9935 16.6999 57.3068C16.5459 56.6201 16.5876 55.9039 16.8201 55.2397C17.1587 54.2965 17.2655 53.2857 17.1316 52.2926C16.9977 51.2995 16.6269 50.3531 16.0505 49.5333C15.4742 48.7136 14.7092 48.0444 13.82 47.5822C12.9308 47.1201 11.9435 46.8785 10.9414 46.8779C9.93929 46.8773 8.95172 47.1177 8.06199 47.5788C7.17225 48.0399 6.40642 48.7081 5.8291 49.5272C5.25177 50.3463 4.87986 51.2922 4.74474 52.2852C4.60962 53.2782 4.71525 54.2891 5.05272 55.2326C5.29229 55.8845 5.34268 56.5908 5.19809 57.27C5.0535 57.9492 4.71981 58.5738 4.23553 59.0715C2.75143 60.5882 1.82606 62.5638 1.61084 64.6749C1.39561 66.786 1.90328 68.9076 3.05076 70.6926C3.42528 71.2904 3.62106 71.9828 3.615 72.6882C3.60895 73.3936 3.40131 74.0826 3.01658 74.6739C2.1175 76.094 1.61672 77.7296 1.56669 79.4097C1.51665 81.0897 1.9192 82.7523 2.73218 84.2234C3.54517 85.6945 4.73869 86.9199 6.18778 87.7715C7.63688 88.623 9.28826 89.0694 10.969 89.0637C12.6498 89.0581 14.2982 88.6007 15.7415 87.7394C17.1848 86.8781 18.3701 85.6446 19.1732 84.1681C19.9762 82.6916 20.3676 81.0264 20.3063 79.3467C20.245 77.667 19.7332 76.0348 18.8246 74.6207L18.8242 74.6203Z" fill="#60CC8C"></path><path d="M16.7293 69.8549L14.5195 67.6451L12.4994 69.6652V54.6875H9.37441V64.9777L7.3543 62.9576L5.14453 65.1674L9.37441 69.3973V79.0402L7.3543 77.0201L5.14453 79.2299L9.37441 83.4598V96.875H12.4994V74.0848L16.7293 69.8549Z" fill="#49B475"></path><path d="M3.125 93.75H96.875V96.875H3.125V93.75Z" fill="#49B475"></path><path d="M90.625 85.9374H90.3572C90.7386 84.8591 90.7125 83.6785 90.2839 82.6181C89.8554 81.5577 89.0538 80.6905 88.0304 80.1799C87.0069 79.6694 85.832 79.5507 84.7271 79.8461C83.6221 80.1416 82.6633 80.8308 82.0312 81.7841C81.3992 80.8308 80.4404 80.1416 79.3354 79.8461C78.2305 79.5507 77.0556 79.6694 76.0321 80.1799C75.0087 80.6905 74.2071 81.5577 73.7786 82.6181C73.35 83.6785 73.3239 84.8591 73.7053 85.9374H73.4375C72.1943 85.9374 71.002 86.4312 70.1229 87.3103C69.2439 88.1894 68.75 89.3817 68.75 90.6249C68.75 91.8681 69.2439 93.0604 70.1229 93.9394C71.002 94.8185 72.1943 95.3124 73.4375 95.3124H90.625C91.8682 95.3124 93.0605 94.8185 93.9396 93.9394C94.8186 93.0604 95.3125 91.8681 95.3125 90.6249C95.3125 89.3817 94.8186 88.1894 93.9396 87.3103C93.0605 86.4312 91.8682 85.9374 90.625 85.9374Z" fill="#60CC8C"></path></svg> 