<?xml version="1.0" encoding="UTF-8"?> <svg xmlns="http://www.w3.org/2000/svg" width="221" height="134" viewBox="0 0 221 134" fill="none"><g clip-path="url(#clip0)"><path d="M26.7064 134L26.3271 133.915C30.5559 115.21 41.183 98.2244 56.2508 86.0867C67.6426 76.9244 81.1914 70.7966 95.6215 68.2803C110.052 65.7641 124.888 66.942 138.734 71.7033C152.58 76.4647 164.98 84.6527 174.766 95.4964C184.553 106.34 191.403 119.483 194.673 133.687L194.294 133.773C185.343 94.6793 150.896 67.376 110.526 67.376C70.6852 67.376 35.4339 95.3954 26.7064 134Z" fill="#3F3D56"></path><path d="M81.0788 23.9186C86.9094 23.9186 91.6361 19.2172 91.6361 13.4178C91.6361 7.61836 86.9094 2.91699 81.0788 2.91699C75.2482 2.91699 70.5215 7.61836 70.5215 13.4178C70.5215 19.2172 75.2482 23.9186 81.0788 23.9186Z" fill="#FF6584"></path><path d="M35.5955 131.615C35.9248 132.825 37.0525 133.575 37.0525 133.575C37.0525 133.575 37.6465 132.362 37.3172 131.151C36.988 129.941 35.8602 129.191 35.8602 129.191C35.8602 129.191 35.2663 130.404 35.5955 131.615Z" fill="#3F3D56"></path><path d="M36.0792 131.354C36.9827 132.229 37.0931 133.574 37.0931 133.574C37.0931 133.574 35.7386 133.5 34.8351 132.626C33.9316 131.751 33.8213 130.406 33.8213 130.406C33.8213 130.406 35.1758 130.48 36.0792 131.354Z" fill="#60CC8C"></path><path d="M60.6693 131.615C60.9985 132.825 62.1263 133.575 62.1263 133.575C62.1263 133.575 62.7202 132.362 62.391 131.151C62.0617 129.941 60.9339 129.191 60.9339 129.191C60.9339 129.191 60.34 130.404 60.6693 131.615Z" fill="#3F3D56"></path><path d="M61.153 131.354C62.0564 132.229 62.1668 133.574 62.1668 133.574C62.1668 133.574 60.8123 133.5 59.9089 132.626C59.0054 131.751 58.895 130.406 58.895 130.406C58.895 130.406 60.2495 130.48 61.153 131.354Z" fill="#60CC8C"></path><path d="M65.6412 35.184L61.6714 32.025L83.9024 12.2822H140.274V29.6559L103.751 54.137L65.6412 35.184Z" fill="#3F3D56"></path><path d="M150.551 23.3568V12.6766H143.067V15.2922L140.274 12.2822L122.012 32.025L114.867 36.7633L103.787 117.279L120.496 133.898H159.329V32.8148L150.551 23.3568Z" fill="#CCCCCC"></path><path d="M122.013 32.0249H61.6714V133.898H122.013V32.0249Z" fill="#F2F2F2"></path><path d="M96.2088 109.022H85.0933V133.898H96.2088V109.022Z" fill="#CCCCCC"></path><path d="M73.1836 116.129V112.181H68.4199V116.129H72.7867H73.1836Z" fill="#3F3D56"></path><path d="M72.7867 119.288H68.4199V123.237H73.1836V119.288H72.7867Z" fill="#3F3D56"></path><path d="M81.1231 112.181H76.3594V116.129H81.1231V112.181Z" fill="#3F3D56"></path><path d="M81.1231 119.288H76.3594V123.237H81.1231V119.288Z" fill="#3F3D56"></path><path d="M105.736 116.129V112.181H100.973V116.129H105.339H105.736Z" fill="#3F3D56"></path><path d="M105.339 119.288H100.973V123.237H105.736V119.288H105.339Z" fill="#3F3D56"></path><path d="M113.676 112.181H108.912V116.129H113.676V112.181Z" fill="#3F3D56"></path><path d="M113.676 119.288H108.912V123.237H113.676V119.288Z" fill="#3F3D56"></path><path d="M139.083 37.1581V33.2097H134.319V37.1581H138.686H139.083Z" fill="#3F3D56"></path><path d="M138.686 40.3171H134.319V44.2655H139.083V40.3171H138.686Z" fill="#3F3D56"></path><path d="M147.022 33.2095H142.258V37.158H147.022V33.2095Z" fill="#3F3D56"></path><path d="M147.022 40.3169H142.258V44.2655H147.022V40.3169Z" fill="#3F3D56"></path><path d="M139.083 59.2701V55.3215H134.319V59.2701H138.686H139.083Z" fill="#3F3D56"></path><path d="M138.686 62.429H134.319V66.3775H139.083V62.429H138.686Z" fill="#3F3D56"></path><path d="M147.022 55.3215H142.258V59.2701H147.022V55.3215Z" fill="#3F3D56"></path><path d="M147.022 62.429H142.258V66.3775H147.022V62.429Z" fill="#3F3D56"></path><path d="M139.083 81.3822V77.4336H134.319V81.3822H138.686H139.083Z" fill="#3F3D56"></path><path d="M138.686 84.541H134.319V88.4896H139.083V84.541H138.686Z" fill="#3F3D56"></path><path d="M147.022 77.4336H142.258V81.3822H147.022V77.4336Z" fill="#3F3D56"></path><path d="M147.022 84.541H142.258V88.4896H147.022V84.541Z" fill="#3F3D56"></path><path d="M139.083 103.494V99.5457H134.319V103.494H138.686H139.083Z" fill="#3F3D56"></path><path d="M138.686 106.653H134.319V110.602H139.083V106.653H138.686Z" fill="#3F3D56"></path><path d="M147.022 99.5457H142.258V103.494H147.022V99.5457Z" fill="#3F3D56"></path><path d="M147.022 106.653H142.258V110.602H147.022V106.653Z" fill="#3F3D56"></path><path d="M114.47 37.1582H68.4199V46.6348H114.47V37.1582Z" fill="#3F3D56"></path><path d="M114.47 56.1113H68.4199V65.5879H114.47V56.1113Z" fill="#3F3D56"></path><path d="M114.47 75.0645H68.4199V84.541H114.47V75.0645Z" fill="#3F3D56"></path><path d="M114.47 94.0176H68.4199V103.494H114.47V94.0176Z" fill="#3F3D56"></path><path d="M221 133.501H0V133.887H221V133.501Z" fill="#3F3D56"></path><path d="M38.1512 88.8577H37.0093V133.721H38.1512V88.8577Z" fill="#3F3D56"></path><path d="M48.6894 94.5751C48.7621 110.263 37.6657 123.031 37.6657 123.031C37.6657 123.031 26.4515 110.365 26.3788 94.6773C26.3061 78.9898 37.4025 66.2214 37.4025 66.2214C37.4025 66.2214 48.6167 78.8876 48.6894 94.5751Z" fill="#60CC8C"></path><path opacity="0.1" d="M48.6894 94.5751C48.7621 110.263 37.6657 123.031 37.6657 123.031C37.6657 123.031 26.4515 110.365 26.3788 94.6773C26.3061 78.9898 37.4025 66.2214 37.4025 66.2214C37.4025 66.2214 48.6167 78.8876 48.6894 94.5751Z" fill="black"></path><path d="M23.3064 88.8577H22.1646V133.721H23.3064V88.8577Z" fill="#3F3D56"></path><path d="M33.8447 94.5751C33.9174 110.263 22.821 123.031 22.821 123.031C22.821 123.031 11.6067 110.365 11.534 94.6773C11.4614 78.9898 22.5577 66.2214 22.5577 66.2214C22.5577 66.2214 33.772 78.8876 33.8447 94.5751Z" fill="#60CC8C"></path><path d="M183.789 31.9617C174.794 32.0029 167.472 32.1351 167.472 32.1351C167.472 32.1351 176.175 20.6691 183.756 24.9172C191.337 29.1652 200.046 31.9857 200.046 31.9857C200.046 31.9857 192.783 31.9204 183.789 31.9617Z" fill="#F2F2F2"></path><path d="M33.9281 54.0012C24.9333 54.0424 17.6118 54.1746 17.6118 54.1746C17.6118 54.1746 26.3145 42.7087 33.8955 46.9567C41.4765 51.2048 50.1851 54.0253 50.1851 54.0253C50.1851 54.0253 42.923 53.96 33.9281 54.0012Z" fill="#F2F2F2"></path><path d="M66.5829 7.9885C57.5881 8.02974 50.2666 8.16192 50.2666 8.16192C50.2666 8.16192 58.9693 -3.30402 66.5503 0.944029C74.1313 5.19208 82.8399 8.0126 82.8399 8.0126C82.8399 8.0126 75.5778 7.94726 66.5829 7.9885Z" fill="#F2F2F2"></path><path d="M202.323 88.8579H201.181V133.721H202.323V88.8579Z" fill="#3F3D56"></path><path d="M212.861 94.5751C212.933 110.263 201.837 123.031 201.837 123.031C201.837 123.031 190.623 110.365 190.55 94.6773C190.477 78.9898 201.574 66.2214 201.574 66.2214C201.574 66.2214 212.788 78.8876 212.861 94.5751Z" fill="#60CC8C"></path><path d="M160.291 105.874H171.815V103.107H178.174V105.874H190.095V118.127H178.174V133.541H171.815V118.127H160.291L154.331 111.407L160.291 105.874Z" fill="#3F3D56"></path></g><defs><clipPath id="clip0"><rect width="221" height="134" fill="white"></rect></clipPath></defs></svg> 