<?xml version="1.0" encoding="UTF-8"?> <svg xmlns="http://www.w3.org/2000/svg" width="68" height="68" viewBox="0 0 68 68" fill="none"><rect width="68" height="68" rx="6" fill="#E2FCEC"></rect><g clip-path="url(#clip0)"><path d="M31.75 25.375V19.0375C31.624 19.027 31.504 19 31.375 19H18.625C17.1775 19 16 20.1775 16 21.625V32.875C16 33.289 16.228 33.67 16.594 33.8665C16.7605 33.9565 16.942 34 17.125 34C17.3425 34 17.56 33.937 17.7475 33.8125L21.511 31.312C21.805 31.111 22.1695 31 22.54 31H31.375C32.5645 31 33.6295 30.487 34.384 29.6785C32.827 28.864 31.75 27.25 31.75 25.375Z" fill="#60CC8C"></path><path d="M50.875 31C50.656 31 50.44 30.937 50.251 30.811L46.507 28.315C46.198 28.108 45.8395 28 45.4675 28H36.625C35.1775 28 34 26.8225 34 25.375V18.625C34 17.1775 35.1775 16 36.625 16H49.375C50.8225 16 52 17.1775 52 18.625V29.875C52 30.289 51.772 30.6715 51.406 30.8665C51.2395 30.9565 51.0565 31 50.875 31Z" fill="#60CC8C"></path><path d="M24.25 43C26.7353 43 28.75 40.9853 28.75 38.5C28.75 36.0147 26.7353 34 24.25 34C21.7647 34 19.75 36.0147 19.75 38.5C19.75 40.9853 21.7647 43 24.25 43Z" fill="#60CC8C"></path><path d="M43.75 43C46.2353 43 48.25 40.9853 48.25 38.5C48.25 36.0147 46.2353 34 43.75 34C41.2647 34 39.25 36.0147 39.25 38.5C39.25 40.9853 41.2647 43 43.75 43Z" fill="#60CC8C"></path><path d="M28.375 44.5H20.125C17.8495 44.5 16 46.3495 16 48.625V50.875C16 51.496 16.504 52 17.125 52H31.375C31.996 52 32.5 51.496 32.5 50.875V48.625C32.5 46.3495 30.6505 44.5 28.375 44.5Z" fill="#60CC8C"></path><path d="M47.875 44.5H39.625C37.3495 44.5 35.5 46.3495 35.5 48.625V50.875C35.5 51.496 36.004 52 36.625 52H50.875C51.496 52 52 51.496 52 50.875V48.625C52 46.3495 50.1505 44.5 47.875 44.5Z" fill="#60CC8C"></path></g><defs><clipPath id="clip0"><rect width="36" height="36" fill="white" transform="translate(16 16)"></rect></clipPath></defs></svg> 