<?xml version="1.0" encoding="UTF-8"?> <svg xmlns="http://www.w3.org/2000/svg" width="68" height="68" viewBox="0 0 68 68" fill="none"><rect width="68" height="68" rx="6" fill="#E2FCEC"></rect><path d="M43.2906 48.0626H34.6563H33.3438H24.7094C24.6254 48.066 24.5417 48.0524 24.4632 48.0225C24.3846 47.9927 24.313 47.9472 24.2525 47.8889C24.192 47.8306 24.144 47.7606 24.1114 47.6832C24.0787 47.6058 24.0621 47.5226 24.0625 47.4386V38.7166C24.063 38.0454 24.1961 37.3808 24.4542 36.7612C24.7123 36.1416 25.0903 35.579 25.5665 35.1059C26.0426 34.6328 26.6076 34.2584 27.2288 34.0043C27.8501 33.7501 28.5155 33.6213 29.1867 33.625C29.2885 33.6219 29.3895 33.6431 29.4815 33.6867C29.5735 33.7304 29.6537 33.7953 29.7156 33.8761C30.5536 35.0092 31.807 35.7635 33.2006 35.9734C34.5942 36.1833 36.0141 35.8316 37.1487 34.9957C37.5825 34.6807 37.9656 34.3013 38.2848 33.8707C38.347 33.7906 38.4274 33.7265 38.5194 33.6837C38.6114 33.641 38.7123 33.6209 38.8136 33.625C39.4848 33.6213 40.1501 33.7502 40.7714 34.0044C41.3926 34.2585 41.9575 34.6329 42.4337 35.106C42.9098 35.5791 43.2877 36.1417 43.5458 36.7613C43.8039 37.3809 43.937 38.0454 43.9375 38.7166V47.4386C43.9379 47.5226 43.9213 47.6058 43.8887 47.6832C43.856 47.7606 43.808 47.8306 43.7475 47.8889C43.6871 47.9472 43.6154 47.9927 43.5369 48.0225C43.4583 48.0524 43.3746 48.066 43.2906 48.0626Z" fill="#60CC8C"></path><path d="M34.0001 34.3081C37.1114 34.3081 39.6336 31.786 39.6336 28.6747C39.6336 25.5634 37.1114 23.0413 34.0001 23.0413C30.8889 23.0413 28.3667 25.5634 28.3667 28.6747C28.3667 31.786 30.8889 34.3081 34.0001 34.3081Z" fill="#60CC8C"></path><path d="M49.961 23.9688C48.7604 23.9688 47.5868 24.3248 46.5885 24.9918C45.5902 25.6588 44.8122 26.6069 44.3527 27.7161C43.8933 28.8253 43.773 30.0459 44.0073 31.2234C44.2415 32.401 44.8196 33.4826 45.6686 34.3316C46.5176 35.1805 47.5992 35.7587 48.7768 35.9929C49.9543 36.2271 51.1749 36.1069 52.2841 35.6475C53.3933 35.188 54.3414 34.41 55.0084 33.4117C55.6754 32.4134 56.0314 31.2398 56.0314 30.0392C56.0296 28.4297 55.3895 26.8868 54.2515 25.7487C53.1134 24.6107 51.5704 23.9706 49.961 23.9688ZM52.0571 31.1661C52.118 31.2271 52.1664 31.2994 52.1994 31.379C52.2323 31.4587 52.2493 31.544 52.2493 31.6302C52.2493 31.7164 52.2323 31.8017 52.1994 31.8813C52.1664 31.961 52.118 32.0333 52.0571 32.0942C51.9962 32.1552 51.9238 32.2035 51.8442 32.2365C51.7646 32.2695 51.6792 32.2865 51.593 32.2865C51.5069 32.2865 51.4215 32.2695 51.3419 32.2365C51.2623 32.2035 51.1899 32.1552 51.129 32.0942L50.0021 30.9674L48.8751 32.0942C48.752 32.2173 48.5851 32.2865 48.4111 32.2865C48.237 32.2865 48.0701 32.2173 47.947 32.0942C47.8239 31.9712 47.7548 31.8042 47.7548 31.6302C47.7548 31.4561 47.8239 31.2892 47.947 31.1661L49.074 30.0392L47.947 28.9122C47.8239 28.7891 47.7548 28.6222 47.7548 28.4481C47.7548 28.2741 47.8239 28.1071 47.947 27.9841C48.0701 27.861 48.237 27.7918 48.4111 27.7918C48.5851 27.7918 48.752 27.861 48.8751 27.9841L50.0021 29.1109L51.129 27.9841C51.252 27.861 51.419 27.7918 51.593 27.7918C51.7671 27.7918 51.934 27.861 52.0571 27.9841C52.1802 28.1071 52.2493 28.2741 52.2493 28.4481C52.2493 28.6222 52.1802 28.7891 52.0571 28.9122L50.9301 30.0392L52.0571 31.1661Z" fill="#60CC8C"></path><path d="M18.0393 23.9688C16.8387 23.9687 15.6651 24.3247 14.6668 24.9917C13.6685 25.6587 12.8904 26.6068 12.4309 27.716C11.9714 28.8252 11.8512 30.0458 12.0854 31.2233C12.3196 32.4009 12.8977 33.4825 13.7467 34.3315C14.5956 35.1805 15.6773 35.7587 16.8548 35.9929C18.0324 36.2271 19.2529 36.1069 20.3622 35.6475C21.4714 35.188 22.4195 34.41 23.0865 33.4117C23.7535 32.4134 24.1096 31.2398 24.1096 30.0392C24.1078 28.4298 23.4676 26.8868 22.3296 25.7488C21.1917 24.6108 19.6487 23.9706 18.0393 23.9688ZM21.0854 28.9081L17.6778 32.125C17.5525 32.2433 17.3857 32.3075 17.2135 32.3039C17.0412 32.3003 16.8773 32.2291 16.7571 32.1057L14.9736 30.2741C14.913 30.2125 14.8651 30.1395 14.8328 30.0593C14.8004 29.9791 14.7842 29.8933 14.7851 29.8068C14.786 29.7204 14.804 29.6349 14.8381 29.5554C14.8721 29.476 14.9215 29.404 14.9835 29.3436C15.0454 29.2833 15.1187 29.2358 15.199 29.2039C15.2794 29.172 15.3653 29.1562 15.4517 29.1576C15.5382 29.159 15.6235 29.1774 15.7028 29.2119C15.7821 29.2463 15.8538 29.2961 15.9138 29.3583L17.2471 30.7268L20.185 27.9536C20.3119 27.8359 20.4801 27.7731 20.6531 27.7788C20.8261 27.7845 20.9898 27.8584 21.1086 27.9842C21.2274 28.1101 21.2917 28.2778 21.2874 28.4508C21.2831 28.6239 21.2107 28.7882 21.0858 28.9081H21.0854Z" fill="#60CC8C"></path></svg> 