<?xml version="1.0" encoding="UTF-8"?> <svg xmlns="http://www.w3.org/2000/svg" width="97" height="100" viewBox="0 0 97 100" fill="none"><g clip-path="url(#clip0)"><path d="M25 6.6665H28.3333V46.6665H25V6.6665Z" fill="#777777"></path><path d="M89.9994 88.3335V100H84.9994L81.666 93.3335V88.3335H89.9994Z" fill="#454545"></path><path d="M89.9994 88.3335V96.6668H83.3327L81.666 93.3335V88.3335H89.9994Z" fill="#454545"></path><path d="M40 93.3333V5C40 2.22917 42.2292 0 45 0H91.6667C94.4375 0 96.6667 2.22917 96.6667 5V88.3333C96.6667 91.1042 94.4375 93.3333 91.6667 93.3333H40Z" fill="#777777"></path><path d="M66.666 0H69.9993V93.3333H66.666V0Z" fill="#454545"></path><path d="M66.6673 88.3335V100H61.6673L58.334 93.3335V88.3335H66.6673Z" fill="#777777"></path><path d="M66.6673 88.3335V96.6668H60.0007L58.334 93.3335V88.3335H66.6673Z" fill="#454545"></path><path d="M24.9994 88.3335V93.3335L21.666 100H16.666V88.3335H24.9994Z" fill="#777777"></path><path d="M24.9994 88.3335V93.3335L23.3327 96.6668H16.666V88.3335H24.9994Z" fill="#454545"></path><path d="M10 79.9998V46.6665C10 43.8957 12.2292 41.6665 15 41.6665H68.3333C71.1042 41.6665 73.3333 43.8957 73.3333 46.6665V79.9998H10Z" fill="#60CC8C"></path><path d="M63.3333 78.3332V70.1665C63.3333 64.6874 67.6875 60.104 73.1667 59.9999C78.6875 59.8957 83.25 64.3124 83.3333 69.8332C83.4375 75.354 79.0208 79.9165 73.5 79.9999C73.4375 79.9999 73.3958 79.9999 73.3333 79.9999V88.3332C73.3333 91.104 71.1042 93.3332 68.3333 93.3332H15C12.2292 93.3332 10 91.104 10 88.3332V79.9999C4.47917 79.9999 0 75.5207 0 69.9999C0 64.479 4.47917 59.9999 10 59.9999C15.5208 59.9999 20 64.479 20 69.9999V78.3332C20 78.3332 26.6667 74.9999 41.6667 74.9999C56.6667 74.9999 63.3333 78.3332 63.3333 78.3332Z" fill="#60CC8C"></path><path d="M10 75C7.22917 75 5 72.7708 5 70C5 67.2292 7.22917 65 10 65C12.7708 65 15 67.2292 15 70C15 72.75 12.75 75 10 75ZM10 68.3333C9.08333 68.3333 8.33333 69.0833 8.33333 70C8.33333 70.9167 9.08333 71.6667 10 71.6667C10.9167 71.6667 11.6667 70.9167 11.6667 70C11.6667 69.0833 10.9167 68.3333 10 68.3333Z" fill="#E2FCEC"></path><path d="M73.334 75C70.5632 75 68.334 72.7708 68.334 70C68.334 67.2292 70.5632 65 73.334 65C76.1048 65 78.334 67.2292 78.334 70C78.334 72.75 76.084 75 73.334 75ZM73.334 68.3333C72.4173 68.3333 71.6673 69.0833 71.6673 70C71.6673 70.9167 72.4173 71.6667 73.334 71.6667C74.2507 71.6667 75.0007 70.9167 75.0007 70C75.0007 69.0833 74.2507 68.3333 73.334 68.3333Z" fill="#E2FCEC"></path><path d="M15.0628 80.1043C14.6045 79.2918 14.8961 78.2918 15.7086 77.8335C15.7503 77.8127 15.8128 77.771 15.8545 77.7502C19.2503 76.2918 27.8336 73.3335 41.667 73.3335C55.5003 73.3335 64.0836 76.2918 67.4795 77.7502C68.3336 78.1252 68.7086 79.1043 68.3545 79.9377C68.3336 80.0002 68.3128 80.0418 68.2711 80.1043C67.8545 80.8543 66.9378 81.146 66.167 80.8335C63.1045 79.5418 54.8961 76.6668 41.667 76.6668C28.4378 76.6668 20.2086 79.521 17.167 80.8335C16.3753 81.1668 15.4795 80.8543 15.0628 80.1043Z" fill="#E2FCEC"></path><path d="M31.668 50H35.0013V53.3333H31.668V50Z" fill="#E2FCEC"></path><path d="M40 58.3335H43.3333V61.6668H40V58.3335Z" fill="#E2FCEC"></path><path d="M23.334 58.3335H26.6673V61.6668H23.334V58.3335Z" fill="#E2FCEC"></path><path d="M31.668 66.6665H35.0013V69.9998H31.668V66.6665Z" fill="#E2FCEC"></path><path d="M48.334 50H51.6673V53.3333H48.334V50Z" fill="#E2FCEC"></path><path d="M56.668 58.3335H60.0013V61.6668H56.668V58.3335Z" fill="#E2FCEC"></path><path d="M48.334 66.6665H51.6673V69.9998H48.334V66.6665Z" fill="#E2FCEC"></path><path d="M43.3333 31.6665H10L11.6667 11.6665H41.6667L43.3333 31.6665Z" fill="#FF6584"></path></g><defs><clipPath id="clip0"><rect width="96.6667" height="100" fill="white"></rect></clipPath></defs></svg> 