<?xml version="1.0" encoding="UTF-8"?> <svg xmlns="http://www.w3.org/2000/svg" width="68" height="68" viewBox="0 0 68 68" fill="none"><rect width="68" height="68" rx="6" fill="#E2FCEC"></rect><path d="M34.0557 16V25.9141H25.1624C21.0876 25.9141 17.7725 29.2292 17.7725 33.3041V52H33.9443V42.0859H42.8167C46.9031 42.0859 50.2276 38.7614 50.2276 34.6751V16H34.0557ZM26.7432 50.1601H24.6338V46.082H26.7432V50.1601ZM26.7432 43.3867H24.6338V39.3086H26.7432V43.3867ZM29.6963 35.0195H28.1846C27.3898 35.0195 26.7432 35.6661 26.7432 36.4609V36.6367H24.6338V36.4609C24.6338 34.503 26.2267 32.9102 28.1846 32.9102H29.6963V35.0195ZM36.4785 35.0195H32.4004V32.9102H36.4785V35.0195ZM39.6052 35.0195H39.1247V32.9102H39.6052C40.5422 32.9102 41.3044 32.1479 41.3044 31.2109H43.4138C43.4137 33.311 41.7052 35.0195 39.6052 35.0195ZM43.4137 28.4219H41.3044V24.3438H43.4137V28.4219ZM43.4137 21.8359H41.3044V17.7578H43.4137V21.8359Z" fill="#60CC8C"></path></svg> 