<?xml version="1.0" encoding="UTF-8"?> <svg xmlns="http://www.w3.org/2000/svg" width="221" height="103" viewBox="0 0 221 103" fill="none"><g clip-path="url(#clip0)"><path d="M24.471 102.493L24.0918 102.408C28.3205 83.647 38.9476 66.6102 54.0155 54.4359C65.4073 45.2461 78.9561 39.1 93.3861 36.5761C107.816 34.0522 122.653 35.2337 136.499 40.0094C150.345 44.785 162.745 52.9976 172.531 63.8739C182.317 74.7503 189.168 87.9324 192.438 102.179L192.059 102.265C183.107 63.0544 148.661 35.6691 108.291 35.6691C68.4499 35.6691 33.1986 63.7727 24.471 102.493Z" fill="#3F3D56"></path><path d="M57.3481 34.4062H55.6177V102.596H57.3481V34.4062Z" fill="#3F3D56"></path><path d="M73.3178 43.0962C73.428 66.9405 56.6125 86.3479 56.6125 86.3479C56.6125 86.3479 39.6185 67.096 39.5084 43.2517C39.3982 19.4074 56.2136 0 56.2136 0C56.2136 0 73.2077 19.2519 73.3178 43.0962Z" fill="#60CC8C"></path><path d="M177.752 74.3654H43.8306V102.677H177.752V74.3654Z" fill="#F2F2F2"></path><path d="M39.5547 77.4679L54.1325 47.0237H170.561L181.446 77.4679H39.5547Z" fill="#3F3D56"></path><path d="M202.841 61.0784H201.762V103.472H202.841V61.0784Z" fill="#3F3D56"></path><path d="M212.794 66.481C212.862 81.305 202.382 93.3705 202.382 93.3705C202.382 93.3705 191.791 81.4016 191.723 66.5776C191.654 51.7536 202.134 39.6881 202.134 39.6881C202.134 39.6881 212.725 51.657 212.794 66.481Z" fill="#60CC8C"></path><path d="M129.937 48.9629H75.9019V66.8028H129.937V48.9629Z" fill="#F2F2F2"></path><path d="M79.4005 34.4194L70.8481 52.2594H134.991L129.937 34.4194H79.4005Z" fill="#3F3D56"></path><path d="M123.329 79.9888H80.6641V102.677H123.329V79.9888Z" fill="#CCCCCC"></path><path d="M71.82 80.7644H49.0786V102.676H71.82V80.7644Z" fill="#CCCCCC"></path><path d="M142.474 82.1218H130.715V102.677H142.474V82.1218Z" fill="#3F3D56"></path><path d="M221 102.58H0V102.967H221V102.58Z" fill="#3F3D56"></path><path d="M36.1101 57.6033H34.9683V102.601H36.1101V57.6033Z" fill="#3F3D56"></path><path d="M46.6484 63.3378C46.7211 79.0725 35.6247 91.8793 35.6247 91.8793C35.6247 91.8793 24.4104 79.1751 24.3378 63.4404C24.2651 47.7057 35.3614 34.8989 35.3614 34.8989C35.3614 34.8989 46.5757 47.6031 46.6484 63.3378Z" fill="#60CC8C"></path><path opacity="0.1" d="M46.6484 63.3378C46.7211 79.0725 35.6247 91.8793 35.6247 91.8793C35.6247 91.8793 24.4104 79.1751 24.3378 63.4404C24.2651 47.7057 35.3614 34.8989 35.3614 34.8989C35.3614 34.8989 46.5757 47.6031 46.6484 63.3378Z" fill="black"></path><path d="M21.2659 57.6033H20.124V102.601H21.2659V57.6033Z" fill="#3F3D56"></path><path d="M31.8041 63.3378C31.8768 79.0725 20.7804 91.8793 20.7804 91.8793C20.7804 91.8793 9.5662 79.1751 9.49352 63.4404C9.42084 47.7057 20.5172 34.8989 20.5172 34.8989C20.5172 34.8989 31.7314 47.6031 31.8041 63.3378Z" fill="#60CC8C"></path><path d="M160.94 83.2853H155.206V88.6179H160.94V83.2853Z" fill="#3F3D56"></path><path d="M168.617 83.2853H162.883V88.6179H168.617V83.2853Z" fill="#3F3D56"></path><path d="M160.94 90.557H155.206V96.0835H160.94V90.557Z" fill="#3F3D56"></path><path d="M168.617 90.557H162.883V96.0835H168.617V90.557Z" fill="#3F3D56"></path><path d="M85.3458 53.8444H80.8584V58.0177H85.3458V53.8444Z" fill="#3F3D56"></path><path d="M91.3546 53.8444H86.8672V58.0177H91.3546V53.8444Z" fill="#3F3D56"></path><path d="M85.3458 59.5353H80.8584V63.8604H85.3458V59.5353Z" fill="#3F3D56"></path><path d="M91.3546 59.5353H86.8672V63.8604H91.3546V59.5353Z" fill="#3F3D56"></path><path d="M118.972 53.8444H114.484V58.0177H118.972V53.8444Z" fill="#3F3D56"></path><path d="M124.981 53.8444H120.493V58.0177H124.981V53.8444Z" fill="#3F3D56"></path><path d="M118.972 59.5353H114.484V63.8604H118.972V59.5353Z" fill="#3F3D56"></path><path d="M124.981 59.5353H120.493V63.8604H124.981V59.5353Z" fill="#3F3D56"></path><path d="M102.256 53.8444H97.7686V58.0177H102.256V53.8444Z" fill="#3F3D56"></path><path d="M108.265 53.8444H103.777V58.0177H108.265V53.8444Z" fill="#3F3D56"></path><path d="M102.256 59.5353H97.7686V63.8604H102.256V59.5353Z" fill="#3F3D56"></path><path d="M108.265 59.5353H103.777V63.8604H108.265V59.5353Z" fill="#3F3D56"></path><path d="M136.164 84.2042H133.338V86.8319H136.164V84.2042Z" fill="#F2F2F2"></path><path d="M139.947 84.2042H137.122V86.8319H139.947V84.2042Z" fill="#F2F2F2"></path><path d="M136.164 87.7874H133.338V90.5106H136.164V87.7874Z" fill="#F2F2F2"></path><path d="M139.947 87.7874H137.122V90.5106H139.947V87.7874Z" fill="#F2F2F2"></path><path d="M140.919 94.6292C141.348 94.6292 141.697 94.2819 141.697 93.8535C141.697 93.4252 141.348 93.0779 140.919 93.0779C140.49 93.0779 140.142 93.4252 140.142 93.8535C140.142 94.2819 140.49 94.6292 140.919 94.6292Z" fill="#F2F2F2"></path><path d="M123.426 82.4127H80.6641V82.8005H123.426V82.4127Z" fill="#F2F2F2"></path><path d="M123.426 84.158H80.6641V84.5458H123.426V84.158Z" fill="#F2F2F2"></path><path d="M123.426 85.9031H80.6641V86.2909H123.426V85.9031Z" fill="#F2F2F2"></path><path d="M123.426 87.6483H80.6641V88.0361H123.426V87.6483Z" fill="#F2F2F2"></path><path d="M123.426 89.3936H80.6641V89.7814H123.426V89.3936Z" fill="#F2F2F2"></path><path d="M123.426 91.1388H80.6641V91.5266H123.426V91.1388Z" fill="#F2F2F2"></path><path d="M123.426 92.884H80.6641V93.2719H123.426V92.884Z" fill="#F2F2F2"></path><path d="M123.426 94.6292H80.6641V95.017H123.426V94.6292Z" fill="#F2F2F2"></path><path d="M123.426 96.3744H80.6641V96.7622H123.426V96.3744Z" fill="#F2F2F2"></path><path d="M123.426 98.1196H80.6641V98.5075H123.426V98.1196Z" fill="#F2F2F2"></path><path d="M123.426 99.8649H80.6641V100.253H123.426V99.8649Z" fill="#F2F2F2"></path><path d="M71.82 82.4127H49.0786V82.8005H71.82V82.4127Z" fill="#F2F2F2"></path><path d="M71.82 84.158H49.0786V84.5458H71.82V84.158Z" fill="#F2F2F2"></path><path d="M71.82 85.9031H49.0786V86.2909H71.82V85.9031Z" fill="#F2F2F2"></path><path d="M71.82 87.6483H49.0786V88.0361H71.82V87.6483Z" fill="#F2F2F2"></path><path d="M71.82 89.3936H49.0786V89.7814H71.82V89.3936Z" fill="#F2F2F2"></path><path d="M71.82 91.1388H49.0786V91.5266H71.82V91.1388Z" fill="#F2F2F2"></path><path d="M71.82 92.884H49.0786V93.2719H71.82V92.884Z" fill="#F2F2F2"></path><path d="M71.82 94.6292H49.0786V95.017H71.82V94.6292Z" fill="#F2F2F2"></path><path d="M71.82 96.3744H49.0786V96.7622H71.82V96.3744Z" fill="#F2F2F2"></path><path d="M71.82 98.1196H49.0786V98.5075H71.82V98.1196Z" fill="#F2F2F2"></path><path d="M71.82 99.8649H49.0786V100.253H71.82V99.8649Z" fill="#F2F2F2"></path></g><defs><clipPath id="clip0"><rect width="221" height="103" fill="white"></rect></clipPath></defs></svg> 