<?xml version="1.0" encoding="UTF-8"?> <svg xmlns="http://www.w3.org/2000/svg" width="68" height="68" viewBox="0 0 68 68" fill="none"><rect width="68" height="68" rx="6" fill="#E2FCEC"></rect><g clip-path="url(#clip0)"><path d="M28.75 26.5C35.7916 26.5 41.5 24.1495 41.5 21.25C41.5 18.3505 35.7916 16 28.75 16C21.7084 16 16 18.3505 16 21.25C16 24.1495 21.7084 26.5 28.75 26.5Z" fill="#60CC8C"></path><path d="M27.1165 33.9519C28.1125 31.8384 29.6095 30.0129 31.4575 28.6224C30.5605 28.6989 29.6575 28.7499 28.75 28.7499C23.7835 28.7499 18.7885 27.5994 16 25.3794V28.7499C16 31.4214 20.848 33.6204 27.1165 33.9519Z" fill="#60CC8C"></path><path d="M25.75 40.0001C25.75 38.6621 25.948 37.3721 26.2945 36.1436C22.1935 35.8286 18.3265 34.7321 16 32.8796V36.2501C16 38.7341 20.1925 40.8086 25.819 41.3546C25.777 40.9091 25.75 40.4576 25.75 40.0001Z" fill="#60CC8C"></path><path d="M40 28C33.3835 28 28 33.3835 28 40C28 46.6165 33.3835 52 40 52C46.6165 52 52 46.6165 52 40C52 33.3835 46.6165 28 40 28ZM39.43 38.875H40.57C42.3235 38.875 43.75 40.3015 43.75 42.055C43.75 43.6315 42.613 44.929 41.125 45.193V46.3735C41.125 46.9945 40.621 47.4985 40 47.4985C39.379 47.4985 38.875 46.9945 38.875 46.3735V45.25H37.375C36.754 45.25 36.25 44.746 36.25 44.125C36.25 43.504 36.754 43 37.375 43H40.57C41.083 43 41.5 42.583 41.5 42.07C41.5 41.542 41.083 41.125 40.57 41.125H39.43C37.6765 41.125 36.25 39.6985 36.25 37.945C36.25 36.3685 37.387 35.071 38.875 34.807V33.625C38.875 33.004 39.379 32.5 40 32.5C40.621 32.5 41.125 33.004 41.125 33.625V34.75H42.625C43.246 34.75 43.75 35.254 43.75 35.875C43.75 36.496 43.246 37 42.625 37H39.43C38.917 37 38.5 37.417 38.5 37.93C38.5 38.458 38.917 38.875 39.43 38.875Z" fill="#60CC8C"></path></g><defs><clipPath id="clip0"><rect width="36" height="36" fill="white" transform="translate(16 16)"></rect></clipPath></defs></svg> 