<?xml version="1.0" encoding="UTF-8"?> <svg xmlns="http://www.w3.org/2000/svg" width="162" height="113" viewBox="0 0 162 113" fill="none"><g clip-path="url(#clip0)"><path d="M30.7337 24.2584C35.8436 24.2584 39.9859 20.0962 39.9859 14.9618C39.9859 9.82741 35.8436 5.66516 30.7337 5.66516C25.6238 5.66516 21.4814 9.82741 21.4814 14.9618C21.4814 20.0962 25.6238 24.2584 30.7337 24.2584Z" fill="#FF6584"></path><path d="M75.7495 49.8418C75.7495 71.7777 62.7713 79.4369 46.7617 79.4369C30.7522 79.4369 17.7739 71.7777 17.7739 49.8418C17.7739 27.9059 46.7617 0 46.7617 0C46.7617 0 75.7495 27.9059 75.7495 49.8418Z" fill="#F2F2F2"></path><path d="M45.7054 76.0815L46.0024 57.7231L58.3576 35.0111L46.0489 54.8432L46.1824 46.5885L54.6976 30.1567L46.2176 44.4041L46.4576 29.5576L55.576 16.4758L46.4955 27.223L46.6454 0L45.7028 36.0384L45.7803 34.5517L36.5097 20.2934L45.6317 37.4056L44.7679 53.9864L44.7422 53.5464L34.0547 38.5417L44.7098 55.1012L44.6018 57.1747L44.5824 57.206L44.5913 57.3762L42.3998 99.4433H45.3278L45.6791 77.7148L56.3079 61.1958L45.7054 76.0815Z" fill="#3F3D56"></path><path d="M162 58.8262C162 76.7818 151.376 83.0512 138.272 83.0512C125.167 83.0512 114.544 76.7818 114.544 58.8262C114.544 40.8707 138.272 18.0283 138.272 18.0283C138.272 18.0283 162 40.8707 162 58.8262Z" fill="#F2F2F2"></path><path d="M137.408 80.3045L137.651 65.2773L147.764 46.6865L137.689 62.9199L137.798 56.1631L144.768 42.7128L137.827 54.375L138.024 42.2225L145.487 31.5144L138.054 40.3117L138.177 18.0282L137.406 47.5273L137.469 46.3105L129.881 34.6393L137.347 48.6465L136.64 62.2187L136.619 61.8585L127.871 49.5763L136.593 63.1311L136.504 64.8285L136.489 64.854L136.496 64.9933L134.702 99.4272H137.099L137.386 81.6414L146.086 68.1199L137.408 80.3045Z" fill="#3F3D56"></path><path d="M80.1754 102.919C124.455 102.919 160.351 101.095 160.351 98.8463C160.351 96.5973 124.455 94.774 80.1754 94.774C35.8958 94.774 0 96.5973 0 98.8463C0 101.095 35.8958 102.919 80.1754 102.919Z" fill="#3F3D56"></path><path d="M129.017 106.272C136.601 106.272 142.749 105.96 142.749 105.574C142.749 105.189 136.601 104.877 129.017 104.877C121.433 104.877 115.285 105.189 115.285 105.574C115.285 105.96 121.433 106.272 129.017 106.272Z" fill="#3F3D56"></path><path d="M79.3264 113C86.9105 113 93.0586 112.688 93.0586 112.302C93.0586 111.917 86.9105 111.605 79.3264 111.605C71.7423 111.605 65.5942 111.917 65.5942 112.302C65.5942 112.688 71.7423 113 79.3264 113Z" fill="#3F3D56"></path><path d="M41.6269 108.255C58.9537 108.255 72.9999 107.541 72.9999 106.661C72.9999 105.781 58.9537 105.068 41.6269 105.068C24.3001 105.068 10.2539 105.781 10.2539 106.661C10.2539 107.541 24.3001 108.255 41.6269 108.255Z" fill="#3F3D56"></path><path d="M19.1334 91.3234L15.6641 91.2823L15.5908 97.5281L19.0602 97.5692L19.1334 91.3234Z" fill="#2F2E41"></path><path d="M21.3741 97.5239C21.3812 96.9222 20.0925 96.4192 18.4958 96.4003C16.8991 96.3814 15.5989 96.8538 15.5919 97.4554C15.5848 98.0571 16.8735 98.5601 18.4702 98.579C20.0669 98.5979 21.3671 98.1255 21.3741 97.5239Z" fill="#2F2E41"></path><path d="M14.3584 83.2768C16.5141 83.2768 18.2617 81.5208 18.2617 79.3548C18.2617 77.1887 16.5141 75.4327 14.3584 75.4327C12.2026 75.4327 10.4551 77.1887 10.4551 79.3548C10.4551 81.5208 12.2026 83.2768 14.3584 83.2768Z" fill="white"></path><path d="M31.4563 88.6582C31.4563 96.6585 26.7232 99.452 20.8842 99.452C20.7489 99.452 20.6138 99.4504 20.479 99.4474C20.2085 99.4416 19.9405 99.4287 19.6758 99.4105C14.4061 99.0358 10.312 96.0987 10.312 88.6582C10.312 80.9582 20.1048 71.2421 20.8403 70.5231L20.8416 70.5218C20.87 70.4939 20.8842 70.4803 20.8842 70.4803C20.8842 70.4803 31.4563 80.6579 31.4563 88.6582Z" fill="#60CC8C"></path><path d="M20.4993 98.2281L24.3661 92.7992L20.4897 98.8242L20.4794 99.4474C20.2088 99.4416 19.9409 99.4287 19.6761 99.4105L20.0929 91.4063L20.0897 91.3442L20.0968 91.3325L20.1361 90.5766L16.25 84.5367L20.1483 90.0096L20.1573 90.1701L20.4723 84.1225L17.1454 77.8813L20.5129 83.0611L20.8407 70.5231L20.842 70.4803V70.5218L20.7873 80.4087L24.0994 76.4892L20.7737 81.2605L20.6861 86.6751L23.7786 81.4786L20.6733 87.4719L20.6243 90.4821L25.1139 83.2494L20.6076 91.5325L20.4993 98.2281Z" fill="#3F3D56"></path><path d="M103.976 91.253L100.66 92.2771L102.486 98.2477L105.802 97.2235L103.976 91.253Z" fill="#2F2E41"></path><path d="M110.609 89.2055L107.292 90.2296L109.119 96.2002L112.435 95.1761L110.609 89.2055Z" fill="#2F2E41"></path><path d="M105.589 98.5051C107.116 98.0337 108.21 97.1854 108.034 96.6103C107.859 96.0351 106.479 95.951 104.952 96.4223C103.426 96.8937 102.331 97.742 102.507 98.3171C102.683 98.8923 104.063 98.9764 105.589 98.5051Z" fill="#2F2E41"></path><path d="M112.18 96.3179C113.706 95.8466 114.801 94.9983 114.625 94.4231C114.449 93.848 113.069 93.7638 111.543 94.2352C110.017 94.7065 108.922 95.5549 109.098 96.13C109.274 96.7052 110.654 96.7893 112.18 96.3179Z" fill="#2F2E41"></path><path d="M102.428 83.1918C104.584 83.1918 106.331 81.4359 106.331 79.2698C106.331 77.1037 104.584 75.3478 102.428 75.3478C100.272 75.3478 98.5249 77.1037 98.5249 79.2698C98.5249 81.4359 100.272 83.1918 102.428 83.1918Z" fill="white"></path><path d="M82.6331 87.1933C82.6331 94.5372 78.2884 97.1014 72.9284 97.1014C72.8042 97.1014 72.6802 97.1001 72.5565 97.0973C72.3081 97.0919 72.0621 97.0801 71.8191 97.0634C66.9818 96.7194 63.2236 94.0233 63.2236 87.1933C63.2236 80.1251 72.2129 71.2061 72.8882 70.5461L72.8893 70.5449C72.9154 70.5193 72.9284 70.5068 72.9284 70.5068C72.9284 70.5068 82.6331 79.8494 82.6331 87.1933Z" fill="#60CC8C"></path><path d="M72.5745 95.978L76.124 90.9945L72.5657 96.5252L72.5562 97.0973C72.3079 97.0919 72.0619 97.0801 71.8189 97.0634L72.2014 89.7159L72.1985 89.6589L72.205 89.6482L72.241 88.9543L68.6738 83.4099L72.2523 88.4338L72.2606 88.5812L72.5497 83.0297L69.4957 77.3006L72.5869 82.0553L72.8879 70.5461L72.8891 70.5068V70.5449L72.8388 79.6206L75.8792 76.0227L72.8264 80.4025L72.746 85.3729L75.5847 80.6027L72.7342 86.1043L72.6892 88.8675L76.8105 82.2282L72.6739 89.8318L72.5745 95.978Z" fill="#3F3D56"></path><path d="M120.799 90.2561C120.799 98.2564 116.065 101.05 110.226 101.05C110.091 101.05 109.956 101.048 109.821 101.045C109.551 101.039 109.283 101.027 109.018 101.008C103.748 100.634 99.6543 97.6966 99.6543 90.2561C99.6543 82.5561 109.447 72.84 110.183 72.121L110.184 72.1197C110.212 72.0918 110.226 72.0782 110.226 72.0782C110.226 72.0782 120.799 82.2558 120.799 90.2561Z" fill="#60CC8C"></path><path d="M109.841 99.8259L113.708 94.397L109.831 100.422L109.821 101.045C109.551 101.039 109.283 101.027 109.018 101.008L109.435 93.0042L109.431 92.9421L109.439 92.9304L109.478 92.1745L105.592 86.1346L109.49 91.6075L109.499 91.768L109.814 85.7204L106.487 79.4792L109.855 84.6589L110.183 72.121L110.184 72.0782V72.1197L110.129 82.0066L113.441 78.0871L110.116 82.8584L110.028 88.273L113.12 83.0765L110.015 89.0698L109.966 92.08L114.456 84.8473L109.949 93.1304L109.841 99.8259Z" fill="#3F3D56"></path></g><defs><clipPath id="clip0"><rect width="162" height="113" fill="white"></rect></clipPath></defs></svg> 