<?xml version="1.0" encoding="UTF-8"?> <svg xmlns="http://www.w3.org/2000/svg" width="68" height="68" viewBox="0 0 68 68" fill="none"><rect width="68" height="68" rx="6" fill="#E2FCEC"></rect><g clip-path="url(#clip0)"><path d="M40.3585 27.6408C39.8495 27.1317 39.1711 26.8515 38.4483 26.8521C36.9839 26.8529 35.7486 28.027 35.749 29.5504C35.7492 30.2733 36.0296 30.9518 36.5386 31.4606C37.5919 32.5139 39.3039 32.5154 40.3551 31.4642C41.4101 30.4091 41.4117 28.694 40.3585 27.6408Z" fill="#60CC8C"></path><path d="M51.9999 16.0063L50.9449 16.0073C43.3968 16.0145 36.0014 19.1915 30.6529 24.725L20.1694 35.2084L32.791 47.8298L43.2739 37.3471C45.9115 34.8049 48.0974 31.67 49.5958 28.2811C52.4359 21.8577 51.9381 16.6658 51.9999 16.0063ZM35.0492 32.95C33.1727 31.0733 33.1732 28.0277 35.0458 26.1554C36.9229 24.2781 39.9687 24.2733 41.8473 26.1519C43.7216 28.0261 43.7201 31.0775 41.844 32.9536C39.9718 34.8258 36.9237 34.8241 35.0492 32.95Z" fill="#60CC8C"></path><path d="M16.0444 50.4587L21.5248 44.9784L23.0138 46.4673L17.5334 51.9477L16.0444 50.4587Z" fill="#60CC8C"></path><path d="M22.5918 49.9487L24.555 47.9855L26.0439 49.4744L24.0807 51.4376L22.5918 49.9487Z" fill="#60CC8C"></path><path d="M16.5547 43.9124L18.5062 41.9609L19.995 43.4497L18.0435 45.4012L16.5547 43.9124Z" fill="#60CC8C"></path><path d="M43.3992 41.2778L42.8604 40.739L34.2803 49.3193L36.9549 51.9939L41.7088 47.24L43.3992 41.2778Z" fill="#60CC8C"></path><path d="M20.7543 26.2845L16 31.0389L18.6802 33.7193L27.2606 25.1389L26.7218 24.6001L20.7543 26.2845Z" fill="#60CC8C"></path><path d="M18.4512 39.4894L28.5096 49.5479L30.571 48.5881L19.411 37.4282L18.4512 39.4894Z" fill="#60CC8C"></path></g><defs><clipPath id="clip0"><rect width="36" height="36" fill="white" transform="translate(16 16)"></rect></clipPath></defs></svg> 