<?xml version="1.0" encoding="UTF-8"?> <svg xmlns="http://www.w3.org/2000/svg" width="68" height="68" viewBox="0 0 68 68" fill="none"><rect width="68" height="68" rx="6" fill="#E2FCEC"></rect><path d="M51 24.9861V35.581C51 35.581 48.7324 36.0277 48.2653 36.0865C47.7996 36.1451 46.3363 36.6176 45.2757 35.5982C43.6402 34.0307 37.8293 28.2518 37.8293 28.2518C37.8293 28.2518 36.8273 27.2686 35.2186 28.1183C33.7418 28.8967 31.5527 30.0374 30.6383 30.4815C28.9098 31.4016 27.4772 29.9419 27.4772 28.83C27.4772 27.9675 28.0154 27.3822 28.7847 26.9517C30.8696 25.6878 35.264 23.2211 37.0943 22.2486C38.2069 21.6569 39.0084 21.6062 40.5358 22.893C42.417 24.475 44.0911 25.9171 44.0911 25.9171C44.0911 25.9171 44.6371 26.3728 45.5079 26.1893C47.6462 25.7372 51 24.9861 51 24.9861ZM27.8708 42.9381C28.1522 42.2151 28.0582 41.4064 27.5186 40.8516C27.0338 40.3554 26.326 40.2246 25.6511 40.3793C25.8399 39.7099 25.7357 38.9974 25.2482 38.4946C24.762 37.9996 24.0555 37.8662 23.3807 38.0223C23.568 37.3539 23.4641 36.6415 22.9764 36.1402C22.2127 35.3569 20.8918 35.3905 20.024 36.2177C19.1609 37.0459 18.6079 38.5466 19.3783 39.4299C20.1474 40.3087 21.0311 39.774 21.7048 39.6205C21.5174 40.2889 20.9559 40.9106 21.6474 41.7855C22.3383 42.6608 23.3002 42.1298 23.9746 41.9776C23.7865 42.6435 23.2495 43.3277 23.9145 44.1388C24.5855 44.9525 25.6845 44.519 26.4104 44.2935C26.1303 45.0137 25.5307 45.7901 26.301 46.6601C27.0702 47.5364 28.8477 47.131 29.716 46.3026C30.5819 45.4743 30.665 44.1616 29.9034 43.3758C29.3776 42.8367 28.5937 42.7113 27.8708 42.9381ZM43.7136 37.426C37.437 31.1494 40.3892 34.1029 37.0115 30.7178C37.0115 30.7178 35.9964 29.7072 34.6584 30.2943C33.7192 30.7058 32.51 31.2667 31.6002 31.695C30.6003 32.2192 29.8808 32.3815 29.543 32.3793C27.6101 32.3666 26.042 30.8131 26.042 28.8822C26.042 27.6296 26.707 26.539 27.6988 25.92C29.0936 24.9548 32.3039 23.2473 32.3039 23.2473C32.3039 23.2473 31.3259 22.008 29.1835 22.008C27.0417 22.008 22.5669 24.9395 22.5669 24.9395C22.5669 24.9395 21.2974 25.7526 19.4878 25.0202L16 23.8056V35.9292C16 35.9292 16.9959 36.2174 17.8908 36.583C18.0929 36.0066 18.419 35.4743 18.8714 35.0347C20.356 33.6207 22.8168 33.606 24.1675 34.9968C24.5744 35.4196 24.8584 35.924 25.0033 36.4815C25.5475 36.6495 26.0405 36.9471 26.4367 37.3552C26.8448 37.7752 27.1277 38.2824 27.2738 38.8371C27.8174 39.0052 28.3097 39.304 28.7072 39.7124C29.1549 40.174 29.4531 40.7317 29.5923 41.3358C30.1606 41.5013 30.6741 41.8093 31.0877 42.2321C31.8995 43.0659 32.1876 44.1972 32.0131 45.2884C32.0145 45.2884 32.0172 45.2884 32.0184 45.2908C32.0317 45.3082 32.5214 45.8541 32.8267 46.162C33.4251 46.761 34.4023 46.761 35.0025 46.162C35.5988 45.5632 35.6015 44.588 35.0025 43.9862C34.9811 43.9648 32.8436 41.729 33.0156 41.5556C33.1864 41.3835 35.9096 44.2171 35.9603 44.2689C36.558 44.8667 37.5345 44.8667 38.1348 44.2689C38.7337 43.6702 38.7325 42.6949 38.1348 42.0945C38.1054 42.0666 37.9829 41.9491 37.9374 41.9024C37.9374 41.9024 35.2374 39.4971 35.4429 39.2916C35.6509 39.0848 39.0047 42.2146 39.0101 42.2146C39.613 42.7576 40.5416 42.7535 41.1216 42.1733C41.6859 41.609 41.698 40.7165 41.1978 40.115C41.1872 40.083 38.6418 37.423 38.8404 37.2228C39.042 37.0201 41.5606 39.6135 41.5659 39.6189C42.1622 40.2165 43.14 40.2165 43.7404 39.6189C44.338 39.0211 44.338 38.0447 43.7404 37.4417C43.7322 37.4366 43.7216 37.4312 43.7136 37.426Z" fill="#60CC8C"></path></svg> 