<?xml version="1.0" encoding="UTF-8"?> <svg xmlns="http://www.w3.org/2000/svg" width="68" height="68" viewBox="0 0 68 68" fill="none"><rect width="68" height="68" rx="6" fill="#E2FCEC"></rect><path d="M42.7285 50.9062C42.7285 49.2073 41.3513 47.8301 39.6523 47.8301H27.3477C25.6487 47.8301 24.2715 49.2073 24.2715 50.9062V52H42.7285V50.9062Z" fill="#60CC8C"></path><path d="M48.9492 25.2715V23.2207H36.3873C36.0775 22.352 35.3941 21.6686 34.5254 21.3588V17H32.4746V21.3588C31.6059 21.6686 30.9225 22.352 30.6127 23.2207H18.0508V25.2715H20.6145L16 36.5508C16 39.3776 18.3001 41.6777 21.127 41.6777H23.1777C26.0046 41.6777 28.3047 39.3776 28.3047 36.5508L23.6693 25.2715H30.6128C30.9226 26.1402 31.606 26.8236 32.4747 27.1334V41.7901C30.4707 42.2002 28.8855 43.7746 28.4769 45.7793H38.5233C38.1147 43.7746 36.5294 42.2002 34.5255 41.7901V27.1334C35.3942 26.8236 36.0776 26.1402 36.3874 25.2715H43.3099L38.6953 36.5508C38.6953 39.3776 40.9954 41.6777 43.8223 41.6777H45.873C48.6999 41.6777 51 39.3776 51 36.5508L46.3646 25.2715H48.9492ZM25.7409 35.5254H18.5638L22.1523 26.9117L25.7409 35.5254ZM48.4362 35.5254H41.2591L44.8477 26.9117L48.4362 35.5254Z" fill="#60CC8C"></path></svg> 