<?xml version="1.0" encoding="UTF-8"?> <svg xmlns="http://www.w3.org/2000/svg" width="100" height="100" viewBox="0 0 100 100" fill="none"><g clip-path="url(#clip0)"><path d="M11.3672 95.4492V86.3672C11.3672 85 10.4492 84.1016 9.10156 84.1016C7.75391 84.1016 6.83594 85.0195 6.83594 86.3672V95.4492H11.3672Z" fill="#49B475"></path><path d="M93.1836 95.4492V86.3672C93.1836 85 92.2656 84.1016 90.918 84.1016C89.5703 84.1016 88.6523 85.0195 88.6523 86.3672V95.4492H93.1836Z" fill="#49B475"></path><path d="M88.6328 84.082V88.6328H90.918V95.4492H93.1836V88.6328V84.082H88.6328Z" fill="#49B475"></path><path d="M6.81641 84.082V88.6328H9.08203V95.4492H11.3672V88.6328V84.082H6.81641Z" fill="#49B475"></path><path d="M50 13.6328C48.6328 13.6328 47.7344 12.7148 47.7344 11.3672V2.26562C47.7344 0.917969 48.6328 0 50 0C51.3672 0 52.2656 0.917969 52.2656 2.26562V11.3477C52.2656 12.7344 51.3672 13.6328 50 13.6328Z" fill="#D0D0D0"></path><path d="M22.7344 95.4492V22.7344C22.7344 21.3672 23.6523 20.4688 25 20.4688H36.3672C37.7344 20.4688 38.6328 19.5508 38.6328 18.2031V13.6328C38.6328 12.2656 39.5508 11.3672 40.8984 11.3672H59.082C60.4492 11.3672 61.3477 12.2852 61.3477 13.6328V18.1836C61.3477 19.5508 62.2656 20.4492 63.6133 20.4492H75C76.3672 20.4492 77.2656 21.3672 77.2656 22.7148V95.4492H22.7344Z" fill="#E6E6E6"></path><path d="M68.1836 36.3672H31.8164C30.4492 36.3672 29.5508 35.4492 29.5508 34.1016V29.5508C29.5508 28.1836 30.4687 27.2852 31.8164 27.2852H68.1836C69.5508 27.2852 70.4492 28.2031 70.4492 29.5508V34.1016C70.4492 35.4492 69.5508 36.3672 68.1836 36.3672Z" fill="white"></path><path d="M47.7344 36.3672H43.1836L50 27.2656H54.5508L47.7344 36.3672Z" fill="#F2F2F2"></path><path d="M59.082 36.3672H50L56.8164 27.2656H65.918L59.082 36.3672Z" fill="#F2F2F2"></path><path d="M68.1836 50H31.8164C30.4492 50 29.5508 49.082 29.5508 47.7344V43.1836C29.5508 41.8164 30.4687 40.918 31.8164 40.918H68.1836C69.5508 40.918 70.4492 41.8359 70.4492 43.1836V47.7344C70.4492 49.082 69.5508 50 68.1836 50Z" fill="white"></path><path d="M47.7344 50H43.1836L50 40.918H54.5508L47.7344 50Z" fill="#F2F2F2"></path><path d="M59.082 50H50L56.8164 40.918H65.918L59.082 50Z" fill="#F2F2F2"></path><path d="M68.1836 63.6328H31.8164C30.4492 63.6328 29.5508 62.7148 29.5508 61.3672V56.8164C29.5508 55.4492 30.4687 54.5508 31.8164 54.5508H68.1836C69.5508 54.5508 70.4492 55.4688 70.4492 56.8164V61.3672C70.4492 62.7344 69.5508 63.6328 68.1836 63.6328Z" fill="white"></path><path d="M47.7344 63.6328H43.1836L50 54.5508H54.5508L47.7344 63.6328Z" fill="#F2F2F2"></path><path d="M59.082 63.6328H50L56.8164 54.5508H65.918L59.082 63.6328Z" fill="#F2F2F2"></path><path d="M68.1836 77.2656H31.8164C30.4492 77.2656 29.5508 76.3477 29.5508 75V70.4492C29.5508 69.082 30.4687 68.1836 31.8164 68.1836H68.1836C69.5508 68.1836 70.4492 69.1016 70.4492 70.4492V75C70.4492 76.3672 69.5508 77.2656 68.1836 77.2656Z" fill="white"></path><path d="M47.7344 77.2656H43.1836L50 68.1836H54.5508L47.7344 77.2656Z" fill="#F2F2F2"></path><path d="M59.082 77.2656H50L56.8164 68.1836H65.918L59.082 77.2656Z" fill="#F2F2F2"></path><path d="M97.7344 100H2.26562C0.898438 100 0 99.082 0 97.7344C0 96.3867 0.917969 95.4688 2.26562 95.4688H97.7148C99.082 95.4688 99.9805 96.3867 99.9805 97.7344C99.9805 99.082 99.082 100 97.7344 100Z" fill="#3F3D56"></path><path d="M97.7344 79.5508C97.7344 83.418 94.7852 86.3672 90.918 86.3672C87.0508 86.3672 84.1016 83.418 84.1016 79.5508C84.1016 75.6836 90.918 68.1836 90.918 68.1836C90.918 68.1836 97.7344 75.6836 97.7344 79.5508Z" fill="#60CC8C"></path><path d="M94.3164 72.2656C95 73.8477 95.4492 75.2148 95.4492 76.3477C95.4492 80.6641 92.5 84.082 88.6328 84.082C87.2656 84.082 86.1328 83.6328 85 82.9492C86.1328 85 88.418 86.3672 90.918 86.3672C94.7852 86.3672 97.7344 83.418 97.7344 79.5508C97.7344 77.7344 95.918 74.7656 94.3164 72.2656Z" fill="#49B475"></path><path d="M15.918 79.5508C15.918 83.418 12.9687 86.3672 9.10156 86.3672C5.23437 86.3672 2.28516 83.418 2.28516 79.5508C2.28516 75.6836 9.10156 68.1836 9.10156 68.1836C9.10156 68.1836 15.918 75.6836 15.918 79.5508Z" fill="#60CC8C"></path><path d="M56.8164 81.8164H43.1836V95.4492H56.8164V81.8164Z" fill="white"></path><path d="M68.1836 90.918H63.6328C62.2656 90.918 61.3672 90 61.3672 88.6523V84.1016C61.3672 82.7344 62.2852 81.8359 63.6328 81.8359H68.1836C69.5508 81.8359 70.4492 82.7539 70.4492 84.1016V88.6523C70.4492 90 69.5508 90.918 68.1836 90.918Z" fill="white"></path><path d="M36.3672 90.918H31.8164C30.4492 90.918 29.5508 90 29.5508 88.6523V84.1016C29.5508 82.7344 30.4687 81.8359 31.8164 81.8359H36.3672C37.7344 81.8359 38.6328 82.7539 38.6328 84.1016V88.6523C38.6328 90 37.7344 90.918 36.3672 90.918Z" fill="white"></path><path d="M12.5 72.2656C13.1836 73.8477 13.6328 75.2148 13.6328 76.3477C13.6328 80.6641 10.6836 84.082 6.81641 84.082C5.44922 84.082 4.31641 83.6328 3.18359 82.9492C4.31641 85 6.60156 86.3672 9.10156 86.3672C12.9688 86.3672 15.918 83.418 15.918 79.5508C15.918 77.7344 14.082 74.7656 12.5 72.2656Z" fill="#49B475"></path><path d="M59.082 11.3672H40.8984C39.5313 11.3672 38.6328 12.2852 38.6328 13.6328V18.1836C38.6328 19.5508 37.7148 20.4492 36.3672 20.4492H63.6328C62.2656 20.4492 61.3672 19.5312 61.3672 18.1836V13.6328C61.3672 12.2656 60.4492 11.3672 59.082 11.3672Z" fill="#C2C2C2"></path><path d="M61.3672 18.1836V13.6328C61.3672 12.2656 60.4492 11.3672 59.1016 11.3672H52.2852C53.6523 11.3672 54.5508 12.2852 54.5508 13.6328V18.1836C54.5508 19.5508 55.4687 20.4492 56.8164 20.4492H63.6328C62.2656 20.4492 61.3672 19.5508 61.3672 18.1836Z" fill="#D0D0D0"></path><path d="M70.4492 29.5511H29.5508C29.5508 28.1839 30.4687 27.2855 31.8164 27.2855H68.1836C69.5508 27.2659 70.4492 28.1839 70.4492 29.5511Z" fill="#C2C2C2"></path><path d="M52.7344 29.5508L54.5508 27.2656H50L48.1836 29.5508H52.7344Z" fill="#C2C2C2"></path><path d="M64.082 29.5508L65.918 27.2656H56.8164L55 29.5508H64.082Z" fill="#C2C2C2"></path><path d="M70.4492 43.1836H29.5508C29.5508 41.8164 30.4687 40.918 31.8164 40.918H68.1836C69.5508 40.918 70.4492 41.8164 70.4492 43.1836Z" fill="#C2C2C2"></path><path d="M52.7344 43.1836L54.5508 40.918H50L48.1836 43.1836H52.7344Z" fill="#C2C2C2"></path><path d="M64.082 43.1836L65.918 40.918H56.8164L55 43.1836H64.082Z" fill="#C2C2C2"></path><path d="M70.4492 56.8164H29.5508C29.5508 55.4492 30.4687 54.5508 31.8164 54.5508H68.1836C69.5508 54.5508 70.4492 55.4492 70.4492 56.8164Z" fill="#C2C2C2"></path><path d="M52.7344 56.8164L54.5508 54.5508H50L48.1836 56.8164H52.7344Z" fill="#C2C2C2"></path><path d="M64.082 56.8164L65.918 54.5508H56.8164L55 56.8164H64.082Z" fill="#C2C2C2"></path><path d="M70.4492 70.4492H29.5508C29.5508 69.082 30.4687 68.1836 31.8164 68.1836H68.1836C69.5508 68.1836 70.4492 69.082 70.4492 70.4492Z" fill="#C2C2C2"></path><path d="M70.4492 84.082H61.3672C61.3672 82.7148 62.2852 81.8164 63.6328 81.8164H68.1836C69.5508 81.8164 70.4492 82.7344 70.4492 84.082Z" fill="#C2C2C2"></path><path d="M38.6328 84.082H29.5508C29.5508 82.7148 30.4687 81.8164 31.8164 81.8164H36.3672C37.7344 81.8164 38.6328 82.7344 38.6328 84.082Z" fill="#C2C2C2"></path><path d="M52.7344 70.4492L54.5508 68.1836H50L48.1836 70.4492H52.7344Z" fill="#C2C2C2"></path><path d="M64.082 70.4492L65.918 68.1836H56.8164L55 70.4492H64.082Z" fill="#C2C2C2"></path><path d="M50 81.8164L43.1836 90V95.4492L54.5508 81.8164H50Z" fill="white"></path><path d="M56.8164 81.8164L45.4492 95.4492H54.5508L56.8164 92.7344V81.8164Z" fill="white"></path><path d="M51.1328 90.8984C51.7584 90.8984 52.2656 90.3913 52.2656 89.7656C52.2656 89.14 51.7584 88.6328 51.1328 88.6328C50.5072 88.6328 50 89.14 50 89.7656C50 90.3913 50.5072 90.8984 51.1328 90.8984Z" fill="#FF6584"></path><path d="M48.8672 90.8984C49.4928 90.8984 50 90.3913 50 89.7656C50 89.14 49.4928 88.6328 48.8672 88.6328C48.2416 88.6328 47.7344 89.14 47.7344 89.7656C47.7344 90.3913 48.2416 90.8984 48.8672 90.8984Z" fill="#FF6584"></path></g><defs><clipPath id="clip0"><rect width="100" height="100" fill="white"></rect></clipPath></defs></svg> 