<?xml version="1.0" encoding="UTF-8"?> <svg xmlns="http://www.w3.org/2000/svg" width="116" height="100" viewBox="0 0 116 100" fill="none"><g clip-path="url(#clip0)"><path d="M0 42.3076H115.385V98.0768C115.385 99.1345 114.519 99.9999 113.462 99.9999H1.92308C0.865385 99.9999 0 99.1345 0 98.0768V42.3076Z" fill="#49B475"></path><path d="M1.92308 53.8462H113.462C114.519 53.8462 115.385 54.7116 115.385 55.7693V98.077C115.385 99.1347 114.519 100 113.462 100H1.92308C0.865385 100 0 99.1347 0 98.077V55.7693C0 54.7116 0.865385 53.8462 1.92308 53.8462Z" fill="#3B9961"></path><path d="M55.7692 53.8462L50 100H65.3846L59.6154 53.8462H55.7692Z" fill="#60CC8C"></path><path d="M57.6914 53.8462V100H65.3837L59.6145 53.8462H57.6914Z" fill="#49B475"></path><path d="M62.8105 53.8462L80.7673 100H96.1519L66.6567 53.8462H62.8105Z" fill="#49B475"></path><path d="M74.9985 53.8462H71.1523L111.537 100H113.46C114.518 100 115.383 99.1347 115.383 98.077V89.7356L74.9985 53.8462Z" fill="#49B475"></path><path d="M115.384 73.9664L82.6919 53.8462H78.8457L115.384 80.4087V73.9664Z" fill="#49B475"></path><path d="M115.383 65.601L90.3833 53.8462H86.5371L115.383 69.2308V65.601Z" fill="#49B475"></path><path d="M115.384 60.4327L98.0766 53.8462H94.2305L115.384 62.7645V60.4327Z" fill="#49B475"></path><path d="M115.383 56.9231L105.768 53.8462H101.922L115.383 58.5337V56.9231Z" fill="#49B475"></path><path d="M113.461 53.8462H109.615L115.384 55.7693C115.384 54.7116 114.519 53.8462 113.461 53.8462Z" fill="#49B475"></path><path d="M48.0772 53.8462L18.582 100H33.9666L51.9234 53.8462H48.0772Z" fill="#60CC8C"></path><path d="M39.7356 53.8462L0 89.1827V98.077C0 99.1347 0.865385 100 1.92308 100H3.19712L43.5817 53.8462H39.7356Z" fill="#60CC8C"></path><path d="M0 79.952L35.8894 53.8462H32.0433L0 73.5818V79.952Z" fill="#60CC8C"></path><path d="M0 68.8943L28.1971 53.8462H24.351L0 65.3126V68.8943Z" fill="#60CC8C"></path><path d="M0 62.476L20.5048 53.8462H16.6587L0 60.1924V62.476Z" fill="#60CC8C"></path><path d="M0 58.3174L12.8125 53.8462H8.96635L0 56.7068V58.3174Z" fill="#60CC8C"></path><path d="M0 55.7693L5.12019 53.8462H1.92308C0.865385 53.8462 0 54.7116 0 55.7693Z" fill="#60CC8C"></path><path d="M34.6152 38.4614H57.6922V53.846H34.6152V38.4614Z" fill="#F2F2F2"></path><path d="M46.1547 42.3076C48.2701 42.3076 50.0009 44.0384 50.0009 46.1538V53.8461H42.3086V46.1538C42.3086 44.0384 44.0394 42.3076 46.1547 42.3076Z" fill="#3F3D56"></path><path d="M57.6914 38.4613L69.2299 26.9229L80.7683 38.4613V53.8459H57.6914V38.4613Z" fill="#D0D0D0"></path><path d="M34.6152 38.4613L46.1537 26.9229H69.2306L57.6922 38.4613H34.6152Z" fill="#3F3D56"></path><path d="M46.1543 11.5386H57.6928V26.9232H46.1543V11.5386Z" fill="#F2F2F2"></path><path d="M57.6914 11.5386H69.2299V26.9232H57.6914V11.5386Z" fill="#D0D0D0"></path><path d="M46.1543 11.5385L57.6928 0L69.2312 11.5385H46.1543Z" fill="#3F3D56"></path><path d="M46.1543 11.5385L57.6928 0V11.5385H46.1543Z" fill="#3F3D56"></path><path d="M51.9237 22.4279C53.6894 22.4279 55.1208 20.9965 55.1208 19.2308C55.1208 17.4651 53.6894 16.0337 51.9237 16.0337C50.158 16.0337 48.7266 17.4651 48.7266 19.2308C48.7266 20.9965 50.158 22.4279 51.9237 22.4279Z" fill="#3F3D56"></path><path d="M69.2323 41.6584C70.998 41.6584 72.4294 40.227 72.4294 38.4613C72.4294 36.6956 70.998 35.2642 69.2323 35.2642C67.4665 35.2642 66.0352 36.6956 66.0352 38.4613C66.0352 40.227 67.4665 41.6584 69.2323 41.6584Z" fill="#3F3D56"></path><path d="M107.691 48.0771V39.7358C107.691 38.8945 107.764 38.0531 107.908 37.2118L110.047 24.3512C110.167 23.63 110.792 23.0771 111.538 23.0771C112.283 23.0771 112.908 23.606 113.028 24.3512L115.167 37.2118C115.312 38.0531 115.384 38.8945 115.384 39.7358V48.0771C115.384 49.1348 114.518 50.0002 113.461 50.0002H109.614C108.557 50.0002 107.691 49.1348 107.691 48.0771Z" fill="#60CC8C"></path><path d="M110.266 50H112.838V53.8461H110.266V50Z" fill="#3B9961"></path><path d="M90.3848 48.0771V39.7358C90.3848 38.8945 90.4569 38.0531 90.6011 37.2118L92.7405 24.3512C92.8607 23.63 93.4857 23.0771 94.2309 23.0771C94.9761 23.0771 95.6011 23.606 95.7213 24.3512L97.8607 37.2118C98.005 38.0531 98.0771 38.8945 98.0771 39.7358V48.0771C98.0771 49.1348 97.2117 50.0002 96.154 50.0002H92.3078C91.2502 50.0002 90.3848 49.1348 90.3848 48.0771Z" fill="#60CC8C"></path><path d="M92.957 50H95.5292V53.8461H92.957V50Z" fill="#3B9961"></path><path d="M0 48.0771V39.7358C0 38.8945 0.0721154 38.0531 0.216346 37.2118L2.35577 24.3512C2.47596 23.63 3.10096 23.0771 3.84615 23.0771C4.59135 23.0771 5.21635 23.606 5.33654 24.3512L7.47596 37.2118C7.62019 38.0531 7.69231 38.8945 7.69231 39.7358V48.0771C7.69231 49.1348 6.82692 50.0002 5.76923 50.0002H1.92308C0.865385 50.0002 0 49.1348 0 48.0771Z" fill="#60CC8C"></path><path d="M2.57227 50H5.14438V53.8461H2.57227V50Z" fill="#3B9961"></path><path d="M17.3086 48.0771V39.7358C17.3086 38.8945 17.3807 38.0531 17.5249 37.2118L19.6644 24.3512C19.7846 23.63 20.4096 23.0771 21.1547 23.0771C21.8999 23.0771 22.5249 23.606 22.6451 24.3512L24.7846 37.2118C24.9288 38.0531 25.0009 38.8945 25.0009 39.7358V48.0771C25.0009 49.1348 24.1355 50.0002 23.0778 50.0002H19.2317C18.174 50.0002 17.3086 49.1348 17.3086 48.0771Z" fill="#60CC8C"></path><path d="M19.8809 50H22.453V53.8461H19.8809V50Z" fill="#3B9961"></path></g><defs><clipPath id="clip0"><rect width="115.385" height="100" fill="white"></rect></clipPath></defs></svg> 