<?xml version="1.0" encoding="UTF-8"?>
<svg width="11px" height="17px" viewBox="0 0 11 17" version="1.1" xmlns="http://www.w3.org/2000/svg" xmlns:xlink="http://www.w3.org/1999/xlink">
    <!-- Generator: Sketch 51.2 (57519) - http://www.bohemiancoding.com/sketch -->
    <title>smartphone-with-a-smile</title>
    <desc>Created with Sketch.</desc>
    <defs></defs>
    <g id="Page-1" stroke="none" stroke-width="1" fill="none" fill-rule="evenodd" opacity="0.4359375">
        <g id="Вариант-с-машина2" transform="translate(-564.000000, -455.000000)" fill="#000000" fill-rule="nonzero">
            <g id="smartphone-with-a-smile" transform="translate(564.000000, 455.000000)">
                <path d="M9.72103089,0 L1.27896911,0 C0.575644305,0 0,0.516314286 0,1.14822857 L0,15.8512857 C-4.80521474e-16,16.4832 0.575644305,17 1.27896911,17 L9.72103089,17 C10.4243557,17 11,16.4841714 11,15.8517714 L11,1.14822857 C11,0.516314286 10.4243557,0 9.72103089,0 Z M4.14961637,0.827657143 L6.85038363,0.827657143 C6.93586465,0.827657143 7.00511509,0.889828571 7.00511509,0.967057143 C7.00511509,1.0438 6.93586465,1.10597143 6.85038363,1.10597143 L4.14961637,1.10597143 C4.06413535,1.10597143 3.99488491,1.0438 3.99488491,0.967057143 C3.99488491,0.889828571 4.06413535,0.827657143 4.14961637,0.827657143 Z M5.5,16.4258857 C5.14725556,16.4258857 4.86051544,16.1689429 4.86051544,15.8512857 C4.86051544,15.5336286 5.14671454,15.2771714 5.5,15.2771714 C5.85328546,15.2771714 6.13948456,15.5336286 6.13948456,15.8512857 C6.13948456,16.1689429 5.85274444,16.4258857 5.5,16.4258857 Z M10.1100236,14.875 L0.889976392,14.875 L0.889976392,1.82094286 L10.1100236,1.82094286 L10.1100236,14.875 Z M5.5,11.0203714 C4.2751328,11.0203714 3.12438521,10.5924571 2.25929569,9.8158 C2.1348613,9.70311429 2.1348613,9.52097143 2.25929569,9.40828571 C2.38481212,9.29608571 2.58769428,9.29608571 2.71375172,9.40828571 C3.45765296,10.0766286 4.44771788,10.4448 5.5,10.4448 C6.55228212,10.4448 7.54234704,10.0766286 8.28624828,9.40828571 C8.41068267,9.29608571 8.61356482,9.29608571 8.74070431,9.40828571 C8.8651387,9.52048571 8.8651387,9.70262857 8.74070431,9.8158 C7.87561479,10.5929429 6.7248672,11.0203714 5.5,11.0203714 Z M4.7771985,6.32011429 C4.7771985,6.70577143 4.4282412,7.01857143 3.99867204,7.01857143 C3.56964391,7.01857143 3.2206866,6.70577143 3.2206866,6.32011429 C3.2206866,5.93397143 3.56964391,5.62165714 3.99867204,5.62165714 C4.42878222,5.62117143 4.7771985,5.93397143 4.7771985,6.32011429 Z M7.7793134,6.32011429 C7.7793134,6.70577143 7.43035609,7.01857143 7.00132796,7.01857143 C6.57229982,7.01857143 6.22334251,6.70577143 6.22334251,6.32011429 C6.22334251,5.93397143 6.57284084,5.62165714 7.00132796,5.62165714 C7.42927405,5.62165714 7.7793134,5.93397143 7.7793134,6.32011429 Z" id="Shape"></path>
            </g>
        </g>
    </g>
</svg>