<?xml version="1.0" encoding="UTF-8"?> <svg xmlns="http://www.w3.org/2000/svg" width="238" height="194" viewBox="0 0 238 194" fill="none"><path d="M33.8721 90.8C33.8721 90.8 41.1521 56.552 59.4721 56.552C77.7921 56.552 87.5361 110.392 42.9761 116.248L33.8721 90.8Z" fill="#F4A28C"></path><path opacity="0.1" d="M33.8721 90.8C33.8721 90.8 41.1521 56.552 59.4721 56.552C77.7921 56.552 87.5361 110.392 42.9761 116.248L33.8721 90.8Z" fill="black"></path><path d="M163.232 19.584H49.2559V160.928H163.232V19.584Z" fill="#24285B"></path><path d="M151.792 28.1599H60.2881V149.08H151.792V28.1599Z" fill="white"></path><path d="M131.776 11.0879H81.936V32.2479H131.776V11.0879Z" fill="#FFD200"></path><path opacity="0.21" d="M123.88 82.3999H101.272V87.3839H123.88V82.3999Z" fill="#A8A8A8"></path><path opacity="0.21" d="M137.088 92.304H101.272V97.2879H137.088V92.304Z" fill="#A8A8A8"></path><path opacity="0.21" d="M123.88 114.448H101.272V119.432H123.88V114.448Z" fill="#A8A8A8"></path><path opacity="0.21" d="M137.088 124.36H101.272V129.344H137.088V124.36Z" fill="#A8A8A8"></path><path d="M92.3517 47.5681H71.9277V67.9921H92.3517V47.5681Z" fill="#60CC8C"></path><path d="M92.3517 79.4319H71.9277V99.8559H92.3517V79.4319Z" fill="#60CC8C"></path><path d="M92.3517 111.296H71.9277V131.72H92.3517V111.296Z" fill="#60CC8C"></path><path d="M78.7998 57.7521L81.2078 61.2641L86.1998 54.8" stroke="white" stroke-width="4" stroke-linecap="round" stroke-linejoin="round"></path><path d="M78.7998 89.5679L81.2078 93.0799L86.1998 86.6079" stroke="white" stroke-width="4" stroke-linecap="round" stroke-linejoin="round"></path><path opacity="0.1" d="M108.504 112.768L105.496 118L115.624 116.712L126.36 112.808C126.36 112.808 131.856 121.608 141.056 126.824C151.205 132.395 158.999 141.448 163 152.312L163.256 153.024V104.224L149.16 89.448L108.504 112.768Z" fill="black"></path><path d="M78.7998 121.616L81.2078 125.128L86.1998 118.664" stroke="white" stroke-width="4" stroke-linecap="round" stroke-linejoin="round"></path><path d="M161.704 86.8C161.704 86.8 150.2 76.488 133.168 83.6C119.832 89.2 126.144 95.7841 133.312 95.5041C140.48 95.2241 152.512 90.3361 151.672 102.24C150.912 112.728 137.904 97.6481 130.448 98.2401C122.992 98.8321 123.848 107.304 133.032 111.952C142.216 116.6 155.112 126.664 165.152 118.76C175.192 110.856 172.32 96.816 161.704 86.8Z" fill="#F4A28C"></path><path d="M179.988 81.1591L176.446 73.79L112.085 104.723L115.627 112.092L179.988 81.1591Z" fill="#60CC8C"></path><path d="M158.696 121.704L198.976 187.28L231.84 159.224L174.04 102.408L158.696 121.704Z" fill="#60CC8C"></path><path d="M112.08 104.728L103.488 113.592L115.624 112.096L112.08 104.728Z" fill="#24285B"></path><path d="M48.2239 78.0399C48.2239 78.0399 62.3679 63.5839 68.4719 64.8639C73.5119 65.9279 73.5199 75.9519 62.5359 84.3039C60.3061 85.9805 58.4627 88.1169 57.1307 90.5683C55.7987 93.0197 55.0093 95.7288 54.8159 98.5119C54.5039 103.176 52.9599 108.728 48.2239 112.912C38.2639 121.712 30.8719 114.048 31.8319 102.144C32.7919 90.2399 33.4399 86.7199 48.2239 78.0399Z" fill="#F4A28C"></path><path d="M53.7281 111.024L48.4081 184.584L4.80811 176.224L26.7361 102.84L53.7281 111.024Z" fill="#60CC8C"></path><path opacity="0.21" d="M123.88 49.8159H101.272V54.7999H123.88V49.8159Z" fill="#A8A8A8"></path><path opacity="0.21" d="M137.088 59.72H101.272V64.704H137.088V59.72Z" fill="#A8A8A8"></path><path opacity="0.1" d="M31.3921 181.32L40.8401 107.12L53.7281 111.024L48.4081 184.584L31.3921 181.32Z" fill="black"></path><path opacity="0.1" d="M158.696 121.704L165.8 112.768L213.512 174.872L198.976 187.28L158.696 121.704Z" fill="black"></path></svg> 