<?xml version="1.0" encoding="UTF-8"?> <svg xmlns="http://www.w3.org/2000/svg" width="221" height="176" viewBox="0 0 221 176" fill="none"><path opacity="0.4" d="M7.79328 118.724C7.79328 118.724 -7.60933 81.5242 16.8065 60.4977C41.2224 39.4712 82.6026 2.58623 156.064 17.4285C229.526 32.2707 209.51 119 209.51 119L7.79328 118.724Z" fill="#E6E6E6"></path><path d="M93.3496 80.8871C93.3496 80.8871 78.7099 51.2097 103.146 38.5526C127.583 25.8956 173.262 22.1465 180.95 50.6032C188.639 79.0599 179.365 118.929 179.365 118.929L101.173 119L93.3496 80.8871Z" fill="#24285B"></path><path opacity="0.08" d="M93.3496 80.8871C93.3496 80.8871 78.7099 51.2097 103.146 38.5526C127.583 25.8956 173.262 22.1465 180.95 50.6032C188.639 79.0599 179.365 118.929 179.365 118.929L101.173 119L93.3496 80.8871Z" fill="white"></path><path d="M81.3496 80.8871C81.3496 80.8871 66.7099 51.2097 91.1465 38.5526C115.583 25.8956 161.262 22.1465 168.95 50.6032C176.639 79.0599 167.365 118.929 167.365 118.929L89.1728 119L81.3496 80.8871Z" fill="#24285B"></path><path d="M95.3688 58.1844C95.3688 58.1844 121.691 41.1163 141.61 56.2764C161.53 71.4366 153.327 119 153.327 119H78.5384C78.5384 119 45.958 93.839 95.3688 58.1844Z" fill="#60CC8C"></path><path d="M77.4561 75.3054C77.4561 75.3054 50.7407 111.29 69.9451 119H86.5714C86.5714 119 103.549 70.7337 77.4561 75.3054Z" fill="#60CC8C"></path><path d="M87 0V16.4542H97.896L100.288 23L103.104 16.4542H114V0H87Z" fill="#E6E6E6"></path><path opacity="0.58" d="M19.6427 111.493C19.6427 111.493 13.3648 109.829 12 104.15C12 104.15 21.727 102.244 22 112L19.6427 111.493Z" fill="#60CC8C"></path><path opacity="0.73" d="M19.9373 110.984C19.9373 110.984 15.9222 104.272 19.4524 98C19.4524 98 26.225 102.542 23.2402 111L19.9373 110.984Z" fill="#60CC8C"></path><path d="M21 110.955C21 110.955 23.2065 104.251 29.881 103C29.881 103 31.126 107.36 25.5626 111L21 110.955Z" fill="#60CC8C"></path><path d="M17 111L18.2174 118.962L25.8696 119L27 111.038L17 111Z" fill="#24285B"></path><path d="M221 124H0V176H221V124Z" fill="#C9C9C9"></path><path d="M221 119H0V129H221V119Z" fill="#E6E6E6"></path><path opacity="0.08" d="M176.817 119.087C176.817 119.087 182.769 159.968 140 176H221V119L176.817 119.087Z" fill="black"></path><path d="M134 118H104V119H134V118Z" fill="white"></path><path opacity="0.08" d="M98.6962 76C98.6962 76 102.366 80.5188 97.3923 83.5765C92.4188 86.6342 91.4897 88.4146 92.3095 95.2566C93.1294 102.099 91.5288 113.803 87.7811 116.405H96.5335V119H75L82.6125 86.9376L84.8767 82.0995L90.342 76H98.6962Z" fill="black"></path><path d="M90 67.6122C90 67.6122 90.456 74.4344 94.6466 73.9781C98.8372 73.5217 98.3655 70.9383 98.3655 70.9383C98.3655 70.9383 102.454 71.9051 102.949 68.5172C103.445 65.1293 100.237 61.3856 96.8874 61.0143C93.538 60.643 90 67.6122 90 67.6122Z" fill="white"></path><path opacity="0.08" d="M115.642 67C115.642 67 113.02 77.0951 128.621 85.4825C144.223 93.8699 144.614 104.516 130.1 108.673C115.586 112.831 109.309 111.498 111.388 119H153.187C153.187 119 153.763 113.589 154.402 108.474C155.042 103.359 160 67.423 160 67.423L115.642 67Z" fill="black"></path><path d="M90.5395 67.3688C91.2956 68.1728 92.0089 69.0217 92.6761 69.9113C93.5721 71.1497 95.234 72.7244 97.3477 71.6336C100.602 69.9523 98.0446 64.4983 98.0446 64.4983C98.0446 64.4983 96.735 58.5358 93.2045 60.3401C90.0264 61.9722 87.1162 63.6125 90.5395 67.3688Z" fill="#F4A28C"></path><path d="M98.2643 65C98.2643 65 97.4675 63.7752 98.6409 63.1157C99.8144 62.4562 101.162 64.8241 98.2643 65Z" fill="#F4A28C"></path><path d="M92 68.2714C92 68.2714 91.3769 66.6907 89.718 67.0543C88.0592 67.418 89.4635 70.327 92 68.2714Z" fill="#F4A28C"></path><path d="M90.6843 67.2115C90.6843 67.2115 85.488 70.0681 85.0537 64.907C84.6194 59.7458 86.9926 62.0743 86.0231 58.5536C85.0537 55.0328 85.5656 53.8245 87.8612 53.9045C90.1569 53.9845 90.5059 57.5293 92.2121 55.1688C93.9184 52.8083 94.9654 51.0239 96.7259 52.5922C98.4864 54.1606 98.7113 55.3688 97.7419 57.0972C96.7724 58.8256 100.805 59.6658 97.9746 63.3946C95.1438 67.1235 90.4283 64.4989 90.4283 64.4989L90.6843 67.2115Z" fill="#FFD200"></path><path d="M75.7572 117.556C74.3217 118.489 72.6419 118.99 70.9222 119C69.2025 119.009 67.5171 118.527 66.071 117.61C64.6248 116.694 63.4803 115.383 62.7767 113.838C62.073 112.293 61.8406 110.58 62.1076 108.907C62.5844 106.217 63.6833 103.671 65.3193 101.466C72.3769 91.4961 84.7258 74.7577 84.7258 74.7577C84.7258 74.7577 95.8784 67.6418 99.4032 72.9946C102.928 78.3474 89.6879 79.0827 89.6879 79.0827C89.6879 79.0827 89.4229 108.622 75.7572 117.556Z" fill="#F4A28C"></path><path d="M85.0915 75L90 79.2531C90 79.2531 89.2096 119.062 71.0298 118.999C71.0298 118.999 58.8415 119.407 62.7857 105.204C66.7299 91.0003 70.8164 93.2916 85.0915 75Z" fill="#60CC8C"></path><path opacity="0.46" d="M85.0915 75L90 79.2531C90 79.2531 89.2096 119.062 71.0298 118.999C71.0298 118.999 58.8415 119.407 62.7857 105.204C66.7299 91.0003 70.8164 93.2916 85.0915 75Z" fill="white"></path><path d="M46.5641 119L42 93H74.3576L77.159 115.168L92 115.374V119H46.5641Z" fill="#FFD200"></path><path d="M59.5 109C61.433 109 63 107.433 63 105.5C63 103.567 61.433 102 59.5 102C57.567 102 56 103.567 56 105.5C56 107.433 57.567 109 59.5 109Z" fill="white"></path><path d="M115.711 66.9624C112.761 58.5571 119.39 49.8823 128.296 50.0012C143.125 50.1994 167.352 54.077 175.409 76.1685C187.305 108.774 128.581 114 128.581 114L126.075 107.101C126.075 107.101 156.599 98.7358 153.252 82.0125C150.532 68.3817 121.254 82.742 115.711 66.9624Z" fill="#60CC8C"></path><path d="M125.001 103.011L122.926 102.29L118.156 116.017L120.232 116.738L125.001 103.011Z" fill="#24285B"></path><path d="M118 116L118.069 119L120 116.693L118 116Z" fill="#FFD200"></path><path opacity="0.46" d="M115.711 66.9624C112.761 58.5571 119.39 49.8823 128.296 50.0012C143.125 50.1994 167.352 54.077 175.409 76.1685C187.305 108.774 128.581 114 128.581 114L126.075 107.101C126.075 107.101 156.599 98.7358 153.252 82.0125C150.532 68.3817 121.254 82.742 115.711 66.9624Z" fill="white"></path><path d="M126.881 108C126.881 108 117.22 108.716 117.005 111.917C116.79 115.118 123.33 116.35 129 113.049L126.881 108Z" fill="#F4A28C"></path><path d="M197 109H160V119H197V109Z" fill="white"></path><path d="M94 10C95.1046 10 96 9.10457 96 8C96 6.89543 95.1046 6 94 6C92.8954 6 92 6.89543 92 8C92 9.10457 92.8954 10 94 10Z" fill="#A5A5A5"></path><path d="M100.5 10C101.328 10 102 9.10457 102 8C102 6.89543 101.328 6 100.5 6C99.6716 6 99 6.89543 99 8C99 9.10457 99.6716 10 100.5 10Z" fill="#A5A5A5"></path><path d="M107 10C108.105 10 109 9.10457 109 8C109 6.89543 108.105 6 107 6C105.895 6 105 6.89543 105 8C105 9.10457 105.895 10 107 10Z" fill="#A5A5A5"></path></svg> 