<?xml version="1.0" encoding="UTF-8"?> <svg xmlns="http://www.w3.org/2000/svg" width="191" height="208" viewBox="0 0 191 208" fill="none"><path opacity="0.45" d="M94.1 203.42C143.01 203.42 182.66 198.464 182.66 192.35C182.66 186.236 143.01 181.28 94.1 181.28C45.1897 181.28 5.54004 186.236 5.54004 192.35C5.54004 198.464 45.1897 203.42 94.1 203.42Z" fill="#E6E6E6"></path><path d="M118.962 186.356C118.962 186.356 120.725 189.193 123.546 188.816C126.367 188.439 127.646 191.013 125.334 192.252C123.021 193.49 115.879 191.669 115.879 191.669L115.018 186.536L118.962 186.356Z" fill="#60CC8C"></path><path d="M71.2057 186.356C71.2057 186.356 69.4427 189.193 66.6219 188.816C63.8011 188.439 62.5219 191.013 64.8343 192.252C67.1467 193.49 74.2889 191.669 74.2889 191.669L75.1089 186.536L71.2057 186.356Z" fill="#60CC8C"></path><path d="M103.514 49.26C103.514 49.26 119.028 52.8844 122.374 69.5878C125.719 86.2912 125.941 100.986 135.051 101.494C144.161 102.002 150.754 67.054 150.754 67.054L157.584 68.8252C157.584 68.8252 150.508 144.782 113.542 109.333C76.5766 73.8846 103.514 49.26 103.514 49.26Z" fill="#60CC8C"></path><path opacity="0.46" d="M103.514 49.26C103.514 49.26 119.028 52.8844 122.374 69.5878C125.719 86.2912 125.941 100.986 135.051 101.494C144.161 102.002 150.754 67.054 150.754 67.054L157.584 68.8252C157.584 68.8252 150.508 144.782 113.542 109.333C76.5766 73.8846 103.514 49.26 103.514 49.26Z" fill="white"></path><path d="M88.7045 25.1355C88.7045 25.1355 89.7869 30.3507 89.3113 33.9587C89.2659 34.3077 89.1519 34.6442 88.9757 34.9489C88.7996 35.2536 88.5649 35.5204 88.2851 35.7338C88.0053 35.9473 87.686 36.1032 87.3456 36.1926C87.0052 36.282 86.6505 36.3031 86.3019 36.2547C84.4815 35.9923 82.1117 35.1067 81.1933 32.3843L79.0613 27.9563C78.7302 27.025 78.696 26.014 78.9632 25.0624C79.2305 24.1108 79.7862 23.2655 80.5537 22.6427C83.2761 20.1417 88.2043 21.9293 88.7045 25.1355Z" fill="#F4A28C"></path><path d="M79.4466 28.76L78.7578 46.1932L88.3846 45.8816L85.0226 33.3274L79.4466 28.76Z" fill="#F4A28C"></path><path d="M87.4172 25.48C85.7904 25.7365 84.1396 25.8053 82.4972 25.685C83.0545 26.3474 83.4058 27.1584 83.5078 28.0181C83.6097 28.8778 83.458 29.7485 83.0712 30.523C82.7111 31.2807 82.0982 31.8892 81.3379 32.2439C80.5777 32.5986 79.7176 32.6772 78.9056 32.4664L78.1922 25.6686C78.0593 24.7018 78.1894 23.7171 78.569 22.8181C78.9485 21.9191 79.5633 21.139 80.3488 20.56C81.0294 20.0518 81.7446 19.5915 82.489 19.1824C84.3504 18.1656 87.368 19.1332 88.9588 17.5998C89.1206 17.4476 89.319 17.3399 89.5347 17.2871C89.7505 17.2343 89.9762 17.2383 90.1899 17.2985C90.4037 17.3588 90.5983 17.4733 90.7547 17.631C90.9111 17.7887 91.0241 17.9841 91.0826 18.1984C91.632 20.2238 91.6484 23.5202 88.9916 24.9798C88.4991 25.2349 87.9666 25.4041 87.4172 25.48Z" fill="#24285B"></path><path d="M83.6206 30.3262C83.6206 30.3262 83.3418 28.3008 81.833 28.637C80.3242 28.9732 80.7096 31.917 82.817 31.917L83.6206 30.3262Z" fill="#F4A28C"></path><path d="M89.1797 28.4565L90.8935 30.3179C91.0011 30.4192 91.0793 30.5476 91.1199 30.6897C91.1605 30.8317 91.1619 30.982 91.1241 31.1248C91.0863 31.2676 91.0107 31.3976 90.9051 31.5009C90.7996 31.6042 90.6681 31.6772 90.5245 31.7119L88.5483 32.3269L89.1797 28.4565Z" fill="#F4A28C"></path><path opacity="0.31" d="M85.9001 36.0417C84.6868 35.8781 83.5472 35.3653 82.6201 34.5657C82.6201 34.5657 83.1367 37.7145 86.9825 40.4287L85.9001 36.0417Z" fill="#CE8172"></path><path d="M78.7578 46.1932L88.36 45.8816C88.36 45.8816 114.174 46.2916 115.781 65.1024C117.388 83.9132 106.375 98.5912 110.041 113.269L75.0186 117.746C75.0186 117.746 17.6268 60.0594 78.7578 46.1932Z" fill="#60CC8C"></path><path opacity="0.08" d="M74.166 58.8867C74.166 58.8867 86.015 68.3741 78.1348 85.3727C70.2546 102.371 75.1172 107.775 86.9252 104.635C98.7332 101.494 103.514 88.7183 103.514 88.7183L109.319 106.66C109.264 108.871 109.515 111.078 110.066 113.22L75.0434 117.697L73.7724 116.369L57.9136 94.0647L74.166 58.8867Z" fill="black"></path><path d="M123.965 73.4664L98.3198 69.2715L92.6463 103.956L118.291 108.151L123.965 73.4664Z" fill="#FFD200"></path><path opacity="0.08" d="M113.509 91.3096C113.509 91.3096 117.609 95.9098 114.231 99.1242C110.853 102.339 106.162 106.168 106.162 106.168L94.4116 104.151L113.509 91.3096Z" fill="black"></path><path d="M116.591 70.0086L106.217 68.3115L105.333 73.7173L115.707 75.4143L116.591 70.0086Z" fill="#24285B"></path><path d="M75.2398 71.6543C81.1848 60.1743 67.2858 48.6943 57.0194 56.5171C51.632 60.6171 46.5562 66.6113 44.9408 74.9671C41.0458 95.1473 43.3008 113.269 57.1014 118.55C70.902 123.831 106.859 97.6401 106.859 97.6401L102.267 90.0715C102.267 90.0715 70.8446 112.548 63.276 97.1809C58.5118 87.5459 70.0984 81.5599 75.2398 71.6543Z" fill="#60CC8C"></path><path opacity="0.46" d="M75.2398 71.6543C81.1848 60.1743 67.2858 48.6943 57.0194 56.5171C51.632 60.6171 46.5562 66.6113 44.9408 74.9671C41.0458 95.1473 43.3008 113.269 57.1014 118.55C70.902 123.831 106.859 97.6401 106.859 97.6401L102.267 90.0715C102.267 90.0715 70.8446 112.548 63.276 97.1809C58.5118 87.5459 70.0984 81.5599 75.2398 71.6543Z" fill="white"></path><path d="M103.514 92.1541C103.514 92.1541 108.122 87.3653 112.419 89.7679C116.716 92.1705 106.859 97.6728 106.859 97.6728L103.514 92.1541Z" fill="#F4A28C"></path><path d="M75.043 117.746L68.4092 186.626L75.1496 186.585C75.1496 186.585 85.6374 135.434 97.3388 128.775C109.04 122.117 110.065 113.302 110.065 113.302L75.043 117.746Z" fill="#24285B"></path><path d="M110.066 113.269L121.423 186.585H115.018C115.018 186.585 105.679 139.37 88.5815 128.316L110.066 113.269Z" fill="#24285B"></path><path d="M151.877 67.3656C151.877 67.3656 151.098 59.223 155.657 59.756C160.217 60.289 157.552 68.8416 157.552 68.8416L151.877 67.3656Z" fill="#F4A28C"></path><path d="M148.154 45.1811L143.629 48.0903L152.095 61.2602L156.621 58.351L148.154 45.1811Z" fill="#FFD200"></path><path opacity="0.08" d="M148.154 45.1811L143.629 48.0903L152.095 61.2602L156.621 58.351L148.154 45.1811Z" fill="black"></path><path d="M155.569 52.5114L148.617 57.0266L159.59 73.9236L166.543 69.4085L155.569 52.5114Z" fill="#24285B"></path><path d="M127.523 18.0017C124.592 19.9049 122.291 22.6346 120.911 25.8456C119.531 29.0566 119.134 32.6047 119.771 36.0412C120.407 39.4777 122.048 42.6483 124.487 45.1521C126.925 47.6558 130.052 49.3802 133.47 50.1073C136.889 50.8343 140.446 50.5313 143.692 49.2366C146.939 47.942 149.728 45.7137 151.708 42.8337C153.688 39.9536 154.769 36.5511 154.816 33.0564C154.862 29.5618 153.871 26.1319 151.968 23.2005C150.704 21.2541 149.069 19.5756 147.157 18.261C145.245 16.9463 143.092 16.0212 140.822 15.5384C138.552 15.0557 136.21 15.0248 133.928 15.4474C131.646 15.87 129.47 16.738 127.523 18.0017ZM143.923 43.2905C141.853 44.6337 139.43 45.3328 136.963 45.2996C134.495 45.2663 132.092 44.502 130.059 43.1034C128.025 41.7049 126.452 39.7348 125.538 37.4422C124.624 35.1496 124.41 32.6375 124.924 30.2235C125.437 27.8095 126.655 25.6019 128.423 23.8798C130.191 22.1578 132.43 20.9986 134.857 20.5489C137.283 20.0991 139.789 20.3789 142.057 21.353C144.324 22.3271 146.252 23.9516 147.597 26.0213C148.492 27.395 149.107 28.9316 149.408 30.5433C149.709 32.155 149.689 33.8102 149.349 35.4142C149.009 37.0181 148.357 38.5394 147.428 39.8909C146.5 41.2424 145.315 42.3976 143.94 43.2905H143.923Z" fill="#FFD200"></path><path d="M132.329 33.8603L136.224 38.4195L141.759 28.5713" stroke="#60CC8C" stroke-width="5" stroke-linecap="round" stroke-linejoin="round"></path></svg> 