<?xml version="1.0" encoding="UTF-8"?> <svg xmlns="http://www.w3.org/2000/svg" width="125" height="176" viewBox="0 0 125 176" fill="none"><path d="M11.9604 14C8.78939 14.0036 5.74932 15.2671 3.50709 17.5134C1.26487 19.7596 0.00360669 22.8051 0 25.9817V164.018C0.00363776 167.195 1.26492 170.24 3.50714 172.487C5.74936 174.733 8.78941 175.996 11.9604 176H113.04C116.211 175.996 119.251 174.733 121.493 172.487C123.735 170.24 124.996 167.195 125 164.018V25.9817C124.996 22.8051 123.735 19.7596 121.493 17.5134C119.251 15.2672 116.211 14.0036 113.04 14H11.9604Z" fill="#3F3D56"></path><path d="M118 23H7V168H118V23Z" fill="white"></path><path d="M104 49H21V54H104V49Z" fill="#00BFA6"></path><path d="M104 64H21V69H104V64Z" fill="#00BFA6"></path><path d="M104 78H21V84H104V78Z" fill="#00BFA6"></path><path d="M104 92H21V98H104V92Z" fill="#00BFA6"></path><path d="M104 107H21V113H104V107Z" fill="#00BFA6"></path><path d="M104 122H21V127H104V122Z" fill="#00BFA6"></path><path d="M104 137H21V142H104V137Z" fill="#00BFA6"></path><path d="M105.235 13.882L22.8027 28.9673L42.1981 134.952L124.63 119.866L105.235 13.882Z" fill="#E6E6E6"></path><path d="M97.9365 34.851L37.0566 45.9922L37.7885 49.9916L98.6684 38.8504L97.9365 34.851Z" fill="#00BFA6"></path><path d="M99.8877 45.5163L39.0078 56.6575L39.7397 60.6569L100.62 49.5157L99.8877 45.5163Z" fill="#00BFA6"></path><path d="M101.84 56.1813L40.96 67.3225L41.6919 71.3219L102.572 60.1807L101.84 56.1813Z" fill="#00BFA6"></path><path d="M103.792 66.8464L42.9121 77.9875L43.644 81.987L104.524 70.8458L103.792 66.8464Z" fill="#00BFA6"></path><path d="M105.742 77.5116L44.8623 88.6526L45.5942 92.652L106.474 81.511L105.742 77.5116Z" fill="#00BFA6"></path><path d="M107.695 88.1764L46.8154 99.3176L47.5473 103.317L108.427 92.1759L107.695 88.1764Z" fill="#00BFA6"></path><path d="M109.646 98.8417L48.7666 109.983L49.4985 113.982L110.378 102.841L109.646 98.8417Z" fill="#00BFA6"></path><path d="M83.4237 7.44681H73.4655V5.45317C73.4655 4.0069 72.878 2.61987 71.8323 1.5972C70.7865 0.574529 69.3682 0 67.8892 0H57.1108C55.6318 1.29998e-06 54.2135 0.574531 53.1677 1.5972C52.122 2.61987 51.5345 4.0069 51.5345 5.45317V7.44681H41.5763C40.844 7.44681 40.1189 7.58786 39.4423 7.86191C38.7658 8.13596 38.1511 8.53763 37.6333 9.04401C37.1154 9.55038 36.7047 10.1515 36.4245 10.8131C36.1442 11.4748 36 12.1839 36 12.9V28H89V12.9C89 12.1839 88.8558 11.4748 88.5755 10.8131C88.2953 10.1515 87.8846 9.55038 87.3668 9.04401C86.8489 8.53763 86.2342 8.13596 85.5577 7.86191C84.8811 7.58786 84.156 7.44681 83.4237 7.44681Z" fill="#3F3D56"></path><path d="M59.6457 157.407C61.2411 156.222 62.8808 154.989 64.7754 154.45C66.5039 153.958 68.4888 154.088 69.856 155.462C70.9593 156.572 71.4252 158.276 70.6077 159.736C70.4323 160.069 70.194 160.357 69.9084 160.583C69.6229 160.809 69.2965 160.966 68.9509 161.045C68.617 161.093 68.2774 161.048 67.9636 160.915C67.6499 160.782 67.3723 160.565 67.1567 160.284C66.728 159.769 66.4716 159.009 66.6993 158.331C66.9389 157.618 67.5796 157.182 68.2088 156.939C68.9412 156.687 69.6956 156.518 70.46 156.434L73.5907 155.968L86.405 154.063L100.676 151.942C100.788 151.907 100.884 151.826 100.942 151.715C101 151.604 101.015 151.473 100.985 151.35C100.951 151.229 100.876 151.127 100.774 151.064C100.673 151.002 100.553 150.984 100.44 151.015L72.0448 155.236C71.0177 155.389 69.9761 155.498 68.9597 155.722C68.1596 155.863 67.401 156.205 66.7446 156.721C65.3844 157.891 65.4815 159.959 66.7333 161.183C68.0004 162.421 69.8377 162.208 70.9497 160.84C71.5119 160.148 71.8456 159.272 71.8981 158.351C71.9506 157.429 71.7189 156.515 71.2396 155.753C70.0257 153.765 67.8138 153.002 65.7004 153.284C63.2562 153.61 61.184 155.102 59.1988 156.577C58.7314 156.924 59.1738 157.758 59.6457 157.407Z" fill="#3F3D56"></path></svg> 