<?xml version="1.0" encoding="UTF-8"?> <svg xmlns="http://www.w3.org/2000/svg" width="198" height="186" viewBox="0 0 198 186" fill="none"><path d="M52.8091 125.384L47.2082 134.559L38.6289 132.267L39.8216 121.267L52.8091 125.384Z" fill="#FFD200"></path><path d="M120.076 32.0652C120.076 32.0652 120.432 37.3947 119.462 40.9199C119.367 41.2603 119.206 41.5787 118.988 41.8569C118.769 42.135 118.498 42.3675 118.19 42.5409C117.882 42.7143 117.542 42.8253 117.191 42.8675C116.839 42.9097 116.483 42.8823 116.142 42.7869C114.371 42.2714 112.132 41.0662 111.588 38.2307L110.088 33.5352C109.884 32.5624 109.988 31.5505 110.386 30.6393C110.783 29.7282 111.454 28.963 112.306 28.4495C115.368 26.3456 120.02 28.8048 120.076 32.0652Z" fill="#F4A28C"></path><path d="M112.055 34.0647L103.553 49.3844L112.341 53.4599L114.929 40.9965L112.055 34.0647Z" fill="#F4A28C"></path><path d="M109.53 31.1667L109.3 38.0288C110.08 38.3494 110.948 38.3891 111.755 38.1413C112.561 37.8935 113.257 37.3736 113.722 36.6703C114.211 35.9548 114.48 35.1126 114.498 34.2465C114.515 33.3805 114.279 32.5281 113.82 31.7937C116.491 32.2459 119.189 32.5182 121.897 32.6088C122.455 32.6088 123.668 32.8735 123.78 30.4491C123.78 30.4491 124.763 26.5617 122.057 25.5724C119.351 24.5832 109.3 25.5933 109.53 31.1667Z" fill="#24285B"></path><path d="M120.125 35.2839L121.653 37.9034L119.937 38.3005L120.125 35.2839Z" fill="#F4A28C"></path><path d="M49.378 147.733C49.378 147.733 46.2602 148.541 45.7789 151.216C45.2976 153.891 42.5634 154.379 42.0961 151.871C41.6288 149.363 45.3674 143.33 45.3674 143.33L49.2803 143.873L49.378 147.733Z" fill="#60CC8C"></path><path d="M75.9387 125.405C75.9387 125.405 79.21 150.485 49.3779 143.462V148.053C49.3779 148.053 56.7575 154.184 68.8103 151.537C73.2863 150.505 77.468 148.468 81.0375 145.58L93.0414 136.015L91.4232 127.85L80.877 122.876L75.9387 125.405Z" fill="#24285B"></path><path d="M168.755 54.7418C180.188 54.7418 189.456 45.4844 189.456 34.0648C189.456 22.6451 180.188 13.3877 168.755 13.3877C157.321 13.3877 148.053 22.6451 148.053 34.0648C148.053 45.4844 157.321 54.7418 168.755 54.7418Z" fill="#FFD200"></path><path opacity="0.08" d="M168.755 54.7418C180.188 54.7418 189.456 45.4844 189.456 34.0648C189.456 22.6451 180.188 13.3877 168.755 13.3877C157.321 13.3877 148.053 22.6451 148.053 34.0648C148.053 45.4844 157.321 54.7418 168.755 54.7418Z" fill="black"></path><path d="M98.7188 79.9193C98.7188 79.9193 118.904 106.95 134.584 115.665C150.264 124.381 180.277 77.6899 180.277 77.6899L174.523 73.4333L141.664 98.3809C141.664 98.3809 122.776 55.9888 108.386 56.4416C93.9967 56.8944 92.525 72.1166 98.7188 79.9193Z" fill="#60CC8C"></path><path opacity="0.46" d="M98.7188 79.9193C98.7188 79.9193 118.904 106.95 134.584 115.665C150.264 124.381 180.277 77.6899 180.277 77.6899L174.523 73.4333L141.664 98.3809C141.664 98.3809 122.776 55.9888 108.386 56.4416C93.9967 56.8944 92.525 72.1166 98.7188 79.9193Z" fill="white"></path><path opacity="0.45" d="M95.2521 181.486C141.286 181.486 178.603 176.128 178.603 169.518C178.603 162.907 141.286 157.549 95.2521 157.549C49.2185 157.549 11.9009 162.907 11.9009 169.518C11.9009 176.128 49.2185 181.486 95.2521 181.486Z" fill="#E6E6E6"></path><path d="M102.562 47.9492L112.369 52.4218C116.334 54.3774 119.629 57.4656 121.835 61.2946C124.04 65.1236 125.057 69.5207 124.756 73.9279C124.407 79.2714 123.222 81.849 121.534 89.4706C119.511 98.6317 119.685 108.232 111.915 113.506C106.098 117.456 98.3976 123.872 96.6609 131.041L67.2961 116.996C67.2961 116.996 54.3017 45.7129 102.562 47.9492Z" fill="#60CC8C"></path><path opacity="0.08" d="M104.382 58.9219C104.382 58.9219 120.718 74.4715 100.972 93.3442C81.2255 112.217 87.9215 67.2401 104.382 58.9219Z" fill="black"></path><path d="M94.2687 71.9077H50.0612C35.6116 71.9077 23.8979 83.6074 23.8979 98.0397V100.185C23.8979 114.618 35.6116 126.317 50.0612 126.317H94.2687C108.718 126.317 120.432 114.618 120.432 100.185V98.0397C120.432 83.6074 108.718 71.9077 94.2687 71.9077Z" fill="#FFD200"></path><path opacity="0.08" d="M57.6084 126.324H76.0155C76.0155 126.324 56.6947 102.192 68.1337 75.3562C68.1337 75.3562 47.6133 73.726 47.8016 73.0015C47.9899 72.277 48.8757 93.8527 48.8757 93.8527L57.6084 126.324Z" fill="black"></path><path d="M87.2029 48.5136C87.2029 48.5136 53.7229 52.5194 38.3012 61.7502C22.8795 70.9811 48.4707 120.27 48.4707 120.27L56.8407 116.606L49.7332 76.5126C49.7332 76.5126 95.9426 81.3126 102.743 68.6263C109.544 55.94 97.0446 47.0366 87.2029 48.5136Z" fill="#60CC8C"></path><path opacity="0.46" d="M87.2029 48.5136C87.2029 48.5136 53.7229 52.5194 38.3012 61.7502C22.8795 70.9811 48.4707 120.27 48.4707 120.27L56.8407 116.606L49.7332 76.5126C49.7332 76.5126 95.9426 81.3126 102.743 68.6263C109.544 55.94 97.0446 47.0366 87.2029 48.5136Z" fill="white"></path><path d="M117.454 160.196C117.454 160.196 120.244 161.792 122.483 160.196C124.722 158.601 127.003 160.196 125.58 162.286C124.157 164.376 117.279 166.132 117.279 166.132L114.845 163.011L117.454 160.196Z" fill="#60CC8C"></path><path d="M174.523 73.4195C174.523 73.4195 174.035 64.6137 175.82 64.0842C177.606 63.5547 178.436 67.8253 178.436 67.8253C178.436 67.8253 180.528 60.3152 184.427 61.2418C188.326 62.1684 180.277 77.6901 180.277 77.6901L174.523 73.4195Z" fill="#F4A28C"></path><path d="M48.91 119.908C48.91 119.908 48.2125 129.661 52.6486 129.369C53.1808 129.337 53.7063 129.234 54.211 129.062C55.054 128.76 55.8267 128.289 56.4824 127.68C57.1381 127.071 57.6631 126.334 58.0257 125.516C58.3882 124.698 58.5808 123.815 58.5917 122.921C58.6026 122.026 58.4316 121.139 58.0891 120.312L56.8127 117.121L48.91 119.908Z" fill="#F4A28C"></path><path d="M119.281 96.2354H115.019C110.481 96.2354 106.803 99.9096 106.803 104.442C106.803 108.975 110.481 112.649 115.019 112.649H119.281C123.819 112.649 127.498 108.975 127.498 104.442C127.498 99.9096 123.819 96.2354 119.281 96.2354Z" fill="#FFD200"></path><path opacity="0.35" d="M119.281 96.2354H115.019C110.481 96.2354 106.803 99.9096 106.803 104.442C106.803 108.975 110.481 112.649 115.019 112.649H119.281C123.819 112.649 127.498 108.975 127.498 104.442C127.498 99.9096 123.819 96.2354 119.281 96.2354Z" fill="white"></path><path d="M103.58 94.6677C105.36 94.6677 106.803 93.2266 106.803 91.4491C106.803 89.6715 105.36 88.2305 103.58 88.2305C101.801 88.2305 100.358 89.6715 100.358 91.4491C100.358 93.2266 101.801 94.6677 103.58 94.6677Z" fill="#24285B"></path><path d="M168.755 50.9728C180.188 50.9728 189.456 41.7153 189.456 30.2957C189.456 18.8761 180.188 9.61865 168.755 9.61865C157.321 9.61865 148.053 18.8761 148.053 30.2957C148.053 41.7153 157.321 50.9728 168.755 50.9728Z" fill="#FFD200"></path><path opacity="0.46" d="M168.755 44.2082C176.448 44.2082 182.684 37.9794 182.684 30.2957C182.684 22.6121 176.448 16.3833 168.755 16.3833C161.062 16.3833 154.826 22.6121 154.826 30.2957C154.826 37.9794 161.062 44.2082 168.755 44.2082Z" fill="white"></path><path d="M90.9138 128.226C90.9138 128.226 111.03 135.527 118.695 159.534L114.852 163.018C114.852 163.018 105.247 147.238 83.2622 135.046L90.9138 128.226Z" fill="#24285B"></path><path d="M79.4469 83.7579C79.4469 83.7579 74.1249 75.6557 77.6333 71.1831C81.1418 66.7105 90.4604 77.4531 90.4604 77.4531L79.4469 83.7579Z" fill="#FFD200"></path><path opacity="0.08" d="M121.353 108.072C122.582 108.072 123.578 106.447 123.578 104.442C123.578 102.438 122.582 100.812 121.353 100.812C120.124 100.812 119.128 102.438 119.128 104.442C119.128 106.447 120.124 108.072 121.353 108.072Z" fill="black"></path><path opacity="0.08" d="M114.113 108.072C115.342 108.072 116.338 106.447 116.338 104.442C116.338 102.438 115.342 100.812 114.113 100.812C112.884 100.812 111.888 102.438 111.888 104.442C111.888 106.447 112.884 108.072 114.113 108.072Z" fill="black"></path><path d="M85.9614 125.697L91.5693 134.872L100.149 132.573L98.9489 121.573L85.9614 125.697Z" fill="#FFD200"></path><path d="M25.0069 91.4492C25.0069 91.4492 14.8164 88.349 6.3418 93.1908C6.3418 93.1908 18.4574 91.5049 23.8979 99.1194L25.0069 91.4492Z" fill="#FFD200"></path><path d="M169.641 20.3196C170.129 20.3196 170.275 20.4868 170.275 20.9675V21.9985C171.126 22.0901 171.937 22.4106 172.62 22.9259C173.303 23.4412 173.833 24.1319 174.154 24.9245C174.405 25.4331 174.3 25.7048 173.735 25.9556L172.696 26.4224C172.214 26.6523 171.998 26.5478 171.705 26.0392C171.49 25.5163 171.112 25.0766 170.627 24.7854C170.142 24.4942 169.576 24.3671 169.013 24.4229C167.22 24.4229 166.397 24.9454 166.397 26.1507C166.446 26.5125 166.617 26.8468 166.882 27.0978C167.147 27.3488 167.491 27.5014 167.855 27.5301C168.357 27.6391 168.864 27.7159 169.376 27.76C170.328 27.8058 171.268 27.9912 172.166 28.3103C172.619 28.4633 173.04 28.6996 173.407 29.007C173.781 29.4003 174.072 29.8642 174.264 30.3714C174.455 30.8787 174.544 31.4191 174.523 31.9609C174.523 34.2529 172.989 35.8134 170.268 36.2105V37.2834C170.268 37.7711 170.122 37.9383 169.634 37.9383H168.483C168.002 37.9383 167.827 37.7711 167.827 37.2834V36.2314C166.888 36.1619 165.99 35.8176 165.246 35.2414C164.502 34.6653 163.944 33.8829 163.642 32.9919C163.599 32.8972 163.578 32.7941 163.58 32.6902C163.582 32.5862 163.608 32.4841 163.655 32.3912C163.701 32.2984 163.768 32.2171 163.851 32.1535C163.933 32.0899 164.029 32.0455 164.13 32.0236L165.163 31.6404C165.686 31.4523 165.916 31.5777 166.153 32.1072C166.366 32.6744 166.76 33.1555 167.275 33.4755C167.789 33.7956 168.396 33.9366 168.999 33.8767C170.938 33.8767 171.908 33.2636 171.908 32.0236C171.923 31.7359 171.842 31.4512 171.678 31.2142C171.514 30.9772 171.276 30.8013 171.001 30.7138C170.327 30.4798 169.622 30.346 168.908 30.3167C167.952 30.2591 167.011 30.0522 166.118 29.7037C165.67 29.5483 165.254 29.3122 164.891 29.007C164.498 28.6405 164.186 28.1957 163.975 27.7013C163.765 27.2068 163.661 26.6738 163.67 26.1367C163.67 23.8586 165.107 22.3469 167.799 21.9567V20.9675C167.799 20.4868 167.974 20.3196 168.455 20.3196H169.641Z" fill="white"></path></svg> 