<?xml version="1.0" encoding="UTF-8"?>
<svg width="86px" height="63px" viewBox="0 0 86 63" version="1.1" xmlns="http://www.w3.org/2000/svg" xmlns:xlink="http://www.w3.org/1999/xlink">
    <!-- Generator: Sketch 51.2 (57519) - http://www.bohemiancoding.com/sketch -->
    <title>logo</title>
    <desc>Created with Sketch.</desc>
    <defs>
        <path d="M0.00664092664,3.41362141 C0.0668299376,3.88816604 0.528756132,4.25721429 1.08933333,4.25721429 C1.17157014,4.25721429 1.25115058,4.24885714 1.32840669,4.23364286 C1.35286744,4.29857143 1.37743887,4.36371429 1.40145689,4.42875 C1.23521236,4.51210714 1.12309138,4.66853571 1.12309138,4.848 C1.12309138,5.11532143 1.3716834,5.33217857 1.67882625,5.33217857 C1.6970888,5.33217857 1.71546203,5.33153571 1.73306049,5.32960714 C2.31679794,6.95389286 2.82029086,8.60357143 3.03335393,10.2964286 C3.30253282,12.4341429 3.01287773,11.9529643 5.2082574,11.9529643 C7.05233205,11.9529643 8.89618533,11.9529643 10.74026,11.9529643 C12.5846667,11.9529643 14.429184,11.9529643 16.2732587,11.9529643 C18.4686384,11.9529643 18.1789833,12.4341429 18.4481622,10.2964286 C18.6610039,8.60357143 19.1643861,6.95389286 19.7481236,5.32960714 C19.7660541,5.33153571 19.7840952,5.33217857 19.8028005,5.33217857 C20.1096113,5.33217857 20.3584247,5.11532143 20.3584247,4.848 C20.3584247,4.66853571 20.2459717,4.51210714 20.0796165,4.42875 C20.1037452,4.36371429 20.1286486,4.29857143 20.152888,4.23364286 C20.2300335,4.24885714 20.3099459,4.25721429 20.3916293,4.25721429 C20.9932973,4.25721429 21.481184,3.83239286 21.481184,3.30825 C21.481184,2.78410714 20.9932973,2.35907143 20.3916293,2.35907143 C19.7906255,2.35907143 19.3027387,2.78410714 19.3027387,3.30825 C19.3027387,3.71935714 19.60313,4.068 20.0223938,4.2 C19.9892999,4.25657143 19.9553205,4.31485714 19.9204556,4.37496429 C19.882381,4.36778571 19.8431995,4.36425 19.8028005,4.36425 C19.495879,4.36425 19.2470656,4.58078571 19.2470656,4.848 C19.2470656,4.99210714 19.3201158,5.12121429 19.4345611,5.20992857 C18.5903887,6.64542857 17.4230245,8.47896429 16.1629086,9.14260714 C16.1712098,9.07328571 16.1799537,8.99946429 16.1899151,8.92028571 C16.3407748,7.72307143 16.6968391,6.55692857 17.1092407,5.40825 C17.1224118,5.40953571 17.1348082,5.40985714 17.1479794,5.40985714 C17.3649163,5.40985714 17.5410116,5.25685714 17.5410116,5.06775 C17.5410116,4.941 17.4614311,4.83032143 17.3437761,4.77128571 C17.3610425,4.72532143 17.3784196,4.67946429 17.395686,4.63339286 C17.4500309,4.64389286 17.5063681,4.65010714 17.5641441,4.65010714 C17.9898275,4.65010714 18.335045,4.34967857 18.335045,3.97928571 C18.335045,3.60835714 17.9898275,3.30792857 17.5641441,3.30792857 C17.1393462,3.30792857 16.7943501,3.60835714 16.7943501,3.97928571 C16.7943501,4.26942857 17.006417,4.51671429 17.3032664,4.60992857 C17.2798018,4.64946429 17.2558945,4.69071429 17.230991,4.73335714 C17.2043166,4.72832143 17.176314,4.72564286 17.1479794,4.72564286 C16.9307104,4.72564286 16.7552793,4.87864286 16.7552793,5.06775 C16.7552793,5.16975 16.8065251,5.26103571 16.8882085,5.32403571 C15.9944505,6.84235714 14.5896731,8.99164286 13.2206461,8.05585714 C12.3760309,6.96310714 11.8308108,5.52610714 11.4325766,4.12328571 C11.6422085,3.95871429 11.7754698,3.72042857 11.7754698,3.45460714 C11.7754698,3.04746429 11.4657812,2.70385714 11.0402085,2.59167857 C11.0325714,2.55921429 11.0249344,2.52653571 11.01774,2.49417857 C11.6682188,2.38221429 12.1580978,1.8825 12.1580978,1.28314286 C12.1580978,0.600857143 11.5235573,0.0478928571 10.74026,0.0478928571 C9.95795882,0.0478928571 9.32308623,0.600857143 9.32308623,1.28314286 C9.32308623,1.8825 9.8132973,2.38221429 10.4637761,2.49417857 C10.456139,2.52653571 10.4481699,2.55921429 10.4409755,2.59167857 C10.0154028,2.70385714 9.70571429,3.04746429 9.70571429,3.45460714 C9.70571429,3.72042857 9.83930759,3.95871429 10.0486075,4.12328571 C9.65037323,5.52610714 9.10515315,6.96310714 8.26087001,8.05585714 C6.89184299,8.99164286 5.48651223,6.84235714 4.59352896,5.3235 C4.67454826,5.26103571 4.72601544,5.16975 4.72601544,5.06775 C4.72601544,4.87864286 4.55025225,4.72564286 4.33353668,4.72564286 C4.30453797,4.72564286 4.27731017,4.72832143 4.2505251,4.73335714 C4.22528958,4.69071429 4.20149292,4.64946429 4.17791763,4.60992857 C4.47465637,4.51671429 4.68716602,4.26942857 4.68716602,3.97928571 C4.68716602,3.60835714 4.34239125,3.30792857 3.91692921,3.30792857 C3.4913565,3.30792857 3.14647104,3.60835714 3.14647104,3.97875 C3.14647104,4.34967857 3.4913565,4.65010714 3.91692921,4.65010714 C3.97492664,4.65010714 4.0314852,4.64389286 4.08605148,4.63339286 C4.10287516,4.67946429 4.1205843,4.72532143 4.13751866,4.77128571 C4.0197529,4.83032143 3.94017246,4.941 3.94017246,5.06775 C3.94017246,5.25685714 4.11637838,5.40985714 4.33353668,5.40985714 C4.3463758,5.40985714 4.35899356,5.40953571 4.37216474,5.40825 C4.78489833,6.55692857 5.14074131,7.72307143 5.29137967,8.92028571 C5.30134106,8.99946429 5.3097529,9.07328571 5.31827542,9.14260714 C4.05838095,8.47896429 2.89079537,6.64542857 2.04651223,5.20992857 C2.16106821,5.12121429 2.23445045,4.99210714 2.23445045,4.848 C2.23445045,4.58078571 1.98530502,4.36425 1.67882625,4.36425 C1.63787387,4.36425 1.59913514,4.36778571 1.56094981,4.37496429 C1.52586358,4.31485714 1.49199485,4.25657143 1.45867954,4.2 C1.87827542,4.068 2.17877735,3.71935714 2.17877735,3.30825 C2.17877735,2.78410714 1.69100129,2.35907143 1.08933333,2.35907143 C0.528756132,2.35907143 0.0668299376,2.72830583 0.00664092664,3.20287575 L0.00664092664,3.41362141 Z" id="path-1"></path>
        <path d="M17.0028308,45.8507143 L15.8467759,45.8507143 C13.6838663,45.79939 11.5340057,45.4353766 9.6097529,44.5666071 C9.59802059,44.5617857 9.58761647,44.5579286 9.57621622,44.5528929 C5.08517889,42.6643929 2.64076448,38.18025 2.25592278,36.3613929 C1.87119176,34.5428571 1.84850193,33.03075 1.84850193,33.03075 L1.84473874,26.676 L1.84473874,26.6762143 L1.84307851,24.1269643 C1.84307851,23.4921429 1.38264093,23.3918571 1.17002059,23.3792143 L1.06365508,23.3792143 L1.06365508,23.4110357 L1.05413642,23.3792143 L0.715891892,23.3792143 L0.715891892,22.2880714 L5.83018018,22.2880714 L5.83018018,23.3792143 L5.39785586,23.3792143 C4.5821287,23.3792143 4.65894208,24.1835357 4.65894208,24.1835357 L4.65894208,32.6390357 C4.71107336,34.5888214 4.75623166,37.4277857 6.03881596,39.41475 C7.31376319,41.3900357 9.16934878,43.5591429 12.0701055,44.3524286 C12.8908134,44.56125 13.7367568,44.6976429 14.5934363,44.7713571 C14.5944324,44.7713571 14.5950965,44.7715714 14.5958713,44.7715714 C14.8605122,44.7893571 15.1106538,44.8053214 15.3497272,44.8198929 C15.6812201,44.8352143 16.0137091,44.8441071 16.3458662,44.8441071 C23.9064505,44.8441071 25.7332587,38.7556071 25.7671274,35.9046429 C25.7855006,34.3455 26.67461,27.94875 17.6623192,26.1707143 C8.66419562,24.3953571 8.71057143,19.8370714 8.66419562,19.107 C8.48942857,16.3497857 10.1913874,13.4263929 13.5464942,12.03825 C14.0346023,11.8362857 14.5711892,11.6394643 15.0535418,11.5353214 C15.0629498,11.1324643 14.8387079,10.7796429 14.7000232,10.6359643 C14.0847413,9.99771429 13.4782033,9.89003571 12.2628031,9.89003571 L4.65894208,9.89003571 L4.65894208,19.4748214 C4.67875418,19.6983214 4.79408494,20.0751429 5.3518121,20.0751429 L5.83018018,20.0751429 L5.83018018,21.1662857 L0.715891892,21.1662857 L0.715891892,20.0751429 L1.1241982,20.0751429 C1.72287773,20.0751429 1.82791506,19.7259643 1.84307851,19.5504643 L1.84307851,2.07910714 C1.84307851,1.08739286 0.991158301,1.11632143 0.75983269,1.11107143 L0.0506924067,1.11107143 L0.0506924067,0.0197142857 L12.0870399,0.0197142857 C17.7214234,0.0197142857 18.1207645,3.74057143 18.1207645,4.97914286 C18.1207645,7.40367857 16.8738198,8.70975 15.2421441,9.34296429 C17.0852227,9.76510714 17.6031042,10.9887857 17.7228623,11.2058571 C20.3021982,11.1503571 21.4643604,11.5953214 22.2840721,11.9342143 C23.609601,12.4818214 26.7209858,14.1036429 26.9393616,17.5018929 C27.2182806,21.8325 23.7461828,23.3786786 21.2858301,23.3592857 C17.9511995,23.3331429 15.2649447,21.0951429 15.1804942,17.7710357 C15.1528237,16.6866429 15.1702008,14.2640357 15.13113,12.4876071 C13.4671351,12.7833214 11.4847079,14.781 11.757982,19.0941429 C12.0295959,23.3792143 15.6542136,24.9155357 18.4359871,25.2737143 C26.5927053,26.3235 29.4899202,30.77925 29.4899202,34.5709286 C29.4899202,36.7833214 29.0699923,40.5465 24.0949421,43.905 C21.9427444,45.3581771 19.5777654,45.7948317 17.0028308,45.8507143 Z M12.1078481,8.79889286 C13.4370296,8.79889286 15.1760669,8.37889286 15.1760669,4.88025 C15.1760669,1.11107143 13.4277323,1.10914286 11.2912355,1.10914286 L5.96333076,1.11075 C5.95779665,1.11075 5.95392278,1.11096429 5.94783526,1.11096429 C5.29525354,1.10925 4.97659974,1.30071429 4.82020592,1.51907143 C4.72966795,1.64582143 4.68661261,1.79657143 4.66646847,1.94753571 L4.65894208,8.79889286 L12.1078481,8.79889286 Z M19.8762934,12.3258214 C19.3341725,12.1983214 18.7237606,12.1630714 18.0722857,12.1580357 C18.2159511,12.8930357 18.2473848,13.9456071 18.2245843,15.4014643 C18.2145122,16.0999286 18.2016731,16.9355357 18.2016731,17.9528571 C18.2016731,21.9130714 20.2672227,22.6142143 21.1125019,22.6142143 C22.8556345,22.6142143 24.0804427,21.087 24.0205637,18.5158929 C23.981825,16.8425357 23.7102111,13.2271071 19.8762934,12.3258214 Z" id="path-3"></path>
    </defs>
    <g id="Page-1" stroke="none" stroke-width="1" fill="none" fill-rule="evenodd">
        <g id="Вариант-с-машина2" transform="translate(-13.000000, -10.000000)">
            <g id="logo" transform="translate(13.000000, 10.000000)">
                <path d="M37.5212355,28.9531071 L37.5212355,31.69575 L38.6491969,31.69575 C39.2487619,31.69575 39.7234775,31.5701786 40.0725689,31.3188214 C40.4216602,31.0674643 40.5964273,30.7077857 40.5964273,30.2398929 C40.5964273,29.7979286 40.4507696,29.4730714 40.1597864,29.265 C39.8688031,29.0570357 39.4280669,28.9531071 38.8373565,28.9531071 L37.5212355,28.9531071 Z M41.3886898,36.8821071 L40.2203295,35.0494286 C40.023426,34.7374286 39.8667001,34.4926071 39.7504839,34.3149643 C39.633825,34.1373214 39.524139,33.9769286 39.421426,33.8338929 C39.3182703,33.6909643 39.208695,33.5395714 39.0923681,33.3789643 C38.9761519,33.2186786 38.819426,33.0042857 38.6225225,32.7355714 L37.5212355,32.7355714 L37.5212355,36.2711786 L38.0315907,36.2711786 L38.0315907,36.8821071 L35.6415212,36.8821071 L35.6415212,36.2711786 L36.2995264,36.2711786 L36.2995264,28.5111429 L35.6415212,28.5111429 L35.6415212,27.9002143 L39.0523012,27.9002143 C39.920381,27.9002143 40.6029575,28.1016429 41.0999202,28.5046071 C41.5966615,28.9074643 41.8450322,29.48175 41.8450322,30.2269286 C41.8450322,30.7816071 41.686314,31.2688929 41.3683243,31.6892143 C41.0506667,32.1096429 40.5559176,32.4021429 39.8847413,32.5666071 C39.9383115,32.6446071 40.0300669,32.7661071 40.1597864,32.9304643 C40.2895058,33.09525 40.4216602,33.273 40.5559176,33.4635 C40.6635006,33.6108214 40.7707516,33.7558929 40.8784453,33.8989286 C40.9855856,34.0419643 41.084314,34.1784643 41.1737452,34.3084286 C41.3347876,34.53375 41.4645071,34.7157857 41.5631248,34.8543214 C41.6617426,34.9931786 41.7599176,35.1383571 41.8586461,35.2898571 C41.9568211,35.4415714 42.0689421,35.62125 42.1941236,35.8292143 C42.3194157,36.0372857 42.4941828,36.3231429 42.717982,36.6872143 L42.717982,36.8821071 L41.3886898,36.8821071 Z" id="Fill-1" fill="#1E1767"></path>
                <path d="M47.9200412,32.37825 C47.8214234,32.0618571 47.6850631,31.7889643 47.510296,31.55925 C47.335861,31.3296429 47.12313,31.1498571 46.8726564,31.0197857 C46.6218507,30.8898214 46.3487979,30.8247857 46.0532767,30.8247857 C45.7581982,30.8247857 45.4849241,30.8898214 45.2344505,31.0197857 C44.9835341,31.1498571 44.7687001,31.3296429 44.5898378,31.55925 C44.4106435,31.7889643 44.2718481,32.0618571 44.1736731,32.37825 C44.0749447,32.6945357 44.0258018,33.0433929 44.0258018,33.4245 C44.0258018,33.8060357 44.0749447,34.1546786 44.1736731,34.4708571 C44.2718481,34.7873571 44.4106435,35.06025 44.5898378,35.2898571 C44.7687001,35.5194643 44.9835341,35.6993571 45.2344505,35.8292143 C45.4849241,35.9591786 45.7581982,36.0242143 46.0532767,36.0242143 C46.3487979,36.0242143 46.6218507,35.9591786 46.8726564,35.8292143 C47.12313,35.6993571 47.335861,35.5194643 47.510296,35.2898571 C47.6850631,35.06025 47.8214234,34.7873571 47.9200412,34.4708571 C48.0181055,34.1546786 48.0676911,33.8060357 48.0676911,33.4245 C48.0676911,33.0433929 48.0181055,32.6945357 47.9200412,32.37825 Z M49.0413616,34.8738214 C48.8846358,35.3201786 48.6628288,35.70375 48.3767156,36.0242143 C48.0899382,36.3448929 47.7498121,36.5961429 47.3560051,36.7780714 C46.9618662,36.9601071 46.5277709,37.0510714 46.0532767,37.0510714 C45.5790039,37.0510714 45.1446873,36.9601071 44.7511017,36.7780714 C44.3569627,36.5961429 44.0168366,36.3448929 43.7302806,36.0242143 C43.4438353,35.70375 43.2201467,35.3201786 43.0592149,34.8738214 C42.8979511,34.4275714 42.8173745,33.9444643 42.8173745,33.4245 C42.8173745,32.8960714 42.8979511,32.4107143 43.0592149,31.96875 C43.2201467,31.5267857 43.4438353,31.1455714 43.7302806,30.8247857 C44.0168366,30.5043214 44.3569627,30.2551071 44.7511017,30.0774643 C45.1446873,29.8999286 45.5790039,29.811 46.0532767,29.811 C46.5277709,29.811 46.9618662,29.8999286 47.3560051,30.0774643 C47.7498121,30.2551071 48.0899382,30.5043214 48.3767156,30.8247857 C48.6628288,31.1455714 48.8846358,31.5267857 49.0413616,31.96875 C49.1977555,32.4107143 49.2763398,32.8960714 49.2763398,33.4245 C49.2763398,33.9444643 49.1977555,34.4275714 49.0413616,34.8738214 Z" id="Fill-2" fill="#1E1767"></path>
                <path d="M55.3099537,30.4737857 L52.5437864,38.4418929 C52.4451686,38.7451071 52.3067053,39.0139286 52.1275109,39.2479286 C51.9486486,39.4818214 51.7204221,39.5989286 51.4428314,39.5989286 L51.4026538,39.5989286 L49.9927851,39.5208214 L50.0464659,38.5198929 L50.5298147,38.5719643 L51.0400592,38.5978929 L51.0535624,38.5978929 C51.1697786,38.5978929 51.2704994,38.5415357 51.3557246,38.4289286 C51.4403964,38.3162143 51.5144427,38.1645 51.5770888,37.974 L52.02026,36.6221786 L49.818018,30.4737857 L49.3616757,30.4737857 L49.3616757,29.8888929 L51.3355804,29.8888929 L51.3355804,30.4737857 L50.9996602,30.4737857 L52.5841853,35.1273214 L54.1283115,30.4737857 L53.8062265,30.4737857 L53.8062265,29.8888929 L55.7531248,29.8888929 L55.7531248,30.4737857 L55.3099537,30.4737857" id="Fill-3" fill="#1E1767"></path>
                <path d="M59.5396705,33.6455357 C59.3784067,33.5934643 59.2040824,33.5675357 59.0162548,33.5675357 C58.3625663,33.5762143 57.8679279,33.6996429 57.5322291,33.9379286 C57.1966409,34.1764286 57.0288468,34.4991429 57.0288468,34.9063929 C57.0288468,35.23575 57.1246976,35.5107857 57.3173951,35.7318214 C57.5097606,35.95275 57.7986409,36.0632143 58.1833719,36.0632143 C58.640157,36.0632143 59.0204607,35.91375 59.3248366,35.6148214 C59.628991,35.3157857 59.8306538,34.9323214 59.9292716,34.4644286 L59.9292716,33.8274643 C59.8306538,33.75825 59.7009344,33.6975 59.5396705,33.6455357 Z M60.0095161,36.8821071 L60.0095161,36.20625 C59.7054723,36.4921071 59.3829447,36.7000714 59.0429292,36.83025 C58.7028031,36.9601071 58.3716422,37.0251429 58.0491145,37.0251429 C57.7090991,37.0251429 57.4025097,36.9686786 57.1295676,36.8561786 C56.8561828,36.7436786 56.6258533,36.5919643 56.4379151,36.4011429 C56.2499768,36.2106429 56.1044299,35.9852143 56.0014955,35.7252857 C55.8985611,35.46525 55.8469833,35.1880714 55.8469833,34.8933214 C55.8469833,34.1914286 56.1132844,33.6347143 56.6462188,33.2230714 C57.1785997,32.8115357 57.9328983,32.6056071 58.9086718,32.6056071 C59.0429292,32.6056071 59.1996551,32.6186786 59.3784067,32.6446071 C59.557601,32.6706429 59.7410013,32.7183214 59.9292716,32.7876429 L59.9292716,32.0987143 C59.9292716,31.6306071 59.8102883,31.2926786 59.5732072,31.0847143 C59.3357941,30.8768571 58.9979923,30.7729286 58.5595804,30.7729286 C58.3716422,30.7729286 58.2190116,30.7750714 58.1027954,30.77925 C57.9865792,30.78375 57.8699202,30.7968214 57.7535933,30.81825 C57.6374878,30.8401071 57.5006847,30.8725714 57.3444015,30.91575 C57.1876757,30.95925 56.974834,31.0242857 56.7063192,31.1108571 L56.4379151,30.2919643 C56.7063192,30.1706786 56.9212638,30.0774643 57.082417,30.0124286 C57.2436808,29.9475 57.3934337,29.8999286 57.5322291,29.8693929 C57.6710245,29.8390714 57.820888,29.8219286 57.9821519,29.8173214 C58.143305,29.8131429 58.3625663,29.811 58.640157,29.811 C59.4365148,29.811 60.0409498,30.0017143 60.4527979,30.3828214 C60.8645354,30.7643571 61.0704041,31.3361786 61.0704041,32.0987143 L61.0704041,35.8161429 L61.0972999,36.2841429 L61.92974,36.2972143 L61.92974,36.8821071 L60.0095161,36.8821071 Z" id="Fill-4" fill="#1E1767"></path>
                <path d="M62.3140283,36.8945357 L62.3140283,36.2965714 L62.8515006,36.2965714 L62.8515006,28.1335714 C62.8065637,28.1335714 62.7528829,28.1357143 62.6902368,28.1401071 C62.6274801,28.1446071 62.5380489,28.1466429 62.421722,28.1466429 L62.421722,27.5357143 L63.8852716,27.5357143 L63.8852716,36.2965714 L64.4090193,36.2965714 L64.4090193,36.8945357 L62.3140283,36.8945357" id="Fill-5" fill="#1E1767"></path>
                <path d="M40.9320154,47.0749286 C40.7797169,47.3913214 40.5715238,47.6620714 40.307547,47.8872857 C40.0435701,48.1127143 39.7303398,48.2901429 39.3678559,48.4203214 C39.0051506,48.5502857 38.6135573,48.6152143 38.1927439,48.6152143 C37.8167568,48.6152143 37.4541622,48.5652857 37.1049601,48.46575 C36.7558687,48.3662143 36.447287,48.2252143 36.1784402,48.0433929 L36.1784402,48.4853571 L35.560834,48.4853571 L35.560834,46.2364286 L36.232453,46.2364286 L36.232453,46.5743571 C36.339704,46.8171429 36.5680412,47.0380714 36.9171326,47.2373571 C37.2662239,47.43675 37.6779614,47.5362857 38.1523449,47.5362857 C38.4121158,47.5362857 38.6511892,47.4996429 38.8708932,47.4259286 C39.0899331,47.3524286 39.2782033,47.2460357 39.4349292,47.1073929 C39.591323,46.9689643 39.7144015,46.8084643 39.8040541,46.6264286 C39.8933745,46.4445 39.9383115,46.2409286 39.9383115,46.0156071 C39.9383115,45.825 39.9068777,45.6560357 39.8442317,45.5086071 C39.7815856,45.3612857 39.6785405,45.2226429 39.5356499,45.0926786 C39.3923166,44.9627143 39.2020541,44.8390714 38.9647516,44.7221786 C38.7276705,44.6051786 38.4387902,44.4861429 38.0986641,44.36475 C37.7225663,44.2347857 37.3780129,44.0875714 37.0648932,43.9227857 C36.7514414,43.7583214 36.4829266,43.5676071 36.2591274,43.3508571 C36.0352175,43.1343214 35.8608932,42.8916429 35.735601,42.6229286 C35.6099768,42.3544286 35.5474414,42.0467143 35.5474414,41.7 C35.5474414,41.3620714 35.6189421,41.0480357 35.7621647,40.7575714 C35.9054981,40.4673214 36.1002986,40.2181071 36.3462342,40.0101429 C36.5926126,39.8021786 36.8880232,39.6377143 37.2326873,39.5163214 C37.5772407,39.3950357 37.9509035,39.3342857 38.3540077,39.3342857 C39.0252947,39.3342857 39.6248597,39.4902857 40.1531454,39.8021786 L40.1531454,39.3992143 L40.7707516,39.3992143 L40.7707516,41.3361429 L40.0725689,41.3361429 L40.0725689,41.0890714 C39.9472767,40.9071429 39.7390837,40.7491071 39.4484324,40.61475 C39.1571171,40.4803929 38.7924196,40.4132143 38.3540077,40.4132143 C37.8703269,40.4132143 37.4811686,40.5301071 37.1856474,40.7641071 C36.8901261,40.998 36.7423655,41.3058214 36.7423655,41.6869286 C36.7423655,42.0166071 36.8970991,42.30675 37.2056808,42.5578929 C37.5145946,42.80925 38.0135495,43.0607143 38.7030991,43.3118571 C39.1415109,43.46775 39.5176088,43.6325357 39.8310605,43.8056786 C40.1441802,43.97925 40.3991918,44.1741429 40.5964273,44.3906786 C40.7933308,44.6073214 40.9364427,44.8521429 41.0262059,45.1251429 C41.1154157,45.3981429 41.1603526,45.7081071 41.1603526,46.0546071 C41.1603526,46.4184643 41.084314,46.7585357 40.9320154,47.0749286" id="Fill-6" fill="#1E1767"></path>
                <path d="M43.3151846,60.0703125 C42.1521519,60.3925797 41.1382966,60.5537109 40.2735883,60.5537109 C38.7473781,60.5537109 37.5767968,60.1330957 36.7618092,59.2918527 C35.9468217,58.4506096 35.539334,57.2452645 35.539334,55.6757812 C35.539334,54.135595 35.952226,52.937574 36.7780224,52.0816825 C37.6038189,51.2257909 38.7625106,50.7978516 40.2541325,50.7978516 C41.2312529,50.7978516 42.2472699,50.9380566 43.302214,51.218471 L43.302214,52.4363839 C41.9792103,52.0011139 40.965355,51.7834821 40.2606178,51.7834821 C39.2229678,51.7834821 38.4177202,52.1245781 37.844851,52.8067801 C37.2719817,53.4889822 36.9855514,54.4494916 36.9855514,55.6883371 C36.9855514,56.9146267 37.2925182,57.8678119 37.9064611,58.5479213 C38.5204041,59.2280307 39.3807759,59.5680804 40.4876026,59.5680804 C40.9415744,59.5680804 41.432289,59.4906537 41.9597611,59.335798 L41.9597611,56.3098493 L43.3151846,56.3098493 L43.3151846,60.0703125 Z M45.7406793,60.3214286 L45.7406793,53.5036272 L47.0182794,53.5036272 L47.0182794,54.7843192 C47.5241338,53.8300734 48.2591248,53.3529576 49.2232746,53.3529576 C49.3529809,53.3529576 49.4891704,53.3634207 49.6318472,53.3843471 L49.6318472,54.539481 C49.4113466,54.4683311 49.2167902,54.4327567 49.0481721,54.4327567 C48.2396698,54.4327567 47.5630457,54.8973168 47.0182794,55.8264509 L47.0182794,60.3214286 L45.7406793,60.3214286 Z M53.9315878,60.4783761 C52.9242027,60.4783761 52.120036,60.1550674 51.5190637,59.5084403 C50.9180914,58.8618132 50.6176098,57.9965177 50.6176098,56.9125279 C50.6176098,55.8159822 50.9191723,54.9485942 51.5223063,54.3103376 C52.1254404,53.6720811 52.9436584,53.3529576 53.9769848,53.3529576 C55.0103112,53.3529576 55.8285292,53.6720811 56.4316632,54.3103376 C57.0347973,54.9485942 57.3363598,55.811797 57.3363598,56.8999721 C57.3363598,58.0132589 57.0337164,58.8879711 56.4284206,59.524135 C55.8231248,60.1602989 54.9908555,60.4783761 53.9315878,60.4783761 Z M53.9510437,59.5492467 C55.3043122,59.5492467 55.9809363,58.666164 55.9809363,56.8999721 C55.9809363,55.1547067 55.3129591,54.2820871 53.9769848,54.2820871 C52.645334,54.2820871 51.9795186,55.1588919 51.9795186,56.9125279 C51.9795186,58.6703492 52.636687,59.5492467 53.9510437,59.5492467 Z M63.7373311,60.3214286 L63.7373311,59.0407366 C63.0585351,59.9991677 62.2349127,60.4783761 61.2664394,60.4783761 C60.6524965,60.4783761 60.1639437,60.2910873 59.8007662,59.9165039 C59.4375887,59.5419206 59.2560027,59.0365545 59.2560027,58.4003906 L59.2560027,53.5036272 L60.5336028,53.5036272 L60.5336028,57.9986049 C60.5336028,58.5092101 60.6103445,58.8722785 60.7638302,59.0878209 C60.917316,59.3033632 61.173482,59.4111328 61.5323359,59.4111328 C62.3105734,59.4111328 63.0455644,58.9151835 63.7373311,57.9232701 L63.7373311,53.5036272 L65.0149312,53.5036272 L65.0149312,60.3214286 L63.7373311,60.3214286 Z M67.5766168,62.8011998 L67.5766168,53.5036272 L68.8542169,53.5036272 L68.8542169,54.7843192 C69.3773655,53.8300734 70.1620765,53.3529576 71.2083736,53.3529576 C72.0557877,53.3529576 72.722684,53.6522012 73.2090824,54.2506975 C73.6954808,54.8491938 73.9386764,55.6674055 73.9386764,56.7053571 C73.9386764,57.8353851 73.6630548,58.7467181 73.1118032,59.4393834 C72.5605517,60.1320487 71.8352884,60.4783761 70.9359918,60.4783761 C70.1015483,60.4783761 69.4076303,60.1686694 68.8542169,59.5492467 L68.8542169,62.8011998 L67.5766168,62.8011998 Z M68.8542169,58.695452 C69.5113953,59.2646513 70.1382994,59.5492467 70.7349481,59.5492467 C71.9628339,59.5492467 72.5767676,58.6431452 72.5767676,56.8309152 C72.5767676,55.2321349 72.0320095,54.4327567 70.9424771,54.4327567 C70.2290927,54.4327567 69.533013,54.8073344 68.8542169,55.5565011 L68.8542169,58.695452 Z" id="Group" fill="#1E1767"></path>
                <path d="M45.0863578,48.4331786 C44.9967053,48.468 44.8600129,48.5067857 44.6767233,48.5502857 C44.492991,48.5934643 44.311583,48.6152143 44.1328314,48.6152143 C43.5958018,48.6152143 43.215166,48.4764643 42.9913668,48.1992857 C42.7674569,47.922 42.655668,47.4800357 42.655668,46.8735 L42.655668,42.5058214 L41.5278172,42.5058214 L41.5278172,41.4920357 L42.655668,41.4920357 L42.655668,40.1531786 L43.7566229,39.5291786 L43.7566229,41.4920357 L45.1264247,41.4920357 L45.1264247,42.5058214 L43.7566229,42.5058214 L43.7566229,46.9253571 C43.7566229,47.376 43.9494311,47.6013214 44.3340515,47.6013214 C44.4773848,47.6013214 44.6231532,47.5776429 44.7708031,47.5299643 C44.918453,47.4823929 45.0502754,47.43675 45.167045,47.3934643 L45.1801055,48.3032143 L45.0863578,48.4331786" id="Fill-7" fill="#1E1767"></path>
                <path d="M49.6115959,45.2356071 C49.450332,45.1836429 49.275897,45.1576071 49.0879588,45.1576071 C48.4344916,45.1662857 47.9396319,45.2897143 47.6040438,45.5281071 C47.2684556,45.7666071 47.1006615,46.0892143 47.1006615,46.4965714 C47.1006615,46.8259286 47.1965122,47.1009643 47.3893205,47.3218929 C47.5815753,47.5428214 47.8704556,47.6533929 48.2552973,47.6533929 C48.7119717,47.6533929 49.0921647,47.5038214 49.3966512,47.2048929 C49.7009163,46.9059643 49.9025792,46.5225 50.0010862,46.0546071 L50.0010862,45.4175357 C49.9025792,45.3484286 49.772749,45.2875714 49.6115959,45.2356071 Z M50.0813308,48.4721786 L50.0813308,47.7964286 C49.7771763,48.0822857 49.45487,48.2901429 49.1146332,48.4203214 C48.7745071,48.5502857 48.4434569,48.6152143 48.1210399,48.6152143 C47.7809138,48.6152143 47.4743243,48.5588571 47.2012716,48.44625 C46.9279974,48.33375 46.6975573,48.1820357 46.509619,47.9912143 C46.3217915,47.8007143 46.1761338,47.5752857 46.0734208,47.3154643 C45.9702651,47.0553214 45.9187979,46.7781429 45.9187979,46.4833929 C45.9187979,45.7816071 46.1852098,45.2247857 46.7180335,44.8131429 C47.2505251,44.4017143 48.004713,44.1956786 48.9803758,44.1956786 C49.1146332,44.1956786 49.2714698,44.20875 49.450332,44.2347857 C49.6295264,44.2607143 49.812816,44.3083929 50.0010862,44.3778214 L50.0010862,43.6887857 C50.0010862,43.2207857 49.8819923,42.88275 49.6451326,42.6748929 C49.4077194,42.4670357 49.0695856,42.363 48.6312844,42.363 C48.4434569,42.363 48.2908263,42.3651429 48.17461,42.3693214 C48.0583938,42.3738214 47.9418456,42.387 47.8255187,42.4084286 C47.7091918,42.4301786 47.57261,42.4626429 47.4162162,42.5058214 C47.2594903,42.5494286 47.0466486,42.6143571 46.7781338,42.7009286 L46.509619,41.8820357 C46.7781338,41.7608571 46.9930785,41.6675357 47.1543423,41.6026071 C47.3156062,41.5375714 47.4653591,41.49 47.6040438,41.4595714 C47.7428391,41.42925 47.8927027,41.412 48.0538559,41.4075 C48.2151197,41.4033214 48.4344916,41.4010714 48.7119717,41.4010714 C49.5084402,41.4010714 50.1128752,41.5918929 50.5246126,41.973 C50.9363501,42.3544286 51.1421081,42.9263571 51.1421081,43.6887857 L51.1421081,47.4063214 L51.1691145,47.8742143 L52.0016654,47.8872857 L52.0016654,48.4721786 L50.0813308,48.4721786 Z" id="Fill-8" fill="#1E1767"></path>
                <path d="M57.0638224,48.4721786 L57.0638224,47.8872857 L57.600852,47.8872857 L57.600852,43.8837857 C57.600852,43.43325 57.4980283,43.0735714 57.2920489,42.8049643 C57.0858481,42.5363571 56.812906,42.4018929 56.4727799,42.4018929 C56.0164376,42.4018929 55.6248443,42.5644286 55.2982214,42.8893929 C54.9712664,43.2143571 54.7453642,43.6585714 54.6200721,44.2217143 L54.6200721,47.8872857 L55.1839974,47.8872857 L55.1839974,48.4721786 L53.0219331,48.4721786 L53.0219331,47.8872857 L53.4786075,47.8872857 L53.4786075,42.1419643 C53.4250373,42.1419643 53.3665972,42.1419643 53.3038404,42.1419643 C53.241305,42.1419643 53.1471145,42.1377857 53.0219331,42.1288929 L53.0219331,41.5569643 L54.5795624,41.5569643 L54.5795624,42.285 C55.1078481,41.6956071 55.7882111,41.4010714 56.6206512,41.4010714 C57.2920489,41.4010714 57.8134723,41.6178214 58.1851429,42.051 C58.5563707,42.4843929 58.7422059,43.0908214 58.7422059,43.8707143 L58.7422059,47.8872857 L59.2926281,47.8872857 L59.2926281,48.4721786 L57.0638224,48.4721786" id="Fill-9" fill="#1E1767"></path>
                <path d="M64.7850064,43.8903214 C64.6863887,43.56525 64.5500283,43.2880714 64.3753719,43.0583571 C64.2008263,42.8289643 63.9927439,42.6512143 63.7510142,42.5255357 C63.5092844,42.3998571 63.2408803,42.3368571 62.9453591,42.3368571 C62.6589138,42.3368571 62.4014672,42.4018929 62.17313,42.5319643 C61.9451248,42.6619286 61.7503243,42.8439643 61.5890605,43.0779643 C61.4282394,43.3118571 61.3049395,43.5913929 61.219825,43.91625 C61.1345997,44.2413214 61.0920978,44.5986429 61.0920978,44.9886429 C61.0920978,45.3785357 61.1368134,45.7340357 61.2263552,46.0546071 C61.3160077,46.3752857 61.4432921,46.6504286 61.609094,46.8800357 C61.7746744,47.1096429 61.9762265,47.2872857 62.213529,47.4128571 C62.4504994,47.5386429 62.7124839,47.6013214 62.9989292,47.6013214 C63.2853745,47.6013214 63.5473591,47.5343571 63.7847722,47.3998929 C64.0216319,47.26575 64.2255084,47.0814643 64.3956268,46.8473571 C64.5655238,46.6133571 64.6976782,46.3362857 64.791426,46.0156071 C64.8855058,45.6950357 64.9326564,45.3440357 64.9326564,44.9627143 C64.9326564,44.5727143 64.8830708,44.2151786 64.7850064,43.8903214 Z M64.9326564,48.4721786 L64.9326564,47.70525 C64.6371351,48.0348214 64.3236834,48.2664643 63.9927439,48.4007143 C63.6614723,48.5349643 63.307843,48.6021429 62.9317452,48.6021429 C62.4664376,48.6021429 62.0458456,48.5154643 61.6696371,48.3423214 C61.2935393,48.1689643 60.9759923,47.92425 60.716332,47.60775 C60.4565611,47.2916786 60.2552304,46.91025 60.111897,46.464 C59.9687851,46.01775 59.8971737,45.5260714 59.8971737,44.9886429 C59.8971737,44.4341786 59.9663501,43.9337143 60.1053668,43.4873571 C60.2441622,43.0411071 60.440955,42.6575357 60.6959665,42.3368571 C60.9513102,42.0166071 61.2619949,41.7695357 61.6294595,41.5960714 C61.99626,41.4227143 62.4083295,41.3361429 62.8646718,41.3361429 C63.2226178,41.3361429 63.5784607,41.4010714 63.9324221,41.5310357 C64.2856088,41.661 64.6192046,41.9125714 64.9326564,42.285 L64.9326564,39.6981429 C64.8789755,39.6981429 64.8161081,39.6981429 64.7447181,39.6981429 C64.6727748,39.6981429 64.5700618,39.6939643 64.4358044,39.6852857 L64.4358044,39.1133571 L66.0740103,39.1133571 L66.0740103,47.8742143 L66.7993102,47.8742143 L66.7993102,48.4721786 L64.9326564,48.4721786 Z" id="Fill-10" fill="#1E1767"></path>
                <path d="M70.9695907,45.2291786 C70.8083269,45.1771071 70.6337812,45.1510714 70.4459537,45.1510714 C69.7924865,45.15975 69.2976268,45.2832857 68.9621493,45.5215714 C68.6264505,45.7599643 68.4586564,46.0826786 68.4586564,46.4899286 C68.4586564,46.8193929 68.5543964,47.0943214 68.7473153,47.3154643 C68.9396808,47.5362857 69.2284505,47.64675 69.6132921,47.64675 C70.0698559,47.64675 70.4500489,47.4972857 70.7546461,47.1983571 C71.0588005,46.8994286 71.260574,46.5159643 71.3590811,46.0479643 L71.3590811,45.411 C71.260574,45.3418929 71.1306332,45.2810357 70.9695907,45.2291786 Z M71.4393256,48.46575 L71.4393256,47.7897857 C71.1351712,48.0756429 70.8128649,48.2837143 70.4725174,48.4138929 C70.1325019,48.54375 69.8013411,48.6087857 69.4790347,48.6087857 C69.1387979,48.6087857 68.8322085,48.5523214 68.5593771,48.4398214 C68.2859923,48.3272143 68.0555521,48.1755 67.8676139,47.9847857 C67.6797864,47.7941786 67.5341287,47.56875 67.4314157,47.3088214 C67.32826,47.0487857 67.2767928,46.7716071 67.2767928,46.4768571 C67.2767928,45.7750714 67.5432046,45.21825 68.0760283,44.8067143 C68.6085199,44.3951786 69.3627079,44.18925 70.3383707,44.18925 C70.4725174,44.18925 70.6292432,44.2022143 70.8083269,44.22825 C70.9875212,44.2541786 71.1708108,44.3019643 71.3590811,44.3712857 L71.3590811,43.68225 C71.3590811,43.21425 71.2399871,42.8763214 71.0030167,42.6683571 C70.7657143,42.4605 70.4275804,42.3564643 69.9891686,42.3564643 C69.8013411,42.3564643 69.6489318,42.3586071 69.5326049,42.3627857 C69.416278,42.3673929 69.2998404,42.3804643 69.1835135,42.4018929 C69.0671866,42.4236429 68.9306049,42.4561071 68.7741004,42.4992857 C68.6173745,42.5428929 68.4046435,42.6078214 68.1361287,42.6943929 L67.8676139,41.8755 C68.1361287,41.7543214 68.3509627,41.661 68.5122265,41.5960714 C68.673601,41.5310357 68.8233539,41.4834643 68.9621493,41.4530357 C69.1007233,41.4227143 69.2504762,41.4054643 69.41174,41.4009643 C69.5730039,41.3967857 69.7924865,41.3945357 70.0698559,41.3945357 C70.866435,41.3945357 71.47087,41.5853571 71.8824968,41.9664643 C72.2942342,42.3478929 72.500103,42.9198214 72.500103,43.68225 L72.500103,47.3998929 L72.5271094,47.8676786 L73.3595495,47.88075 L73.3595495,48.46575 L71.4393256,48.46575 Z" id="Fill-11" fill="#1E1767"></path>
                <path d="M77.7639228,42.5255357 L77.64339,42.5255357 C77.1149936,42.5255357 76.7209653,42.7528929 76.461305,43.2079286 C76.2018662,43.66275 76.0721467,44.2586786 76.0721467,44.9950714 L76.0721467,47.88075 L76.5955624,47.88075 L76.5955624,48.46575 L74.2191068,48.46575 L74.2191068,47.88075 L74.9577992,47.88075 L74.9577992,42.1354286 C74.9037864,42.1354286 74.8410296,42.1354286 74.769529,42.1354286 C74.7067722,42.1354286 74.6037272,42.13125 74.4608366,42.1223571 L74.4608366,41.5504286 L75.9915701,41.5504286 L75.9915701,42.4474286 C76.2150373,42.075 76.4837735,41.8084286 76.7972252,41.6479286 C77.1104556,41.4876429 77.4459331,41.4075 77.8042111,41.4075 L78.4488237,41.4724286 L78.4488237,42.5773929 L77.7639228,42.5255357" id="Fill-12" fill="#1E1767"></path>
                <path d="M83.900139,43.8837857 C83.8015212,43.5587143 83.6651609,43.2815357 83.4905045,43.0518214 C83.3161802,42.8224286 83.1078764,42.6446786 82.8663681,42.5188929 C82.624417,42.3933214 82.3560129,42.3303214 82.0604916,42.3303214 C81.7740463,42.3303214 81.5165997,42.3953571 81.2882625,42.5255357 C81.0602574,42.6553929 80.8654569,42.8374286 80.7041931,43.0714286 C80.5433719,43.3053214 80.4200721,43.5848571 80.3351789,43.9097143 C80.2499537,44.2347857 80.2074517,44.5921071 80.2074517,44.9821071 C80.2074517,45.372 80.2519459,45.7275 80.3415985,46.0479643 C80.4313616,46.36875 80.5586461,46.6438929 80.7242265,46.8735 C80.890139,47.1031071 81.0913591,47.28075 81.3286615,47.4063214 C81.5658533,47.5321071 81.8276165,47.5946786 82.1140618,47.5946786 C82.4007284,47.5946786 82.6624916,47.5277143 82.8999048,47.39325 C83.1367645,47.2591071 83.3406409,47.0749286 83.5109807,46.8408214 C83.6806564,46.6068214 83.8130322,46.32975 83.9067799,46.0090714 C84.0008597,45.6885 84.0480103,45.3375 84.0480103,44.9561786 C84.0480103,44.5661786 83.9985354,44.2086429 83.900139,43.8837857 Z M84.0480103,48.46575 L84.0480103,47.6987143 C83.7524891,48.0282857 83.4390373,48.2599286 83.1078764,48.3941786 C82.7766049,48.5285357 82.4231969,48.5957143 82.0470991,48.5957143 C81.5816808,48.5957143 81.1609781,48.5089286 80.7847696,48.3357857 C80.4088932,48.1624286 80.0911248,47.9178214 79.831686,47.6013214 C79.5718044,47.2850357 79.3703629,46.9038214 79.227251,46.4574643 C79.0839176,46.0112143 79.012417,45.5195357 79.012417,44.9821071 C79.012417,44.4276429 79.0815933,43.9271786 79.22061,43.4808214 C79.3592947,43.0344643 79.5563089,42.651 79.8110991,42.3303214 C80.0666641,42.0099643 80.3773488,41.763 80.7448134,41.5895357 C81.1115032,41.4161786 81.523462,41.3296071 81.9798044,41.3296071 C82.3380824,41.3296071 82.6935933,41.3945357 83.0477761,41.5245 C83.4009627,41.6544643 83.7345586,41.9060357 84.0480103,42.2784643 L84.0480103,39.6916071 C83.9943295,39.6916071 83.9312407,39.6916071 83.8601828,39.6916071 C83.7881287,39.6916071 83.6851943,39.6874286 83.5510476,39.67875 L83.5510476,39.1068214 L85.1893642,39.1068214 L85.1893642,47.8676786 L85.9144427,47.8676786 L85.9144427,48.46575 L84.0480103,48.46575 Z" id="Fill-13" fill="#1E1767"></path>
                <g id="Group-16" stroke-width="1">
                    <mask id="mask-2" fill="white">
                        <use xlink:href="#path-1"></use>
                    </mask>
                    <use id="Clip-15" fill="#1E1767" xlink:href="#path-1"></use>
                </g>
                <polygon id="Fill-17" fill="#1E1767" points="3.26932819 14.1121071 18.2118559 14.1121071 18.2118559 12.3250714 3.26932819 12.3250714"></polygon>
                <g id="Group-21" stroke-width="1" transform="translate(1.770914, 17.142857)">
                    <mask id="mask-4" fill="white">
                        <use xlink:href="#path-3"></use>
                    </mask>
                    <use id="Clip-20" fill="#1E1767" xlink:href="#path-3"></use>
                </g>
                <path d="M68.9179889,22.2271205 L68.9179889,23.242048 L68.3126961,23.242048 L68.2802697,22.8156738 L67.5560801,22.8156738 L67.5560801,25.4994768 L67.9776233,25.5779506 L67.9776233,26.0357143 L66.3454945,26.0357143 L66.3454945,25.5779506 L66.7670377,25.4994768 L66.7670377,22.8156738 L66.0455503,22.8156738 L66.0131239,23.242048 L65.4105333,23.242048 L65.4105333,22.2271205 L68.9179889,22.2271205 Z M72.9712888,23.2185059 L72.9550756,23.2158901 L71.9012176,26.0357143 L71.3715864,26.0357143 L70.3231328,23.2263532 L70.3069196,23.228969 L70.3825812,24.9004604 L70.3825812,25.4994768 L70.8041244,25.5779506 L70.8041244,26.0357143 L69.1746979,26.0357143 L69.1746979,25.5779506 L69.5935389,25.4994768 L69.5935389,22.7659738 L69.1746979,22.6875 L69.1746979,22.2271205 L70.623077,22.2271205 L71.6255932,25.0338658 L71.6418064,25.0338658 L72.6524292,22.2271205 L74.1062128,22.2271205 L74.1062128,22.6875 L73.6846696,22.7659738 L73.6846696,25.4994768 L74.1062128,25.5779506 L74.1062128,26.0357143 L72.4767862,26.0357143 L72.4767862,25.5779506 L72.8956272,25.4994768 L72.8956272,24.9004604 L72.9712888,23.2185059 Z" id="tm" fill="#1E1767"></path>
            </g>
        </g>
    </g>
</svg>