<?xml version="1.0" encoding="UTF-8"?>
<svg width="31px" height="30px" viewBox="0 0 31 30" version="1.1" xmlns="http://www.w3.org/2000/svg" xmlns:xlink="http://www.w3.org/1999/xlink">
    <!-- Generator: Sketch 50.2 (55047) - http://www.bohemiancoding.com/sketch -->
    <title>fb</title>
    <desc>Created with Sketch.</desc>
    <defs></defs>
    <g id="Page-1" stroke="none" stroke-width="1" fill="none" fill-rule="evenodd">
        <g id="ПК_Страница-благодарности" transform="translate(-215.000000, -356.000000)">
            <g id="fb" transform="translate(215.000000, 356.000000)">
                <ellipse id="Oval-9" fill="#4267B2" cx="15.5" cy="15" rx="15.5" ry="15"></ellipse>
                <path d="M17.7364005,8.00291293 L16.0574188,8 C14.1711405,8 12.9521445,9.35232983 12.9521445,11.4454189 L12.9521445,13.0339877 L11.2640035,13.0339877 C11.1181281,13.0339877 11,13.1618655 11,13.3196009 L11,15.6212561 C11,15.7789915 11.1182628,15.9067237 11.2640035,15.9067237 L12.9521445,15.9067237 L12.9521445,21.7145324 C12.9521445,21.8722678 13.0702727,22 13.2161481,22 L15.4186919,22 C15.5645673,22 15.6826955,21.8721222 15.6826955,21.7145324 L15.6826955,15.9067237 L17.656526,15.9067237 C17.8024014,15.9067237 17.9205295,15.7789915 17.9205295,15.6212561 L17.9213377,13.3196009 C17.9213377,13.2438646 17.8934557,13.1713326 17.8440224,13.1177346 C17.7945891,13.0641366 17.7272412,13.0339877 17.6571995,13.0339877 L15.6826955,13.0339877 L15.6826955,11.6873381 C15.6826955,11.0400841 15.8253382,10.7115051 16.6050915,10.7115051 L17.7361312,10.7110681 C17.8818719,10.7110681 18,10.5831903 18,10.4256005 L18,8.28838051 C18,8.1309364 17.8820066,8.00320423 17.7364005,8.00291293 Z" fill="#FFFFFF" fill-rule="nonzero"></path>
            </g>
        </g>
    </g>
</svg>