<svg width="129" height="130" viewBox="0 0 129 130" fill="none" xmlns="http://www.w3.org/2000/svg">
<path d="M30.8237 24.2637C37.5129 24.2637 42.9356 18.8321 42.9356 12.1319C42.9356 5.43162 37.5129 0 30.8237 0C24.1346 0 18.7119 5.43162 18.7119 12.1319C18.7119 18.8321 24.1346 24.2637 30.8237 24.2637Z" fill="#FF6584"/>
<path d="M108.521 6.3959L108.5 6.40755C108.269 6.53387 108.011 6.60051 107.748 6.60143C107.485 6.60236 107.226 6.53753 106.995 6.41284C106.982 6.40563 106.968 6.39851 106.955 6.39149C106.724 6.26774 106.465 6.20344 106.203 6.20435C105.941 6.20526 105.682 6.27134 105.452 6.39669L105.432 6.40755C105.201 6.53387 104.943 6.60051 104.68 6.60143C104.417 6.60236 104.158 6.53753 103.927 6.41284C103.913 6.40536 103.899 6.39797 103.886 6.39068C103.657 6.2675 103.401 6.20281 103.142 6.20235C102.882 6.20189 102.626 6.26568 102.397 6.38805C101.697 6.76565 100.751 7.41127 100.755 8.14039C100.755 8.16922 100.757 8.19803 100.76 8.2267C100.841 8.98389 103.307 9.17683 104.661 8.81998C105.671 9.05074 106.72 9.05074 107.729 8.81998C109.078 9.18254 111.594 8.97482 111.667 8.20894C111.67 8.18024 111.671 8.15143 111.671 8.1226C111.667 7.39308 110.712 6.75423 110.008 6.38194C109.778 6.26152 109.522 6.19978 109.263 6.20222C109.004 6.20465 108.749 6.27118 108.521 6.3959Z" fill="#E6E6E6"/>
<path d="M124.157 22.9311L124.136 22.9427C123.905 23.069 123.647 23.1357 123.384 23.1366C123.121 23.1375 122.862 23.0727 122.631 22.948C122.617 22.9408 122.604 22.9337 122.591 22.9266C122.359 22.8029 122.101 22.7386 121.839 22.7395C121.576 22.7404 121.318 22.8065 121.088 22.9318L121.068 22.9427C120.837 23.069 120.579 23.1357 120.316 23.1366C120.053 23.1375 119.794 23.0727 119.563 22.948C119.549 22.9405 119.535 22.9331 119.521 22.9258C119.293 22.8027 119.037 22.738 118.777 22.7375C118.518 22.737 118.262 22.8008 118.033 22.9232C117.333 23.3008 116.386 23.9464 116.391 24.6755C116.391 24.7044 116.392 24.7332 116.396 24.7619C116.477 25.519 118.943 25.712 120.297 25.3551C121.307 25.5859 122.355 25.5859 123.365 25.3551C124.714 25.7177 127.229 25.51 127.303 24.7441C127.306 24.7154 127.307 24.6866 127.307 24.6578C127.303 23.9282 126.348 23.2894 125.644 22.9171C125.414 22.7967 125.158 22.7349 124.899 22.7374C124.639 22.7398 124.385 22.8063 124.157 22.9311Z" fill="#E6E6E6"/>
<g clip-path="url(#clip0)">
<path d="M91.8561 38.4368C93.042 37.761 94.5054 37.786 95.6661 38.4869L120.898 53.5063C122.033 54.1821 122.74 55.4087 122.74 56.7354V62.9935L113.909 66.7483L122.74 70.5032V78.0128L113.909 81.7677L122.74 85.5225V93.0322L113.909 96.787L122.74 100.542V108.052L113.909 111.806L122.74 115.561V126.826H89.9385V41.7161C89.9385 40.3643 90.6702 39.1127 91.8561 38.4368Z" fill="#E6E6E6"/>
<path d="M109.025 66.2349C109.025 64.1594 110.701 62.484 112.776 62.484H122.779V69.9858H112.776C110.701 69.9858 109.025 68.3104 109.025 66.2349Z" fill="#3F3D56"/>
<path d="M112.776 77.4875H122.779V84.9893H112.776C110.701 84.9893 109.025 83.3139 109.025 81.2384C109.025 79.1629 110.701 77.4875 112.776 77.4875Z" fill="#3F3D56"/>
<path d="M112.776 92.4912H122.779V99.993H112.776C110.701 99.993 109.025 98.3176 109.025 96.2421C109.025 94.1666 110.701 92.4912 112.776 92.4912Z" fill="#3F3D56"/>
<path d="M112.776 107.495H122.779V114.997H112.776C110.701 114.997 109.025 113.321 109.025 111.246C109.025 109.17 110.701 107.495 112.776 107.495Z" fill="#3F3D56"/>
<path d="M86.5203 24.9752H41.5097C39.4342 24.9752 37.7588 23.2998 37.7588 21.2243V5.72061C37.7588 3.64512 39.4342 1.96973 41.5097 1.96973H86.5203C88.5958 1.96973 90.2712 3.64512 90.2712 5.72061V21.2243C90.2712 23.2998 88.5958 24.9752 86.5203 24.9752Z" fill="#DDDDDD"/>
<path d="M86.52 1.96973H64.0146V24.9752H86.52C88.5955 24.9752 90.2709 23.2998 90.2709 21.2243V5.72061C90.2709 3.64512 88.5955 1.96973 86.52 1.96973Z" fill="#E6E6E6"/>
<path d="M36.1736 38.4368C34.9877 37.761 33.5243 37.786 32.3636 38.4869L7.13195 53.5063C5.99653 54.1821 5.29004 55.4087 5.29004 56.7354V62.9935L14.1211 66.7483L5.29004 70.5032V78.0128L14.1211 81.7677L5.29004 85.5225V93.0322L14.1211 96.787L5.29004 100.542V108.052L14.1211 111.806L5.29004 115.561V126.826H38.0912V41.7161C38.0912 40.3643 37.3595 39.1127 36.1736 38.4368Z" fill="#DDDDDD"/>
<path d="M19.0042 66.2349C19.0042 64.1594 17.3288 62.484 15.2533 62.484H5.25098V69.9858H15.2533C17.3288 69.9858 19.0042 68.3104 19.0042 66.2349Z" fill="#3F3D56"/>
<path d="M15.2533 77.4875H5.25098V84.9893H15.2533C17.3288 84.9893 19.0042 83.3139 19.0042 81.2384C19.0042 79.1629 17.3288 77.4875 15.2533 77.4875Z" fill="#3F3D56"/>
<path d="M15.2533 92.4911H5.25098V99.9929H15.2533C17.3288 99.9929 19.0042 98.3175 19.0042 96.242C19.0042 94.1665 17.3288 92.4911 15.2533 92.4911Z" fill="#3F3D56"/>
<path d="M15.2533 107.495H5.25098V114.996H15.2533C17.3288 114.996 19.0042 113.321 19.0042 111.246C19.0042 109.17 17.3288 107.495 15.2533 107.495Z" fill="#3F3D56"/>
<mask id="path-16-inside-1" fill="white">
<path fill-rule="evenodd" clip-rule="evenodd" d="M29.627 126.826H63.4862H98.4036V19.5561C98.4036 17.4362 96.6706 15.725 94.5239 15.725H63.4862H33.5067C31.3599 15.725 29.627 17.4362 29.627 19.5561V126.826Z"/>
</mask>
<path fill-rule="evenodd" clip-rule="evenodd" d="M29.627 126.826H63.4862H98.4036V19.5561C98.4036 17.4362 96.6706 15.725 94.5239 15.725H63.4862H33.5067C31.3599 15.725 29.627 17.4362 29.627 19.5561V126.826Z" fill="#DDDDDD"/>
<path d="M29.627 126.826H28.627V127.826H29.627V126.826ZM98.4036 126.826V127.826H99.4036V126.826H98.4036ZM63.4862 125.826H29.627V127.826H63.4862V125.826ZM63.4862 127.826H98.4036V125.826H63.4862V127.826ZM99.4036 126.826V19.5561H97.4036V126.826H99.4036ZM94.5239 16.725C96.1303 16.725 97.4036 18.0004 97.4036 19.5561H99.4036C99.4036 16.8721 97.211 14.725 94.5239 14.725V16.725ZM94.5239 14.725H63.4862V16.725H94.5239V14.725ZM33.5067 16.725H63.4862V14.725H33.5067V16.725ZM30.627 19.5561C30.627 18.0004 31.9002 16.725 33.5067 16.725V14.725C30.8195 14.725 28.627 16.8721 28.627 19.5561H30.627ZM30.627 126.826V19.5561H28.627V126.826H30.627Z" fill="#CCCCCC" mask="url(#path-16-inside-1)"/>
<path d="M97.345 126.826H30.6846V20.5777C30.6846 18.4781 32.3493 16.7831 34.4115 16.7831H93.618C95.6803 16.7831 97.345 18.4781 97.345 20.5777V126.826Z" fill="#E6E6E6"/>
<path d="M97.3451 20.5412C97.3451 18.4618 95.6963 16.7831 93.6537 16.7831H64.5439V126.826H97.3451V20.5412Z" fill="#DDDDDD"/>
<path d="M81.4736 46.41C79.1317 46.41 77.2412 46.1307 77.2412 45.7847V33.2799C77.2412 32.9339 79.1317 32.6547 81.4736 32.6547C83.8156 32.6547 85.706 32.9339 85.706 33.2799V45.7847C85.706 46.1307 83.8156 46.41 81.4736 46.41Z" fill="white"/>
<path d="M46.5566 46.41C44.2147 46.41 42.3242 46.1307 42.3242 45.7847V33.2799C42.3242 32.9339 44.2147 32.6547 46.5566 32.6547C48.8986 32.6547 50.789 32.9339 50.789 33.2799V45.7847C50.789 46.1307 48.8986 46.41 46.5566 46.41Z" fill="white"/>
<path d="M64.0149 46.41C61.9657 46.41 60.3115 46.1307 60.3115 45.7847V33.2799C60.3115 32.9339 61.9657 32.6547 64.0149 32.6547C66.0641 32.6547 67.7182 32.9339 67.7182 33.2799V45.7847C67.7182 46.1307 66.0641 46.41 64.0149 46.41Z" fill="white"/>
<path d="M63.4854 32.6547V46.41C65.8273 46.41 67.7178 46.1307 67.7178 45.7847V33.2799C67.7178 32.9339 65.8273 32.6547 63.4854 32.6547Z" fill="white"/>
<path d="M81.4736 87.676C79.1317 87.676 77.2412 87.3967 77.2412 87.0507V74.5459C77.2412 74.1999 79.1317 73.9207 81.4736 73.9207C83.8156 73.9207 85.706 74.1999 85.706 74.5459V87.0507C85.706 87.3967 83.8156 87.676 81.4736 87.676Z" fill="white"/>
<path d="M46.5566 87.676C44.2147 87.676 42.3242 87.3967 42.3242 87.0507V74.5459C42.3242 74.1999 44.2147 73.9207 46.5566 73.9207C48.8986 73.9207 50.789 74.1999 50.789 74.5459V87.0507C50.789 87.3967 48.8986 87.676 46.5566 87.676Z" fill="white"/>
<path d="M64.0149 87.676C61.9657 87.676 60.3115 87.3967 60.3115 87.0507V74.5459C60.3115 74.1999 61.9657 73.9207 64.0149 73.9207C66.0641 73.9207 67.7182 74.1999 67.7182 74.5459V87.0507C67.7182 87.3967 66.0641 87.676 64.0149 87.676Z" fill="white"/>
<path d="M63.4854 73.9207V87.676C65.8273 87.676 67.7178 87.3967 67.7178 87.0507V74.5459C67.7178 74.1999 65.8273 73.9207 63.4854 73.9207Z" fill="white"/>
<path d="M81.4736 67.572C79.1317 67.572 77.2412 67.2927 77.2412 66.9467V54.4419C77.2412 54.0959 79.1317 53.8167 81.4736 53.8167C83.8156 53.8167 85.706 54.0959 85.706 54.4419V66.9467C85.706 67.2927 83.8156 67.572 81.4736 67.572Z" fill="white"/>
<path d="M46.5566 67.572C44.2147 67.572 42.3242 67.2927 42.3242 66.9467V54.4419C42.3242 54.0959 44.2147 53.8167 46.5566 53.8167C48.8986 53.8167 50.789 54.0959 50.789 54.4419V66.9467C50.789 67.2927 48.8986 67.572 46.5566 67.572Z" fill="white"/>
<path d="M64.0149 67.572C61.9657 67.572 60.3115 67.2927 60.3115 66.9467V54.4419C60.3115 54.0959 61.9657 53.8167 64.0149 53.8167C66.0641 53.8167 67.7182 54.0959 67.7182 54.4419V66.9467C67.7182 67.2927 66.0641 67.572 64.0149 67.572Z" fill="white"/>
<path d="M63.4854 53.8167V67.572C65.8273 67.572 67.7178 67.2927 67.7178 66.9467V54.4419C67.7178 54.0959 65.8273 53.8167 63.4854 53.8167Z" fill="white"/>
<path d="M81.4736 106.722C79.1317 106.722 77.2412 106.442 77.2412 106.097V93.5917C77.2412 93.2457 79.1317 92.9664 81.4736 92.9664C83.8156 92.9664 85.706 93.2457 85.706 93.5917V106.097C85.706 106.442 83.8156 106.722 81.4736 106.722Z" fill="white"/>
<path d="M46.5566 106.722C44.2147 106.722 42.3242 106.442 42.3242 106.097V93.5917C42.3242 93.2457 44.2147 92.9664 46.5566 92.9664C48.8986 92.9664 50.789 93.2457 50.789 93.5917V106.097C50.789 106.442 48.8986 106.722 46.5566 106.722Z" fill="white"/>
<path d="M64.0149 106.722C61.9657 106.722 60.3115 106.442 60.3115 106.097V93.5917C60.3115 93.2457 61.9657 92.9664 64.0149 92.9664C66.0641 92.9664 67.7182 93.2457 67.7182 93.5917V106.097C67.7182 106.442 66.0641 106.722 64.0149 106.722Z" fill="white"/>
<path d="M63.4854 92.9664V106.722C65.8273 106.722 67.7178 106.442 67.7178 106.097V93.5917C67.7178 93.2457 65.8273 92.9664 63.4854 92.9664Z" fill="white"/>
<path d="M67.8349 117.303H59.1377C58.0331 117.303 57.1377 118.198 57.1377 119.303V124.826C57.1377 125.93 58.0331 126.826 59.1377 126.826H67.8349C68.9395 126.826 69.8349 125.93 69.8349 124.826V119.303C69.8349 118.198 68.9395 117.303 67.8349 117.303Z" fill="#4F4D65"/>
<path d="M69.8349 121.535H57.1377V126.826H69.8349V121.535Z" fill="#3F3D56"/>
<path d="M63.6601 119.419H63.3115C61.6547 119.419 60.3115 120.762 60.3115 122.419V123.826C60.3115 125.483 61.6547 126.826 63.3115 126.826H63.6601C65.317 126.826 66.6601 125.483 66.6601 123.826V122.419C66.6601 120.762 65.317 119.419 63.6601 119.419Z" fill="#3F3D56"/>
<path d="M86.7641 125.365C86.7643 125.273 86.7631 125.182 86.7607 125.09C86.6966 122.652 84.5019 121.991 83.3254 123.145C82.9541 122.79 82.4789 122.594 81.9872 122.594C81.4955 122.594 81.0203 122.79 80.649 123.145C79.4674 122.009 77.3165 122.623 77.2455 125.034C77.2428 125.125 77.2414 125.217 77.2412 125.309C77.2447 125.816 77.2729 126.322 77.3257 126.826H86.6808C86.7317 126.341 86.7595 125.853 86.7641 125.365Z" fill="#60CC8C"/>
<path d="M49.7309 125.365C49.7311 125.273 49.7299 125.182 49.7275 125.09C49.6633 122.652 47.4687 121.991 46.2922 123.145C45.9209 122.79 45.4457 122.594 44.954 122.594C44.4622 122.594 43.987 122.79 43.6158 123.145C42.4342 122.009 40.2833 122.623 40.2123 125.034C40.2096 125.125 40.2082 125.217 40.208 125.309C40.2115 125.816 40.2397 126.322 40.2925 126.826H49.6476C49.6985 126.341 49.7263 125.853 49.7309 125.365Z" fill="#60CC8C"/>
<path d="M144.845 126.826H-19.0459V127.135H144.845V126.826Z" fill="#3F3D56"/>
<path d="M21.5213 24.3266L21.4999 24.3383C21.2694 24.4646 21.0109 24.5312 20.7481 24.5322C20.4853 24.5331 20.2264 24.4683 19.995 24.3436C19.9816 24.3364 19.9683 24.3292 19.9552 24.3222C19.7237 24.1985 19.4652 24.1342 19.2029 24.1351C18.9405 24.136 18.6825 24.2021 18.4519 24.3274L18.432 24.3383C18.2014 24.4646 17.943 24.5312 17.6801 24.5322C17.4173 24.5331 17.1584 24.4683 16.927 24.3436C16.9131 24.3361 16.8994 24.3287 16.8857 24.3214C16.657 24.1982 16.4014 24.1335 16.1417 24.1331C15.882 24.1326 15.6262 24.1964 15.3971 24.3188C14.6971 24.6964 13.7507 25.342 13.7549 26.0711C13.7551 26.0999 13.7567 26.1287 13.7598 26.1574C13.8412 26.9146 16.3068 27.1075 17.6613 26.7507C18.671 26.9815 19.7196 26.9815 20.7293 26.7507C22.078 27.1133 24.5937 26.9055 24.6673 26.1397C24.67 26.111 24.6713 26.0821 24.6712 26.0533C24.667 25.3238 23.7123 24.685 23.0079 24.3127C22.7781 24.1922 22.5222 24.1305 22.2628 24.1329C22.0035 24.1354 21.7488 24.2019 21.5213 24.3266Z" fill="#E6E6E6"/>
</g>
<defs>
<clipPath id="clip0">
<rect width="128.03" height="128.03" fill="white" transform="translate(0 1.96973)"/>
</clipPath>
</defs>
</svg>
