<svg width="68" height="68" viewBox="0 0 68 68" fill="none" xmlns="http://www.w3.org/2000/svg">
<rect width="68" height="68" rx="6" fill="#E2FCEC"/>
<path d="M33.9997 16C24.0589 16 16 24.0591 16 33.9997C16 43.9403 24.0589 52 33.9997 52C43.9405 52 52 43.9403 52 33.9997C52 24.0591 43.9405 16 33.9997 16ZM41.7815 37.4232H34.1503C34.1245 37.4232 34.1005 37.417 34.0749 37.416C34.0494 37.4172 34.0255 37.4232 33.9996 37.4232C33.3121 37.4232 32.7547 36.8658 32.7547 36.1783V23.47C32.7547 22.7825 33.3121 22.2251 33.9996 22.2251C34.6871 22.2251 35.2445 22.7825 35.2445 23.47V34.9334H41.781C42.4685 34.9334 43.0259 35.4908 43.0259 36.1783C43.0259 36.8658 42.469 37.4232 41.7815 37.4232Z" fill="#60CC8C"/>
</svg>
