<svg width="68" height="68" viewBox="0 0 68 68" fill="none" xmlns="http://www.w3.org/2000/svg">
<rect width="68" height="68" rx="6" fill="#E2FCEC"/>
<path d="M42.9178 19.6929C40.5365 17.3116 37.3702 16 34.0027 16C30.6346 16 27.469 17.3116 25.0877 19.6929C20.6808 24.0991 20.1332 32.3896 23.9017 37.4125L34.0027 52L44.0887 37.4329C47.8723 32.3896 47.3247 24.0991 42.9178 19.6929ZM34.1191 33.0937C31.582 33.0937 29.517 31.0287 29.517 28.4916C29.517 25.9545 31.582 23.8894 34.1191 23.8894C36.6562 23.8894 38.7213 25.9545 38.7213 28.4916C38.7213 31.0287 36.6562 33.0937 34.1191 33.0937Z" fill="#60CC8C"/>
</svg>
