<svg width="68" height="68" viewBox="0 0 68 68" fill="none" xmlns="http://www.w3.org/2000/svg">
<rect width="68" height="68" rx="6" fill="#E2FCEC"/>
<g clip-path="url(#clip0)">
<path d="M48.7872 48.1429C49.5965 48.1429 50.2976 47.8757 50.8937 47.3481L40.6944 37.1484C40.4497 37.3236 40.2125 37.494 39.9884 37.656C39.2251 38.2184 38.6056 38.6572 38.13 38.9717C37.6543 39.2868 37.0215 39.6081 36.2316 39.936C35.4411 40.2644 34.7047 40.4281 34.0216 40.4281H34.0016H33.9816C33.2983 40.4281 32.5619 40.2645 31.7715 39.936C30.9811 39.6081 30.3483 39.2868 29.8732 38.9717C29.3975 38.6572 28.7784 38.2185 28.0147 37.656C27.8019 37.5 27.5659 37.3288 27.3107 37.1456L17.1094 47.3481C17.7054 47.8757 18.407 48.1429 19.2162 48.1429H48.7872Z" fill="#60CC8C"/>
<path d="M18.0292 30.7255C17.266 30.2167 16.5892 29.634 16 28.9775V44.4957L24.9897 35.506C23.1912 34.2504 20.874 32.6587 18.0292 30.7255Z" fill="#60CC8C"/>
<path d="M49.9928 30.7255C47.2565 32.5776 44.9309 34.172 43.0156 35.5096L52.0017 44.496V28.9775C51.4256 29.6207 50.756 30.2031 49.9928 30.7255Z" fill="#60CC8C"/>
<path d="M48.7851 19.8571H19.2141C18.1824 19.8571 17.3893 20.2054 16.8337 20.9014C16.2776 21.5978 16 22.4686 16 23.513C16 24.3566 16.3684 25.2707 17.1048 26.2555C17.8412 27.2399 18.6248 28.0131 19.4552 28.5755C19.9104 28.8971 21.2833 29.8515 23.5737 31.4383C24.8101 32.2951 25.8853 33.0419 26.8093 33.6864C27.5969 34.2352 28.2761 34.7104 28.8369 35.1048C28.9013 35.1499 29.0025 35.2224 29.1369 35.3184C29.2817 35.4224 29.4649 35.5544 29.6909 35.7176C30.1261 36.0324 30.4877 36.2868 30.7757 36.4812C31.0633 36.6756 31.4117 36.8928 31.8205 37.134C32.2289 37.3749 32.6141 37.556 32.9757 37.6764C33.3373 37.7968 33.6721 37.8572 33.9801 37.8572H34.0001H34.0201C34.328 37.8572 34.6629 37.7968 35.0246 37.6764C35.3861 37.556 35.771 37.3753 36.1797 37.134C36.5881 36.8928 36.9361 36.6752 37.2246 36.4812C37.5126 36.2868 37.8741 36.0324 38.3094 35.7176C38.535 35.5544 38.7182 35.4224 38.863 35.3188C38.9974 35.2223 39.0986 35.1503 39.1633 35.1048C39.6002 34.8008 40.281 34.3275 41.1963 33.692C42.8618 32.5348 45.3146 30.8315 48.5651 28.5755C49.5427 27.8927 50.3595 27.0687 51.0159 26.1047C51.6711 25.1407 51.9996 24.1295 51.9996 23.0715C51.9996 22.1875 51.6811 21.4311 51.0455 20.8011C50.4091 20.1718 49.6556 19.8571 48.7851 19.8571Z" fill="#60CC8C"/>
</g>
<defs>
<clipPath id="clip0">
<rect width="36" height="36" fill="white" transform="translate(16 16)"/>
</clipPath>
</defs>
</svg>
