<svg width="423" height="412" viewBox="0 0 423 412" fill="none" xmlns="http://www.w3.org/2000/svg">
<path d="M132.773 80.0932C132.773 80.0932 94.0722 231.851 91.0083 279.823C35.4157 271.938 0 260.767 0 260.767C0 260.767 21.5679 67.4098 36.4033 59.9086C53.839 59.3036 53.4157 59.3036 132.773 80.0932Z" fill="#4DA370"/>
<path d="M68.6147 75.7377C65.4702 87.1105 51.6224 95.0351 41.8665 91.5064C23.3423 105.46 13.9492 234.069 13.9492 234.069C14.0097 234.09 14.0903 234.09 14.1508 234.09C25.1564 235.884 32.3525 247.801 30.3972 258.388L62.5676 265.123C65.1679 253.931 76.1533 247.58 87.1993 249.374C87.3001 249.394 87.4009 249.415 87.5016 249.435L119.47 106.61C118.765 106.569 118.08 106.489 117.374 106.368C106.369 104.573 97.1568 92.2323 99.112 81.6459L68.6953 75.2739C68.655 75.4554 68.655 75.5966 68.6147 75.7377Z" fill="url(#paint0_linear)"/>
<path d="M69.8435 148.431C83.2679 151.233 91.8749 164.401 89.0731 177.83C86.2713 191.26 73.1089 199.87 59.6844 197.067C46.2599 194.264 37.6529 181.097 40.4547 167.667C43.2565 154.238 56.419 145.628 69.8435 148.431Z" fill="white"/>
<path d="M85.0231 175.189L80.0443 174.947C78.8752 181.319 74.6422 184.525 70.6108 184.344C66.0957 184.122 63.5962 180.754 61.7821 174.262C60.2098 168.757 59.0004 166.397 56.3599 166.276C54.324 166.176 52.8122 167.91 52.5703 172.709C52.3688 176.681 53.0743 178.98 53.6387 180.311L49.5871 181.985C48.801 180.129 48.1156 177.548 48.1963 173.818L43.2578 173.576L43.4392 169.725L48.5792 169.966C49.6274 164.28 52.9936 160.771 57.2266 160.973C61.641 161.195 63.7978 165.228 65.5313 171.66C66.8415 176.338 68.4339 178.839 71.2357 178.98C74.1383 179.121 76.0532 176.217 76.275 171.801C76.4362 168.313 75.6299 165.349 74.5012 163.05L78.2907 161.437C79.4598 163.675 80.4877 167.466 80.3668 171.076L85.2045 171.318L85.0231 175.189Z" fill="#4DA370"/>
<path d="M43.4878 169.108L43.2695 173.599L85.0044 175.629L85.2226 171.137L43.4878 169.108Z" fill="#4DA370"/>
<path d="M74.984 125.665C78.189 126.331 80.245 129.476 79.5798 132.703C78.9146 135.909 75.7702 137.965 72.545 137.3C69.3401 136.635 67.284 133.489 67.9492 130.263C68.6144 127.056 71.7589 125 74.984 125.665Z" fill="#4DA370"/>
<path d="M78.652 108.062C81.857 108.727 83.913 111.873 83.2479 115.099C82.5827 118.305 79.4382 120.362 76.213 119.697C73.008 119.031 70.952 115.885 71.6172 112.659C72.3025 109.453 75.447 107.376 78.652 108.062Z" fill="#4DA370"/>
<path d="M54.1012 225.439C57.3061 226.105 59.3621 229.251 58.6969 232.477C58.0317 235.683 54.8873 237.74 51.6622 237.074C48.4572 236.409 46.4012 233.263 47.0664 230.037C47.7517 226.831 50.8962 224.774 54.1012 225.439Z" fill="#043C5E"/>
<path d="M57.7066 208.199C60.9116 208.864 62.9676 212.01 62.3024 215.236C61.6372 218.442 58.4927 220.499 55.2676 219.834C52.0627 219.168 50.0067 216.023 50.6719 212.796C51.3572 209.59 54.5017 207.533 57.7066 208.199Z" fill="#4DA370"/>
<path d="M248.958 36.2356C248.958 36.2356 185.081 179.242 173.934 225.984C120.478 208.783 87.4609 191.764 87.4609 191.764C87.4609 191.764 141.481 4.85964 157.385 0C174.7 2.35925 174.297 2.29875 248.958 36.2356Z" fill="#4DA370"/>
<path d="M186.474 21.0716C181.435 31.7587 166.459 37.2032 157.428 32.0612C136.808 42.6677 105.746 167.829 105.746 167.829C105.807 167.849 105.887 167.869 105.948 167.889C116.49 171.519 121.569 184.485 117.84 194.607L148.398 206.706C152.853 196.12 164.765 191.724 175.328 195.353C175.428 195.394 175.509 195.434 175.61 195.474L231.323 60.1302C230.638 59.9689 229.973 59.7673 229.308 59.5253C218.766 55.8957 211.791 42.1636 215.5 32.0612L186.615 20.6279C186.555 20.7892 186.535 20.9304 186.474 21.0716Z" fill="url(#paint1_linear)"/>
<path d="M175.366 92.918C188.125 97.9592 194.374 112.397 189.335 125.161C184.296 137.925 169.863 144.176 157.104 139.135C144.345 134.094 138.096 119.656 143.135 106.892C148.174 94.1279 162.607 87.8769 175.366 92.918Z" fill="white"/>
<path d="M185.467 122.842L180.669 121.491C178.109 127.439 173.272 129.637 169.402 128.549C165.048 127.319 163.355 123.487 163.032 116.752C162.73 111.046 162.065 108.465 159.525 107.759C157.57 107.215 155.695 108.566 154.405 113.183C153.337 117.014 153.518 119.414 153.74 120.826L149.426 121.551C149.084 119.575 148.983 116.893 149.89 113.284L145.133 111.953L146.181 108.243L151.14 109.634C153.417 104.331 157.489 101.649 161.561 102.798C165.834 103.988 167.023 108.404 167.265 115.058C167.487 119.898 168.515 122.721 171.196 123.467C173.997 124.253 176.517 121.854 177.706 117.599C178.654 114.232 178.512 111.147 177.928 108.666L181.979 107.94C182.624 110.38 182.786 114.312 181.858 117.801L186.515 119.112L185.467 122.842Z" fill="#4DA370"/>
<path d="M146.368 107.668L145.156 111.998L185.395 123.263L186.606 118.933L146.368 107.668Z" fill="#4DA370"/>
<path d="M184.277 71.3422C187.32 72.5521 188.812 76.0002 187.623 79.045C186.413 82.0899 182.967 83.582 179.923 82.3923C176.879 81.1825 175.388 77.7343 176.577 74.6895C177.786 71.6447 181.233 70.1525 184.277 71.3422Z" fill="#4DA370"/>
<path d="M190.886 54.6255C193.93 55.8354 195.421 59.2835 194.232 62.3284C193.023 65.3732 189.576 66.8654 186.532 65.6757C183.489 64.4658 181.997 61.0177 183.186 57.9728C184.396 54.9078 187.843 53.4157 190.886 54.6255Z" fill="#4DA370"/>
<path d="M146.804 166.136C149.848 167.346 151.34 170.794 150.15 173.839C148.941 176.883 145.494 178.376 142.45 177.186C139.407 175.976 137.915 172.528 139.104 169.483C140.314 166.438 143.761 164.946 146.804 166.136Z" fill="#043C5E"/>
<path d="M153.273 149.762C156.317 150.972 157.808 154.42 156.619 157.465C155.41 160.509 151.963 162.002 148.919 160.812C145.875 159.602 144.384 156.154 145.573 153.109C146.782 150.044 150.229 148.552 153.273 149.762Z" fill="#4DA370"/>
<path d="M304.27 159.239C304.27 159.239 179.076 253.286 146.664 288.756C108.245 247.781 87.6445 216.889 87.6445 216.889C87.6445 216.889 225.518 79.67 241.784 83.1181C255.753 93.5835 255.43 93.3214 304.27 159.239Z" fill="#4DA370"/>
<path d="M256.983 115.643C247.408 122.54 231.666 120.039 226.264 111.167C203.083 110.441 115.22 204.811 115.22 204.811C115.26 204.871 115.32 204.911 115.361 204.952C122.819 213.239 120.964 227.032 112.801 234.069L133.663 259.477C142.693 252.379 155.231 254.315 162.729 262.622C162.79 262.703 162.85 262.784 162.911 262.864L277.261 171.559C276.757 171.075 276.253 170.592 275.789 170.047C268.331 161.759 268.875 146.374 277.039 139.337L257.325 115.321C257.184 115.442 257.104 115.563 256.983 115.643Z" fill="url(#paint2_linear)"/>
<path d="M212.436 173.092C221.144 183.699 219.612 199.346 209.009 208.058C198.407 216.769 182.765 215.236 174.057 204.63C165.349 194.023 166.881 178.375 177.484 169.664C188.066 160.953 203.728 162.486 212.436 173.092Z" fill="white"/>
<path d="M207.52 203.459L203.791 200.152C198.893 204.367 193.571 204.226 190.568 201.564C187.182 198.559 187.343 194.385 190.003 188.155C192.221 182.892 192.765 180.29 190.79 178.536C189.258 177.185 187 177.588 183.815 181.178C181.175 184.162 180.288 186.38 179.885 187.771L175.672 186.521C176.216 184.606 177.305 182.146 179.703 179.282L176.014 175.995L178.574 173.112L182.424 176.52C186.799 172.749 191.636 172.124 194.801 174.927C198.107 177.871 197.26 182.347 194.579 188.457C192.664 192.913 192.342 195.878 194.438 197.733C196.615 199.668 199.921 198.6 202.864 195.293C205.182 192.692 206.391 189.848 206.976 187.368L210.947 188.497C210.463 190.978 208.891 194.587 206.532 197.309L210.16 200.515L207.52 203.459Z" fill="#4DA370"/>
<path d="M178.967 172.661L175.984 176.025L207.248 203.76L210.23 200.395L178.967 172.661Z" fill="#4DA370"/>
<path d="M230.679 158.554C232.755 161.094 232.392 164.825 229.852 166.922C227.312 168.999 223.583 168.636 221.487 166.095C219.411 163.554 219.774 159.824 222.313 157.727C224.853 155.65 228.602 156.013 230.679 158.554Z" fill="#4DA370"/>
<path d="M244.589 147.14C246.665 149.681 246.302 153.412 243.762 155.509C241.222 157.586 237.493 157.223 235.397 154.682C233.321 152.141 233.684 148.411 236.224 146.314C238.763 144.237 242.492 144.6 244.589 147.14Z" fill="#4DA370"/>
<path d="M151.944 223.262C154.02 225.802 153.657 229.533 151.118 231.63C148.578 233.707 144.849 233.344 142.753 230.803C140.676 228.262 141.039 224.532 143.579 222.435C146.119 220.358 149.868 220.721 151.944 223.262Z" fill="#043C5E"/>
<path d="M165.55 212.09C167.626 214.631 167.263 218.361 164.723 220.458C162.183 222.535 158.454 222.172 156.358 219.632C154.282 217.091 154.645 213.361 157.185 211.263C159.724 209.186 163.473 209.549 165.55 212.09Z" fill="#4DA370"/>
<path d="M138.365 280.508H66.4688V310.343H138.365V280.508Z" fill="#F7A605"/>
<path d="M239.281 280.507H180.953V310.343H239.281V280.507Z" fill="#FFD247"/>
<path d="M194.318 280.507H138.363V310.343H194.318V280.507Z" fill="#FCBC00"/>
<path d="M240.444 311.485H65.3047V279.32H240.467V311.485H240.444ZM67.6333 309.178H238.138V281.672H67.6333V309.178Z" fill="#F49742"/>
<path d="M157.892 250.672H85.9961V280.508H157.892V250.672Z" fill="#F7A605"/>
<path d="M258.808 250.672H200.48V280.508H258.808V250.672Z" fill="#FFD247"/>
<path d="M213.867 250.672H157.891V280.508H213.867V250.672Z" fill="#FCBC00"/>
<path d="M259.972 281.672H84.832V249.507H259.972V281.672ZM87.1607 279.342H257.665V251.836H87.1607V279.342Z" fill="#F49742"/>
<path d="M124.06 220.837H52.1641V250.673H124.06V220.837Z" fill="#F7A605"/>
<path d="M224.976 220.836H166.648V250.672H224.976V220.836Z" fill="#FFD247"/>
<path d="M180.013 220.836H124.059V250.672H180.013V220.836Z" fill="#FCBC00"/>
<path d="M226.162 251.837H51V219.671H226.162V251.837ZM53.3286 249.507H223.833V222.001H53.3286V249.507Z" fill="#F49742"/>
<path d="M136.42 191H64.5234V220.836H136.42V191Z" fill="#F7A605"/>
<path d="M237.335 191.001H179.008V220.837H237.335V191.001Z" fill="#FFD247"/>
<path d="M192.396 191.001H136.441V220.837H192.396V191.001Z" fill="#FCBC00"/>
<path d="M238.521 222.001H63.3594V189.835H238.521V222.001ZM65.688 219.671H236.193V192.165H65.688V219.671Z" fill="#F49742"/>
<path d="M151.846 161.166H79.9492V191.001H151.846V161.166Z" fill="#F7A605"/>
<path d="M252.761 161.165H194.434V191.001H252.761V161.165Z" fill="#FFD247"/>
<path d="M207.82 161.165H151.844V191.001H207.82V161.165Z" fill="#FCBC00"/>
<path d="M253.925 192.165H78.7852V160H253.925V192.165ZM81.0914 189.836H251.596V162.33H81.0914V189.836Z" fill="#F49742"/>
<path d="M355.101 340.178C392.307 302.958 392.307 242.612 355.101 205.393C317.895 168.173 257.573 168.173 220.367 205.393C183.161 242.612 183.161 302.958 220.367 340.178C257.573 377.398 317.895 377.398 355.101 340.178Z" fill="#FCBC00"/>
<path d="M280.685 345.695V328.896C268.147 328.717 255.182 324.483 247.637 320.071L253.884 307.169C261.653 311.402 271.841 314.762 283.932 314.762C299.27 314.762 309.636 308.58 309.636 298.5C309.636 288.779 301.218 282.776 285.231 277.467C263.198 270.389 249.585 262.258 249.585 246.893C249.585 232.221 262.325 221.089 282.208 218.423V200.549H295.597V217.707C308.562 218.065 317.428 220.887 323.698 223.889L317.249 237.664C312.704 235.536 304.912 232.714 291.075 232.714C274.438 232.714 268.169 237.687 268.169 244.742C268.169 253.926 276.162 258.54 294.971 264.902C317.227 272.338 328.467 281.522 328.467 297.246C328.467 311.223 316.578 325.357 294.321 328.358V345.695H280.685Z" fill="#FFD247"/>
<path d="M295.756 200.549H280.172V345.695H295.756V200.549Z" fill="#FFD247"/>
<path d="M287.736 371.88C233.103 371.88 188.68 327.417 188.68 272.786C188.68 218.132 233.125 173.692 287.736 173.692C342.347 173.692 386.792 218.154 386.792 272.786C386.792 327.417 342.347 371.88 287.736 371.88ZM287.736 181.285C237.29 181.285 196.27 222.343 196.27 272.786C196.27 323.251 237.312 364.286 287.736 364.286C338.182 364.286 379.202 323.229 379.202 272.786C379.202 222.32 338.182 181.285 287.736 181.285Z" fill="#F7A605"/>
<path d="M31.3302 334.577H335.086V366.503H31.3302V334.577Z" fill="#AFC2D5"/>
<path d="M50.5996 302.707H331.923C331.923 302.707 347.111 302.707 356.956 322.433C365.487 339.502 359.25 371.987 357.404 379.738H334.273V379.206C334.273 357.213 316.428 339.362 294.443 339.362C272.459 339.362 254.614 357.213 254.614 379.206V379.738H110.931V379.206C110.931 357.213 93.0862 339.362 71.1017 339.362C49.1172 339.362 31.2723 357.213 31.2723 379.206V379.738H25.2867C25.2867 379.738 25.2867 362.558 25.2867 338.438C25.2867 314.291 50.5996 302.707 50.5996 302.707Z" fill="#2A3D4B"/>
<path d="M241.355 302.708H132.384L140.16 262.891H203.344L241.355 302.708Z" fill="white"/>
<path d="M241.355 379.878V302.707L208.211 262.863H140.132L132.412 302.707C132.412 302.707 127.349 308.303 123.098 312.557C118.846 316.81 118.567 325.624 118.567 325.624V379.626L241.355 379.878Z" fill="#394C5A"/>
<path d="M132.384 302.708L140.104 262.891H208.183L241.355 302.708H132.384Z" fill="#E2FCEC"/>
<path d="M287.703 302.707C287.703 302.707 234.7 255 215.512 255C211.512 259.001 208.184 262.863 208.184 262.863L241.329 302.707H287.703Z" fill="#E2FCEC"/>
<path d="M215.508 255.028H84.9712L74.7061 262.89H208.319L215.508 255.028Z" fill="#394C5A"/>
<path d="M50.5987 302.707C50.5987 302.707 53.2558 278.868 74.7089 262.863C92.9455 262.863 135.32 262.863 135.32 262.863L127.601 302.707H50.5987Z" fill="#E2FCEC"/>
<path d="M139.321 328.842C132.988 328.842 127.854 327.89 127.854 326.715C127.854 325.541 132.988 324.589 139.321 324.589C145.655 324.589 150.789 325.541 150.789 326.715C150.789 327.89 145.655 328.842 139.321 328.842Z" fill="#FF6584"/>
<path d="M61.0047 321.286C61.0047 326.434 65.1723 330.604 70.3188 330.604C75.4653 330.604 79.6328 326.434 79.6328 321.286C79.6328 316.138 75.4653 311.968 70.3188 311.968C65.1723 311.94 61.0047 316.138 61.0047 321.286Z" fill="#FF6584"/>
<path d="M294.641 412C276.243 412 261.328 397.08 261.328 378.675C261.328 360.27 276.243 345.35 294.641 345.35C313.039 345.35 327.953 360.27 327.953 378.675C327.953 397.08 313.039 412 294.641 412Z" fill="#2A3D4B"/>
<path d="M70.8242 412C52.4263 412 37.5118 397.08 37.5118 378.675C37.5118 360.27 52.4263 345.35 70.8242 345.35C89.2222 345.35 104.137 360.27 104.137 378.675C104.137 397.08 89.2222 412 70.8242 412Z" fill="#2A3D4B"/>
<path d="M339.84 315.495C340.567 314.907 341.49 314.655 342.497 314.683L353.434 327.974C353.266 328.981 352.846 329.849 352.119 330.436C349.714 332.423 344.987 330.688 341.602 326.547C338.218 322.434 337.407 317.481 339.84 315.495Z" fill="#FF6584"/>
<path d="M289.663 399.167C278.352 396.518 271.329 385.199 273.976 373.883C276.624 362.568 287.939 355.542 299.25 358.19C310.561 360.839 317.584 372.159 314.937 383.474C312.29 394.789 300.974 401.815 289.663 399.167Z" fill="#4DA370"/>
<path d="M289.663 399.167C278.352 396.518 271.329 385.199 273.976 373.883C276.624 362.568 287.939 355.542 299.25 358.19C310.561 360.839 317.584 372.159 314.937 383.474C312.29 394.789 300.974 401.815 289.663 399.167Z" fill="#E2FCEC"/>
<path d="M55.9556 393.562C47.7416 385.344 47.7416 372.022 55.9556 363.805C64.1697 355.588 77.4873 355.588 85.7014 363.805C93.9154 372.022 93.9154 385.344 85.7013 393.562C77.4873 401.779 64.1697 401.779 55.9556 393.562Z" fill="#E2FCEC"/>
<path d="M135.237 262.891H140.16L132.384 302.708H127.602L135.237 262.891Z" fill="#394C5A"/>
<path d="M244.266 302.708L208.911 261.352L204.352 262.443L238.28 302.708H244.266Z" fill="#394C5A"/>
<path d="M230.812 304.274C230.505 309.422 233.358 313.759 237.162 314.011C240.966 314.263 244.322 310.262 244.63 305.113C244.937 299.965 242.084 295.628 238.28 295.376C234.449 295.152 231.12 299.126 230.812 304.274Z" fill="#2A3D4B"/>
<defs>
<linearGradient id="paint0_linear" x1="43.5195" y1="261.16" x2="81.8287" y2="78.0495" gradientUnits="userSpaceOnUse">
<stop stop-color="#E0F0EB"/>
<stop offset="1" stop-color="#C0E4EF"/>
</linearGradient>
<linearGradient id="paint1_linear" x1="130.305" y1="199.54" x2="199.131" y2="25.595" gradientUnits="userSpaceOnUse">
<stop stop-color="#E0F0EB"/>
<stop offset="1" stop-color="#C0E4EF"/>
</linearGradient>
<linearGradient id="paint2_linear" x1="121.324" y1="244.464" x2="265.867" y2="125.766" gradientUnits="userSpaceOnUse">
<stop stop-color="#E0F0EB"/>
<stop offset="1" stop-color="#C0E4EF"/>
</linearGradient>
</defs>
</svg>
