<svg width="359" height="358" viewBox="0 0 359 358" fill="none" xmlns="http://www.w3.org/2000/svg">
<path d="M131.447 61.2561C131.447 61.2561 161.055 177.329 163.393 214.029C205.915 208.003 232.999 199.466 232.999 199.466C232.999 199.466 216.505 51.57 205.154 45.8385C191.812 45.3576 192.133 45.3442 131.447 61.2561Z" fill="#4DA370"/>
<path d="M180.529 57.9293C182.946 66.6401 193.523 72.6789 200.988 69.9935C215.145 80.6682 222.343 179.039 222.343 179.039C222.29 179.052 222.236 179.052 222.183 179.052C213.769 180.428 208.267 189.54 209.749 197.636L185.149 202.779C183.173 194.216 174.759 189.353 166.319 190.729C166.239 190.742 166.172 190.769 166.092 190.782L141.639 81.5366C142.173 81.4965 142.707 81.4431 143.241 81.3496C151.655 79.9735 158.706 70.5413 157.211 62.4317L180.475 57.5686C180.488 57.7022 180.488 57.8091 180.529 57.9293Z" fill="url(#paint0_linear)"/>
<path d="M179.58 113.521C169.31 115.672 162.726 125.732 164.876 136.006C167.026 146.28 177.096 152.866 187.352 150.715C197.622 148.564 204.206 138.491 202.056 128.23C199.906 117.956 189.85 111.383 179.58 113.521Z" fill="white"/>
<path d="M167.812 130.996L171.512 130.822C171.418 128.056 172.206 125.157 173.101 123.447L175.999 124.69C175.144 126.453 174.517 128.724 174.65 131.383C174.811 134.763 176.293 136.981 178.51 136.874C180.647 136.767 181.875 134.857 182.877 131.276C184.199 126.346 185.842 123.26 189.221 123.1C192.453 122.939 195.03 125.625 195.831 129.98L199.758 129.793L199.905 132.746L196.139 132.933C196.205 135.792 195.671 137.769 195.083 139.185L191.985 137.916C192.399 136.901 192.947 135.151 192.8 132.104C192.626 128.444 191.464 127.121 189.902 127.188C187.885 127.282 186.95 129.098 185.762 133.307C184.359 138.29 182.463 140.855 179.004 141.029C175.932 141.176 172.7 138.718 171.792 133.841L167.986 134.028L167.812 130.996Z" fill="#4DA370"/>
<path d="M199.719 129.323L167.799 130.875L167.965 134.304L199.886 132.752L199.719 129.323Z" fill="#4DA370"/>
<path d="M175.653 96.1125C173.196 96.6202 171.62 99.0383 172.141 101.497C172.648 103.955 175.065 105.531 177.523 105.01C179.98 104.503 181.556 102.084 181.035 99.6262C180.514 97.1679 178.11 95.5914 175.653 96.1125Z" fill="#4DA370"/>
<path d="M172.835 82.6457C170.377 83.1534 168.801 85.5715 169.322 88.0298C169.83 90.488 172.247 92.0645 174.704 91.5435C177.162 91.0358 178.737 88.6176 178.217 86.1594C177.696 83.7011 175.292 82.1246 172.835 82.6457Z" fill="#4DA370"/>
<path d="M191.612 172.425C189.155 172.933 187.579 175.351 188.1 177.81C188.607 180.268 191.024 181.844 193.482 181.323C195.939 180.816 197.515 178.397 196.994 175.939C196.473 173.494 194.069 171.918 191.612 172.425Z" fill="#043C5E"/>
<path d="M188.848 159.239C186.391 159.747 184.815 162.165 185.336 164.623C185.843 167.081 188.261 168.658 190.718 168.137C193.175 167.629 194.751 165.211 194.23 162.753C193.709 160.308 191.306 158.731 188.848 159.239Z" fill="#4DA370"/>
<path d="M42.5703 27.7088C42.5703 27.7088 91.423 137.088 99.9435 172.84C140.837 159.693 166.078 146.667 166.078 146.667C166.078 146.667 124.771 3.72747 112.604 0C99.3693 1.80361 99.6898 1.75017 42.5703 27.7088Z" fill="#4DA370"/>
<path d="M90.3677 16.1123C94.2139 24.2887 105.673 28.4437 112.577 24.5292C128.349 32.6521 152.108 128.377 152.108 128.377C152.055 128.391 152.001 128.404 151.961 128.417C143.908 131.196 140.022 141.109 142.866 148.845L119.495 158.09C116.089 149.981 106.981 146.627 98.8882 149.419C98.808 149.446 98.7413 149.486 98.6745 149.513L56.0586 45.9855C56.5794 45.8519 57.0869 45.7049 57.6078 45.5313C65.6609 42.7524 71.0162 32.2647 68.1716 24.5292L90.2608 15.7783C90.3009 15.8852 90.3276 16.0054 90.3677 16.1123Z" fill="url(#paint1_linear)"/>
<path d="M98.8613 71.0623C89.1122 74.9234 84.331 85.9588 88.1907 95.7251C92.0503 105.478 103.082 110.261 112.844 106.413C122.593 102.552 127.374 91.5166 123.515 81.7504C119.655 71.9842 108.624 67.2013 98.8613 71.0623Z" fill="white"/>
<path d="M90.3281 91.0624L93.8939 90.0604C93.1861 87.3884 93.3197 84.3823 93.8004 82.5253L96.9122 83.0864C96.4714 84.9836 96.3646 87.3483 97.0858 89.9134C97.9939 93.1733 99.9304 95.0036 102.067 94.4024C104.124 93.828 104.898 91.677 105.085 87.9762C105.272 82.8727 106.194 79.5059 109.453 78.5974C112.564 77.729 115.689 79.7731 117.426 83.8346L121.218 82.7791L122.02 85.6249L118.387 86.6402C119.082 89.4191 119.001 91.4632 118.748 92.9729L115.436 92.4251C115.623 91.3296 115.756 89.5126 114.928 86.5734C113.94 83.0463 112.511 82.0043 111.015 82.4318C109.065 82.9795 108.571 84.9435 108.331 89.3122C108.077 94.4826 106.795 97.4085 103.456 98.3437C100.491 99.172 96.792 97.4886 94.8288 92.9462L91.1561 93.9749L90.3281 91.0624Z" fill="#4DA370"/>
<path d="M121.077 82.3238L90.3008 90.9399L91.2258 94.2464L122.002 85.6303L121.077 82.3238Z" fill="#4DA370"/>
<path d="M92.0368 54.5626C89.6997 55.4844 88.5645 58.1297 89.486 60.4544C90.4075 62.7924 93.0518 63.928 95.3756 63.0062C97.7128 62.0843 98.8479 59.439 97.9264 57.1144C97.0183 54.7897 94.374 53.6407 92.0368 54.5626Z" fill="#4DA370"/>
<path d="M86.99 41.7771C84.6528 42.6989 83.5177 45.3442 84.4392 47.6689C85.3606 50.0069 88.0049 51.1425 90.3287 50.2206C92.6658 49.2988 93.801 46.6535 92.8795 44.3288C91.958 41.9908 89.3137 40.8419 86.99 41.7771Z" fill="#4DA370"/>
<path d="M120.711 127.068C118.374 127.99 117.238 130.635 118.16 132.96C119.081 135.298 121.726 136.433 124.049 135.512C126.387 134.59 127.522 131.944 126.6 129.62C125.679 127.295 123.048 126.146 120.711 127.068Z" fill="#043C5E"/>
<path d="M115.756 114.549C113.418 115.471 112.283 118.117 113.205 120.441C114.126 122.779 116.771 123.915 119.094 122.993C121.431 122.071 122.567 119.426 121.645 117.101C120.724 114.763 118.093 113.628 115.756 114.549Z" fill="#4DA370"/>
<path d="M0.275391 121.791C0.275391 121.791 96.031 193.721 120.831 220.856C150.212 189.513 165.971 165.879 165.971 165.879C165.971 165.879 60.5066 60.922 48.0864 63.5807C37.3757 71.57 37.6294 71.3696 0.275391 121.791Z" fill="#4DA370"/>
<path d="M36.4404 88.4438C43.7723 93.721 55.8052 91.7972 59.9453 85.0236C77.6674 84.4758 144.87 156.647 144.87 156.647C144.83 156.687 144.79 156.727 144.763 156.767C139.061 163.113 140.476 173.668 146.713 179.052L130.754 198.477C123.849 193.04 114.247 194.523 108.531 200.896C108.477 200.949 108.437 201.016 108.384 201.083L20.9219 131.25C21.3092 130.889 21.6965 130.501 22.0571 130.101C27.7597 123.755 27.3456 111.984 21.1088 106.6L36.1867 88.23C36.2802 88.2968 36.3469 88.377 36.4404 88.4438Z" fill="url(#paint2_linear)"/>
<path d="M70.5224 132.385C63.8583 140.495 65.0335 152.465 73.14 159.132C81.2465 165.799 93.2126 164.623 99.8768 156.513C106.541 148.404 105.366 136.433 97.2592 129.767C89.1527 123.1 77.1733 124.276 70.5224 132.385Z" fill="white"/>
<path d="M72.2862 153.374L75.0507 150.915C73.2478 148.818 72.0458 146.066 71.6719 144.169L74.7035 143.314C75.1442 145.211 76.079 147.388 77.8419 149.379C80.0855 151.904 82.623 152.719 84.279 151.236C85.8816 149.82 85.6412 147.549 84.1722 144.129C82.1155 139.466 81.4611 136.032 83.9986 133.774C86.4158 131.623 90.1152 132.104 93.4539 134.99L96.392 132.385L98.3552 134.589L95.524 137.101C97.367 139.292 98.195 141.163 98.609 142.632L95.3904 143.581C95.0833 142.525 94.4021 140.815 92.3855 138.544C89.9549 135.805 88.2188 135.498 87.0569 136.527C85.5478 137.876 85.9484 139.867 87.6579 143.888C89.6878 148.644 89.808 151.837 87.2171 154.135C84.9201 156.179 80.8468 156.286 77.1074 153.053L74.2494 155.592L72.2862 153.374Z" fill="#4DA370"/>
<path d="M96.1204 132.08L72.209 153.292L74.4863 155.861L98.3977 134.649L96.1204 132.08Z" fill="#4DA370"/>
<path d="M56.5536 121.27C54.9644 123.207 55.2448 126.066 57.1813 127.669C59.1178 129.259 61.9758 128.978 63.5784 127.041C65.1676 125.104 64.8872 122.245 62.9507 120.642C61.0142 119.052 58.1429 119.332 56.5536 121.27Z" fill="#4DA370"/>
<path d="M45.9228 112.532C44.3335 114.469 44.614 117.328 46.5504 118.932C48.4869 120.521 51.3449 120.241 52.9475 118.304C54.5368 116.366 54.2563 113.507 52.3198 111.904C50.3833 110.314 47.512 110.595 45.9228 112.532Z" fill="#4DA370"/>
<path d="M116.784 170.755C115.195 172.693 115.475 175.552 117.412 177.155C119.348 178.745 122.206 178.464 123.809 176.527C125.398 174.59 125.118 171.731 123.181 170.127C121.231 168.538 118.373 168.818 116.784 170.755Z" fill="#043C5E"/>
<path d="M106.368 162.205C104.779 164.142 105.059 167.001 106.996 168.604C108.932 170.194 111.79 169.914 113.393 167.976C114.982 166.039 114.702 163.18 112.765 161.577C110.829 159.987 107.971 160.268 106.368 162.205Z" fill="#4DA370"/>
<path d="M64.3594 336.424H15.5117V356.695H64.3594V336.424Z" fill="#F7A605"/>
<path d="M132.922 336.424H93.293V356.695H132.922V336.424Z" fill="#FFD247"/>
<path d="M102.376 336.424H64.3594V356.695H102.376V336.424Z" fill="#FCBC00"/>
<path d="M133.714 357.486H14.7207V335.632H133.729V357.486H133.714ZM16.3028 355.903H132.147V337.215H16.3028V355.903Z" fill="#F49742"/>
<path d="M77.625 316.153H28.7773V336.423H77.625V316.153Z" fill="#F7A605"/>
<path d="M146.189 316.152H106.561V336.423H146.189V316.152Z" fill="#FFD247"/>
<path d="M115.656 316.152H77.625V336.423H115.656V316.152Z" fill="#FCBC00"/>
<path d="M146.979 337.215H27.9863V315.361H146.994V337.215H146.979ZM29.5532 335.632H145.397V316.944H29.5532V335.632Z" fill="#F49742"/>
<path d="M54.6387 295.897H5.79102V316.168H54.6387V295.897Z" fill="#F7A605"/>
<path d="M123.203 295.897H83.5742V316.168H123.203V295.897Z" fill="#FFD247"/>
<path d="M92.655 295.897H54.6387V316.168H92.655V295.897Z" fill="#FCBC00"/>
<path d="M124.008 316.944H5V295.09H124.008V316.944ZM6.58211 315.376H122.426V296.688H6.58211V315.376Z" fill="#F49742"/>
<path d="M63.0352 275.626H14.1875V295.897H63.0352V275.626Z" fill="#F7A605"/>
<path d="M131.6 275.626H91.9707V295.897H131.6V275.626Z" fill="#FFD247"/>
<path d="M101.051 275.626H63.0352V295.897H101.051V275.626Z" fill="#FCBC00"/>
<path d="M132.405 296.688H13.3965V274.835H132.405V296.688ZM14.9786 295.105H130.823V276.417H14.9786V295.105Z" fill="#F49742"/>
<path d="M73.5039 255.356H24.6562V275.627H73.5039V255.356Z" fill="#F7A605"/>
<path d="M142.082 255.355H102.453V275.626H142.082V255.355Z" fill="#FFD247"/>
<path d="M111.549 255.355H73.5176V275.626H111.549V255.355Z" fill="#FCBC00"/>
<path d="M142.872 276.417H23.8789V254.564H142.887V276.417H142.872ZM25.4458 274.835H141.29V256.146H25.4458V274.835Z" fill="#F49742"/>
<path d="M256.96 88H239.619V115.926H256.96V88Z" fill="#2A3D4B"/>
<path d="M325.553 211.051H65.4121V357.896H325.553V211.051Z" fill="#4DA370"/>
<path d="M276.491 106.542H195.285H114.053L32 211.051H195.285H358.569L276.491 106.542Z" fill="#2A3D4B"/>
<path d="M241.634 179.94L196.304 132.377L150.998 180.313V357.896H241.634V179.94Z" fill="#60CC8C"/>
<path d="M210.087 295.699H183.441V357.896H210.087V295.699Z" fill="white"/>
<path d="M205.435 322.778C205.435 324.172 204.29 325.317 202.897 325.317C201.504 325.317 200.359 324.172 200.359 322.778C200.359 321.384 201.504 320.239 202.897 320.239C204.29 320.239 205.435 321.359 205.435 322.778Z" fill="white"/>
<path d="M126.319 308.392V255.279C126.319 242.586 118.134 232.207 108.132 232.207H107.287C97.285 232.207 89.0996 242.586 89.0996 255.279V308.392H126.319Z" fill="white"/>
<path d="M126.319 267.35H110.247V232.207H105.172V267.35H89.0996V272.005H105.172V308.392H110.247V272.005H126.319V267.35Z" fill="#60CC8C"/>
<path d="M302.292 308.392V255.279C302.292 242.586 294.107 232.207 284.105 232.207H283.259C273.258 232.207 265.072 242.586 265.072 255.279V308.392H302.292Z" fill="white"/>
<path d="M302.292 267.35H286.22V232.207H281.144V267.35H265.072V272.005H281.144V308.392H286.22V272.005H302.292V267.35Z" fill="#60CC8C"/>
<path d="M209.316 216.527V187.531C209.316 180.612 204.315 174.937 198.194 174.937H197.672C191.552 174.937 186.551 180.612 186.551 187.531V216.527H209.316Z" fill="white"/>
<path d="M209.316 194.102H199.488V174.937H196.378V194.102H186.551V196.64H196.378V216.527H199.488V196.64H209.316V194.102Z" fill="#4DA370"/>
<path d="M250.69 183.051L195.681 124.885L140.697 183.051L145.972 187.033L195.681 134.045L245.39 187.033L250.69 183.051Z" fill="#4DA370"/>
<defs>
<linearGradient id="paint0_linear" x1="199.71" y1="199.747" x2="170.409" y2="59.6909" gradientUnits="userSpaceOnUse">
<stop stop-color="#E0F0EB"/>
<stop offset="1" stop-color="#C0E4EF"/>
</linearGradient>
<linearGradient id="paint1_linear" x1="133.331" y1="152.616" x2="80.6878" y2="19.5701" gradientUnits="userSpaceOnUse">
<stop stop-color="#E0F0EB"/>
<stop offset="1" stop-color="#C0E4EF"/>
</linearGradient>
<linearGradient id="paint2_linear" x1="140.201" y1="186.977" x2="29.6439" y2="96.1876" gradientUnits="userSpaceOnUse">
<stop stop-color="#E0F0EB"/>
<stop offset="1" stop-color="#C0E4EF"/>
</linearGradient>
</defs>
</svg>
