<svg width="1161" height="543" viewBox="0 0 1161 543" fill="none" xmlns="http://www.w3.org/2000/svg">
<g clip-path="url(#clip0)">
<path d="M338.636 380.36H266.739V410.196H338.636V380.36Z" fill="#F7A605"/>
<path d="M439.55 380.36H381.223V410.196H439.55V380.36Z" fill="#FFD247"/>
<path d="M394.59 380.36H338.636V410.196H394.59V380.36Z" fill="#FCBC00"/>
<path d="M440.715 411.36H265.553V379.195H440.715V411.36ZM267.881 409.031H438.386V381.525H267.881V409.031Z" fill="#F49742"/>
<path d="M358.138 350.525H286.241V380.36H358.138V350.525Z" fill="#F7A605"/>
<path d="M459.075 350.524H400.747V380.36H459.075V350.524Z" fill="#FFD247"/>
<path d="M414.137 350.524H358.16V380.36H414.137V350.524Z" fill="#FCBC00"/>
<path d="M460.239 381.524H285.077V349.359H460.239V381.524ZM287.406 379.195H457.911V351.689H287.406V379.195Z" fill="#F49742"/>
<path d="M324.328 320.689H252.432V350.525H324.328V320.689Z" fill="#F7A605"/>
<path d="M425.243 320.689H366.915V350.524H425.243V320.689Z" fill="#FFD247"/>
<path d="M380.282 320.689H324.328V350.524H380.282V320.689Z" fill="#FCBC00"/>
<path d="M426.407 351.689H251.245V319.524H426.407V351.689ZM253.596 349.359H424.101V321.853H253.596V349.359Z" fill="#F49742"/>
<path d="M336.688 290.853H264.792V320.689H336.688V290.853Z" fill="#F7A605"/>
<path d="M437.603 290.853H379.275V320.688H437.603V290.853Z" fill="#FFD247"/>
<path d="M392.643 290.853H336.688V320.688H392.643V290.853Z" fill="#FCBC00"/>
<path d="M438.79 321.853H263.628V289.688H438.79V321.853ZM265.957 319.524H436.461V292.018H265.957V319.524Z" fill="#F49742"/>
<path d="M352.093 261.04H280.196V290.876H352.093V261.04Z" fill="#F7A605"/>
<path d="M453.03 261.04H394.702V290.875H453.03V261.04Z" fill="#FFD247"/>
<path d="M408.092 261.04H352.115V290.875H408.092V261.04Z" fill="#FCBC00"/>
<path d="M454.194 292.018H279.032V259.852H454.194V292.018ZM281.361 289.688H451.866V262.182H281.361V289.688Z" fill="#F49742"/>
<path d="M369.019 228.852H297.123V258.688H369.019V228.852Z" fill="#F7A605"/>
<path d="M469.934 228.852H411.606V258.688H469.934V228.852Z" fill="#FFD247"/>
<path d="M424.974 228.852H369.02V258.688H424.974V228.852Z" fill="#FCBC00"/>
<path d="M471.099 259.852H295.937V227.687H471.099V259.852ZM298.288 257.523H468.792V230.017H298.288V257.523Z" fill="#F49742"/>
<path d="M388.544 199.017H316.647V228.853H388.544V199.017Z" fill="#F7A605"/>
<path d="M489.458 199.016H431.131V228.852H489.458V199.016Z" fill="#FFD247"/>
<path d="M444.521 199.016H388.544V228.852H444.521V199.016Z" fill="#FCBC00"/>
<path d="M490.623 230.017H315.483V197.874H490.645V230.017H490.623ZM317.812 227.687H488.317V200.181H317.812V227.687Z" fill="#F49742"/>
<path d="M354.712 169.204H282.815V199.039H354.712V169.204Z" fill="#F7A605"/>
<path d="M455.626 169.203H397.299V199.039H455.626V169.203Z" fill="#FFD247"/>
<path d="M410.666 169.203H354.712V199.039H410.666V169.203Z" fill="#FCBC00"/>
<path d="M456.813 200.181H281.651V168.038H456.813V200.181ZM283.98 197.874H454.485V170.368H283.98V197.874Z" fill="#F49742"/>
<path d="M367.071 139.368H295.175V169.204H367.071V139.368Z" fill="#F7A605"/>
<path d="M467.986 139.367H409.658V169.203H467.986V139.367Z" fill="#FFD247"/>
<path d="M423.048 139.367H367.094V169.203H423.048V139.367Z" fill="#FCBC00"/>
<path d="M469.173 170.368H294.011V138.203H469.173V170.368ZM296.339 168.038H466.844V140.532H296.339V168.038Z" fill="#F49742"/>
<path d="M475.241 353.638H403.345V383.474H475.241V353.638Z" fill="#F7A605"/>
<path d="M576.178 353.638H517.851V383.473H576.178V353.638Z" fill="#FFD247"/>
<path d="M531.218 353.638H475.264V383.473H531.218V353.638Z" fill="#FCBC00"/>
<path d="M577.343 384.638H402.181V352.473H577.343V384.638ZM404.509 382.309H575.014V354.802H404.509V382.309Z" fill="#F49742"/>
<path d="M494.765 323.802H422.869V353.638H494.765V323.802Z" fill="#F7A605"/>
<path d="M595.703 323.802H537.375V353.638H595.703V323.802Z" fill="#FFD247"/>
<path d="M550.765 323.802H494.788V353.638H550.765V323.802Z" fill="#FCBC00"/>
<path d="M596.867 354.802H421.705V322.637H596.867V354.802ZM424.034 352.473H594.538V324.967H424.034V352.473Z" fill="#F49742"/>
<path d="M460.956 293.967H389.06V323.802H460.956V293.967Z" fill="#F7A605"/>
<path d="M561.871 293.966H503.543V323.802H561.871V293.966Z" fill="#FFD247"/>
<path d="M516.91 293.966H460.956V323.802H516.91V293.966Z" fill="#FCBC00"/>
<path d="M563.035 324.967H387.873V292.802H563.035V324.967ZM390.224 322.637H560.729V295.131H390.224V322.637Z" fill="#F49742"/>
<path d="M473.315 264.131H401.419V293.967H473.315V264.131Z" fill="#F7A605"/>
<path d="M574.23 264.131H515.902V293.966H574.23V264.131Z" fill="#FFD247"/>
<path d="M529.27 264.131H473.315V293.966H529.27V264.131Z" fill="#FCBC00"/>
<path d="M575.394 295.131H400.232V262.966H575.394V295.131ZM402.583 292.802H573.088V265.296H402.583V292.802Z" fill="#F49742"/>
<path d="M488.72 234.318H416.824V264.154H488.72V234.318Z" fill="#F7A605"/>
<path d="M589.658 234.318H531.33V264.153H589.658V234.318Z" fill="#FFD247"/>
<path d="M544.72 234.318H488.743V264.153H544.72V234.318Z" fill="#FCBC00"/>
<path d="M590.822 265.296H415.66V233.13H590.822V265.296ZM417.989 262.988H588.493V235.482H417.989V262.988Z" fill="#F49742"/>
<path d="M505.647 202.13H433.751V231.966H505.647V202.13Z" fill="#F7A605"/>
<path d="M606.562 202.13H548.234V231.966H606.562V202.13Z" fill="#FFD247"/>
<path d="M561.602 202.13H505.647V231.966H561.602V202.13Z" fill="#FCBC00"/>
<path d="M607.727 233.13H432.587V200.988H607.749V233.13H607.727ZM434.893 230.801H605.398V203.295H434.893V230.801Z" fill="#F49742"/>
<path d="M525.172 172.317H453.275V202.153H525.172V172.317Z" fill="#F7A605"/>
<path d="M626.086 172.317H567.759V202.152H626.086V172.317Z" fill="#FFD247"/>
<path d="M581.148 172.317H525.172V202.152H581.148V172.317Z" fill="#FCBC00"/>
<path d="M627.251 203.295H452.089V171.152H627.251V203.295ZM454.418 200.988H624.922V173.459H454.418V200.988Z" fill="#F49742"/>
<path d="M491.34 142.481H419.443V172.317H491.34V142.481Z" fill="#F7A605"/>
<path d="M592.254 142.481H533.927V172.317H592.254V142.481Z" fill="#FFD247"/>
<path d="M547.294 142.481H491.34V172.317H547.294V142.481Z" fill="#FCBC00"/>
<path d="M593.419 173.459H418.257V141.316H593.419V173.459ZM420.608 171.152H591.113V143.646H420.608V171.152Z" fill="#F49742"/>
<path d="M503.699 112.646H431.803V142.481H503.699V112.646Z" fill="#F7A605"/>
<path d="M604.614 112.645H546.286V142.481H604.614V112.645Z" fill="#FFD247"/>
<path d="M559.653 112.645H503.699V142.481H559.653V112.645Z" fill="#FCBC00"/>
<path d="M605.801 143.646H430.639V111.481H605.801V143.646ZM432.967 141.316H603.472V113.81H432.967V141.316Z" fill="#F49742"/>
<path d="M519.104 82.8101H447.208V112.646H519.104V82.8101Z" fill="#F7A605"/>
<path d="M620.041 82.8096H561.714V112.645H620.041V82.8096Z" fill="#FFD247"/>
<path d="M575.104 82.8096H519.127V112.645H575.104V82.8096Z" fill="#FCBC00"/>
<path d="M621.206 113.81H446.044V81.6449H621.206V113.81ZM448.373 111.481H618.877V83.9744H448.373V111.481Z" fill="#F49742"/>
<path d="M617.557 325.662H545.66V355.497H617.557V325.662Z" fill="#F7A605"/>
<path d="M718.494 325.661H660.166V355.497H718.494V325.661Z" fill="#FFD247"/>
<path d="M673.533 325.661H617.579V355.497H673.533V325.661Z" fill="#FCBC00"/>
<path d="M719.658 356.661H544.496V324.496H719.658V356.661ZM546.825 354.332H717.33V326.826H546.825V354.332Z" fill="#F49742"/>
<path d="M637.081 295.826H565.185V325.662H637.081V295.826Z" fill="#F7A605"/>
<path d="M738.018 295.825H679.69V325.661H738.018V295.825Z" fill="#FFD247"/>
<path d="M693.08 295.825H637.104V325.661H693.08V295.825Z" fill="#FCBC00"/>
<path d="M739.183 326.826H564.021V294.661H739.183V326.826ZM566.349 324.496H736.854V296.99H566.349V324.496Z" fill="#F49742"/>
<path d="M603.271 265.99H531.375V295.826H603.271V265.99Z" fill="#F7A605"/>
<path d="M704.186 265.99H645.858V295.825H704.186V265.99Z" fill="#FFD247"/>
<path d="M659.226 265.99H603.271V295.825H659.226V265.99Z" fill="#FCBC00"/>
<path d="M705.351 296.99H530.211V264.825H705.373V296.99H705.351ZM532.54 294.661H703.044V267.155H532.54V294.661Z" fill="#F49742"/>
<path d="M615.632 236.155H543.735V265.99H615.632V236.155Z" fill="#F7A605"/>
<path d="M716.546 236.154H658.219V265.99H716.546V236.154Z" fill="#FFD247"/>
<path d="M671.586 236.154H615.632V265.99H671.586V236.154Z" fill="#FCBC00"/>
<path d="M717.711 267.155H542.549V234.989H717.711V267.155ZM544.9 264.825H715.405V237.319H544.9V264.825Z" fill="#F49742"/>
<path d="M631.036 206.341H559.14V236.177H631.036V206.341Z" fill="#F7A605"/>
<path d="M731.951 206.341H673.623V236.177H731.951V206.341Z" fill="#FFD247"/>
<path d="M687.035 206.341H631.059V236.177H687.035V206.341Z" fill="#FCBC00"/>
<path d="M733.138 237.319H557.976V205.176H733.138V237.319ZM560.304 234.989H730.809V207.483H560.304V234.989Z" fill="#F49742"/>
<path d="M647.94 174.154H576.044V203.989H647.94V174.154Z" fill="#F7A605"/>
<path d="M748.878 174.153H690.55V203.989H748.878V174.153Z" fill="#FFD247"/>
<path d="M703.917 174.153H647.963V203.989H703.917V174.153Z" fill="#FCBC00"/>
<path d="M750.042 205.154H574.88V172.989H750.042V205.154ZM577.208 202.824H747.713V175.318H577.208V202.824Z" fill="#F49742"/>
<path d="M667.465 144.318H595.568V174.154H667.465V144.318Z" fill="#F7A605"/>
<path d="M768.402 144.318H710.074V174.153H768.402V144.318Z" fill="#FFD247"/>
<path d="M723.464 144.318H667.487V174.153H723.464V144.318Z" fill="#FCBC00"/>
<path d="M769.566 175.318H594.404V143.175H769.566V175.318ZM596.733 172.989H767.238V145.482H596.733V172.989Z" fill="#F49742"/>
<path d="M633.655 114.505H561.759V144.34H633.655V114.505Z" fill="#F7A605"/>
<path d="M734.57 114.504H676.242V144.34H734.57V114.504Z" fill="#FFD247"/>
<path d="M689.609 114.504H633.655V144.34H689.609V114.504Z" fill="#FCBC00"/>
<path d="M735.734 145.482H560.572V113.34H735.734V145.482ZM562.923 143.175H733.428V115.669H562.923V143.175Z" fill="#F49742"/>
<path d="M646.014 84.6692H574.118V114.505H646.014V84.6692Z" fill="#F7A605"/>
<path d="M746.929 84.6687H688.602V114.504H746.929V84.6687Z" fill="#FFD247"/>
<path d="M701.969 84.6687H646.015V114.504H701.969V84.6687Z" fill="#FCBC00"/>
<path d="M748.094 115.669H572.932V83.504H748.094V115.669ZM575.283 113.34H745.787V85.8335H575.283V113.34Z" fill="#F49742"/>
<path d="M661.42 54.8335H589.523V84.6692H661.42V54.8335Z" fill="#F7A605"/>
<path d="M762.357 54.8331H704.029V84.6687H762.357V54.8331Z" fill="#FFD247"/>
<path d="M717.419 54.8331H661.442V84.6687H717.419V54.8331Z" fill="#FCBC00"/>
<path d="M763.521 85.8335H588.359V53.6683H763.521V85.8335ZM590.688 83.504H761.193V55.9978H590.688V83.504Z" fill="#F49742"/>
<path d="M970.501 234.295C970.501 234.295 927.511 402.871 924.108 456.159C862.354 447.4 823.014 434.991 823.014 434.991C823.014 434.991 846.972 220.206 863.451 211.873C882.819 211.201 882.349 211.201 970.501 234.295Z" fill="#4DA370"/>
<path d="M899.231 229.457C895.738 242.09 880.356 250.893 869.519 246.973C848.942 262.473 838.508 405.335 838.508 405.335C838.575 405.357 838.665 405.357 838.732 405.357C850.957 407.351 858.951 420.589 856.779 432.348L892.514 439.83C895.403 427.398 907.605 420.342 919.875 422.336C919.987 422.358 920.099 422.381 920.211 422.403L955.723 263.75C954.939 263.705 954.178 263.616 953.394 263.481C941.169 261.488 930.936 247.779 933.108 236.02L899.321 228.942C899.276 229.143 899.276 229.3 899.231 229.457Z" fill="url(#paint0_linear)"/>
<path d="M900.596 310.206C915.509 313.319 925.069 327.946 921.957 342.864C918.845 357.782 904.224 367.346 889.312 364.232C874.399 361.119 864.839 346.492 867.951 331.575C871.063 316.657 885.684 307.092 900.596 310.206Z" fill="white"/>
<path d="M917.458 339.929L911.928 339.661C910.629 346.739 905.927 350.3 901.449 350.099C896.433 349.852 893.657 346.112 891.642 338.899C889.895 332.784 888.552 330.163 885.618 330.029C883.357 329.917 881.678 331.843 881.409 337.174C881.185 341.587 881.969 344.14 882.596 345.619L878.095 347.478C877.222 345.417 876.461 342.55 876.55 338.406L871.064 338.137L871.266 333.859L876.976 334.128C878.14 327.811 881.879 323.914 886.581 324.138C891.485 324.384 893.881 328.864 895.806 336.01C897.262 341.206 899.031 343.984 902.143 344.14C905.367 344.297 907.494 341.072 907.741 336.166C907.92 332.291 907.024 328.999 905.77 326.445L909.98 324.653C911.278 327.14 912.42 331.351 912.286 335.36L917.66 335.629L917.458 339.929Z" fill="#4DA370"/>
<path d="M871.321 333.174L871.078 338.163L917.438 340.418L917.68 335.429L871.321 333.174Z" fill="#4DA370"/>
<path d="M906.307 284.917C909.867 285.656 912.151 289.151 911.412 292.734C910.673 296.296 907.18 298.581 903.597 297.841C900.037 297.102 897.753 293.608 898.492 290.024C899.231 286.463 902.724 284.178 906.307 284.917Z" fill="#4DA370"/>
<path d="M910.381 265.363C913.941 266.102 916.225 269.596 915.486 273.18C914.747 276.741 911.254 279.026 907.672 278.287C904.112 277.548 901.828 274.053 902.567 270.47C903.328 266.908 906.821 264.601 910.381 265.363Z" fill="#4DA370"/>
<path d="M883.109 395.748C886.67 396.487 888.953 399.981 888.214 403.565C887.476 407.127 883.983 409.411 880.4 408.672C876.84 407.933 874.556 404.439 875.295 400.855C876.056 397.294 879.549 395.009 883.109 395.748Z" fill="#043C5E"/>
<path d="M887.117 376.597C890.677 377.336 892.961 380.83 892.222 384.414C891.483 387.976 887.99 390.26 884.408 389.521C880.848 388.782 878.564 385.288 879.303 381.704C880.064 378.142 883.557 375.858 887.117 376.597Z" fill="#4DA370"/>
<path d="M1099.56 185.577C1099.56 185.577 1028.61 344.432 1016.22 396.353C956.844 377.246 920.168 358.341 920.168 358.341C920.168 358.341 980.175 150.724 997.841 145.326C1017.07 147.946 1016.63 147.879 1099.56 185.577Z" fill="#4DA370"/>
<path d="M1030.15 168.733C1024.55 180.604 1007.92 186.652 997.886 180.94C974.981 192.722 940.477 331.754 940.477 331.754C940.544 331.776 940.633 331.798 940.7 331.821C952.411 335.853 958.053 350.255 953.911 361.5L987.855 374.939C992.803 363.18 1006.04 358.297 1017.77 362.329C1017.88 362.373 1017.97 362.418 1018.08 362.463L1079.97 212.12C1079.21 211.941 1078.47 211.717 1077.73 211.448C1066.02 207.416 1058.27 192.162 1062.39 180.94L1030.31 168.24C1030.24 168.419 1030.22 168.576 1030.15 168.733Z" fill="url(#paint1_linear)"/>
<path d="M1017.81 248.541C1031.99 254.141 1038.93 270.178 1033.33 284.357C1027.73 298.536 1011.7 305.48 997.527 299.88C983.354 294.28 976.412 278.242 982.01 264.064C987.608 249.885 1003.64 242.941 1017.81 248.541Z" fill="white"/>
<path d="M1029.03 281.781L1023.7 280.28C1020.86 286.888 1015.49 289.33 1011.19 288.12C1006.35 286.754 1004.47 282.498 1004.11 275.017C1003.78 268.678 1003.04 265.811 1000.22 265.027C998.044 264.422 995.961 265.923 994.528 271.052C993.341 275.308 993.543 277.973 993.789 279.541L988.998 280.348C988.617 278.153 988.505 275.173 989.513 271.164L984.229 269.686L985.393 265.564L990.901 267.11C993.431 261.219 997.954 258.24 1002.48 259.516C1007.22 260.838 1008.54 265.743 1008.81 273.135C1009.06 278.511 1010.2 281.647 1013.18 282.476C1016.29 283.349 1019.09 280.684 1020.41 275.957C1021.46 272.217 1021.31 268.79 1020.66 266.035L1025.16 265.228C1025.88 267.939 1026.05 272.306 1025.02 276.181L1030.2 277.637L1029.03 281.781Z" fill="#4DA370"/>
<path d="M985.602 264.925L984.256 269.735L1028.95 282.249L1030.3 277.439L985.602 264.925Z" fill="#4DA370"/>
<path d="M1027.71 224.574C1031.09 225.918 1032.75 229.748 1031.43 233.13C1030.08 236.513 1026.26 238.17 1022.87 236.849C1019.49 235.505 1017.84 231.674 1019.16 228.292C1020.5 224.91 1024.33 223.252 1027.71 224.574Z" fill="#4DA370"/>
<path d="M1035.05 206.005C1038.44 207.349 1040.09 211.179 1038.77 214.561C1037.43 217.944 1033.6 219.601 1030.22 218.28C1026.84 216.936 1025.18 213.105 1026.5 209.723C1027.84 206.318 1031.67 204.661 1035.05 206.005Z" fill="#4DA370"/>
<path d="M986.086 329.872C989.467 331.216 991.124 335.046 989.803 338.429C988.459 341.811 984.63 343.468 981.249 342.147C977.868 340.803 976.211 336.973 977.532 333.59C978.876 330.208 982.705 328.551 986.086 329.872Z" fill="#043C5E"/>
<path d="M993.273 311.684C996.654 313.028 998.311 316.858 996.99 320.241C995.647 323.623 991.818 325.28 988.437 323.959C985.056 322.615 983.399 318.785 984.72 315.402C986.063 311.998 989.892 310.34 993.273 311.684Z" fill="#4DA370"/>
<path d="M1161 322.212C1161 322.212 1021.93 426.681 985.929 466.081C943.252 420.566 920.369 386.251 920.369 386.251C920.369 386.251 1073.52 233.825 1091.59 237.655C1107.11 249.28 1106.75 248.989 1161 322.212Z" fill="#4DA370"/>
<path d="M1108.47 273.785C1097.84 281.445 1080.35 278.668 1074.35 268.812C1048.6 268.006 950.999 372.834 950.999 372.834C951.044 372.901 951.111 372.946 951.156 372.99C959.441 382.197 957.381 397.518 948.312 405.335L971.487 433.558C981.518 425.673 995.445 427.824 1003.77 437.052C1003.84 437.142 1003.91 437.231 1003.98 437.321L1131 335.898C1130.44 335.36 1129.88 334.822 1129.36 334.218C1121.08 325.012 1121.68 307.921 1130.75 300.104L1108.85 273.426C1108.7 273.561 1108.61 273.695 1108.47 273.785Z" fill="url(#paint2_linear)"/>
<path d="M1058.99 337.6C1068.66 349.382 1066.96 366.764 1055.18 376.44C1043.41 386.116 1026.03 384.414 1016.36 372.632C1006.69 360.85 1008.39 343.469 1020.17 333.792C1031.92 324.116 1049.32 325.818 1058.99 337.6Z" fill="white"/>
<path d="M1053.53 371.333L1049.39 367.66C1043.94 372.341 1038.03 372.184 1034.7 369.228C1030.94 365.89 1031.11 361.253 1034.07 354.332C1036.53 348.486 1037.14 345.596 1034.94 343.648C1033.24 342.147 1030.73 342.595 1027.2 346.582C1024.26 349.897 1023.28 352.361 1022.83 353.906L1018.15 352.518C1018.75 350.39 1019.96 347.657 1022.63 344.476L1018.53 340.825L1021.37 337.622L1025.65 341.408C1030.51 337.219 1035.88 336.525 1039.4 339.638C1043.07 342.909 1042.13 347.881 1039.15 354.668C1037.03 359.618 1036.67 362.911 1039 364.972C1041.41 367.122 1045.09 365.935 1048.36 362.261C1050.93 359.372 1052.27 356.214 1052.92 353.459L1057.33 354.713C1056.8 357.468 1055.05 361.477 1052.43 364.501L1056.46 368.063L1053.53 371.333Z" fill="#4DA370"/>
<path d="M1021.81 337.121L1018.5 340.858L1053.22 371.666L1056.54 367.929L1021.81 337.121Z" fill="#4DA370"/>
<path d="M1079.25 321.45C1081.56 324.272 1081.16 328.416 1078.33 330.746C1075.51 333.053 1071.37 332.65 1069.04 329.827C1066.74 327.005 1067.14 322.861 1069.96 320.532C1072.78 318.225 1076.95 318.628 1079.25 321.45Z" fill="#4DA370"/>
<path d="M1094.7 308.772C1097.01 311.594 1096.61 315.738 1093.79 318.068C1090.96 320.375 1086.82 319.972 1084.49 317.149C1082.19 314.327 1082.59 310.183 1085.41 307.854C1088.23 305.547 1092.38 305.95 1094.7 308.772Z" fill="#4DA370"/>
<path d="M991.796 393.329C994.102 396.151 993.699 400.295 990.878 402.624C988.056 404.932 983.914 404.528 981.585 401.706C979.279 398.884 979.682 394.74 982.503 392.41C985.325 390.103 989.489 390.507 991.796 393.329Z" fill="#043C5E"/>
<path d="M1006.91 380.92C1009.22 383.742 1008.81 387.886 1005.99 390.215C1003.17 392.522 999.027 392.119 996.699 389.297C994.393 386.475 994.796 382.331 997.617 380.001C1000.44 377.694 1004.6 378.098 1006.91 380.92Z" fill="#4DA370"/>
<path d="M599.734 414.071H280.622V535.81H599.734V414.071Z" fill="#60CC8C"/>
<path d="M469.331 227.284H241.528V416.96H469.331V227.284Z" fill="#60CC8C"/>
<path d="M751.184 227.284H468.278V416.96H751.184V227.284Z" fill="#4DA370"/>
<path d="M454.083 244.755H268.285V399.534H454.083V244.755Z" fill="#DFEFEA"/>
<path d="M387.215 271.081L341.03 319.041L342.546 320.502L388.731 272.542L387.215 271.081Z" fill="white"/>
<path d="M377.739 302.862L331.555 350.816L333.07 352.277L379.255 304.323L377.739 302.862Z" fill="white"/>
<path d="M571.678 245.875H489.796V399.511H571.678V245.875Z" fill="url(#paint3_linear)"/>
<path d="M549.357 284.2L515.793 319.053L517.315 320.509L549.357 287.224V284.2Z" fill="white"/>
<path d="M515.77 341.027V344.051L549.356 309.175V306.151L515.77 341.027Z" fill="white"/>
<path d="M838.038 280.146H593.442V535.787H838.038V280.146Z" fill="#4DA370"/>
<path d="M698.947 302.836H618.632V535.788H698.947V302.836Z" fill="url(#paint4_linear)"/>
<path d="M685.868 365.821L639.684 413.781L641.199 415.241L687.384 367.281L685.868 365.821Z" fill="white"/>
<path d="M676.411 397.566L630.227 445.526L631.742 446.987L677.927 399.027L676.411 397.566Z" fill="white"/>
<path d="M565.096 433.177H315.261V520.041H565.096V433.177Z" fill="url(#paint5_linear)"/>
<path d="M456.12 444.444L421.057 480.842L422.579 482.298L459.031 444.444H456.12Z" fill="white"/>
<path d="M425.557 501.158L459.322 466.104L457.8 464.648L422.646 501.158H425.557Z" fill="white"/>
<path d="M805.505 315.514H734.123V386.923H805.505V315.514Z" fill="url(#paint6_linear)"/>
<path d="M805.505 431.094H734.123V502.502H805.505V431.094Z" fill="url(#paint7_linear)"/>
<path d="M785.733 322.884L750.669 359.282L752.191 360.738L788.643 322.884H785.733Z" fill="white"/>
<path d="M755.17 379.576L788.935 344.521L787.412 343.065L752.259 379.576H755.17Z" fill="white"/>
<path d="M785.599 438.441L750.535 474.862L752.058 476.318L788.51 438.441H785.599Z" fill="white"/>
<path d="M755.036 495.155L788.801 460.101L787.278 458.645L752.125 495.155H755.036Z" fill="white"/>
<path d="M221.197 216.913C221.197 216.913 270.837 411.517 274.756 473.048C346.048 462.946 391.456 448.633 391.456 448.633C391.456 448.633 363.803 200.674 344.771 191.065C322.403 190.258 322.94 190.236 221.197 216.913Z" fill="#4DA370"/>
<path d="M303.483 211.336C307.536 225.94 325.269 236.065 337.785 231.562C361.519 249.459 373.588 414.384 373.588 414.384C373.498 414.407 373.409 414.407 373.319 414.407C359.213 416.714 349.988 431.99 352.474 445.564L311.23 454.187C307.916 439.83 293.81 431.676 279.659 433.983C279.525 434.006 279.413 434.051 279.279 434.073L238.281 250.915C239.177 250.848 240.073 250.758 240.968 250.602C255.074 248.295 266.897 232.481 264.389 218.884L303.393 210.731C303.416 210.955 303.416 211.134 303.483 211.336Z" fill="url(#paint8_linear)"/>
<path d="M301.893 304.539C284.675 308.145 273.636 325.012 277.241 342.236C280.846 359.461 297.728 370.504 314.924 366.898C332.143 363.292 343.181 346.403 339.577 329.2C335.972 311.975 319.111 300.955 301.893 304.539Z" fill="white"/>
<path d="M282.168 333.837L288.37 333.546C288.213 328.909 289.535 324.048 291.035 321.181L295.893 323.264C294.46 326.221 293.408 330.029 293.632 334.486C293.901 340.153 296.386 343.872 300.103 343.692C303.685 343.513 305.745 340.31 307.425 334.307C309.641 326.042 312.395 320.868 318.06 320.599C323.479 320.33 327.8 324.832 329.144 332.135L335.726 331.821L335.973 336.771L329.659 337.085C329.771 341.878 328.875 345.193 327.89 347.567L322.695 345.44C323.389 343.737 324.307 340.803 324.061 335.696C323.77 329.559 321.822 327.341 319.202 327.453C315.821 327.61 314.254 330.656 312.261 337.712C309.91 346.067 306.731 350.367 300.931 350.659C295.781 350.905 290.363 346.783 288.84 338.608L282.459 338.921L282.168 333.837Z" fill="#4DA370"/>
<path d="M335.659 331.032L282.143 333.635L282.422 339.384L335.938 336.782L335.659 331.032Z" fill="#4DA370"/>
<path d="M295.31 275.353C291.191 276.204 288.548 280.258 289.422 284.38C290.273 288.501 294.325 291.144 298.445 290.27C302.565 289.419 305.207 285.365 304.334 281.244C303.461 277.122 299.43 274.479 295.31 275.353Z" fill="#4DA370"/>
<path d="M290.586 252.774C286.466 253.626 283.824 257.68 284.697 261.801C285.548 265.923 289.601 268.566 293.721 267.692C297.84 266.841 300.482 262.787 299.609 258.665C298.736 254.544 294.706 251.901 290.586 252.774Z" fill="#4DA370"/>
<path d="M322.067 403.296C317.947 404.148 315.305 408.202 316.179 412.323C317.029 416.445 321.082 419.088 325.202 418.214C329.322 417.363 331.964 413.309 331.091 409.187C330.217 405.088 326.187 402.445 322.067 403.296Z" fill="#043C5E"/>
<path d="M317.432 381.189C313.313 382.04 310.671 386.094 311.544 390.215C312.395 394.337 316.447 396.98 320.567 396.106C324.687 395.255 327.329 391.201 326.456 387.08C325.583 382.98 321.552 380.337 317.432 381.189Z" fill="#4DA370"/>
<path d="M72.1875 160.669C72.1875 160.669 154.092 344.051 168.378 403.991C236.938 381.95 279.256 360.111 279.256 360.111C279.256 360.111 210.002 120.463 189.604 114.213C167.415 117.237 167.952 117.148 72.1875 160.669Z" fill="#4DA370"/>
<path d="M152.323 141.227C158.772 154.935 177.983 161.901 189.559 155.338C216.002 168.957 255.835 329.447 255.835 329.447C255.746 329.469 255.656 329.491 255.589 329.514C242.087 334.173 235.572 350.793 240.341 363.762L201.157 379.262C195.448 365.666 180.177 360.044 166.609 364.725C166.474 364.77 166.362 364.837 166.25 364.882L94.8018 191.311C95.675 191.087 96.5258 190.841 97.3991 190.55C110.901 185.891 119.879 168.307 115.11 155.338L152.144 140.667C152.211 140.846 152.256 141.047 152.323 141.227Z" fill="url(#paint9_linear)"/>
<path d="M166.564 233.354C150.218 239.828 142.203 258.329 148.673 274.703C155.144 291.054 173.639 299.073 190.007 292.622C206.352 286.149 214.368 267.647 207.897 251.274C201.426 234.9 182.931 226.881 166.564 233.354Z" fill="white"/>
<path d="M152.257 266.886L158.235 265.206C157.048 260.726 157.272 255.686 158.078 252.573L163.295 253.513C162.557 256.694 162.377 260.659 163.587 264.959C165.109 270.425 168.356 273.494 171.938 272.486C175.386 271.522 176.685 267.916 176.999 261.712C177.312 253.155 178.857 247.51 184.32 245.987C189.537 244.531 194.777 247.958 197.688 254.768L204.046 252.998L205.39 257.769L199.3 259.472C200.464 264.131 200.33 267.558 199.904 270.089L194.351 269.17C194.665 267.334 194.889 264.287 193.5 259.36C191.844 253.446 189.448 251.699 186.94 252.416C183.671 253.334 182.842 256.627 182.439 263.952C182.014 272.62 179.865 277.525 174.267 279.093C169.296 280.482 163.094 277.66 159.802 270.044L153.645 271.769L152.257 266.886Z" fill="#4DA370"/>
<path d="M203.81 252.235L152.212 266.681L153.763 272.224L205.361 257.779L203.81 252.235Z" fill="#4DA370"/>
<path d="M155.122 205.691C151.203 207.237 149.3 211.672 150.845 215.569C152.39 219.489 156.823 221.393 160.719 219.848C164.638 218.302 166.541 213.867 164.996 209.97C163.473 206.072 159.04 204.146 155.122 205.691Z" fill="#4DA370"/>
<path d="M146.659 184.255C142.74 185.801 140.837 190.236 142.382 194.133C143.927 198.053 148.361 199.957 152.256 198.412C156.175 196.866 158.078 192.431 156.533 188.534C154.988 184.614 150.555 182.687 146.659 184.255Z" fill="#4DA370"/>
<path d="M203.195 327.251C199.277 328.797 197.373 333.232 198.918 337.13C200.463 341.049 204.897 342.953 208.793 341.408C212.711 339.862 214.614 335.427 213.069 331.53C211.524 327.632 207.113 325.706 203.195 327.251Z" fill="#043C5E"/>
<path d="M194.888 306.264C190.97 307.809 189.067 312.244 190.612 316.142C192.157 320.061 196.59 321.965 200.486 320.42C204.404 318.874 206.308 314.439 204.763 310.542C203.218 306.622 198.807 304.718 194.888 306.264Z" fill="#4DA370"/>
<path d="M1.27637 318.404C1.27637 318.404 161.817 439.001 203.397 484.493C252.656 431.945 279.077 392.321 279.077 392.321C279.077 392.321 102.258 216.353 81.4349 220.811C63.4776 234.205 63.903 233.869 1.27637 318.404Z" fill="#4DA370"/>
<path d="M61.9105 262.496C74.203 271.343 94.377 268.118 101.318 256.761C131.03 255.843 243.7 376.843 243.7 376.843C243.633 376.91 243.566 376.978 243.521 377.045C233.96 387.684 236.334 405.38 246.79 414.406L220.033 446.975C208.457 437.858 192.358 440.345 182.775 451.029C182.686 451.119 182.619 451.231 182.529 451.343L35.8926 334.262C36.5419 333.658 37.1912 333.008 37.7958 332.336C47.3566 321.696 46.6625 301.963 36.206 292.936L61.4851 262.137C61.6418 262.249 61.7538 262.384 61.9105 262.496Z" fill="url(#paint10_linear)"/>
<path d="M119.052 336.166C107.879 349.763 109.849 369.832 123.44 381.009C137.031 392.187 157.093 390.216 168.266 376.619C179.439 363.023 177.469 342.953 163.878 331.776C150.287 320.599 130.202 322.57 119.052 336.166Z" fill="white"/>
<path d="M122.007 371.355L126.641 367.234C123.619 363.717 121.604 359.103 120.977 355.922L126.059 354.489C126.798 357.669 128.365 361.321 131.321 364.658C135.083 368.891 139.337 370.258 142.113 367.772C144.8 365.397 144.397 361.589 141.934 355.855C138.486 348.038 137.389 342.281 141.643 338.496C145.696 334.89 151.898 335.696 157.496 340.534L162.422 336.166L165.713 339.862L160.966 344.073C164.056 347.747 165.444 350.883 166.139 353.346L160.742 354.937C160.227 353.167 159.085 350.3 155.704 346.492C151.629 341.9 148.719 341.385 146.771 343.11C144.24 345.372 144.912 348.71 147.778 355.452C151.182 363.426 151.383 368.779 147.039 372.632C143.188 376.059 136.359 376.238 130.09 370.818L125.298 375.074L122.007 371.355Z" fill="#4DA370"/>
<path d="M161.967 335.655L121.878 371.219L125.696 375.526L165.785 339.962L161.967 335.655Z" fill="#4DA370"/>
<path d="M95.6305 317.53C92.966 320.778 93.4362 325.572 96.6828 328.259C99.9295 330.925 104.721 330.455 107.408 327.207C110.072 323.959 109.602 319.165 106.356 316.478C103.109 313.812 98.295 314.282 95.6305 317.53Z" fill="#4DA370"/>
<path d="M77.8082 302.881C75.1437 306.129 75.6139 310.923 78.8606 313.611C82.1072 316.276 86.8988 315.806 89.5857 312.558C92.2502 309.31 91.78 304.516 88.5333 301.828C85.2867 299.163 80.4727 299.633 77.8082 302.881Z" fill="#4DA370"/>
<path d="M196.613 400.497C193.948 403.745 194.419 408.538 197.665 411.226C200.912 413.891 205.704 413.421 208.39 410.173C211.055 406.925 210.585 402.132 207.338 399.444C204.069 396.779 199.277 397.249 196.613 400.497Z" fill="#043C5E"/>
<path d="M179.148 386.161C176.484 389.409 176.954 394.203 180.2 396.89C183.447 399.556 188.239 399.086 190.926 395.838C193.59 392.59 193.12 387.796 189.873 385.109C186.627 382.443 181.835 382.913 179.148 386.161Z" fill="#4DA370"/>
<path d="M346.182 292.062H330.576V317.194H346.182V292.062Z" fill="#2A3D4B"/>
<path d="M407.912 402.804H173.796V534.959H407.912V402.804Z" fill="#4DA370"/>
<path d="M363.759 308.75H290.675H217.57L143.726 402.804H290.675H437.625L363.759 308.75Z" fill="#2A3D4B"/>
<path d="M332.389 374.805L291.594 332L250.82 375.141V534.959H332.389V374.805Z" fill="#60CC8C"/>
<path d="M303.998 478.983H280.018V534.959H303.998V478.983Z" fill="white"/>
<path d="M299.811 503.354C299.811 504.608 298.781 505.638 297.527 505.638C296.273 505.638 295.243 504.608 295.243 503.354C295.243 502.099 296.273 501.069 297.527 501.069C298.781 501.069 299.811 502.077 299.811 503.354Z" fill="white"/>
<path d="M228.609 490.407V442.607C228.609 431.184 221.242 421.843 212.241 421.843H211.48C202.479 421.843 195.112 431.184 195.112 442.607V490.407H228.609Z" fill="white"/>
<path d="M228.609 453.471H214.144V421.843H209.577V453.471H195.112V457.659H209.577V490.407H214.144V457.659H228.609V453.471Z" fill="#60CC8C"/>
<path d="M386.978 490.407V442.607C386.978 431.184 379.611 421.843 370.61 421.843H369.849C360.848 421.843 353.481 431.184 353.481 442.607V490.407H386.978Z" fill="white"/>
<path d="M386.978 453.471H372.513V421.843H367.946V453.471H353.481V457.659H367.946V490.407H372.513V457.659H386.978V453.471Z" fill="#60CC8C"/>
<path d="M303.304 407.732V381.637C303.304 375.41 298.803 370.303 293.295 370.303H292.825C287.317 370.303 282.816 375.41 282.816 381.637V407.732H303.304Z" fill="white"/>
<path d="M303.304 387.55H294.46V370.303H291.661V387.55H282.816V389.835H291.661V407.732H294.46V389.835H303.304V387.55Z" fill="#4DA370"/>
<path d="M340.539 377.605L291.033 325.258L241.55 377.605L246.297 381.189L291.033 333.501L335.77 381.189L340.539 377.605Z" fill="#4DA370"/>
<path d="M742.34 2.84475V437.231H924.152C924.152 437.231 904.762 163.514 823.551 62.2921C769.388 -5.26373 742.34 2.84475 742.34 2.84475Z" fill="#2A3D4B"/>
<path d="M801.429 67.5783C800.69 66.3463 800.152 65.1367 799.817 63.9496H742.34V70.1318H803.041C802.503 69.2806 801.944 68.4518 801.429 67.5783Z" fill="#60CC8C"/>
<path d="M811.191 81.8689H742.34V88.0511H815.781C814.258 85.9903 812.713 83.9296 811.191 81.8689Z" fill="#60CC8C"/>
<path d="M824.111 99.6986H742.34V105.881H828.006C826.775 103.798 825.476 101.737 824.111 99.6986Z" fill="#60CC8C"/>
<path d="M833.873 117.618H742.34V123.8H836C835.373 121.695 834.679 119.611 833.873 117.618Z" fill="#60CC8C"/>
<path d="M876.191 221.55C874.512 220.318 873.325 219.108 872.541 217.921H742.34V224.103H879.863C878.609 223.252 877.378 222.423 876.191 221.55Z" fill="#FFD04C"/>
<path d="M898.313 235.841H742.34V242.023H908.702C905.254 239.962 901.761 237.901 898.313 235.841Z" fill="#FFD04C"/>
<path d="M927.578 253.67H742.34V259.852H936.4C933.601 257.769 930.668 255.709 927.578 253.67Z" fill="#FFD04C"/>
<path d="M949.677 271.59H742.34V277.772H954.514C953.103 275.666 951.513 273.583 949.677 271.59Z" fill="#FFD04C"/>
<path d="M826.305 62.2697C772.142 -5.26376 742.34 0.0896307 742.34 0.0896307V12.8347C751.945 21.3912 776.754 46.7023 789.248 62.2697C870.459 163.514 876.079 437.231 876.079 437.231H928.294C928.294 437.231 907.516 163.514 826.305 62.2697Z" fill="#2A3D4B"/>
<path d="M770.082 159.751H618.43V535.832H770.082V159.751Z" fill="#60CC8C"/>
<path d="M752.258 363.448H736.294V383.227H752.258V363.448Z" fill="#60CC8C"/>
<path d="M706.157 321.54H690.192V340.848H706.157V321.54Z" fill="#60CC8C"/>
<path d="M706.157 363.448H690.192V383.227H706.157V363.448Z" fill="#60CC8C"/>
<path d="M659.897 321.54H643.933V340.848H659.897V321.54Z" fill="#60CC8C"/>
<path d="M659.897 363.448H643.933V383.227H659.897V363.448Z" fill="#60CC8C"/>
<path d="M752.258 407.037H736.294V426.345H752.258V407.037Z" fill="#60CC8C"/>
<path d="M706.157 407.037H690.192V426.345H706.157V407.037Z" fill="#60CC8C"/>
<path d="M706.157 449.797H690.192V469.105H706.157V449.797Z" fill="#60CC8C"/>
<path d="M659.897 407.037H643.933V426.345H659.897V407.037Z" fill="#60CC8C"/>
<path d="M874.176 322.615H729.936V535.832H874.176V322.615Z" fill="#4DA370"/>
<path d="M771.581 339.302H740.951V347.635H771.581V339.302Z" fill="url(#paint11_linear)"/>
<path d="M838.731 339.302H807.384V347.635H838.731V339.302Z" fill="url(#paint12_linear)"/>
<path d="M771.581 363.426H740.951V371.759H771.581V363.426Z" fill="url(#paint13_linear)"/>
<path d="M838.731 363.426H807.384V371.759H838.731V363.426Z" fill="url(#paint14_linear)"/>
<path d="M771.581 387.438H740.951V395.77H771.581V387.438Z" fill="url(#paint15_linear)"/>
<path d="M838.731 387.438H807.384V395.77H838.731V387.438Z" fill="url(#paint16_linear)"/>
<path d="M771.581 411.562H740.951V419.894H771.581V411.562Z" fill="url(#paint17_linear)"/>
<path d="M838.731 411.562H807.384V419.894H838.731V411.562Z" fill="url(#paint18_linear)"/>
<path d="M771.581 435.35H740.951V443.682H771.581V435.35Z" fill="url(#paint19_linear)"/>
<path d="M838.731 435.35H807.384V443.682H838.731V435.35Z" fill="url(#paint20_linear)"/>
<path d="M771.581 459.451H740.951V467.784H771.581V459.451Z" fill="url(#paint21_linear)"/>
<path d="M838.731 459.451H807.384V467.784H838.731V459.451Z" fill="url(#paint22_linear)"/>
<path d="M771.581 483.485H740.951V491.818H771.581V483.485Z" fill="url(#paint23_linear)"/>
<path d="M838.731 483.485H807.384V491.818H838.731V483.485Z" fill="url(#paint24_linear)"/>
<path d="M771.581 507.587H740.951V515.919H771.581V507.587Z" fill="url(#paint25_linear)"/>
<path d="M838.731 507.587H807.384V515.919H838.731V507.587Z" fill="url(#paint26_linear)"/>
<path d="M979.658 181.59H848.74V535.81H979.658V181.59Z" fill="#60CC8C"/>
<path d="M963.066 431.497H865.309V437.679H963.066V431.497Z" fill="#60CC8C"/>
<path d="M963.066 449.394H865.309V455.576H963.066V449.394Z" fill="#60CC8C"/>
<path d="M963.066 467.246H865.309V473.428H963.066V467.246Z" fill="#60CC8C"/>
<path d="M963.066 485.143H865.309V491.325H963.066V485.143Z" fill="#60CC8C"/>
<path d="M895.939 209.746H865.309V215.928H895.939V209.746Z" fill="#4DA370"/>
<path d="M963.066 209.746H931.719V215.928H963.066V209.746Z" fill="#4DA370"/>
<path d="M895.939 227.665H865.309V233.847H895.939V227.665Z" fill="#4DA370"/>
<path d="M963.066 227.665H931.719V233.847H963.066V227.665Z" fill="#4DA370"/>
<path d="M895.939 245.495H865.309V251.677H895.939V245.495Z" fill="#4DA370"/>
<path d="M963.066 245.495H931.719V251.677H963.066V245.495Z" fill="#4DA370"/>
<path d="M895.939 263.414H865.309V269.596H895.939V263.414Z" fill="#4DA370"/>
<path d="M963.066 263.414H931.719V269.596H963.066V263.414Z" fill="#4DA370"/>
<path d="M895.939 281.087H865.309V287.269H895.939V281.087Z" fill="#4DA370"/>
<path d="M963.066 281.087H931.719V287.269H963.066V281.087Z" fill="#4DA370"/>
<path d="M895.939 298.984H865.309V305.166H895.939V298.984Z" fill="#4DA370"/>
<path d="M963.066 298.984H931.719V305.166H963.066V298.984Z" fill="#4DA370"/>
<path d="M895.939 316.836H865.309V323.018H895.939V316.836Z" fill="#4DA370"/>
<path d="M963.066 316.836H931.719V323.018H963.066V316.836Z" fill="#4DA370"/>
<path d="M895.939 334.733H865.309V340.915H895.939V334.733Z" fill="#4DA370"/>
<path d="M963.066 334.733H931.719V340.915H963.066V334.733Z" fill="#4DA370"/>
<path d="M1038.03 387.998H920.367V536.684H1038.03V387.998Z" fill="white"/>
<path d="M1022.27 407.687H1010.18V426.995H1022.27V407.687Z" fill="#60CC8C"/>
<path d="M1022.27 449.573H1010.18V469.352H1022.27V449.573Z" fill="#60CC8C"/>
<path d="M987.384 407.687H975.293V426.995H987.384V407.687Z" fill="#60CC8C"/>
<path d="M987.384 449.573H975.293V469.352H987.384V449.573Z" fill="#60CC8C"/>
<path d="M952.365 407.687H940.273V426.995H952.365V407.687Z" fill="#60CC8C"/>
<path d="M952.365 449.573H940.273V469.352H952.365V449.573Z" fill="#60CC8C"/>
<path d="M1022.27 493.184H1010.18V512.492H1022.27V493.184Z" fill="#60CC8C"/>
<path d="M952.365 493.184H940.273V512.492H952.365V493.184Z" fill="#60CC8C"/>
<path d="M752.258 189.25H736.294V208.558H752.258V189.25Z" fill="#60CC8C"/>
<path d="M752.258 231.159H736.294V250.938H752.258V231.159Z" fill="#60CC8C"/>
<path d="M706.157 189.25H690.192V208.558H706.157V189.25Z" fill="#60CC8C"/>
<path d="M706.157 231.159H690.192V250.938H706.157V231.159Z" fill="#60CC8C"/>
<path d="M659.897 189.25H643.933V208.558H659.897V189.25Z" fill="#60CC8C"/>
<path d="M659.897 231.159H643.933V250.938H659.897V231.159Z" fill="#60CC8C"/>
<path d="M752.258 274.748H736.294V294.056H752.258V274.748Z" fill="#60CC8C"/>
<path d="M706.157 274.748H690.192V294.056H706.157V274.748Z" fill="#60CC8C"/>
<path d="M659.897 274.748H643.933V294.056H659.897V274.748Z" fill="#60CC8C"/>
<path d="M619.594 481.022H376.432V506.579H619.594V481.022Z" fill="#AFC2D5"/>
<path d="M604.167 455.509H378.962C378.962 455.509 366.803 455.509 358.922 471.3C352.093 484.964 357.086 510.969 358.564 517.174H377.081V516.748C377.081 499.143 391.366 484.852 408.965 484.852C426.564 484.852 440.849 499.143 440.849 516.748V517.174H555.87V516.748C555.87 499.143 570.155 484.852 587.754 484.852C605.353 484.852 619.639 499.143 619.639 516.748V517.174H624.43C624.43 517.174 624.43 503.421 624.43 484.113C624.43 464.782 604.167 455.509 604.167 455.509Z" fill="#2A3D4B"/>
<path d="M451.463 455.509H538.697L532.472 423.635H481.892L451.463 455.509Z" fill="white"/>
<path d="M451.463 517.286V455.509L477.996 423.613H532.495L538.674 455.509C538.674 455.509 542.727 459.989 546.131 463.393C549.534 466.798 549.758 473.854 549.758 473.854V517.084L451.463 517.286Z" fill="#394C5A"/>
<path d="M538.697 455.509L532.517 423.635H478.018L451.463 455.509H538.697Z" fill="#E2FCEC"/>
<path d="M414.361 455.509C414.361 455.509 456.792 417.318 472.152 417.318C475.354 420.521 478.018 423.613 478.018 423.613L451.485 455.509H414.361Z" fill="#E2FCEC"/>
<path d="M472.151 417.341H576.649L584.866 423.635H477.906L472.151 417.341Z" fill="#394C5A"/>
<path d="M604.167 455.509C604.167 455.509 602.04 436.425 584.866 423.613C570.268 423.613 536.346 423.613 536.346 423.613L542.526 455.509H604.167Z" fill="#E2FCEC"/>
<path d="M533.144 476.43C538.214 476.43 542.324 475.668 542.324 474.727C542.324 473.787 538.214 473.025 533.144 473.025C528.074 473.025 523.964 473.787 523.964 474.727C523.964 475.668 528.074 476.43 533.144 476.43Z" fill="#FF6584"/>
<path d="M595.837 470.382C595.837 474.503 592.501 477.841 588.381 477.841C584.261 477.841 580.925 474.503 580.925 470.382C580.925 466.261 584.261 462.923 588.381 462.923C592.501 462.901 595.837 466.261 595.837 470.382Z" fill="#FF6584"/>
<path d="M408.809 543C423.537 543 435.476 531.056 435.476 516.323C435.476 501.589 423.537 489.645 408.809 489.645C394.081 489.645 382.142 501.589 382.142 516.323C382.142 531.056 394.081 543 408.809 543Z" fill="#2A3D4B"/>
<path d="M587.978 543C602.706 543 614.645 531.056 614.645 516.323C614.645 501.589 602.706 489.645 587.978 489.645C573.25 489.645 561.311 501.589 561.311 516.323C561.311 531.056 573.25 543 587.978 543Z" fill="#2A3D4B"/>
<path d="M372.625 465.745C372.043 465.275 371.304 465.073 370.498 465.096L361.743 475.735C361.878 476.542 362.213 477.236 362.796 477.706C364.721 479.297 368.505 477.908 371.214 474.593C373.924 471.3 374.573 467.336 372.625 465.745Z" fill="#FF6584"/>
<path d="M412.791 532.727C421.846 530.607 427.468 521.545 425.349 512.487C423.23 503.429 414.171 497.804 405.117 499.925C396.062 502.045 390.44 511.106 392.559 520.165C394.678 529.223 403.737 534.847 412.791 532.727Z" fill="#4DA370"/>
<path d="M412.791 532.727C421.846 530.607 427.468 521.545 425.349 512.487C423.23 503.429 414.171 497.804 405.117 499.925C396.062 502.045 390.44 511.106 392.559 520.165C394.678 529.223 403.737 534.847 412.791 532.727Z" fill="#E2FCEC"/>
<path d="M599.879 528.239C606.455 521.662 606.455 510.997 599.879 504.419C593.304 497.841 582.643 497.841 576.067 504.419C569.492 510.996 569.492 521.662 576.067 528.239C582.643 534.817 593.304 534.817 599.879 528.239Z" fill="#E2FCEC"/>
<path d="M536.412 423.635H532.472L538.696 455.509H542.525L536.412 423.635Z" fill="#394C5A"/>
<path d="M449.134 455.509L477.436 422.403L481.085 423.277L453.925 455.509H449.134Z" fill="#394C5A"/>
<path d="M459.903 456.763C460.15 460.885 457.866 464.357 454.821 464.558C451.776 464.76 449.089 461.557 448.842 457.435C448.596 453.314 450.88 449.842 453.925 449.641C456.993 449.461 459.657 452.642 459.903 456.763Z" fill="#2A3D4B"/>
<path d="M1071.75 390.439H859.777V532.114H1071.75V390.439Z" fill="#60CC8C"/>
<path d="M873.772 390.439H855.859V532.114H873.772V390.439Z" fill="#4DA370"/>
<path d="M1078.65 390.439H1060.73V532.114H1078.65V390.439Z" fill="#4DA370"/>
<path d="M1078.64 536.696V518.776H855.854V536.696H1078.64Z" fill="#60CC8C"/>
<path d="M1088.72 361.321H967.812H846.903C846.903 390.439 826.191 417.878 826.191 417.878H967.812H1109.43C1109.43 417.878 1088.72 390.439 1088.72 361.321Z" fill="#2A3D4B"/>
<path d="M826.818 417.318C827.423 423.344 832.483 428.025 838.663 428.025C844.843 428.025 849.903 423.321 850.508 417.318H826.818Z" fill="#394C5A"/>
<path d="M850.016 417.318C850.62 423.344 855.68 428.025 861.86 428.025C868.04 428.025 873.1 423.321 873.705 417.318H850.016Z" fill="#394C5A"/>
<path d="M873.748 417.318C874.353 423.344 879.413 428.025 885.593 428.025C891.773 428.025 896.833 423.321 897.437 417.318H873.748Z" fill="#394C5A"/>
<path d="M896.967 417.318C897.571 423.344 902.632 428.025 908.811 428.025C914.991 428.025 920.052 423.321 920.656 417.318H896.967Z" fill="#394C5A"/>
<path d="M920.926 417.318C921.53 423.344 926.591 428.025 932.77 428.025C938.95 428.025 944.01 423.321 944.615 417.318H920.926Z" fill="#394C5A"/>
<path d="M944.145 417.318C944.749 423.344 949.809 428.025 955.989 428.025C962.169 428.025 967.229 423.321 967.834 417.318H944.145Z" fill="#394C5A"/>
<path d="M967.879 417.318C968.483 423.344 973.544 428.025 979.723 428.025C985.903 428.025 990.963 423.321 991.568 417.318H967.879Z" fill="#394C5A"/>
<path d="M991.098 417.318C991.702 423.344 996.762 428.025 1002.94 428.025C1009.12 428.025 1014.18 423.321 1014.79 417.318H991.098Z" fill="#394C5A"/>
<path d="M1015.59 417.318C1016.2 423.344 1021.26 428.025 1027.44 428.025C1033.62 428.025 1038.68 423.321 1039.28 417.318H1015.59Z" fill="#394C5A"/>
<path d="M1038.81 417.318C1039.42 423.344 1044.48 428.025 1050.66 428.025C1056.84 428.025 1061.9 423.321 1062.5 417.318H1038.81Z" fill="#394C5A"/>
<path d="M1062.55 417.318C1063.15 423.344 1068.21 428.025 1074.39 428.025C1080.57 428.025 1085.63 423.321 1086.24 417.318H1062.55Z" fill="#394C5A"/>
<path d="M1085.74 417.318C1086.35 423.344 1091.41 428.025 1097.59 428.025C1103.77 428.025 1108.83 423.321 1109.43 417.318H1085.74Z" fill="#394C5A"/>
<path d="M1050.64 433.849H885.393V518.361H1050.64V433.849Z" fill="url(#paint27_linear)"/>
<path d="M968.372 433.849H966.133V518.921H968.372V433.849Z" fill="#4DA370"/>
<path d="M87.368 503.958H15.4717V533.794H87.368V503.958Z" fill="#F7A605"/>
<path d="M188.283 503.958H129.955V533.794H188.283V503.958Z" fill="#FFD247"/>
<path d="M143.322 503.958H87.3682V533.794H143.322V503.958Z" fill="#FCBC00"/>
<path d="M189.447 534.959H14.3076V502.794H189.47V534.959H189.447ZM16.6362 532.629H187.141V505.123H16.6362V532.629Z" fill="#F49742"/>
<path d="M106.892 474.123H34.9961V503.959H106.892V474.123Z" fill="#F7A605"/>
<path d="M207.807 474.123H149.479V503.958H207.807V474.123Z" fill="#FFD247"/>
<path d="M162.869 474.123H106.893V503.958H162.869V474.123Z" fill="#FCBC00"/>
<path d="M208.972 505.123H33.832V472.958H208.994V505.123H208.972ZM36.1383 502.793H206.643V475.287H36.1383V502.793Z" fill="#F49742"/>
<path d="M73.0604 444.31H1.16406V474.145H73.0604V444.31Z" fill="#F7A605"/>
<path d="M173.975 444.309H115.647V474.145H173.975V444.309Z" fill="#FFD247"/>
<path d="M129.015 444.309H73.0605V474.145H129.015V444.309Z" fill="#FCBC00"/>
<path d="M175.162 475.287H0V443.122H175.162V475.287ZM2.32863 472.98H172.833V445.474H2.32863V472.98Z" fill="#F49742"/>
<path d="M85.4198 414.474H13.5234V444.31H85.4198V414.474Z" fill="#F7A605"/>
<path d="M186.335 414.474H128.007V444.309H186.335V414.474Z" fill="#FFD247"/>
<path d="M141.374 414.474H85.4199V444.309H141.374V414.474Z" fill="#FCBC00"/>
<path d="M187.521 445.474H12.3594V413.309H187.521V445.474ZM14.688 443.145H185.193V415.639H14.688V443.145Z" fill="#F49742"/>
<path d="M100.826 384.638H28.9297V414.474H100.826V384.638Z" fill="#F7A605"/>
<path d="M201.763 384.638H143.436V414.474H201.763V384.638Z" fill="#FFD247"/>
<path d="M156.825 384.638H100.849V414.474H156.825V384.638Z" fill="#FCBC00"/>
<path d="M202.927 415.638H27.7871V383.473H202.949V415.638H202.927ZM30.0933 413.309H200.598V385.803H30.0933V413.309Z" fill="#F49742"/>
<path d="M117.752 352.473H45.8555V382.309H117.752V352.473Z" fill="#F7A605"/>
<path d="M218.666 352.473H160.339V382.309H218.666V352.473Z" fill="#FFD247"/>
<path d="M173.706 352.473H117.752V382.309H173.706V352.473Z" fill="#FCBC00"/>
<path d="M219.831 383.451H44.6914V351.286H219.853V383.451H219.831ZM47.02 381.144H217.525V353.638H47.02V381.144Z" fill="#F49742"/>
<path d="M137.276 322.638H65.3799V352.473H137.276V322.638Z" fill="#F7A605"/>
<path d="M238.191 322.637H179.863V352.473H238.191V322.637Z" fill="#FFD247"/>
<path d="M193.253 322.637H137.276V352.473H193.253V322.637Z" fill="#FCBC00"/>
<path d="M239.355 353.638H64.2158V321.472H239.355V353.638ZM66.5445 351.308H237.049V323.802H66.5445V351.308Z" fill="#F49742"/>
<path d="M103.444 292.802H31.5479V322.638H103.444V292.802Z" fill="#F7A605"/>
<path d="M204.359 292.802H146.031V322.637H204.359V292.802Z" fill="#FFD247"/>
<path d="M159.399 292.802H103.444V322.637H159.399V292.802Z" fill="#FCBC00"/>
<path d="M205.546 323.802H30.3838V291.637H205.546V323.802ZM32.7124 321.473H203.217V293.966H32.7124V321.473Z" fill="#F49742"/>
<path d="M115.804 262.966H43.9072V292.802H115.804V262.966Z" fill="#F7A605"/>
<path d="M216.718 262.966H158.391V292.802H216.718V262.966Z" fill="#FFD247"/>
<path d="M171.78 262.966H115.826V292.802H171.78V262.966Z" fill="#FCBC00"/>
<path d="M217.905 293.966H42.7432V261.801H217.905V293.966ZM45.0718 291.637H215.577V264.131H45.0718V291.637Z" fill="#F49742"/>
<path d="M131.231 233.131H59.335V262.966H131.231V233.131Z" fill="#F7A605"/>
<path d="M232.146 233.13H173.818V262.966H232.146V233.13Z" fill="#FFD247"/>
<path d="M187.208 233.13H131.231V262.966H187.208V233.13Z" fill="#FCBC00"/>
<path d="M233.311 264.131H58.1709V231.966H233.311V264.131ZM60.4771 261.801H230.982V234.295H60.4771V261.801Z" fill="#F49742"/>
<path d="M502.841 194.955C540.047 157.735 540.047 97.3896 502.841 60.1697C465.635 22.9499 405.313 22.9498 368.107 60.1697C330.901 97.3896 330.901 157.735 368.107 194.955C405.313 232.175 465.635 232.175 502.841 194.955Z" fill="#FCBC00"/>
<path d="M428.423 200.472V183.673C415.884 183.494 402.92 179.26 395.374 174.848L401.621 161.946C409.391 166.179 419.578 169.539 431.669 169.539C447.007 169.539 457.374 163.357 457.374 153.277C457.374 143.556 448.955 137.553 432.968 132.245C410.936 125.166 397.322 117.035 397.322 101.67C397.322 86.9982 410.062 75.8659 429.945 73.2004V55.3259H443.335V72.4836C456.299 72.842 465.166 75.6643 471.435 78.6658L464.987 92.4412C460.441 90.3133 452.649 87.491 438.812 87.491C422.176 87.491 415.906 92.4636 415.906 99.5194C415.906 108.703 423.9 113.317 442.708 119.679C464.964 127.115 476.204 136.299 476.204 152.023C476.204 166 464.315 180.134 442.059 183.135V200.472H428.423Z" fill="#FFD247"/>
<path d="M443.491 55.3259H427.907V200.472H443.491V55.3259Z" fill="#FFD247"/>
<path d="M435.476 226.657C380.843 226.657 336.42 182.195 336.42 127.563C336.42 72.9092 380.865 28.4693 435.476 28.4693C490.087 28.4693 534.532 72.9316 534.532 127.563C534.532 182.195 490.087 226.657 435.476 226.657ZM435.476 36.0626C385.03 36.0626 344.01 77.1202 344.01 127.563C344.01 178.028 385.052 219.064 435.476 219.064C485.922 219.064 526.942 178.006 526.942 127.563C526.942 77.0978 485.922 36.0626 435.476 36.0626Z" fill="#F7A605"/>
</g>
<defs>
<linearGradient id="paint0_linear" x1="871.355" y1="435.428" x2="913.91" y2="232.025" gradientUnits="userSpaceOnUse">
<stop stop-color="#E0F0EB"/>
<stop offset="1" stop-color="#C0E4EF"/>
</linearGradient>
<linearGradient id="paint1_linear" x1="967.757" y1="366.979" x2="1044.21" y2="173.757" gradientUnits="userSpaceOnUse">
<stop stop-color="#E0F0EB"/>
<stop offset="1" stop-color="#C0E4EF"/>
</linearGradient>
<linearGradient id="paint2_linear" x1="957.78" y1="416.882" x2="1118.34" y2="285.029" gradientUnits="userSpaceOnUse">
<stop stop-color="#E0F0EB"/>
<stop offset="1" stop-color="#C0E4EF"/>
</linearGradient>
<linearGradient id="paint3_linear" x1="512.676" y1="238.428" x2="547.343" y2="400.144" gradientUnits="userSpaceOnUse">
<stop stop-color="#C0E4EE"/>
<stop offset="1" stop-color="#DFEFEA"/>
</linearGradient>
<linearGradient id="paint4_linear" x1="687.401" y1="313.848" x2="647.908" y2="459.356" gradientUnits="userSpaceOnUse">
<stop stop-color="#C0E4EE"/>
<stop offset="0.502" stop-color="#DFEFEA"/>
</linearGradient>
<linearGradient id="paint5_linear" x1="450.996" y1="477.475" x2="294.26" y2="465.076" gradientUnits="userSpaceOnUse">
<stop stop-color="#C0E4EE"/>
<stop offset="1" stop-color="#DFEFEA"/>
</linearGradient>
<linearGradient id="paint6_linear" x1="764.878" y1="320.676" x2="796.393" y2="515.997" gradientUnits="userSpaceOnUse">
<stop stop-color="#C0E4EE"/>
<stop offset="1" stop-color="#DFEFEA"/>
</linearGradient>
<linearGradient id="paint7_linear" x1="746.717" y1="323.606" x2="778.232" y2="518.927" gradientUnits="userSpaceOnUse">
<stop stop-color="#C0E4EE"/>
<stop offset="1" stop-color="#DFEFEA"/>
</linearGradient>
<linearGradient id="paint8_linear" x1="335.642" y1="449.104" x2="286.516" y2="214.289" gradientUnits="userSpaceOnUse">
<stop stop-color="#E0F0EB"/>
<stop offset="1" stop-color="#C0E4EF"/>
</linearGradient>
<linearGradient id="paint9_linear" x1="224.354" y1="370.084" x2="136.094" y2="147.024" gradientUnits="userSpaceOnUse">
<stop stop-color="#E0F0EB"/>
<stop offset="1" stop-color="#C0E4EF"/>
</linearGradient>
<linearGradient id="paint10_linear" x1="235.872" y1="427.693" x2="50.5157" y2="275.479" gradientUnits="userSpaceOnUse">
<stop stop-color="#E0F0EB"/>
<stop offset="1" stop-color="#C0E4EF"/>
</linearGradient>
<linearGradient id="paint11_linear" x1="740.959" y1="343.471" x2="771.581" y2="343.471" gradientUnits="userSpaceOnUse">
<stop stop-color="#DFEFEA"/>
<stop offset="1" stop-color="#C0E4ED"/>
</linearGradient>
<linearGradient id="paint12_linear" x1="807.381" y1="343.471" x2="838.72" y2="343.471" gradientUnits="userSpaceOnUse">
<stop stop-color="#DFEFEA"/>
<stop offset="1" stop-color="#C0E4ED"/>
</linearGradient>
<linearGradient id="paint13_linear" x1="740.959" y1="367.582" x2="771.581" y2="367.582" gradientUnits="userSpaceOnUse">
<stop stop-color="#DFEFEA"/>
<stop offset="1" stop-color="#C0E4ED"/>
</linearGradient>
<linearGradient id="paint14_linear" x1="807.381" y1="367.582" x2="838.72" y2="367.582" gradientUnits="userSpaceOnUse">
<stop stop-color="#DFEFEA"/>
<stop offset="1" stop-color="#C0E4ED"/>
</linearGradient>
<linearGradient id="paint15_linear" x1="740.959" y1="391.606" x2="771.581" y2="391.606" gradientUnits="userSpaceOnUse">
<stop stop-color="#DFEFEA"/>
<stop offset="1" stop-color="#C0E4ED"/>
</linearGradient>
<linearGradient id="paint16_linear" x1="807.381" y1="391.606" x2="838.72" y2="391.606" gradientUnits="userSpaceOnUse">
<stop stop-color="#DFEFEA"/>
<stop offset="1" stop-color="#C0E4ED"/>
</linearGradient>
<linearGradient id="paint17_linear" x1="740.959" y1="415.717" x2="771.581" y2="415.717" gradientUnits="userSpaceOnUse">
<stop stop-color="#DFEFEA"/>
<stop offset="1" stop-color="#C0E4ED"/>
</linearGradient>
<linearGradient id="paint18_linear" x1="807.381" y1="415.717" x2="838.72" y2="415.717" gradientUnits="userSpaceOnUse">
<stop stop-color="#DFEFEA"/>
<stop offset="1" stop-color="#C0E4ED"/>
</linearGradient>
<linearGradient id="paint19_linear" x1="740.959" y1="439.511" x2="771.581" y2="439.511" gradientUnits="userSpaceOnUse">
<stop stop-color="#DFEFEA"/>
<stop offset="1" stop-color="#C0E4ED"/>
</linearGradient>
<linearGradient id="paint20_linear" x1="807.381" y1="439.511" x2="838.72" y2="439.511" gradientUnits="userSpaceOnUse">
<stop stop-color="#DFEFEA"/>
<stop offset="1" stop-color="#C0E4ED"/>
</linearGradient>
<linearGradient id="paint21_linear" x1="740.959" y1="463.622" x2="771.581" y2="463.622" gradientUnits="userSpaceOnUse">
<stop stop-color="#DFEFEA"/>
<stop offset="1" stop-color="#C0E4ED"/>
</linearGradient>
<linearGradient id="paint22_linear" x1="807.381" y1="463.622" x2="838.72" y2="463.622" gradientUnits="userSpaceOnUse">
<stop stop-color="#DFEFEA"/>
<stop offset="1" stop-color="#C0E4ED"/>
</linearGradient>
<linearGradient id="paint23_linear" x1="740.959" y1="487.646" x2="771.581" y2="487.646" gradientUnits="userSpaceOnUse">
<stop stop-color="#DFEFEA"/>
<stop offset="1" stop-color="#C0E4ED"/>
</linearGradient>
<linearGradient id="paint24_linear" x1="807.381" y1="487.646" x2="838.72" y2="487.646" gradientUnits="userSpaceOnUse">
<stop stop-color="#DFEFEA"/>
<stop offset="1" stop-color="#C0E4ED"/>
</linearGradient>
<linearGradient id="paint25_linear" x1="740.959" y1="511.757" x2="771.581" y2="511.757" gradientUnits="userSpaceOnUse">
<stop stop-color="#DFEFEA"/>
<stop offset="1" stop-color="#C0E4ED"/>
</linearGradient>
<linearGradient id="paint26_linear" x1="807.381" y1="511.757" x2="838.72" y2="511.757" gradientUnits="userSpaceOnUse">
<stop stop-color="#DFEFEA"/>
<stop offset="1" stop-color="#C0E4ED"/>
</linearGradient>
<linearGradient id="paint27_linear" x1="968.022" y1="513.789" x2="968.022" y2="429.487" gradientUnits="userSpaceOnUse">
<stop stop-color="#DFEFEA"/>
<stop offset="1" stop-color="#C0E4ED"/>
</linearGradient>
<clipPath id="clip0">
<rect width="1161" height="543" fill="white"/>
</clipPath>
</defs>
</svg>
