<svg width="207" height="41" viewBox="0 0 207 41" fill="none" xmlns="http://www.w3.org/2000/svg">
<path d="M56.0761 14.6102H58.2187V16.0568C59.0554 15.0855 60.6675 14.3416 62.3204 14.3416C65.7486 14.3416 67.8912 16.9247 67.8912 20.5412C67.8912 24.2609 65.4017 27.1127 61.6061 27.1127C60.3205 27.1127 59.0554 26.8441 58.1983 26.2654V32.2584H56.0557V14.6102H56.0761ZM58.2391 18.0613V24.1163C59.3206 24.8395 60.3001 25.0669 61.4633 25.0669C64.0345 25.0669 65.6466 23.1863 65.6466 20.6031C65.6466 18.1233 64.2181 16.3668 61.7286 16.3668C60.3001 16.3668 58.9737 17.1107 58.2391 18.0613Z" fill="white"/>
<path d="M70.4624 14.6102H72.605V16.0568C73.2172 15.1269 74.1151 14.4036 75.6456 14.4036C76.6455 14.4036 77.1148 14.5689 77.5229 14.8582L76.7679 16.9041C76.1761 16.5528 75.8496 16.4494 75.1354 16.4494C73.7478 16.4494 73.0744 17.2967 72.605 18.1853V26.8441H70.4624V14.6102Z" fill="white"/>
<path d="M84.6652 14.3416C88.522 14.3416 91.0932 17.0487 91.0932 20.7271C91.0932 24.3849 88.522 27.1127 84.6652 27.1127C80.8085 27.1127 78.2373 24.4056 78.2373 20.7271C78.2373 17.0487 80.8085 14.3416 84.6652 14.3416ZM84.6652 25.0669C87.0732 25.0669 88.8281 23.331 88.8281 20.7271C88.8281 18.1646 87.0936 16.3874 84.6652 16.3874C82.2981 16.3874 80.5024 18.144 80.5024 20.7271C80.5228 23.269 82.2573 25.0669 84.6652 25.0669Z" fill="white"/>
<path d="M93.2561 17.7719C93.2561 15.6227 94.9702 14.3208 97.3577 14.3208C99.3371 14.3208 100.786 15.0441 101.521 15.7674L100.5 17.4206C99.7861 16.7593 98.7249 16.222 97.4598 16.222C96.2558 16.222 95.5212 16.9246 95.5212 17.7512C95.5212 20.3344 102.031 19.1152 102.031 23.3929C102.031 25.976 99.7861 27.092 97.3577 27.092C95.3987 27.092 93.4601 26.0587 92.9092 25.1908L94.1131 23.6409C94.807 24.4468 96.3986 25.1908 97.6026 25.1908C98.7249 25.1908 99.7452 24.6121 99.7452 23.5169C99.7656 21.037 93.2561 22.2563 93.2561 17.7719Z" fill="white"/>
<path d="M104.377 11.2004H106.52V14.5896H110.948V16.6354H106.52V21.9671C106.52 23.8889 107.132 25.0049 108.663 25.0049C109.499 25.0049 110.132 24.6536 110.561 24.3229L111.234 25.9968C110.581 26.5341 109.499 27.0301 108.153 27.0301C105.439 27.0301 104.377 25.2942 104.377 22.1737V11.2004Z" fill="white"/>
<path d="M118.744 14.3416C122.6 14.3416 125.171 17.0487 125.171 20.7271C125.171 24.3849 122.6 27.1127 118.744 27.1127C114.887 27.1127 112.316 24.4056 112.316 20.7271C112.295 17.0487 114.866 14.3416 118.744 14.3416ZM118.744 25.0669C121.151 25.0669 122.906 23.331 122.906 20.7271C122.906 18.1646 121.172 16.3874 118.744 16.3874C116.376 16.3874 114.581 18.144 114.581 20.7271C114.581 23.269 116.315 25.0669 118.744 25.0669Z" fill="white"/>
<path d="M151.128 26.8234H148.985V19.4046C148.985 17.4 148.128 16.4081 146.394 16.4081C144.945 16.4081 143.802 17.1727 143.231 18.1647C143.251 18.392 143.251 18.7639 143.251 19.0326V26.8028H141.109V18.9499C141.109 17.462 140.231 16.4288 138.538 16.4288C137.15 16.4288 135.987 17.1934 135.375 18.082V26.8234H133.232V14.6102H135.375V16.1601C136.252 15.1062 137.823 14.4036 139.374 14.4036C141.252 14.4036 142.558 15.2508 143.027 16.5321C143.884 15.2922 145.435 14.4036 147.271 14.4036C149.496 14.4036 151.169 15.4988 151.169 18.8259V26.8234H151.128Z" fill="white"/>
<path d="M159.842 14.3416C163.698 14.3416 166.269 17.0487 166.269 20.7271C166.269 24.3849 163.698 27.1127 159.842 27.1127C155.985 27.1127 153.414 24.4056 153.414 20.7271C153.414 17.0487 155.985 14.3416 159.842 14.3416ZM159.842 25.0669C162.249 25.0669 164.004 23.331 164.004 20.7271C164.004 18.1646 162.27 16.3874 159.842 16.3874C157.474 16.3874 155.679 18.144 155.679 20.7271C155.699 23.269 157.434 25.0669 159.842 25.0669Z" fill="white"/>
<path d="M168.82 14.6104H170.962V16.0983C171.799 15.1683 173.33 14.3831 174.901 14.3831C178.043 14.3831 179.921 15.933 179.921 19.756V26.8236H177.778V20.1693C177.778 17.6068 176.615 16.4289 174.37 16.4289C173.003 16.4289 171.738 17.1109 170.962 17.9995V26.8236H168.82V14.6104Z" fill="white"/>
<path d="M193.205 25.5008C192.022 26.5961 190.287 27.1127 188.675 27.1127C184.757 27.1127 182.207 24.5915 182.207 20.7271C182.207 17.1727 184.451 14.3416 188.43 14.3416C191.532 14.3416 194.042 16.5734 194.042 19.9419C194.042 20.5411 193.981 21.0371 193.899 21.4091H184.614C184.798 23.7236 186.471 25.0669 188.818 25.0669C190.369 25.0669 191.736 24.5296 192.512 23.7856L193.205 25.5008ZM184.492 19.6319H191.818C191.716 17.6273 190.43 16.3668 188.328 16.3668C186.125 16.3668 184.737 17.7513 184.492 19.6319Z" fill="white"/>
<path d="M202.164 26.8235C200.388 31.2045 199.266 32.2585 197.552 32.2585C196.634 32.2585 195.919 31.9278 195.266 31.4938L195.96 29.8406C196.368 30.0266 196.817 30.2539 197.307 30.2539C198.327 30.2539 199.082 29.448 199.878 27.4848L200.143 26.8235L194.348 14.6103H196.919L200.47 22.3804C200.735 23.0004 200.96 23.5997 201.184 24.2196C201.347 23.6203 201.531 23.0004 201.756 22.3391L204.551 14.5896H207L202.164 26.8235Z" fill="white"/>
<path d="M20.2429 37.0734C11.203 37.0734 3.87717 29.6545 3.87717 20.4998C3.87717 11.3451 11.203 3.92621 20.2429 3.92621C24.7527 3.92621 28.8543 5.78609 31.8132 8.78256L34.568 5.99274C26.6708 -2.00474 13.815 -2.00474 5.93819 5.99274C2.10183 9.87782 0 15.0235 0 20.4998C0 25.9761 2.10183 31.1218 5.93819 35.0068C9.75414 38.8713 14.8557 41.0205 20.2429 41.0205C25.6505 41.0205 30.7317 38.8919 34.568 35.0068L31.8336 32.217C28.8543 35.2342 24.7731 37.0734 20.2429 37.0734Z" fill="#ADD1EF"/>
<path d="M34.5678 5.99292L31.813 8.78274C34.7719 11.7792 36.6084 15.9329 36.6084 20.5C36.6084 25.067 34.7719 29.2207 31.813 32.2172L34.5474 34.9864C38.3634 31.122 40.4856 25.9556 40.4856 20.4793C40.506 15.0237 38.3838 9.878 34.5678 5.99292Z" fill="white"/>
</svg>
