<svg width="816" height="356" viewBox="0 0 816 356" fill="none" xmlns="http://www.w3.org/2000/svg">
<g clip-path="url(#clip0)">
<path d="M108.44 58.8328C124.699 58.8328 137.879 45.6626 137.879 29.4164C137.879 13.1702 124.699 0 108.44 0C92.1813 0 79.001 13.1702 79.001 29.4164C79.001 45.6626 92.1813 58.8328 108.44 58.8328Z" fill="#FF6584"/>
<path d="M114.693 231.893L165.27 171.708H264.705L325.472 230.85L324.245 231.639H324.683V354.655H114.763V231.639L114.693 231.893Z" fill="#2A3D4B"/>
<path d="M145.123 205.728H156.587V166.072H145.123V205.728Z" fill="#2A3D4B"/>
<path d="M164.481 170.919L226.825 243.956V354.655H114.763V230.062L164.481 170.919Z" fill="#60CC8C"/>
<path d="M212.418 258.45H189.532V281.833H212.418V258.45Z" fill="#2A3D4B"/>
<path d="M212.418 290.267H189.532V313.65H212.418V290.267Z" fill="#2A3D4B"/>
<path d="M212.418 258.45H189.532V281.833H212.418V258.45Z" fill="white"/>
<path d="M212.418 290.267H189.532V313.65H212.418V290.267Z" fill="white"/>
<path d="M180.767 258.45H157.881V281.833H180.767V258.45Z" fill="#2A3D4B"/>
<path d="M180.767 290.267H157.881V313.65H180.767V290.267Z" fill="#2A3D4B"/>
<path d="M180.767 258.45H157.881V281.833H180.767V258.45Z" fill="white"/>
<path d="M180.767 290.267H157.881V313.65H180.767V290.267Z" fill="white"/>
<path d="M149.116 258.45H126.229V281.833H149.116V258.45Z" fill="#2A3D4B"/>
<path d="M149.116 290.267H126.229V313.65H149.116V290.267Z" fill="#2A3D4B"/>
<path d="M149.116 258.45H126.229V281.833H149.116V258.45Z" fill="white"/>
<path d="M149.116 290.267H126.229V313.65H149.116V290.267Z" fill="white"/>
<path d="M483.694 162.349H473.26V177.797H483.694V162.349Z" fill="#60CC8C"/>
<path d="M371.9 29.7888H361.466V55.854H371.9V29.7888Z" fill="#60CC8C"/>
<path d="M371.154 53.6196H282.465V355.231H371.154V53.6196Z" fill="#60CC8C"/>
<path d="M406.929 53.6196H371.155V355.231H406.929V53.6196Z" fill="#2A3D4B"/>
<path d="M311.904 79.6848H298.489V93.0897H311.904V79.6848Z" fill="white"/>
<path d="M333.518 79.6848H320.103V93.0897H333.518V79.6848Z" fill="white"/>
<path d="M355.131 79.6848H341.716V93.0897H355.131V79.6848Z" fill="white"/>
<path d="M312.277 110.218H298.861V123.623H312.277V110.218Z" fill="white"/>
<path d="M333.89 110.218H320.475V123.623H333.89V110.218Z" fill="white"/>
<path d="M355.504 110.218H342.088V123.623H355.504V110.218Z" fill="white"/>
<path d="M312.65 140.752H299.234V154.157H312.65V140.752Z" fill="white"/>
<path d="M334.263 140.752H320.848V154.157H334.263V140.752Z" fill="white"/>
<path d="M355.876 140.752H342.461V154.157H355.876V140.752Z" fill="white"/>
<path d="M313.022 171.285H299.607V184.69H313.022V171.285Z" fill="white"/>
<path d="M334.635 171.285H321.22V184.69H334.635V171.285Z" fill="white"/>
<path d="M356.249 171.285H342.834V184.69H356.249V171.285Z" fill="white"/>
<path d="M313.395 201.819H299.979V215.224H313.395V201.819Z" fill="white"/>
<path d="M335.008 201.819H321.593V215.224H335.008V201.819Z" fill="white"/>
<path d="M356.621 201.819H343.206V215.224H356.621V201.819Z" fill="white"/>
<path d="M313.767 232.352H300.352V245.757H313.767V232.352Z" fill="white"/>
<path d="M335.381 232.352H321.966V245.757H335.381V232.352Z" fill="white"/>
<path d="M356.994 232.352H343.579V245.757H356.994V232.352Z" fill="white"/>
<path d="M314.14 262.886H300.725V276.291H314.14V262.886Z" fill="white"/>
<path d="M335.753 262.886H322.338V276.291H335.753V262.886Z" fill="white"/>
<path d="M357.367 262.886H343.952V276.291H357.367V262.886Z" fill="white"/>
<path d="M314.513 293.419H301.098V306.824H314.513V293.419Z" fill="white"/>
<path d="M336.126 293.419H322.711V306.824H336.126V293.419Z" fill="white"/>
<path d="M336.126 329.166H322.711V354.486H336.126V329.166Z" fill="white"/>
<path d="M357.739 293.419H344.324V306.824H357.739V293.419Z" fill="white"/>
<path d="M377.117 29.7888H371.155V55.1093H377.117V29.7888Z" fill="#2A3D4B"/>
<path d="M302.588 345.549C300.764 345.549 298.973 346.03 297.394 346.942C295.79 345.493 293.8 344.54 291.666 344.2C289.531 343.859 287.343 344.145 285.368 345.023C283.392 345.9 281.715 347.332 280.538 349.144C279.361 350.956 278.736 353.071 278.739 355.231H312.985C312.798 352.603 311.622 350.143 309.693 348.346C307.763 346.55 305.225 345.551 302.588 345.549Z" fill="#2A3D4B"/>
<path d="M482.948 176.473H394.259V355.231H482.948V176.473Z" fill="#60CC8C"/>
<path d="M518.722 176.473H482.948V355.231H518.722V176.473Z" fill="#2A3D4B"/>
<path d="M425.188 201.819H411.773V215.224H425.188V201.819Z" fill="white"/>
<path d="M446.802 201.819H433.387V215.224H446.802V201.819Z" fill="white"/>
<path d="M468.415 201.819H455V215.224H468.415V201.819Z" fill="white"/>
<path d="M425.561 232.352H412.146V245.757H425.561V232.352Z" fill="white"/>
<path d="M447.174 232.352H433.759V245.757H447.174V232.352Z" fill="white"/>
<path d="M468.788 232.352H455.373V245.757H468.788V232.352Z" fill="white"/>
<path d="M425.934 262.886H412.519V276.291H425.934V262.886Z" fill="white"/>
<path d="M447.547 262.886H434.132V276.291H447.547V262.886Z" fill="white"/>
<path d="M469.16 262.886H455.745V276.291H469.16V262.886Z" fill="white"/>
<path d="M426.306 293.419H412.891V306.824H426.306V293.419Z" fill="white"/>
<path d="M447.92 293.419H434.504V306.824H447.92V293.419Z" fill="white"/>
<path d="M447.92 329.166H434.504V354.486H447.92V329.166Z" fill="white"/>
<path d="M469.533 293.419H456.118V306.824H469.533V293.419Z" fill="white"/>
<path d="M488.911 162.349H482.948V177.355H488.911V162.349Z" fill="#2A3D4B"/>
<path d="M816 354H0V356H816V354Z" fill="#2A3D4B"/>
<path d="M451.954 27.8046L458.815 22.3214C453.485 21.7338 451.295 24.6384 450.399 26.9375C446.235 25.2097 441.702 27.474 441.702 27.474L455.43 32.4537C454.737 30.6054 453.532 28.9927 451.954 27.8046Z" fill="#2A3D4B"/>
<path d="M107.63 55.3593L114.491 49.8761C109.161 49.2885 106.971 52.1931 106.075 54.4921C101.911 52.7644 97.3779 55.0287 97.3779 55.0287L111.105 60.0084C110.413 58.1601 109.207 56.5474 107.63 55.3593Z" fill="#2A3D4B"/>
<path d="M164.272 40.4648L171.133 34.9816C165.803 34.394 163.613 37.2986 162.717 39.5976C158.553 37.8699 154.02 40.1342 154.02 40.1342L167.747 45.1139C167.055 43.2656 165.849 41.6528 164.272 40.4648Z" fill="#2A3D4B"/>
<path d="M176.942 100.042L183.803 94.5592C178.473 93.9716 176.283 96.8762 175.387 99.1753C171.223 97.4475 166.69 99.7118 166.69 99.7118L180.417 104.692C179.725 102.843 178.519 101.23 176.942 100.042Z" fill="#2A3D4B"/>
<path d="M443.756 131.32L450.617 125.837C445.287 125.25 443.097 128.154 442.201 130.453C438.037 128.726 433.504 130.99 433.504 130.99L447.231 135.97C446.539 134.121 445.333 132.509 443.756 131.32Z" fill="#2A3D4B"/>
<path d="M125.954 345.549C124.13 345.549 122.339 346.03 120.76 346.942C119.157 345.493 117.167 344.54 115.032 344.2C112.897 343.859 110.709 344.145 108.734 345.023C106.759 345.9 105.081 347.332 103.904 349.144C102.727 350.956 102.102 353.071 102.105 355.231H136.351C136.164 352.603 134.988 350.143 133.059 348.346C131.13 346.55 128.591 345.551 125.954 345.549Z" fill="#2A3D4B"/>
<path d="M598.162 30H587.728V56.0652H598.162V30Z" fill="#60CC8C"/>
<path d="M597.416 53.8308H508.727V355.442H597.416V53.8308Z" fill="#60CC8C"/>
<path d="M633.19 53.8308H597.416V355.442H633.19V53.8308Z" fill="#2A3D4B"/>
<path d="M538.165 79.896H524.75V93.3009H538.165V79.896Z" fill="white"/>
<path d="M559.779 79.896H546.363V93.3009H559.779V79.896Z" fill="white"/>
<path d="M581.392 79.896H567.977V93.3009H581.392V79.896Z" fill="white"/>
<path d="M538.538 110.429H525.123V123.834H538.538V110.429Z" fill="white"/>
<path d="M560.152 110.429H546.736V123.834H560.152V110.429Z" fill="white"/>
<path d="M581.765 110.429H568.35V123.834H581.765V110.429Z" fill="white"/>
<path d="M538.91 140.963H525.495V154.368H538.91V140.963Z" fill="white"/>
<path d="M560.524 140.963H547.109V154.368H560.524V140.963Z" fill="white"/>
<path d="M582.137 140.963H568.722V154.368H582.137V140.963Z" fill="white"/>
<path d="M539.283 171.496H525.868V184.901H539.283V171.496Z" fill="white"/>
<path d="M560.897 171.496H547.481V184.901H560.897V171.496Z" fill="white"/>
<path d="M582.51 171.496H569.095V184.901H582.51V171.496Z" fill="white"/>
<path d="M539.656 202.03H526.241V215.435H539.656V202.03Z" fill="white"/>
<path d="M561.269 202.03H547.854V215.435H561.269V202.03Z" fill="white"/>
<path d="M582.883 202.03H569.468V215.435H582.883V202.03Z" fill="white"/>
<path d="M540.029 232.563H526.613V245.968H540.029V232.563Z" fill="white"/>
<path d="M561.642 232.563H548.227V245.968H561.642V232.563Z" fill="white"/>
<path d="M583.256 232.563H569.84V245.968H583.256V232.563Z" fill="white"/>
<path d="M540.402 263.097H526.986V276.502H540.402V263.097Z" fill="white"/>
<path d="M562.015 263.097H548.6V276.502H562.015V263.097Z" fill="white"/>
<path d="M583.628 263.097H570.213V276.502H583.628V263.097Z" fill="white"/>
<path d="M540.774 293.63H527.358V307.035H540.774V293.63Z" fill="white"/>
<path d="M562.387 293.63H548.972V307.035H562.387V293.63Z" fill="white"/>
<path d="M562.387 329.377H548.972V354.697H562.387V329.377Z" fill="white"/>
<path d="M584.001 293.63H570.585V307.035H584.001V293.63Z" fill="white"/>
<path d="M603.378 30H597.416V55.3204H603.378V30Z" fill="#2A3D4B"/>
<path d="M528.849 345.761C527.025 345.76 525.234 346.241 523.655 347.153C522.052 345.704 520.062 344.752 517.927 344.411C515.792 344.07 513.604 344.356 511.629 345.234C509.654 346.111 507.976 347.543 506.799 349.355C505.622 351.167 504.997 353.282 505 355.442H539.246C539.059 352.814 537.883 350.354 535.954 348.557C534.025 346.761 531.486 345.762 528.849 345.761Z" fill="#2A3D4B"/>
<path d="M418.108 345.549C416.284 345.549 414.493 346.03 412.914 346.942C411.31 345.493 409.32 344.54 407.186 344.2C405.051 343.859 402.863 344.145 400.888 345.023C398.912 345.9 397.235 347.332 396.058 349.144C394.881 350.956 394.256 353.071 394.259 355.231H428.505C428.318 352.603 427.142 350.143 425.213 348.346C423.284 346.55 420.745 345.551 418.108 345.549Z" fill="#2A3D4B"/>
<path d="M92.6209 345.001L90.4435 345.53L7.49145 346.465L6.72741 344.736C5.39539 341.771 4.91465 338.493 5.33889 335.27C5.67114 332.867 6.54156 330.474 8.56415 329.417L11.9898 304.873L57.8823 304.298L75.7875 318.42C75.7875 318.42 84.1617 318.18 88.771 323.792C90.2298 325.57 91.312 327.935 91.6286 331.081L91.8389 334.025L92.6209 345.001Z" fill="#60CC8C"/>
<path d="M71.7478 354.678C77.212 356.14 82.8293 352.898 84.2944 347.437C85.7594 341.976 82.5176 336.363 77.0534 334.9C71.5892 333.438 65.972 336.68 64.5069 342.141C63.0418 347.603 66.2837 353.216 71.7478 354.678Z" fill="#2A3D4B"/>
<path d="M73.0047 349.994C75.8805 350.763 78.837 349.057 79.6081 346.183C80.3792 343.308 78.6729 340.354 75.7971 339.584C72.9212 338.815 69.9647 340.521 69.1936 343.395C68.4225 346.27 70.1288 349.224 73.0047 349.994Z" fill="#D0CDE1"/>
<path d="M21.2019 355.239C26.6661 356.702 32.2834 353.46 33.7484 347.999C35.2135 342.537 31.9717 336.924 26.5075 335.462C21.0433 333.999 15.4261 337.241 13.961 342.703C12.4959 348.164 15.7378 353.777 21.2019 355.239Z" fill="#2A3D4B"/>
<path d="M22.4588 350.555C25.3346 351.325 28.2911 349.619 29.0622 346.744C29.8333 343.87 28.127 340.916 25.2512 340.146C22.3753 339.376 19.4188 341.083 18.6477 343.957C17.8766 346.832 19.5829 349.786 22.4588 350.555Z" fill="#D0CDE1"/>
<path d="M68.7144 316.824L35.8012 317.196L35.6928 307.294L56.6834 307.057L68.7144 316.824Z" fill="white"/>
<path d="M31.6629 307.337L18.563 307.485L18.6715 317.383L31.7715 317.235L31.6629 307.337Z" fill="white"/>
<path d="M37.5636 324.557L35.8838 324.575L35.9187 327.763L37.5985 327.744L37.5636 324.557Z" fill="#2A3D4B"/>
<path d="M65.2396 321.396L65.2212 319.718L62.0303 319.754L62.0487 321.432L65.2396 321.396Z" fill="#2A3D4B"/>
<path d="M63.1357 313.466L63.3205 313.463C64.2516 313.453 65.1487 313.812 65.8143 314.463C66.4799 315.113 66.8595 316.001 66.8697 316.931C66.8799 317.861 66.5198 318.757 65.8686 319.422C65.2175 320.087 64.3285 320.466 63.3974 320.477L63.2127 320.479L63.1357 313.466Z" fill="#2A3D4B"/>
<path d="M91.8407 334.031C90.5723 334.183 89.2913 333.882 88.2232 333.183C87.1551 332.483 86.3685 331.429 86.0018 330.206C85.6352 328.983 85.7122 327.67 86.2191 326.498C86.726 325.326 87.6304 324.371 88.773 323.8C90.2316 325.577 91.3138 327.941 91.6304 331.088L91.8407 334.031Z" fill="#2A3D4B"/>
<path d="M16.1305 345.437L5.55078 345.556L5.56918 347.232L16.1489 347.113L16.1305 345.437Z" fill="#2A3D4B"/>
<path d="M814.829 354.069H812.987C812.987 331.108 803.866 309.088 787.631 292.853C771.395 276.617 749.375 267.496 726.415 267.496C703.454 267.496 681.434 276.617 665.199 292.853C648.963 309.088 639.842 331.108 639.842 354.069H638C638 330.62 647.315 308.131 663.896 291.55C680.477 274.969 702.966 265.654 726.415 265.654C749.864 265.654 772.352 274.969 788.933 291.55C805.514 308.131 814.829 330.62 814.829 354.069Z" fill="#2A3D4B"/>
<path d="M671.763 310.857C685.009 310.857 695.746 300.12 695.746 286.874C695.746 273.629 685.009 262.891 671.763 262.891C658.518 262.891 647.78 273.629 647.78 286.874C647.78 300.12 658.518 310.857 671.763 310.857Z" fill="#60CC8C"/>
<path opacity="0.2" d="M689.603 270.855C691.84 276.088 692.144 281.946 690.459 287.382C688.775 292.818 685.213 297.478 680.409 300.53C675.605 303.581 669.872 304.825 664.236 304.038C658.6 303.252 653.426 300.488 649.641 296.238C651.007 299.435 653.052 302.297 655.635 304.625C658.217 306.954 661.275 308.692 664.596 309.722C667.917 310.751 671.422 311.045 674.869 310.585C678.315 310.125 681.62 308.922 684.555 307.058C687.49 305.193 689.985 302.713 691.866 299.789C693.747 296.865 694.97 293.567 695.451 290.124C695.931 286.68 695.657 283.173 694.647 279.846C693.637 276.519 691.916 273.451 689.603 270.855Z" fill="black"/>
<path d="M671.829 286.875H671.895L673.08 354.87H670.577L671.829 286.875Z" fill="#2A3D4B"/>
<path d="M676.196 323.911L675.643 322.862L671.679 324.949L672.231 325.998L676.196 323.911Z" fill="#2A3D4B"/>
<path d="M742.273 287.941C762.415 287.941 778.743 271.612 778.743 251.47C778.743 231.328 762.415 215 742.273 215C722.131 215 705.802 231.328 705.802 251.47C705.802 271.612 722.131 287.941 742.273 287.941Z" fill="#60CC8C"/>
<path opacity="0.2" d="M769.401 227.111C772.803 235.069 773.265 243.977 770.703 252.243C768.142 260.51 762.725 267.596 755.419 272.236C748.114 276.876 739.397 278.767 730.826 277.572C722.255 276.376 714.388 272.172 708.631 265.71C710.709 270.572 713.819 274.924 717.746 278.464C721.673 282.005 726.323 284.649 731.373 286.214C736.424 287.779 741.754 288.227 746.995 287.528C752.235 286.828 757.261 284.997 761.724 282.163C766.188 279.328 769.981 275.557 772.842 271.11C775.703 266.664 777.563 261.649 778.293 256.412C779.023 251.175 778.606 245.843 777.071 240.783C775.536 235.724 772.919 231.059 769.401 227.111Z" fill="black"/>
<path d="M742.372 251.47H742.473L744.276 354.87H740.469L742.372 251.47Z" fill="#2A3D4B"/>
<path d="M749.014 307.792L748.173 306.196L742.145 309.37L742.985 310.966L749.014 307.792Z" fill="#2A3D4B"/>
<path d="M701.548 342.096C699.294 342.096 697.08 342.69 695.129 343.818C693.148 342.026 690.689 340.848 688.051 340.427C685.413 340.005 682.709 340.359 680.268 341.444C677.827 342.53 675.754 344.3 674.3 346.541C672.846 348.782 672.073 351.397 672.077 354.069H714.395C714.165 350.818 712.711 347.776 710.327 345.555C707.944 343.333 704.807 342.097 701.548 342.096Z" fill="#2A3D4B"/>
<path d="M791.805 342.096C789.551 342.096 787.337 342.69 785.386 343.818C783.404 342.026 780.945 340.848 778.307 340.427C775.669 340.005 772.966 340.359 770.525 341.444C768.084 342.53 766.01 344.3 764.556 346.541C763.102 348.782 762.33 351.397 762.333 354.069H804.652C804.421 350.818 802.968 347.776 800.584 345.555C798.2 343.333 795.063 342.097 791.805 342.096Z" fill="#2A3D4B"/>
</g>
<defs>
<clipPath id="clip0">
<rect width="816" height="356" fill="white"/>
</clipPath>
</defs>
</svg>
