<svg width="265" height="264" viewBox="0 0 265 264" fill="none" xmlns="http://www.w3.org/2000/svg">
<path d="M132.5 43L55 87.5V176.5L132.5 221L210 176.5V87.5L132.5 43Z" fill="white"/>
<g opacity="0.4">
<g opacity="0.4">
<path opacity="0.4" d="M67.3083 244.781C67.2025 244.781 67.0967 244.675 67.0967 244.569V94.8286C67.0967 94.723 67.2025 94.6174 67.3083 94.6174C67.4142 94.6174 67.52 94.723 67.52 94.8286V244.569C67.52 244.675 67.4142 244.781 67.3083 244.781Z" fill="black"/>
</g>
<g opacity="0.4">
<path opacity="0.4" d="M2.11683 132.211C2.011 132.211 2.011 132.211 1.90516 132.105C1.79933 132 1.90516 131.894 2.011 131.789L66.4619 94.6175C66.5677 94.5119 66.6735 94.6175 66.7794 94.7231C66.8852 94.8287 66.7794 94.9343 66.6735 95.0399L2.11683 132.211C2.22266 132.211 2.22266 132.211 2.11683 132.211Z" fill="black"/>
</g>
<g opacity="0.4">
<path opacity="0.4" d="M197.692 244.781C197.586 244.781 197.586 244.781 197.692 244.781L67.4144 169.805C67.3086 169.699 67.3086 169.594 67.3086 169.488C67.4144 169.382 67.5203 169.382 67.6261 169.382L197.798 244.358C197.904 244.464 197.904 244.57 197.904 244.675C197.798 244.781 197.692 244.781 197.692 244.781Z" fill="black"/>
</g>
<g opacity="0.4">
<path opacity="0.4" d="M132.183 207.398C132.077 207.398 132.077 207.398 131.972 207.293C131.866 207.187 131.972 207.082 132.077 206.976L262.672 131.789C262.778 131.683 262.884 131.789 262.99 131.894C263.096 132 262.99 132.106 262.884 132.211L132.183 207.398C132.289 207.398 132.289 207.398 132.183 207.398Z" fill="black"/>
</g>
<g opacity="0.4">
<path opacity="0.4" d="M197.692 169.382C197.586 169.382 197.48 169.277 197.48 169.171V19.4304C197.48 19.3248 197.586 19.2192 197.692 19.2192C197.798 19.2192 197.904 19.3248 197.904 19.4304V169.171C197.798 169.277 197.798 169.382 197.692 169.382Z" fill="black"/>
</g>
<g opacity="0.4">
<path opacity="0.4" d="M197.163 94.4063C197.057 94.4063 197.057 94.3007 197.163 94.4063L67.2025 19.5359C67.0967 19.4303 67.0967 19.3247 67.0967 19.2191C67.2025 19.1135 67.3083 19.1135 67.4142 19.1135L197.268 93.9839C197.374 94.0895 197.374 94.1951 197.374 94.3007C197.268 94.3007 197.163 94.4063 197.163 94.4063Z" fill="black"/>
</g>
</g>
<path d="M137.491 2.87357C134.402 1.09478 130.599 1.09478 127.51 2.87357L22.8955 63.1151C19.796 64.9 17.8857 68.2043 17.8857 71.781V192.219C17.8857 195.796 19.796 199.1 22.8955 200.885L127.51 261.126C130.599 262.905 134.402 262.905 137.491 261.126L242.105 200.885C245.205 199.1 247.115 195.796 247.115 192.219V71.7811C247.115 68.2044 245.205 64.9 242.105 63.1151L137.491 2.87357ZM209.651 170.679C209.651 174.254 207.742 177.558 204.644 179.343L137.493 218.038C134.403 219.819 130.598 219.819 127.508 218.038L60.357 179.343C57.2589 177.558 55.3498 174.254 55.3498 170.679V93.3214C55.3498 89.7458 57.2589 86.4423 60.357 84.657L127.508 45.9619C130.598 44.1811 134.403 44.1811 137.493 45.9619L204.644 84.657C207.742 86.4423 209.651 89.7458 209.651 93.3214V170.679Z" fill="#D6EEE4"/>
<g opacity="0.4">
<g opacity="0.4">
<path opacity="0.4" d="M67.3083 95.04C67.2025 95.04 67.0967 94.9344 67.0967 94.8288V19.4304C67.0967 19.3248 67.2025 19.2192 67.3083 19.2192C67.4142 19.2192 67.52 19.3248 67.52 19.4304V94.9344C67.52 94.9344 67.4142 95.04 67.3083 95.04Z" fill="black"/>
</g>
<g opacity="0.4">
<path opacity="0.4" d="M66.568 95.04C66.4622 95.04 66.4622 95.04 66.3563 94.9344C66.2505 94.8288 66.3563 94.7232 66.4622 94.6176L197.481 19.1136C197.586 19.008 197.692 19.1136 197.798 19.2192C197.904 19.3248 197.798 19.4304 197.692 19.536L66.568 95.04C66.6738 95.04 66.6738 95.04 66.568 95.04Z" fill="black"/>
</g>
<g opacity="0.4">
<path opacity="0.4" d="M197.692 19.5359H67.3083C67.2025 19.5359 67.0967 19.4303 67.0967 19.3247C67.0967 19.2191 67.2025 19.1135 67.3083 19.1135H197.586C197.692 19.1135 197.798 19.2191 197.798 19.3247C197.798 19.5359 197.798 19.5359 197.692 19.5359Z" fill="black"/>
</g>
<g opacity="0.4">
<path opacity="0.4" d="M262.778 132.211C262.672 132.211 262.672 132.211 262.566 132.106L197.48 19.4304C197.375 19.3248 197.48 19.2192 197.586 19.1136C197.692 19.008 197.798 19.1136 197.904 19.2192L263.095 131.789C262.99 132 262.99 132.106 262.778 132.211C262.884 132.211 262.884 132.211 262.778 132.211Z" fill="black"/>
</g>
<g opacity="0.4">
<path opacity="0.4" d="M197.692 244.781C197.586 244.781 197.586 244.781 197.692 244.781C197.48 244.675 197.48 244.57 197.48 244.464L262.672 131.894C262.778 131.789 262.884 131.789 262.99 131.789C263.095 131.894 263.095 132 263.095 132.106L197.904 244.675C197.798 244.781 197.692 244.781 197.692 244.781Z" fill="black"/>
</g>
<g opacity="0.4">
<path opacity="0.4" d="M197.692 244.781H67.3083C67.2025 244.781 67.0967 244.675 67.0967 244.57C67.0967 244.464 67.2025 244.358 67.3083 244.358H197.586C197.692 244.358 197.798 244.464 197.798 244.57C197.798 244.675 197.798 244.781 197.692 244.781Z" fill="black"/>
</g>
<g opacity="0.4">
<path opacity="0.4" d="M67.3082 244.781C67.2023 244.781 67.2023 244.781 67.0965 244.675L2.01063 132.106C1.9048 132 2.01063 131.894 2.11646 131.789C2.22229 131.683 2.32813 131.789 2.43396 131.894L67.6257 244.464C67.5198 244.57 67.5198 244.675 67.3082 244.781C67.414 244.781 67.3082 244.781 67.3082 244.781Z" fill="black"/>
</g>
<g opacity="0.4">
<path opacity="0.4" d="M2.11693 132.211C1.90527 132.106 1.90527 132 1.90527 131.894L67.2028 19.3248C67.3086 19.2192 67.4145 19.2192 67.5203 19.2192C67.6261 19.3248 67.6261 19.4304 67.6261 19.536L2.3286 132.106C2.3286 132.106 2.22277 132.211 2.11693 132.211Z" fill="black"/>
</g>
<g opacity="0.4">
<path opacity="0.4" d="M262.778 132.211L196.952 94.3008C196.846 94.1952 196.846 94.0896 196.846 93.984C196.952 93.8784 197.057 93.8784 197.163 93.8784L262.884 131.683C262.99 131.789 262.99 131.894 262.99 132C262.99 132.106 262.884 132.211 262.778 132.211Z" fill="black"/>
</g>
<g opacity="0.4">
<path opacity="0.4" d="M197.692 244.781C197.586 244.781 197.48 244.675 197.48 244.569V169.065C197.48 168.96 197.586 168.854 197.692 168.854C197.798 168.854 197.904 168.96 197.904 169.065V244.569C197.798 244.675 197.798 244.781 197.692 244.781Z" fill="black"/>
</g>
<g opacity="0.4">
<path opacity="0.4" d="M67.3082 244.781C67.2024 244.781 67.2024 244.781 67.0966 244.675C66.9907 244.569 67.0966 244.464 67.2024 244.358L132.077 206.976C132.182 206.87 132.288 206.976 132.394 207.081C132.5 207.187 132.394 207.293 132.288 207.398L67.3082 244.781C67.4141 244.781 67.3082 244.781 67.3082 244.781Z" fill="black"/>
</g>
<g opacity="0.4">
<path opacity="0.4" d="M67.4141 169.805L2.11657 132.211C2.01074 132.106 2.01074 132 2.01074 131.894C2.11657 131.789 2.2224 131.789 2.32823 131.789L67.6258 169.382C67.7316 169.488 67.7316 169.594 67.7316 169.699C67.6258 169.805 67.5199 169.805 67.4141 169.805Z" fill="black"/>
</g>
</g>
<path d="M6.45531 132C6.45531 133.795 4.97368 135.168 3.28039 135.168C1.48127 135.168 0.105469 133.69 0.105469 132C0.105469 130.205 1.5871 128.832 3.28039 128.832C4.97368 128.832 6.45531 130.205 6.45531 132Z" fill="#475066"/>
<path d="M258.544 132C258.544 133.795 260.026 135.168 261.719 135.168C263.518 135.168 264.894 133.69 264.894 132C264.894 130.205 263.412 128.832 261.719 128.832C260.026 128.832 258.544 130.205 258.544 132Z" fill="#475066"/>
<path d="M69.4248 23.0208C67.9431 23.8656 65.9323 23.3376 65.0857 21.8592C64.2391 20.3808 64.7682 18.3744 66.2498 17.5296C67.7315 16.6848 69.7423 17.2128 70.5889 18.6912C71.5414 20.1696 71.0122 22.176 69.4248 23.0208Z" fill="#475066"/>
<path d="M195.469 240.979C193.987 241.824 193.458 243.83 194.304 245.309C195.151 246.787 197.162 247.315 198.643 246.47C200.125 245.626 200.654 243.619 199.808 242.141C199.067 240.557 197.056 240.029 195.469 240.979Z" fill="#475066"/>
<path d="M195.469 23.0208C193.987 22.176 193.458 20.1696 194.304 18.6912C195.151 17.2128 197.162 16.6848 198.643 17.5296C200.125 18.3744 200.654 20.3808 199.808 21.8592C199.067 23.4432 197.056 23.9712 195.469 23.0208Z" fill="#475066"/>
<path d="M69.4248 240.979C67.9431 240.135 65.9323 240.663 65.0857 242.141C64.2391 243.619 64.7682 245.626 66.2498 246.471C67.7315 247.315 69.7423 246.787 70.5889 245.309C71.5414 243.725 71.0122 241.824 69.4248 240.979Z" fill="#475066"/>
</svg>
