<svg width="780" height="510" viewBox="0 0 780 510" fill="none" xmlns="http://www.w3.org/2000/svg">
<g clip-path="url(#clip0)">
<path d="M48.3711 412.174H305.371C305.371 412.174 319.338 394.523 305.371 382.608C297.725 375.988 288.61 376.724 281.994 378.636C277.73 379.96 273.466 377.018 272.437 372.605C270.82 365.397 266.115 355.836 252.295 350.246C238.621 344.804 230.094 353.188 225.095 361.867C223.478 364.662 219.067 364.221 218.038 361.132C213.774 347.452 198.631 329.359 149.23 329.359C86.4506 329.359 93.3607 362.75 98.9477 376.724C99.9768 379.077 97.9185 381.578 95.2721 381.137C85.5684 379.077 67.6314 376.43 59.545 382.755C48.3711 391.581 48.3711 412.174 48.3711 412.174Z" fill="#D6EEE4"/>
<path d="M697.339 194.618C704.837 226.979 628.384 231.245 596.921 231.539C588.246 231.686 579.572 230.804 570.897 229.039C544.286 223.596 486.064 209.475 494.15 190.205C504.736 165.346 536.346 182.703 536.346 182.703C536.346 182.703 532.377 163.875 586.335 151.519C640.293 139.163 639.999 180.497 639.999 180.497C639.999 180.497 688.076 153.872 697.339 194.618Z" fill="#D6EEE4"/>
<path d="M368.297 102.388C368.297 102.388 417.55 295.379 421.373 356.424C492.092 346.422 537.082 332.154 537.082 332.154C537.082 332.154 509.735 86.2077 490.916 76.6465C468.715 75.911 469.156 75.911 368.297 102.388Z" fill="#4DA370"/>
<path d="M449.894 96.7987C453.864 111.214 471.507 121.364 483.857 116.804C507.381 134.603 519.437 298.174 519.437 298.174C519.29 298.174 519.29 298.174 519.143 298.174C505.175 300.381 496.06 315.532 498.412 329.065L457.539 337.596C454.305 323.328 440.337 315.237 426.223 317.591C426.076 317.591 425.929 317.591 425.782 317.738L385.203 136.074C386.085 136.074 386.967 135.926 387.85 135.779C401.817 133.573 413.579 117.834 411.08 104.301L449.747 96.2103C449.894 96.3574 449.894 96.6516 449.894 96.7987Z" fill="url(#paint0_linear)"/>
<path d="M448.277 189.175C431.222 192.706 420.196 209.475 423.871 226.538C427.4 243.601 444.161 254.634 461.216 250.956C478.27 247.426 489.297 230.657 485.622 213.594C482.093 196.53 465.332 185.645 448.277 189.175Z" fill="white"/>
<path d="M428.723 218.301L434.898 218.006C434.751 213.446 436.074 208.592 437.544 205.797L442.396 207.857C440.926 210.799 439.897 214.623 440.191 219.036C440.485 224.626 442.984 228.303 446.66 228.156C450.188 228.009 452.247 224.773 453.864 218.889C456.069 210.652 458.863 205.503 464.45 205.356C469.743 205.062 474.153 209.622 475.477 216.83L481.946 216.535L482.24 221.39L475.918 221.684C476.065 226.391 475.183 229.774 474.153 232.128L469.007 230.068C469.743 228.303 470.625 225.508 470.331 220.36C470.037 214.329 468.125 212.123 465.479 212.123C462.097 212.27 460.627 215.359 458.569 222.272C456.216 230.51 453.129 234.775 447.395 235.07C442.249 235.364 436.956 231.245 435.339 223.155L429.017 223.449L428.723 218.301Z" fill="#60CC8C"/>
<path d="M481.77 215.539L428.758 218.117L429.036 223.847L482.048 221.269L481.77 215.539Z" fill="#60CC8C"/>
<path d="M441.808 160.197C437.692 161.08 435.045 165.052 435.927 169.17C436.81 173.289 440.779 175.937 444.896 175.054C449.013 174.172 451.659 170.2 450.777 166.081C449.895 161.963 445.925 159.462 441.808 160.197Z" fill="#4DA370"/>
<path d="M437.105 137.839C432.989 138.721 430.342 142.693 431.224 146.812C432.106 150.93 436.076 153.578 440.193 152.695C444.31 151.813 446.956 147.841 446.074 143.723C445.192 139.604 441.222 136.956 437.105 137.839Z" fill="#4DA370"/>
<path d="M468.273 287.142C464.157 288.024 461.51 291.996 462.392 296.115C463.274 300.233 467.244 302.881 471.361 301.999C475.478 301.116 478.124 297.144 477.242 293.026C476.36 288.907 472.39 286.259 468.273 287.142Z" fill="#043C5E"/>
<path d="M463.715 265.225C459.598 266.107 456.952 270.079 457.834 274.197C458.716 278.316 462.686 280.964 466.802 280.081C470.919 279.199 473.565 275.227 472.683 271.108C471.801 266.99 467.831 264.342 463.715 265.225Z" fill="#4DA370"/>
<path d="M220.537 46.4916C220.537 46.4916 301.695 228.303 315.956 287.73C383.882 265.813 425.931 244.19 425.931 244.19C425.931 244.19 357.123 6.62838 336.981 0.450317C314.927 3.53935 315.515 3.39226 220.537 46.4916Z" fill="#4DA370"/>
<path d="M300.079 27.2219C306.548 40.7548 325.514 47.6684 336.982 41.1961C363.153 54.729 402.702 213.888 402.702 213.888C402.555 213.888 402.555 213.888 402.408 214.035C389.029 218.595 382.56 235.07 387.265 248.014L348.45 263.312C342.716 249.779 327.72 244.19 314.193 248.897C314.046 248.897 313.899 249.044 313.899 249.044L243.033 76.9406C243.915 76.7935 244.797 76.4993 245.533 76.2052C258.912 71.6452 267.88 54.1406 263.029 41.3432L299.785 26.7806C299.932 26.9277 299.932 27.0748 300.079 27.2219Z" fill="url(#paint1_linear)"/>
<path d="M314.193 118.569C298.02 125.041 290.081 143.281 296.403 159.609C302.872 175.79 321.103 183.733 337.423 177.408C353.596 170.935 361.535 152.695 355.213 136.368C348.744 120.187 330.366 112.244 314.193 118.569Z" fill="white"/>
<path d="M299.93 151.813L305.811 150.195C304.634 145.782 304.782 140.781 305.664 137.692L310.81 138.574C310.074 141.81 309.927 145.635 311.104 149.901C312.574 155.343 315.808 158.432 319.337 157.403C322.719 156.373 324.042 152.843 324.336 146.665C324.63 138.133 326.247 132.543 331.54 131.072C336.686 129.601 341.832 132.985 344.772 139.751L351.094 137.986L352.418 142.693L346.39 144.458C347.566 149.018 347.419 152.401 346.978 155.049L341.538 154.166C341.832 152.401 342.126 149.312 340.656 144.458C339.038 138.574 336.686 136.809 334.187 137.545C330.952 138.427 330.07 141.663 329.776 149.018C329.335 157.55 327.276 162.404 321.689 164.022C316.838 165.346 310.663 162.551 307.281 155.049L301.106 156.814L299.93 151.813Z" fill="#60CC8C"/>
<path d="M350.979 137.409L299.867 151.72L301.412 157.245L352.525 142.934L350.979 137.409Z" fill="#60CC8C"/>
<path d="M302.724 91.209C298.902 92.68 296.99 97.0929 298.461 101.065C299.931 104.889 304.342 106.801 308.311 105.33C312.134 103.859 314.045 99.4465 312.575 95.4748C311.105 91.5032 306.694 89.591 302.724 91.209Z" fill="#4DA370"/>
<path d="M294.345 69.88C290.523 71.351 288.611 75.7639 290.082 79.7355C291.552 83.56 295.963 85.4723 299.932 84.0013C303.755 82.5303 305.666 78.1174 304.196 74.1458C302.579 70.3213 298.315 68.409 294.345 69.88Z" fill="#4DA370"/>
<path d="M350.506 211.681C346.683 213.152 344.772 217.565 346.242 221.537C347.712 225.361 352.123 227.274 356.092 225.803C359.915 224.332 361.826 219.919 360.356 215.947C358.739 212.123 354.328 210.21 350.506 211.681Z" fill="#043C5E"/>
<path d="M342.275 190.941C338.452 192.412 336.541 196.825 338.011 200.796C339.482 204.621 343.892 206.533 347.862 205.062C351.685 203.591 353.596 199.178 352.126 195.206C350.508 191.235 346.098 189.323 342.275 190.941Z" fill="#4DA370"/>
<path d="M150.26 203.003C150.26 203.003 309.488 322.592 350.655 367.751C399.467 315.679 425.638 276.404 425.638 276.404C425.638 276.404 250.384 101.8 229.653 106.213C211.863 119.452 212.304 119.157 150.26 203.003Z" fill="#4DA370"/>
<path d="M210.393 147.547C222.597 156.373 242.592 153.137 249.502 141.81C278.907 140.928 390.646 260.959 390.646 260.959L390.499 261.106C381.089 271.697 383.442 289.201 393.734 298.174L367.269 330.535C355.801 321.563 339.775 323.916 330.366 334.507C330.219 334.654 330.219 334.654 330.072 334.801L184.664 218.742C185.252 218.154 185.987 217.565 186.575 216.83C195.985 206.239 195.397 186.675 184.958 177.702L210.099 147.106C210.099 147.253 210.246 147.4 210.393 147.547Z" fill="url(#paint2_linear)"/>
<path d="M266.998 220.507C255.971 234.04 257.883 253.898 271.409 264.93C284.935 275.963 304.783 274.05 315.81 260.517C326.837 246.985 324.926 227.126 311.4 216.094C298.02 205.209 278.025 207.121 266.998 220.507Z" fill="white"/>
<path d="M269.937 255.516L274.495 251.397C271.555 247.867 269.496 243.307 268.908 240.218L273.907 238.747C274.642 241.983 276.259 245.514 279.2 248.897C282.876 253.163 287.139 254.486 289.933 251.986C292.579 249.632 292.138 245.808 289.786 240.218C286.404 232.422 285.228 226.685 289.492 223.008C293.461 219.477 299.636 220.213 305.223 225.067L310.075 220.801L313.31 224.479L308.605 228.597C311.692 232.275 313.016 235.364 313.751 237.865L308.458 239.483C307.87 237.717 306.841 234.923 303.459 231.098C299.489 226.538 296.549 226.097 294.638 227.715C292.138 229.921 292.873 233.304 295.667 239.924C299.048 247.867 299.195 253.163 294.932 256.987C291.109 260.37 284.346 260.517 278.171 255.222L273.466 259.488L269.937 255.516Z" fill="#60CC8C"/>
<path d="M309.59 220.066L269.879 255.299L273.683 259.591L313.395 224.358L309.59 220.066Z" fill="#60CC8C"/>
<path d="M243.768 202.12C241.122 205.356 241.563 210.063 244.797 212.711C248.032 215.359 252.737 214.917 255.383 211.681C258.03 208.445 257.588 203.738 254.354 201.09C251.266 198.443 246.415 198.884 243.768 202.12Z" fill="#4DA370"/>
<path d="M226.124 187.557C223.477 190.794 223.918 195.501 227.153 198.148C230.387 200.796 235.092 200.355 237.739 197.119C240.385 193.883 239.944 189.175 236.709 186.528C233.475 183.88 228.77 184.321 226.124 187.557Z" fill="#4DA370"/>
<path d="M343.893 284.347C341.247 287.583 341.688 292.29 344.922 294.938C348.157 297.586 352.862 297.145 355.508 293.908C358.155 290.672 357.714 285.965 354.479 283.317C351.391 280.67 346.54 281.111 343.893 284.347Z" fill="#043C5E"/>
<path d="M326.542 270.226C323.895 273.462 324.336 278.169 327.571 280.817C330.805 283.464 335.51 283.023 338.157 279.787C340.803 276.551 340.362 271.844 337.127 269.196C334.04 266.401 329.188 266.99 326.542 270.226Z" fill="#4DA370"/>
<path d="M624.269 509.994H186.575C172.02 509.994 160.258 498.226 160.258 483.663V257.87C160.258 243.307 172.02 231.539 186.575 231.539H624.269C638.824 231.539 650.586 243.307 650.586 257.87V483.663C650.586 498.226 638.824 509.994 624.269 509.994Z" fill="#2A3D4B"/>
<path d="M403.878 231.539H186.575C172.02 231.539 160.258 243.307 160.258 257.87V483.663C160.258 498.226 172.02 509.994 186.575 509.994H403.878V231.539Z" fill="#394C5A"/>
<path d="M617.652 236.099H404.172H193.779C179.665 236.099 168.344 247.426 168.344 261.4V478.515C168.344 492.489 179.812 503.815 193.779 503.815H404.172H617.505C631.619 503.815 642.94 492.489 642.94 478.515V261.4C643.087 247.426 631.619 236.099 617.652 236.099Z" stroke="#4DA370" stroke-miterlimit="10" stroke-dasharray="5.98 5.98"/>
<path d="M379.472 402.025V391.875C379.472 383.785 372.856 377.165 364.77 377.165H210.54C202.454 377.165 195.838 383.785 195.838 391.875V402.025H379.472Z" fill="#4DA370"/>
<path d="M379.472 362.603V352.453C379.472 344.363 372.856 337.743 364.77 337.743H210.54C202.454 337.743 195.838 344.363 195.838 352.453V362.603H379.472Z" fill="#B0D9C8"/>
<path d="M379.472 323.034V312.884C379.472 304.794 372.856 298.174 364.77 298.174H210.54C202.454 298.174 195.838 304.794 195.838 312.884V323.034H379.472Z" fill="#4DA370"/>
<path d="M630.592 281.552H416.965V327.005H630.592V281.552Z" fill="#4DA370"/>
<path d="M404.172 236.099V502.786" stroke="#4DA370" stroke-miterlimit="10" stroke-dasharray="6 6"/>
<path d="M630.444 281.258V221.831C630.444 209.034 622.357 198.443 612.36 198.443H434.9C424.903 198.443 416.816 208.886 416.816 221.831V281.258H630.444Z" fill="#394C5A"/>
<path d="M600.894 203.885H591.926V205.356H600.894V203.885Z" fill="#2A3D4B"/>
<path d="M582.957 203.885H573.988V205.356H582.957V203.885Z" fill="#2A3D4B"/>
<path d="M564.871 203.885H555.902V205.356H564.871V203.885Z" fill="#2A3D4B"/>
<path d="M616.773 210.799L617.95 209.769C615.744 207.268 613.098 205.356 610.304 204.474L609.863 205.945C612.363 206.68 614.715 208.445 616.773 210.799Z" fill="#2A3D4B"/>
<path d="M546.789 203.885H537.82V205.356H546.789V203.885Z" fill="#2A3D4B"/>
<path d="M623.388 272.285H621.918V278.316H623.388V272.285Z" fill="#2A3D4B"/>
<path d="M623.388 254.192H621.918V263.165H623.388V254.192Z" fill="#2A3D4B"/>
<path d="M623.388 236.099H621.918V245.072H623.388V236.099Z" fill="#2A3D4B"/>
<path d="M621.918 227.126H623.389V226.244C623.389 223.449 622.948 220.654 622.212 218.006L620.742 218.448C621.477 220.948 621.918 223.596 621.918 226.244V227.126Z" fill="#2A3D4B"/>
<path d="M425.345 271.108H423.875V278.316H425.345V271.108Z" fill="#2A3D4B"/>
<path d="M438.724 205.65L438.43 204.179C435.49 204.768 432.696 206.533 430.344 208.886L431.373 209.916C433.578 207.71 436.078 206.239 438.724 205.65Z" fill="#2A3D4B"/>
<path d="M425.345 234.923H423.875V243.895H425.345V234.923Z" fill="#2A3D4B"/>
<path d="M426.963 217.271L425.492 216.683C424.463 219.477 423.875 222.566 423.875 225.803H425.345C425.492 222.861 425.933 220.066 426.963 217.271Z" fill="#2A3D4B"/>
<path d="M425.345 253.016H423.875V261.988H425.345V253.016Z" fill="#2A3D4B"/>
<path d="M456.515 203.885H447.547V205.356H456.515V203.885Z" fill="#2A3D4B"/>
<path d="M510.765 203.885H501.797V205.356H510.765V203.885Z" fill="#2A3D4B"/>
<path d="M528.703 203.885H519.734V205.356H528.703V203.885Z" fill="#2A3D4B"/>
<path d="M492.683 203.885H483.715V205.356H492.683V203.885Z" fill="#2A3D4B"/>
<path d="M474.597 203.885H465.629V205.356H474.597V203.885Z" fill="#2A3D4B"/>
<path d="M294.198 387.315H212.158V400.848H294.198V387.315Z" fill="#B0D9C8"/>
<path d="M364.473 307.735H337.715V323.034H364.473V307.735Z" fill="#B0D9C8"/>
<path d="M318.898 315.679H223.332V323.034H318.898V315.679Z" fill="#B0D9C8"/>
<path d="M547.669 235.07H508.707C504.002 235.07 500.18 231.245 500.18 226.538C500.18 221.831 504.002 218.006 508.707 218.006H547.669C552.374 218.006 556.196 221.831 556.196 226.538C556.196 231.245 552.374 235.07 547.669 235.07Z" fill="#4DA370"/>
<path d="M519.148 272.579C519.148 303.028 543.849 327.741 574.283 327.741C604.717 327.741 629.417 303.028 629.417 272.579C629.417 242.13 604.717 217.418 574.283 217.418C543.849 217.418 519.148 242.13 519.148 272.579Z" fill="#FCBC00"/>
<path d="M570.164 314.796V305.088C562.96 304.941 555.462 302.587 551.051 299.939L554.726 292.437C559.284 294.938 565.165 296.85 572.075 296.85C580.897 296.85 586.925 293.32 586.925 287.436C586.925 281.846 582.073 278.316 572.81 275.227C560.019 271.108 552.227 266.401 552.227 257.575C552.227 249.044 559.578 242.572 571.193 241.101V230.804H578.986V240.806C586.484 240.954 591.63 242.719 595.305 244.337L591.63 252.28C588.983 251.103 584.425 249.338 576.486 249.338C566.782 249.338 563.254 252.28 563.254 256.252C563.254 261.547 567.812 264.195 578.839 267.872C591.777 272.138 598.246 277.434 598.246 286.554C598.246 294.644 591.336 302.881 578.544 304.646V314.649H570.164V314.796Z" fill="#FFD247"/>
<path d="M578.84 230.804H569.871V314.943H578.84V230.804Z" fill="#FFD247"/>
<path d="M574.281 329.947C542.671 329.947 516.941 304.205 516.941 272.579C516.941 240.954 542.671 215.212 574.281 215.212C605.891 215.212 631.621 240.954 631.621 272.579C631.621 304.205 605.891 329.947 574.281 329.947ZM574.281 219.625C545.023 219.625 521.352 243.454 521.352 272.579C521.352 301.852 545.17 325.534 574.281 325.534C603.392 325.534 627.21 301.705 627.21 272.579C627.357 243.307 603.539 219.625 574.281 219.625Z" fill="#F7A605"/>
<path d="M597.951 302.734H450.926C439.311 302.734 421.668 291.408 416.816 281.552V463.217C416.816 473.219 424.903 481.31 434.9 481.31H612.36C622.357 481.31 630.444 473.219 630.444 463.217V284.2C625.298 292.585 608.537 302.734 597.951 302.734Z" fill="#394C5A"/>
<path d="M601.037 309.648C602.948 309.648 605.154 309.354 607.506 308.765L607.212 307.294C605.007 307.883 602.948 308.177 601.184 308.177H598.391V309.648H601.037Z" fill="#2A3D4B"/>
<path d="M535.172 308.177H526.203V309.648H535.172V308.177Z" fill="#2A3D4B"/>
<path d="M553.254 308.177H544.285V309.648H553.254V308.177Z" fill="#2A3D4B"/>
<path d="M589.277 308.177H580.309V309.648H589.277V308.177Z" fill="#2A3D4B"/>
<path d="M624.27 301.557L623.535 300.234C621.035 301.852 618.389 303.175 615.742 304.499L616.33 305.823C618.977 304.646 621.623 303.175 624.27 301.557Z" fill="#2A3D4B"/>
<path d="M571.191 308.177H562.223V309.648H571.191V308.177Z" fill="#2A3D4B"/>
<path d="M445.191 307.147C442.545 306.412 439.751 305.382 436.811 304.058L436.223 305.382C439.163 306.706 442.104 307.883 444.75 308.618L445.191 307.147Z" fill="#2A3D4B"/>
<path d="M429.166 299.645C426.519 297.88 424.167 295.968 422.256 294.055L421.227 295.085C423.138 297.145 425.637 299.057 428.284 300.822L429.166 299.645Z" fill="#2A3D4B"/>
<path d="M517.086 308.177H508.117V309.648H517.086V308.177Z" fill="#2A3D4B"/>
<path d="M499.004 308.177H490.035V309.648H499.004V308.177Z" fill="#2A3D4B"/>
<path d="M480.918 308.177H471.949V309.648H480.918V308.177Z" fill="#2A3D4B"/>
<path d="M462.98 308.177H454.012V309.648H462.98V308.177Z" fill="#2A3D4B"/>
<path d="M546.197 350.099H510.029C504.589 350.099 500.031 345.539 500.031 340.097V336.861C500.031 331.418 504.589 326.858 510.029 326.858H546.197C551.637 326.858 556.195 331.418 556.195 336.861V340.097C556.195 345.686 551.784 350.099 546.197 350.099Z" fill="#2A3D4B"/>
<path d="M547.669 344.068H508.707C504.002 344.068 500.18 340.244 500.18 335.537C500.18 330.83 504.002 327.005 508.707 327.005H547.669C552.374 327.005 556.196 330.83 556.196 335.537C556.196 340.244 552.374 344.068 547.669 344.068Z" fill="#4DA370"/>
<path d="M459.722 261.068C484.382 259.952 503.468 239.046 502.353 214.374C501.237 189.702 480.342 170.606 455.682 171.722C431.022 172.838 411.936 193.744 413.051 218.416C414.166 243.088 435.062 262.184 459.722 261.068Z" fill="#FCBC00"/>
<path d="M454.457 250.515V242.572C448.576 242.424 442.548 240.512 439.02 238.453L441.96 232.422C445.636 234.481 450.34 235.952 456.074 235.952C463.279 235.952 468.13 233.01 468.13 228.303C468.13 223.743 464.161 220.948 456.663 218.448C446.371 215.064 439.902 211.387 439.902 204.032C439.902 197.119 445.93 191.97 455.192 190.646V182.262H461.514V190.352C467.542 190.499 471.806 191.823 474.747 193.294L471.659 199.766C469.601 198.737 465.925 197.413 459.456 197.413C451.664 197.413 448.723 199.766 448.723 203.003C448.723 207.268 452.399 209.475 461.22 212.417C471.659 215.947 476.952 220.213 476.952 227.568C476.952 234.187 471.365 240.806 460.926 242.13V250.221H454.457V250.515Z" fill="#FFD247"/>
<path d="M461.515 182.556H454.164V250.662H461.515V182.556Z" fill="#FFD247"/>
<path d="M457.69 262.871C432.108 262.871 411.23 241.983 411.23 216.388C411.23 190.794 432.108 169.906 457.69 169.906C483.273 169.906 504.15 190.794 504.15 216.388C504.15 241.983 483.273 262.871 457.69 262.871ZM457.69 173.436C434.019 173.436 414.759 192.706 414.759 216.388C414.759 240.071 434.019 259.341 457.69 259.341C481.361 259.341 500.622 240.071 500.622 216.388C500.622 192.706 481.361 173.436 457.69 173.436Z" fill="#F7A605"/>
<path d="M559.216 190.669C577.656 189.009 591.259 172.708 589.6 154.259C587.941 135.811 571.647 122.201 553.208 123.861C534.768 125.521 521.165 141.822 522.825 160.271C524.484 178.719 540.777 192.329 559.216 190.669Z" fill="#FCBC00"/>
<path d="M553.842 182.85V176.966C549.431 176.966 544.873 175.348 542.227 173.877L544.432 169.317C547.225 170.788 550.754 171.965 555.018 171.965C560.458 171.965 564.133 169.759 564.133 166.228C564.133 162.845 561.193 160.639 555.606 158.874C547.814 156.373 543.109 153.578 543.109 148.135C543.109 142.987 547.667 139.015 554.577 138.133V131.808H559.281V137.839C563.839 137.986 566.927 139.015 569.132 140.045L566.927 144.899C565.31 144.164 562.516 143.134 557.664 143.134C551.783 143.134 549.578 144.899 549.578 147.4C549.578 150.636 552.371 152.254 558.987 154.461C566.78 157.108 570.749 160.345 570.749 165.787C570.749 170.641 566.633 175.643 558.693 176.672V182.703H553.842V182.85Z" fill="#FFD247"/>
<path d="M558.987 131.808H553.547V182.85H558.987V131.808Z" fill="#FFD247"/>
<path d="M556.193 192.117C536.932 192.117 521.348 176.525 521.348 157.255C521.348 137.986 536.932 122.394 556.193 122.394C575.453 122.394 591.037 137.986 591.037 157.255C591.184 176.378 575.453 192.117 556.193 192.117ZM556.193 125.041C538.403 125.041 523.994 139.457 523.994 157.255C523.994 175.054 538.403 189.47 556.193 189.47C573.983 189.47 588.391 175.054 588.391 157.255C588.391 139.457 573.983 125.041 556.193 125.041Z" fill="#F7A605"/>
<path d="M98.9472 241.248L93.6543 251.692L104.828 249.191L143.349 236.982L98.9472 241.248Z" fill="#B0D9C8"/>
<path d="M93.6543 251.692L112.768 250.515L108.063 248.161L93.6543 251.692Z" fill="#63C1C5"/>
<path d="M98.948 241.248L95.5664 230.951L143.35 236.982L98.948 241.248Z" fill="url(#paint3_linear)"/>
<path d="M143.349 236.982L104.828 249.191L110.562 264.048L143.349 236.982Z" fill="url(#paint4_linear)"/>
<path d="M97.7724 262.43C97.6254 262.43 97.6254 262.283 97.4784 262.283C97.1843 261.841 97.1843 261.4 97.6254 260.959C98.8016 259.929 100.125 259.046 101.448 258.164C101.889 257.87 102.477 258.017 102.624 258.458C102.918 258.899 102.771 259.488 102.33 259.635C101.154 260.37 99.9778 261.253 98.8016 262.135C98.5075 262.43 98.0665 262.577 97.7724 262.43Z" fill="#63C1C5"/>
<path d="M110.563 360.984C107.917 359.366 105.564 357.307 103.506 354.806C103.212 354.365 103.212 353.924 103.653 353.483C104.094 353.041 104.535 353.188 104.976 353.63C106.888 355.983 109.093 357.895 111.592 359.366C112.033 359.661 112.18 360.102 111.886 360.543C111.592 361.132 111.004 361.279 110.563 360.984ZM100.712 350.688C100.565 350.541 100.418 350.541 100.271 350.394C98.8011 347.746 97.6249 344.804 96.8898 341.715C96.7428 341.274 97.0368 340.685 97.4779 340.685C97.919 340.538 98.5071 340.832 98.5071 341.274C99.2422 344.068 100.271 346.863 101.742 349.511C102.036 349.952 101.889 350.541 101.448 350.688C101.301 350.688 101.007 350.688 100.712 350.688ZM96.4487 336.861C96.1547 336.714 96.0077 336.419 96.0077 336.125V335.684C95.8606 332.889 96.0077 329.8 96.4487 326.858C96.5958 326.417 97.0368 325.975 97.4779 326.123C97.919 326.123 98.3601 326.711 98.213 327.152C97.772 330.094 97.6249 332.889 97.772 335.537V335.978C97.772 336.419 97.4779 336.861 96.8898 337.008C96.7428 337.008 96.5958 336.861 96.4487 336.861ZM98.066 322.445C97.6249 322.298 97.4779 321.857 97.6249 321.415C98.3601 318.621 99.3892 315.679 100.565 312.737C100.712 312.295 101.301 312.001 101.742 312.295C102.183 312.443 102.477 313.031 102.183 313.472C101.007 316.414 99.9773 319.209 99.2422 322.004C99.0952 322.445 98.6541 322.739 98.213 322.592C98.213 322.445 98.066 322.445 98.066 322.445ZM103.212 308.912C102.771 308.618 102.624 308.177 102.771 307.735C102.918 307.588 102.918 307.294 103.065 307.147C101.742 306.559 100.418 305.823 99.0952 304.941C98.6541 304.646 98.5071 304.058 98.8011 303.764C99.0952 303.323 99.6833 303.175 99.9773 303.47C101.154 304.205 102.477 304.941 103.653 305.529C104.682 303.617 105.711 301.705 106.887 299.645C107.182 299.204 107.623 299.057 108.064 299.351C108.505 299.645 108.652 300.086 108.358 300.528C107.182 302.587 106.152 304.352 105.27 306.117C106.152 306.412 107.035 306.706 107.77 307C108.211 307.147 108.505 307.588 108.358 308.177C108.211 308.618 107.77 308.912 107.182 308.765C106.152 308.471 105.27 308.177 104.241 307.735C104.094 308.03 103.947 308.177 103.947 308.471C104.241 308.912 103.8 309.059 103.212 308.912ZM95.1255 301.41C94.9785 301.41 94.9785 301.263 94.8315 301.263C93.5082 299.792 92.332 298.321 91.3029 296.703C90.7148 295.674 90.1267 294.644 89.6856 293.467C89.5386 293.026 89.6856 292.437 90.1267 292.29C90.5677 292.143 91.1558 292.29 91.3029 292.732C91.7439 293.761 92.185 294.791 92.7731 295.674C93.6553 297.145 94.8315 298.615 96.0077 299.939C96.3017 300.234 96.3017 300.822 96.0077 301.263C95.8606 301.557 95.4196 301.704 95.1255 301.41ZM112.916 309.648C112.621 309.501 112.327 309.206 112.474 308.765C112.474 308.324 112.916 307.883 113.504 307.883C116.444 308.177 119.385 307.883 122.178 307.147C122.619 307 123.207 307.294 123.207 307.735C123.354 308.177 123.06 308.765 122.619 308.765C119.679 309.501 116.444 309.795 113.357 309.501C113.063 309.795 113.063 309.795 112.916 309.648ZM88.6564 288.76C88.3624 288.613 88.2153 288.466 88.2153 288.172C87.6272 285.083 87.6272 281.994 88.0683 278.905C88.0683 278.463 88.6564 278.022 89.0975 278.169C89.5386 278.169 89.9796 278.757 89.8326 279.199C89.3915 282.141 89.3915 285.083 89.9796 288.025C90.1267 288.466 89.6856 288.907 89.2445 289.054C89.0975 288.76 88.8034 288.76 88.6564 288.76ZM127.03 307C126.883 306.853 126.736 306.853 126.589 306.559C126.295 306.117 126.589 305.529 127.03 305.382C127.765 305.088 128.353 304.646 128.941 304.205C130.706 303.028 132.323 301.557 133.499 299.792C133.793 299.351 134.381 299.351 134.822 299.645C135.263 299.939 135.263 300.528 134.969 300.969C133.646 302.881 131.882 304.499 129.823 305.823C129.088 306.264 128.5 306.706 127.765 307C127.618 307.147 127.324 307.147 127.03 307ZM110.416 296.262C109.975 295.968 109.828 295.379 110.122 294.938C112.18 291.849 113.945 289.495 116.003 287.73C116.444 287.436 116.885 287.436 117.326 287.73C117.62 288.172 117.62 288.613 117.326 289.054C115.415 290.672 113.651 292.879 111.739 295.968C111.298 296.262 110.857 296.409 110.416 296.262ZM89.8326 274.345C89.3915 274.197 89.2445 273.609 89.3915 273.315C89.8326 271.991 90.4207 270.667 91.0088 269.343C91.7439 267.872 92.6261 266.401 93.6553 265.077C93.9493 264.636 94.5374 264.636 94.9785 264.93C95.4196 265.225 95.4196 265.813 95.1255 266.254C94.2434 267.578 93.3612 268.902 92.6261 270.373C92.038 271.55 91.4499 272.874 91.0088 274.05C91.0088 274.345 90.4207 274.639 89.8326 274.345C89.9796 274.345 89.9796 274.345 89.8326 274.345ZM136.292 296.409C135.998 296.262 135.704 295.821 135.851 295.379C136.44 293.173 136.145 291.261 135.263 289.495C134.969 288.907 134.528 288.319 134.087 287.73C133.793 287.436 133.793 286.848 134.087 286.406C134.381 286.112 134.969 286.112 135.41 286.406C135.998 286.995 136.587 287.73 136.881 288.466C138.057 290.672 138.204 293.026 137.616 295.674C137.469 296.115 137.028 296.409 136.587 296.262C136.44 296.409 136.292 296.409 136.292 296.409ZM120.561 286.112C120.414 285.965 120.267 285.818 120.12 285.671C119.973 285.23 120.12 284.641 120.561 284.494C123.501 283.17 126.883 282.876 129.97 283.612C130.411 283.759 130.706 284.2 130.559 284.641C130.411 285.083 129.97 285.377 129.529 285.23C126.883 284.494 123.795 284.788 121.296 285.965C121.149 286.259 120.855 286.259 120.561 286.112Z" fill="#63C1C5"/>
<path d="M115.709 363.191C115.268 363.044 115.121 362.603 115.268 362.161C115.415 361.72 115.856 361.426 116.444 361.573C117.767 362.014 119.238 362.161 120.708 362.308C121.149 362.308 121.59 362.75 121.59 363.191C121.59 363.632 121.149 364.074 120.708 364.074C119.091 363.926 117.62 363.779 116.15 363.338C115.856 363.338 115.709 363.191 115.709 363.191Z" fill="#63C1C5"/>
<path d="M436.371 41.6374L467.54 24.4271L483.419 21.3381L495.475 23.1032L436.371 41.6374Z" fill="url(#paint5_linear)"/>
<path d="M436.371 41.6374L494.74 26.6336L495.475 23.1032" fill="#B0D9C8"/>
<path d="M496.359 36.6362V36.7833L493.859 45.9033L436.52 41.6375L496.359 36.6362Z" fill="#63C1C5"/>
<path d="M507.531 31.3407L499.151 24.5742L436.812 41.4903L490.477 40.0194L507.531 31.3407Z" fill="url(#paint6_linear)"/>
<path d="M638.68 146.959C636.769 146.223 634.858 145.488 633.093 144.458C632.652 144.311 632.211 144.458 631.917 144.752C631.77 145.194 631.917 145.635 632.211 145.929C634.122 146.959 636.034 147.694 638.092 148.43C638.827 148.724 639.562 148.871 640.298 149.165C640.592 149.312 640.886 149.165 641.033 149.018C641.18 148.871 641.327 148.724 641.327 148.577C641.474 148.136 641.18 147.694 640.739 147.547C640.003 147.4 639.268 147.106 638.68 146.959Z" fill="#63C1C5"/>
<path d="M524.588 25.0155C521.942 25.3097 519.148 25.751 516.208 26.3394C515.767 26.4865 515.473 26.9278 515.473 27.3691C515.62 27.8103 516.061 28.1045 516.502 28.1045C519.442 27.5162 522.236 27.0749 524.882 26.7807C525.029 26.7807 525.176 26.6336 525.323 26.6336C525.617 26.4865 525.764 26.1923 525.617 25.8981C525.47 25.3097 525.029 25.0155 524.588 25.0155Z" fill="#63C1C5"/>
<path d="M538.704 25.751C538.851 25.6039 538.998 25.3097 538.998 25.0155C538.998 24.5742 538.557 24.1329 538.116 24.1329C535.469 24.1329 532.529 24.28 529.588 24.4271C529.147 24.4271 528.706 24.8684 528.853 25.3097C528.853 25.751 529.294 26.1923 529.735 26.0452C532.676 25.751 535.469 25.751 538.116 25.751C538.41 25.8981 538.557 25.751 538.704 25.751Z" fill="#63C1C5"/>
<path d="M622.362 136.662C622.068 136.368 621.479 136.368 621.185 136.662C620.891 136.956 620.891 137.545 621.185 137.839C623.244 139.898 625.449 141.663 627.802 143.281C628.096 143.428 628.537 143.428 628.831 143.281C628.978 143.281 628.978 143.134 628.978 143.134C629.272 142.693 629.125 142.252 628.684 141.957C626.478 140.339 624.273 138.574 622.362 136.662Z" fill="#63C1C5"/>
<path d="M618.831 134.161C619.125 133.867 619.272 133.279 618.978 132.985C618.537 132.396 618.096 131.808 617.655 131.219C616.478 129.601 615.302 127.836 614.42 126.071C614.126 125.63 613.685 125.483 613.244 125.777C612.803 126.071 612.656 126.512 612.95 126.954C613.979 128.719 615.008 130.484 616.331 132.249C616.773 132.837 617.214 133.426 617.802 134.161C617.949 134.456 618.39 134.456 618.831 134.161Z" fill="#63C1C5"/>
<path d="M611.627 122.688C611.627 122.688 611.774 122.688 611.774 122.541C612.068 122.246 612.215 121.952 612.068 121.511C611.038 119.01 610.156 116.51 609.421 113.568C609.274 113.126 608.833 112.832 608.392 112.979C607.951 113.126 607.657 113.568 607.804 114.009C608.539 116.951 609.421 119.599 610.45 122.099C610.744 122.688 611.185 122.835 611.627 122.688Z" fill="#63C1C5"/>
<path d="M589.279 50.4632C590.014 51.3458 590.602 52.2284 591.338 53.111C592.367 54.4349 593.249 55.9058 594.131 57.2297C594.425 57.671 594.866 57.8181 595.307 57.5239C595.601 57.2297 595.748 56.7884 595.454 56.3471C594.572 54.8761 593.543 53.4052 592.514 52.0813C591.779 51.1987 591.191 50.3161 590.455 49.4336C590.161 49.1394 589.72 48.9923 589.279 49.2865C588.985 49.5807 588.985 50.0219 589.279 50.4632Z" fill="#63C1C5"/>
<path d="M596.63 61.6426C597.953 64.1432 598.982 66.6439 600.011 69.2916C600.158 69.7329 600.599 70.0271 601.04 69.7329C601.187 69.7329 601.187 69.7329 601.187 69.5858C601.481 69.4387 601.628 68.9974 601.481 68.5562C600.452 65.9084 599.423 63.2607 598.1 60.76C597.953 60.3187 597.365 60.1716 596.924 60.4658C596.483 60.6129 596.335 61.2013 596.63 61.6426Z" fill="#63C1C5"/>
<path d="M579.724 41.049C581.929 42.8142 583.987 44.7265 585.899 46.7858C586.193 47.08 586.634 47.08 587.075 46.9329C587.075 46.9329 587.075 46.9329 587.222 46.9329C587.516 46.6387 587.516 46.0503 587.222 45.7561C585.311 43.6968 583.105 41.7845 580.9 39.8723C580.606 39.5781 580.018 39.5781 579.724 40.0194C579.283 40.1665 579.43 40.7549 579.724 41.049Z" fill="#63C1C5"/>
<path d="M564.137 31.3407C564.431 31.4878 564.725 31.4878 565.019 31.1936C565.166 31.0465 565.166 31.0465 565.314 30.8994C565.461 30.4581 565.314 30.0168 564.872 29.7226C562.226 28.5458 559.58 27.5161 556.786 26.7807C556.345 26.6336 555.904 26.9278 555.757 27.3691C555.61 27.8103 555.904 28.2516 556.345 28.3987C558.992 29.2813 561.638 30.1639 564.137 31.3407Z" fill="#63C1C5"/>
<path d="M605.892 96.3574C606.039 96.3574 606.186 96.2103 606.333 96.2103C606.627 96.0632 606.774 95.769 606.627 95.4749L606.48 94.4452C606.186 91.9445 605.892 89.591 605.598 87.0903C605.598 86.6491 605.157 86.3549 604.716 86.3549C604.275 86.3549 603.98 86.7961 603.98 87.2374C604.275 89.7381 604.569 92.0916 604.863 94.5923L605.01 95.622C605.01 96.0633 605.451 96.3574 605.892 96.3574Z" fill="#63C1C5"/>
<path d="M575.751 37.96C576.045 38.1071 576.486 38.1071 576.78 37.96L576.927 37.8129C577.221 37.3717 577.074 36.9304 576.78 36.6362C574.428 35.0181 571.929 33.4 569.429 32.0762C568.988 31.9291 568.547 32.0762 568.253 32.3704C568.106 32.8117 568.253 33.2529 568.547 33.5471C571.046 34.871 573.546 36.342 575.751 37.96Z" fill="#63C1C5"/>
<path d="M606.333 99.7407C605.892 99.7407 605.598 100.182 605.598 100.623C606.039 103.859 606.48 106.654 606.921 109.008C607.068 109.449 607.509 109.743 607.95 109.743C608.097 109.743 608.244 109.596 608.244 109.596C608.538 109.449 608.685 109.155 608.538 108.714C608.097 106.36 607.656 103.712 607.215 100.329C607.215 100.035 606.774 99.5936 606.333 99.7407Z" fill="#63C1C5"/>
<path d="M645.59 148.724C645.149 148.577 644.708 148.871 644.561 149.459C644.414 149.901 644.708 150.342 645.296 150.489C647.942 151.077 650.736 151.372 653.824 151.519C653.971 151.519 654.265 151.519 654.412 151.372C654.559 151.225 654.706 151.077 654.706 150.783C654.706 150.342 654.412 149.901 653.971 149.901C650.883 149.606 648.09 149.312 645.59 148.724Z" fill="#63C1C5"/>
<path d="M602.072 72.9691C601.631 73.1161 601.337 73.5574 601.484 73.9987C602.219 76.4994 602.66 79.1471 603.248 82.2361C603.395 82.6774 603.689 82.9716 604.277 82.9716C604.424 82.9716 604.571 82.8245 604.571 82.8245C604.865 82.6774 605.012 82.3833 604.865 81.942C604.277 78.8529 603.836 76.0581 603.101 73.5574C602.954 73.1161 602.513 72.822 602.072 72.9691Z" fill="#63C1C5"/>
<path d="M546.346 24.7213C545.317 24.5742 544.435 24.5742 543.406 24.4271C542.965 24.4271 542.523 24.7213 542.523 25.1626C542.523 25.6039 542.817 26.0452 543.259 26.0452C544.288 26.0452 545.17 26.1923 546.199 26.3394C547.963 26.4865 549.728 26.7807 551.639 27.222C551.933 27.222 552.08 27.222 552.374 27.0749C552.521 26.9278 552.668 26.7807 552.668 26.6336C552.815 26.1923 552.521 25.751 552.08 25.6039C550.022 25.1626 548.11 24.8684 546.346 24.7213Z" fill="#63C1C5"/>
<path d="M636.369 481.508H564.473V511.344H636.369V481.508Z" fill="#F7A605"/>
<path d="M737.285 481.507H678.957V511.343H737.285V481.507Z" fill="#FFD247"/>
<path d="M692.321 481.507H636.367V511.343H692.321V481.507Z" fill="#FCBC00"/>
<path d="M738.448 512.485H563.309V480.32H738.471V512.485H738.448ZM565.637 510.178H736.142V482.672H565.637V510.178Z" fill="#F49742"/>
<path d="M655.892 451.672H583.996V481.508H655.892V451.672Z" fill="#F7A605"/>
<path d="M756.808 451.672H698.48V481.507H756.808V451.672Z" fill="#FFD247"/>
<path d="M711.867 451.672H655.891V481.507H711.867V451.672Z" fill="#FCBC00"/>
<path d="M757.972 482.672H582.832V450.507H757.972V482.672ZM585.161 480.343H755.665V452.836H585.161V480.343Z" fill="#F49742"/>
<path d="M622.06 421.836H550.164V451.672H622.06V421.836Z" fill="#F7A605"/>
<path d="M722.976 421.836H664.648V451.672H722.976V421.836Z" fill="#FFD247"/>
<path d="M678.013 421.836H622.059V451.672H678.013V421.836Z" fill="#FCBC00"/>
<path d="M724.162 452.837H549V420.671H724.162V452.837ZM551.329 450.507H721.833V423.001H551.329V450.507Z" fill="#F49742"/>
<path d="M634.42 392.001H562.523V421.836H634.42V392.001Z" fill="#F7A605"/>
<path d="M735.335 392H677.008V421.836H735.335V392Z" fill="#FFD247"/>
<path d="M690.396 392H634.441V421.836H690.396V392Z" fill="#FCBC00"/>
<path d="M736.521 423.001H561.359V390.836H736.521V423.001ZM563.688 420.671H734.193V393.165H563.688V420.671Z" fill="#F49742"/>
<path d="M649.85 362.165H577.953V392.001H649.85V362.165Z" fill="#F7A605"/>
<path d="M750.765 362.165H692.438V392H750.765V362.165Z" fill="#FFD247"/>
<path d="M705.824 362.165H649.848V392H705.824V362.165Z" fill="#FCBC00"/>
<path d="M751.929 393.165H576.789V361H751.929V393.165ZM579.095 390.836H749.6V363.33H579.095V390.836Z" fill="#F49742"/>
</g>
<defs>
<linearGradient id="paint0_linear" x1="481.773" y1="332.572" x2="433.052" y2="99.7194" gradientUnits="userSpaceOnUse">
<stop stop-color="#E0F0EB"/>
<stop offset="1" stop-color="#C0E4EF"/>
</linearGradient>
<linearGradient id="paint1_linear" x1="371.43" y1="254.212" x2="283.9" y2="33.0209" gradientUnits="userSpaceOnUse">
<stop stop-color="#E0F0EB"/>
<stop offset="1" stop-color="#C0E4EF"/>
</linearGradient>
<linearGradient id="paint2_linear" x1="382.849" y1="311.34" x2="199.044" y2="160.416" gradientUnits="userSpaceOnUse">
<stop stop-color="#E0F0EB"/>
<stop offset="1" stop-color="#C0E4EF"/>
</linearGradient>
<linearGradient id="paint3_linear" x1="143.345" y1="236.074" x2="95.6065" y2="236.074" gradientUnits="userSpaceOnUse">
<stop offset="6.3e-07" stop-color="#F1F8F8"/>
<stop offset="1" stop-color="#C0E4EF"/>
</linearGradient>
<linearGradient id="paint4_linear" x1="143.344" y1="250.52" x2="104.846" y2="250.52" gradientUnits="userSpaceOnUse">
<stop offset="6.3e-07" stop-color="#F1F8F8"/>
<stop offset="1" stop-color="#C0E4EF"/>
</linearGradient>
<linearGradient id="paint5_linear" x1="495.466" y1="31.4627" x2="436.441" y2="31.4627" gradientUnits="userSpaceOnUse">
<stop offset="6.3e-07" stop-color="#F1F8F8"/>
<stop offset="1" stop-color="#C0E4EF"/>
</linearGradient>
<linearGradient id="paint6_linear" x1="507.521" y1="33.0764" x2="436.82" y2="33.0764" gradientUnits="userSpaceOnUse">
<stop offset="6.3e-07" stop-color="#F1F8F8"/>
<stop offset="1" stop-color="#C0E4EF"/>
</linearGradient>
<clipPath id="clip0">
<rect width="994" height="510" fill="white"/>
</clipPath>
</defs>
</svg>
