<svg width="145" height="25" viewBox="0 0 145 25" fill="none" xmlns="http://www.w3.org/2000/svg">
<path fill-rule="evenodd" clip-rule="evenodd" d="M12.5461 20H4.88308C4.39522 20 4 19.6045 4 19.1169V4.88307C4 4.39528 4.39529 4 4.88308 4H19.117C19.6047 4 20 4.39528 20 4.88307V19.1169C20 19.6046 19.6046 20 19.117 20H15.0398V13.8039H17.1195L17.4309 11.3892H15.0398V9.84755C15.0398 9.14843 15.2339 8.672 16.2364 8.672L17.5151 8.67144V6.5117C17.294 6.48227 16.5349 6.41652 15.6519 6.41652C13.8083 6.41652 12.5461 7.54184 12.5461 9.6084V11.3892H10.461V13.8039H12.5461V20Z" fill="white"/>
<path fill-rule="evenodd" clip-rule="evenodd" d="M52 4C49.8273 4 49.5549 4.00921 48.7016 4.04814C47.8501 4.08698 47.2686 4.22223 46.7597 4.42001C46.2336 4.62442 45.7875 4.89797 45.3427 5.34271C44.898 5.78748 44.6244 6.23363 44.42 6.7597C44.2222 7.26855 44.087 7.8501 44.0481 8.70161C44.0092 9.5549 44 9.82733 44 12C44 14.1727 44.0092 14.4451 44.0481 15.2984C44.087 16.1499 44.2222 16.7314 44.42 17.2403C44.6244 17.7664 44.898 18.2125 45.3427 18.6573C45.7875 19.102 46.2336 19.3756 46.7597 19.58C47.2686 19.7778 47.8501 19.913 48.7016 19.9519C49.5549 19.9908 49.8273 20 52 20C54.1727 20 54.4451 19.9908 55.2984 19.9519C56.1499 19.913 56.7314 19.7778 57.2403 19.58C57.7664 19.3756 58.2125 19.102 58.6573 18.6573C59.102 18.2125 59.3756 17.7664 59.58 17.2403C59.7778 16.7314 59.913 16.1499 59.9519 15.2984C59.9908 14.4451 60 14.1727 60 12C60 9.82733 59.9908 9.5549 59.9519 8.70161C59.913 7.8501 59.7778 7.26855 59.58 6.7597C59.3756 6.23363 59.102 5.78748 58.6573 5.34271C58.2125 4.89797 57.7664 4.62442 57.2403 4.42001C56.7314 4.22223 56.1499 4.08698 55.2984 4.04814C54.4451 4.00921 54.1727 4 52 4ZM52 5.44144C54.1361 5.44144 54.3891 5.4496 55.2327 5.48809C56.0127 5.52366 56.4363 5.65398 56.7182 5.76354C57.0916 5.90867 57.3581 6.08202 57.638 6.36198C57.918 6.64191 58.0913 6.90841 58.2365 7.28183C58.346 7.56373 58.4763 7.98732 58.5119 8.76731C58.5504 9.61088 58.5586 9.86391 58.5586 12C58.5586 14.1361 58.5504 14.3891 58.5119 15.2327C58.4763 16.0127 58.346 16.4363 58.2365 16.7182C58.0913 17.0916 57.918 17.3581 57.638 17.638C57.3581 17.918 57.0916 18.0913 56.7182 18.2365C56.4363 18.346 56.0127 18.4763 55.2327 18.5119C54.3892 18.5504 54.1362 18.5586 52 18.5586C49.8638 18.5586 49.6108 18.5504 48.7673 18.5119C47.9873 18.4763 47.5637 18.346 47.2818 18.2365C46.9084 18.0913 46.6419 17.918 46.362 17.638C46.0821 17.3581 45.9087 17.0916 45.7635 16.7182C45.654 16.4363 45.5237 16.0127 45.4881 15.2327C45.4496 14.3891 45.4414 14.1361 45.4414 12C45.4414 9.86391 45.4496 9.61088 45.4881 8.76731C45.5237 7.98732 45.654 7.56373 45.7635 7.28183C45.9087 6.90841 46.082 6.64191 46.362 6.36198C46.6419 6.08202 46.9084 5.90867 47.2818 5.76354C47.5637 5.65398 47.9873 5.52366 48.7673 5.48809C49.6109 5.4496 49.8639 5.44144 52 5.44144ZM47.8919 12C47.8919 9.73114 49.7311 7.89189 52 7.89189C54.2689 7.89189 56.1081 9.73114 56.1081 12C56.1081 14.2689 54.2689 16.1081 52 16.1081C49.7311 16.1081 47.8919 14.2689 47.8919 12ZM52 14.6667C50.5272 14.6667 49.3333 13.4728 49.3333 12C49.3333 10.5272 50.5272 9.33333 52 9.33333C53.4728 9.33333 54.6667 10.5272 54.6667 12C54.6667 13.4728 53.4728 14.6667 52 14.6667ZM56.2704 8.68957C56.8006 8.68957 57.2304 8.25979 57.2304 7.72959C57.2304 7.19939 56.8006 6.76957 56.2704 6.76957C55.7402 6.76957 55.3104 7.19939 55.3104 7.72959C55.3104 8.25979 55.7402 8.68957 56.2704 8.68957Z" fill="white"/>
<path fill-rule="evenodd" clip-rule="evenodd" d="M101 6.91168C100.412 7.17941 99.7791 7.36046 99.1152 7.44135C99.7932 7.02532 100.313 6.36563 100.559 5.57979C99.9238 5.96501 99.2222 6.24525 98.4728 6.39549C97.8755 5.74158 97.0218 5.33325 96.0771 5.33325C94.2655 5.33325 92.7957 6.84041 92.7957 8.69909C92.7957 8.96296 92.8239 9.21913 92.8803 9.46567C90.1521 9.32507 87.7338 7.98644 86.1138 5.94767C85.8311 6.44653 85.6696 7.02532 85.6696 7.64167C85.6696 8.80888 86.249 9.83933 87.13 10.4432C86.5928 10.4268 86.0856 10.2737 85.6424 10.0233V10.0647C85.6424 11.6961 86.774 13.0569 88.2766 13.365C88.0015 13.444 87.7113 13.4835 87.4117 13.4835C87.2004 13.4835 86.9938 13.4633 86.7937 13.4238C87.2117 14.7605 88.4231 15.7341 89.86 15.7601C88.7368 16.6635 87.3206 17.2018 85.7832 17.2018C85.5184 17.2018 85.2564 17.1864 85 17.1556C86.4528 18.109 88.179 18.6666 90.0319 18.6666C96.0705 18.6666 99.3715 13.5384 99.3715 9.09008C99.3715 8.9437 99.3687 8.79732 99.3631 8.65383C100.005 8.17904 100.561 7.58677 101 6.91168Z" fill="white"/>
<path fill-rule="evenodd" clip-rule="evenodd" d="M130.348 14.0899L130.347 9.5625L134.67 11.834L130.348 14.0899ZM139.84 8.77797C139.84 8.77797 139.684 7.66765 139.204 7.17871C138.596 6.53668 137.913 6.53366 137.601 6.4964C135.362 6.33325 132.003 6.33325 132.003 6.33325H131.997C131.997 6.33325 128.638 6.33325 126.399 6.4964C126.086 6.53366 125.405 6.53668 124.795 7.17871C124.316 7.66765 124.16 8.77797 124.16 8.77797C124.16 8.77797 124 10.0822 124 11.3858V12.6085C124 13.9126 124.16 15.2163 124.16 15.2163C124.16 15.2163 124.316 16.3266 124.795 16.8156C125.405 17.4576 126.204 17.4375 126.56 17.5044C127.84 17.6283 132 17.6666 132 17.6666C132 17.6666 135.362 17.6615 137.601 17.4984C137.913 17.4606 138.596 17.4576 139.204 16.8156C139.684 16.3266 139.84 15.2163 139.84 15.2163C139.84 15.2163 140 13.9126 140 12.6085V11.3858C140 10.0822 139.84 8.77797 139.84 8.77797Z" fill="white"/>
</svg>
